<?xml version="1.0" standalone="no"?><!-- Generator: Gravit.io --><svg xmlns="http://www.w3.org/2000/svg" xmlns:xlink="http://www.w3.org/1999/xlink" style="isolation:isolate" viewBox="0 0 16 16" width="16" height="16"><path d=" M 8.8 4 L 7.2 4 L 7.2 7.2 L 4 7.2 L 4 8.8 L 7.2 8.8 L 7.2 12 L 8.8 12 L 8.8 8.8 L 12 8.8 L 12 7.2 L 8.8 7.2 L 8.8 4 Z  M 8 0 C 3.584 0 0 3.584 0 8 C 0 12.416 3.584 16 8 16 C 12.416 16 16 12.416 16 8 C 16 3.584 12.416 0 8 0 Z  M 8 14.4 C 4.472 14.4 1.6 11.528 1.6 8 C 1.6 4.472 4.472 1.6 8 1.6 C 11.528 1.6 14.4 4.472 14.4 8 C 14.4 11.528 11.528 14.4 8 14.4 Z " fill="rgb(0,0,0)"/></svg>