<?xml version="1.0" standalone="no"?><!-- Generator: Gravit.io --><svg xmlns="http://www.w3.org/2000/svg" xmlns:xlink="http://www.w3.org/1999/xlink" style="isolation:isolate" viewBox="0 0 16 16" width="16" height="16"><defs><clipPath id="_clipPath_APeGe1uaGIkG0ly9sj3v9NArrNUrkYqt"><rect width="16" height="16"/></clipPath></defs><g clip-path="url(#_clipPath_APeGe1uaGIkG0ly9sj3v9NArrNUrkYqt)"><path d=" M 14.676 6.338 L 14.676 1.324 L 1.324 1.324 L 1.324 1.324 L 1.324 5.293 C 1.342 5.284 1.36 5.275 1.379 5.267 C 1.437 5.242 1.497 5.221 1.559 5.204 C 1.62 5.188 1.682 5.176 1.745 5.17 C 1.808 5.163 1.871 5.161 1.934 5.164 C 1.999 5.167 2.063 5.174 2.127 5.187 C 2.191 5.2 2.253 5.217 2.315 5.238 C 2.476 5.294 2.63 5.371 2.771 5.466 C 2.897 5.553 3.012 5.653 3.116 5.765 C 3.204 5.861 3.285 5.964 3.358 6.073 C 3.418 6.162 3.475 6.252 3.531 6.345 C 3.56 6.392 3.59 6.439 3.62 6.486 C 3.644 6.524 3.669 6.561 3.696 6.597 C 3.716 6.624 3.737 6.649 3.759 6.673 C 3.766 6.681 3.774 6.688 3.782 6.696 C 3.803 6.695 3.824 6.694 3.845 6.691 C 3.887 6.686 3.929 6.68 3.971 6.673 C 4.033 6.664 4.095 6.655 4.157 6.648 C 4.236 6.638 4.315 6.633 4.394 6.633 C 4.494 6.632 4.594 6.641 4.693 6.66 C 4.806 6.682 4.916 6.717 5.02 6.766 C 5.133 6.819 5.239 6.885 5.336 6.964 C 5.438 7.048 5.532 7.142 5.615 7.246 C 5.677 7.323 5.732 7.406 5.778 7.494 C 5.823 7.577 5.862 7.662 5.896 7.749 C 5.897 7.75 5.897 7.751 5.898 7.752 C 5.948 7.616 6 7.48 6.056 7.345 C 6.137 7.147 6.226 6.952 6.322 6.76 C 6.408 6.585 6.502 6.414 6.604 6.247 C 6.651 6.171 6.7 6.096 6.752 6.022 C 6.8 5.953 6.851 5.885 6.904 5.82 C 6.956 5.757 7.01 5.697 7.067 5.64 C 7.125 5.582 7.186 5.529 7.252 5.481 C 7.325 5.427 7.404 5.382 7.487 5.347 C 7.593 5.303 7.706 5.279 7.82 5.278 C 8.005 5.277 8.184 5.339 8.329 5.455 C 8.392 5.505 8.448 5.564 8.495 5.629 C 8.536 5.686 8.571 5.746 8.6 5.81 C 8.674 5.97 8.736 6.135 8.786 6.304 C 8.808 6.378 8.829 6.452 8.848 6.526 C 8.865 6.593 8.882 6.66 8.898 6.727 C 8.911 6.783 8.925 6.838 8.939 6.894 C 8.951 6.941 8.964 6.987 8.978 7.034 C 8.99 7.072 9.003 7.109 9.017 7.145 C 9.028 7.173 9.04 7.201 9.054 7.228 C 9.072 7.262 9.095 7.294 9.123 7.322 C 9.136 7.334 9.15 7.345 9.165 7.355 C 9.168 7.357 9.171 7.359 9.175 7.361 C 9.185 7.354 9.195 7.346 9.205 7.338 C 9.238 7.311 9.27 7.282 9.3 7.251 C 9.339 7.211 9.377 7.17 9.414 7.127 C 9.457 7.077 9.5 7.026 9.541 6.973 C 9.637 6.85 9.731 6.726 9.824 6.6 C 9.886 6.516 9.949 6.433 10.011 6.349 C 10.077 6.263 10.143 6.177 10.211 6.093 C 10.281 6.006 10.353 5.921 10.427 5.839 C 10.503 5.754 10.582 5.673 10.664 5.595 C 10.748 5.515 10.837 5.44 10.93 5.371 C 11.027 5.299 11.128 5.234 11.235 5.179 C 11.348 5.12 11.467 5.074 11.59 5.041 C 11.721 5.006 11.856 4.988 11.992 4.988 C 12.117 4.988 12.241 5.003 12.362 5.033 C 12.486 5.064 12.606 5.107 12.72 5.164 C 12.848 5.226 12.977 5.287 13.107 5.347 C 13.264 5.419 13.42 5.494 13.575 5.571 C 13.736 5.651 13.894 5.739 14.046 5.834 C 14.209 5.936 14.363 6.051 14.507 6.177 C 14.565 6.229 14.622 6.282 14.676 6.338 Z  M 14.676 9.654 L 14.676 14.676 L 1.324 14.676 L 1.324 7.35 L 1.369 7.229 C 1.403 7.137 1.44 7.047 1.48 6.957 C 1.51 6.891 1.542 6.826 1.577 6.762 C 1.612 6.697 1.652 6.633 1.694 6.572 C 1.719 6.536 1.747 6.503 1.777 6.471 C 1.792 6.455 1.809 6.44 1.826 6.425 C 1.835 6.418 1.844 6.411 1.854 6.405 C 1.86 6.402 1.866 6.398 1.872 6.396 C 1.874 6.395 1.875 6.395 1.876 6.394 C 1.876 6.394 1.877 6.394 1.877 6.394 C 1.877 6.394 1.878 6.394 1.879 6.394 C 1.881 6.394 1.884 6.395 1.886 6.395 C 1.895 6.397 1.904 6.399 1.912 6.402 C 1.971 6.422 2.026 6.45 2.078 6.484 C 2.125 6.517 2.168 6.555 2.207 6.597 C 2.254 6.648 2.297 6.704 2.336 6.761 C 2.385 6.834 2.433 6.908 2.478 6.983 C 2.512 7.039 2.546 7.094 2.582 7.149 C 2.621 7.211 2.662 7.27 2.705 7.329 C 2.753 7.394 2.805 7.457 2.861 7.516 C 2.923 7.582 2.991 7.643 3.064 7.698 C 3.175 7.783 3.301 7.845 3.436 7.883 C 3.549 7.914 3.665 7.929 3.782 7.928 C 3.853 7.927 3.924 7.922 3.994 7.914 C 4.051 7.907 4.107 7.899 4.164 7.89 C 4.21 7.883 4.256 7.876 4.303 7.871 C 4.335 7.867 4.368 7.865 4.4 7.864 C 4.421 7.864 4.441 7.866 4.461 7.87 C 4.475 7.873 4.488 7.877 4.5 7.883 C 4.521 7.892 4.539 7.904 4.557 7.918 C 4.593 7.948 4.625 7.98 4.654 8.016 C 4.668 8.034 4.681 8.054 4.692 8.074 C 4.714 8.115 4.734 8.157 4.751 8.2 C 4.773 8.258 4.794 8.316 4.812 8.376 C 4.833 8.444 4.852 8.514 4.87 8.584 C 4.908 8.74 4.942 8.897 4.971 9.056 C 5 9.216 5.028 9.376 5.054 9.537 C 5.07 9.635 5.086 9.733 5.103 9.83 C 5.118 9.917 5.135 10.004 5.155 10.09 C 5.164 10.131 5.174 10.171 5.186 10.212 C 5.199 10.255 5.213 10.298 5.231 10.34 C 5.257 10.406 5.293 10.468 5.337 10.524 C 5.457 10.68 5.642 10.774 5.839 10.778 C 6.01 10.78 6.175 10.714 6.297 10.596 C 6.35 10.545 6.395 10.486 6.431 10.422 C 6.453 10.382 6.472 10.341 6.488 10.299 C 6.504 10.261 6.517 10.222 6.529 10.183 C 6.555 10.098 6.577 10.012 6.596 9.925 C 6.62 9.814 6.643 9.703 6.663 9.592 C 6.701 9.387 6.747 9.184 6.8 8.984 C 6.854 8.781 6.915 8.58 6.982 8.382 C 7.047 8.191 7.118 8.001 7.195 7.814 C 7.265 7.642 7.342 7.473 7.425 7.307 C 7.495 7.165 7.572 7.026 7.655 6.891 C 7.658 6.885 7.662 6.879 7.665 6.873 C 7.677 6.921 7.689 6.968 7.701 7.016 C 7.715 7.077 7.731 7.138 7.746 7.199 C 7.762 7.263 7.78 7.326 7.799 7.39 C 7.82 7.458 7.843 7.524 7.868 7.59 C 7.896 7.661 7.927 7.73 7.962 7.798 C 8.041 7.949 8.144 8.087 8.267 8.207 C 8.334 8.271 8.407 8.33 8.485 8.382 C 8.563 8.434 8.646 8.479 8.733 8.518 C 8.871 8.58 9.021 8.613 9.173 8.613 C 9.284 8.613 9.394 8.596 9.5 8.562 C 9.594 8.533 9.684 8.492 9.769 8.442 C 9.846 8.396 9.92 8.345 9.989 8.288 C 10.054 8.234 10.118 8.176 10.177 8.116 C 10.236 8.056 10.293 7.994 10.348 7.93 C 10.403 7.866 10.457 7.801 10.509 7.734 C 10.613 7.601 10.715 7.467 10.815 7.331 C 10.874 7.251 10.934 7.171 10.994 7.092 C 11.051 7.015 11.111 6.94 11.171 6.865 C 11.227 6.796 11.285 6.727 11.345 6.661 C 11.398 6.601 11.454 6.543 11.512 6.488 C 11.561 6.442 11.613 6.397 11.668 6.357 C 11.711 6.325 11.756 6.297 11.803 6.272 C 11.837 6.255 11.872 6.241 11.909 6.231 C 11.936 6.224 11.964 6.22 11.992 6.22 C 12.017 6.22 12.043 6.223 12.068 6.229 C 12.106 6.239 12.143 6.252 12.178 6.27 C 12.315 6.336 12.453 6.402 12.591 6.466 C 12.738 6.533 12.883 6.602 13.027 6.674 C 13.152 6.736 13.274 6.804 13.393 6.878 C 13.499 6.945 13.599 7.02 13.694 7.102 C 13.788 7.186 13.874 7.278 13.951 7.378 C 14.041 7.497 14.12 7.624 14.186 7.757 C 14.226 7.838 14.262 7.92 14.295 8.003 C 14.333 8.098 14.368 8.195 14.398 8.292 C 14.434 8.404 14.465 8.517 14.493 8.631 C 14.525 8.76 14.553 8.891 14.578 9.022 C 14.606 9.171 14.63 9.321 14.652 9.471 C 14.66 9.532 14.668 9.593 14.676 9.654 Z  M 0 0 L 16 0 L 16 10.47 L 16 16 L 0 16 L 0 0 L 0 0 Z " fill-rule="evenodd" fill="rgb(0,0,0)"/></g></svg>