<?xml version="1.0" standalone="no"?><!-- Generator: Gravit.io --><svg xmlns="http://www.w3.org/2000/svg" xmlns:xlink="http://www.w3.org/1999/xlink" style="isolation:isolate" viewBox="0 0 16 16" width="16" height="16"><defs><clipPath id="_clipPath_bYdGKCGaF1c6UC3EZB0D6SlPJHtMovbE"><rect width="16" height="16"/></clipPath></defs><g clip-path="url(#_clipPath_bYdGKCGaF1c6UC3EZB0D6SlPJHtMovbE)"><path d=" M 14.4 2.792 L 14.4 15.51 C 14.4 15.643 14.484 15.77 14.634 15.864 C 14.784 15.958 14.988 16.01 15.2 16.01 C 15.412 16.01 15.616 15.958 15.766 15.864 C 15.916 15.77 16 15.643 16 15.51 L 16 0.51 C 16 0.378 15.916 0.25 15.766 0.157 C 15.736 0.138 15.703 0.121 15.669 0.105 C 15.594 0.045 15.488 0.009 15.36 0.009 L 14.142 0.006 L 12.678 0 C 12.325 -0.002 12.223 0.216 12.451 0.486 L 14.4 2.792 Z  M 1.6 2.792 L 1.6 15.51 C 1.6 15.643 1.516 15.77 1.366 15.864 C 1.216 15.958 1.012 16.01 0.8 16.01 C 0.588 16.01 0.384 15.958 0.234 15.864 C 0.084 15.77 0 15.643 0 15.51 L 0 0.51 C 0 0.378 0.084 0.25 0.234 0.157 C 0.264 0.138 0.297 0.121 0.331 0.105 C 0.406 0.045 0.512 0.009 0.64 0.009 L 1.858 0.006 L 3.322 0 C 3.675 -0.002 3.777 0.216 3.549 0.486 L 1.6 2.792 Z  M 8.805 6.21 L 7.852 6.21 L 7.852 6.21 L 5.133 10.603 L 5.133 11.923 L 3 11.923 L 3 9.79 L 3 9.79 L 4.563 9.79 L 7.224 5.49 L 7.224 4.077 L 7.224 4.077 L 7.224 4.077 L 9.357 4.077 L 9.357 5.434 L 11.514 8.19 L 13 8.19 L 13 10.323 L 10.867 10.323 L 10.867 8.845 L 10.867 8.845 L 8.805 6.21 Z " fill-rule="evenodd" fill="rgb(0,0,0)"/></g></svg>