<?xml version="1.0" standalone="no"?><!-- Generator: Gravit.io --><svg xmlns="http://www.w3.org/2000/svg" xmlns:xlink="http://www.w3.org/1999/xlink" style="isolation:isolate" viewBox="0 0 16 16" width="16" height="16"><defs><clipPath id="_clipPath_Qr3bMJ2NwqMvBKXQLmeqHnIlClWxSeUt"><rect width="16" height="16"/></clipPath></defs><g clip-path="url(#_clipPath_Qr3bMJ2NwqMvBKXQLmeqHnIlClWxSeUt)"><path d=" M 11.188 9.447 L 10.095 9.447 L 10.095 9.447 L 6.977 14.486 L 6.977 16 L 4.53 16 L 4.53 13.553 L 4.53 13.553 L 6.323 13.553 L 9.375 8.621 L 9.375 7 L 9.375 7 L 9.375 7 L 11.821 7 L 11.821 8.557 L 14.296 11.718 L 16 11.718 L 16 14.165 L 13.553 14.165 L 13.553 12.469 L 13.553 12.469 L 11.188 9.447 Z  M 4 0 C 1.792 0 0 1.792 0 4 C 0 6.208 1.792 8 4 8 C 6.208 8 8 6.208 8 4 C 8 1.792 6.208 0 4 0 Z  M 6 4.4 L 2 4.4 L 2 3.6 L 6 3.6 L 6 4.4 Z " fill-rule="evenodd" fill="rgb(0,0,0)"/></g></svg>