<?xml version="1.0" standalone="no"?><!-- Generator: Gravit.io --><svg xmlns="http://www.w3.org/2000/svg" xmlns:xlink="http://www.w3.org/1999/xlink" style="isolation:isolate" viewBox="0 0 16 16" width="16" height="16"><defs><clipPath id="_clipPath_pI4uO5jozhL1LqwrKTiZi00vneyxCUDQ"><rect width="16" height="16"/></clipPath></defs><g clip-path="url(#_clipPath_pI4uO5jozhL1LqwrKTiZi00vneyxCUDQ)"><path d=" M 11.188 9.447 L 10.095 9.447 L 10.095 9.447 L 6.977 14.486 L 6.977 16 L 4.53 16 L 4.53 13.553 L 4.53 13.553 L 6.323 13.553 L 9.375 8.621 L 9.375 7 L 9.375 7 L 9.375 7 L 11.821 7 L 11.821 8.557 L 14.296 11.718 L 16 11.718 L 16 14.165 L 13.553 14.165 L 13.553 12.469 L 13.553 12.469 L 11.188 9.447 Z  M 7.416 4.942 C 6.981 4.188 7.242 3.223 8 2.784 L 7.185 1.372 C 6.953 1.509 6.682 1.587 6.393 1.587 C 5.522 1.587 4.816 0.876 4.816 0 L 3.186 0 C 3.188 0.271 3.121 0.545 2.976 0.796 C 2.541 1.549 1.573 1.805 0.815 1.369 L 0 2.78 C 0.235 2.913 0.438 3.109 0.582 3.359 C 1.016 4.111 0.756 5.075 0.002 5.515 L 0.816 6.926 C 1.048 6.791 1.317 6.714 1.605 6.714 C 2.473 6.714 3.177 7.42 3.182 8.292 L 4.812 8.292 C 4.811 8.024 4.878 7.753 5.022 7.505 C 5.456 6.753 6.421 6.496 7.18 6.93 L 7.994 5.519 C 7.761 5.385 7.559 5.19 7.416 4.942 Z  M 4.001 5.825 C 3.073 5.825 2.321 5.074 2.321 4.146 C 2.321 3.218 3.073 2.467 4.001 2.467 C 4.928 2.467 5.68 3.218 5.68 4.146 C 5.68 5.074 4.928 5.825 4.001 5.825 Z " fill-rule="evenodd" fill="rgb(0,0,0)"/></g></svg>