<?xml version="1.0" standalone="no"?><!-- Generator: Gravit.io --><svg xmlns="http://www.w3.org/2000/svg" xmlns:xlink="http://www.w3.org/1999/xlink" style="isolation:isolate" viewBox="0 0 16 16" width="16" height="16"><defs><clipPath id="_clipPath_BiGEMdZmyPjjkJNcvlsfqaABOp9waL77"><rect width="16" height="16"/></clipPath></defs><g clip-path="url(#_clipPath_BiGEMdZmyPjjkJNcvlsfqaABOp9waL77)"><path d=" M 11.188 9.447 L 10.095 9.447 L 10.095 9.447 L 6.977 14.486 L 6.977 16 L 4.53 16 L 4.53 13.553 L 4.53 13.553 L 6.323 13.553 L 9.375 8.621 L 9.375 7 L 9.375 7 L 9.375 7 L 11.821 7 L 11.821 8.557 L 14.296 11.718 L 16 11.718 L 16 14.165 L 13.553 14.165 L 13.553 12.469 L 13.553 12.469 L 11.188 9.447 Z  M 0.445 7.111 C 0.445 7.6 0.845 8 1.333 8 L 4.889 8 C 5.377 8 5.778 7.6 5.778 7.111 L 5.778 1.778 L 0.445 1.778 L 0.445 7.111 Z  M 1.538 3.947 L 2.164 3.32 L 3.111 4.262 L 4.053 3.32 L 4.68 3.947 L 3.738 4.889 L 4.68 5.831 L 4.053 6.458 L 3.111 5.516 L 2.169 6.458 L 1.542 5.831 L 2.485 4.889 L 1.538 3.947 Z  M 4.667 0.444 L 4.222 0 L 2 0 L 1.555 0.444 L 0 0.444 L 0 1.334 L 6.222 1.334 L 6.222 0.444 L 4.667 0.444 Z " fill-rule="evenodd" fill="rgb(0,0,0)"/></g></svg>