<?xml version="1.0" standalone="no"?><!-- Generator: Gravit.io --><svg xmlns="http://www.w3.org/2000/svg" xmlns:xlink="http://www.w3.org/1999/xlink" style="isolation:isolate" viewBox="0 0 16 16" width="16" height="16"><defs><clipPath id="_clipPath_aGVpGX6cy7eWW4grKiQOTSx9FKL1C8Ek"><rect width="16" height="16"/></clipPath></defs><g clip-path="url(#_clipPath_aGVpGX6cy7eWW4grKiQOTSx9FKL1C8Ek)"><path d=" M 8.923 5.947 L 7.83 5.947 L 7.83 5.947 L 4.712 10.986 L 4.712 12.5 L 2.265 12.5 L 2.265 10.053 L 2.265 10.053 L 4.057 10.053 L 7.109 5.121 L 7.109 3.5 L 7.109 3.5 L 7.109 3.5 L 9.556 3.5 L 9.556 5.057 L 12.031 8.218 L 13.735 8.218 L 13.735 10.665 L 11.288 10.665 L 11.288 8.969 L 11.288 8.969 L 8.923 5.947 Z  M 0.798 -0.035 L 15.202 -0.035 C 15.643 -0.035 16 0.322 16 0.762 L 16 15.167 C 16 15.607 15.643 15.965 15.202 15.965 L 0.798 15.965 C 0.357 15.965 0 15.607 0 15.167 L 0 0.762 C 0 0.322 0.357 -0.035 0.798 -0.035 Z  M 1.92 1.245 L 14.08 1.245 C 14.433 1.245 14.72 1.532 14.72 1.885 L 14.72 14.045 C 14.72 14.398 14.433 14.685 14.08 14.685 L 1.92 14.685 C 1.567 14.685 1.28 14.398 1.28 14.045 L 1.28 1.885 C 1.28 1.532 1.567 1.245 1.92 1.245 Z " fill-rule="evenodd" fill="rgb(0,0,0)"/></g></svg>