<?xml version="1.0" standalone="no"?><!-- Generator: Gravit.io --><svg xmlns="http://www.w3.org/2000/svg" xmlns:xlink="http://www.w3.org/1999/xlink" style="isolation:isolate" viewBox="0 0 16 16" width="16" height="16"><defs><clipPath id="_clipPath_Yv5eSF6h7cyFkuXjoTWZe2vaxlzWHxvq"><rect width="16" height="16"/></clipPath></defs><g clip-path="url(#_clipPath_Yv5eSF6h7cyFkuXjoTWZe2vaxlzWHxvq)"><path d=" M 14.4 2.787 L 14.4 15.505 C 14.4 15.638 14.484 15.765 14.634 15.859 C 14.784 15.953 14.988 16.005 15.2 16.005 C 15.412 16.005 15.616 15.953 15.766 15.859 C 15.916 15.765 16 15.638 16 15.505 L 16 0.505 C 16 0.373 15.916 0.245 15.766 0.152 C 15.736 0.133 15.703 0.116 15.669 0.1 C 15.594 0.04 15.488 0.004 15.36 0.004 L 14.142 0.001 L 12.678 -0.005 C 12.325 -0.007 12.223 0.211 12.451 0.481 L 14.4 2.787 Z  M 8.805 9.287 L 7.852 9.287 L 7.852 9.287 L 5.133 13.68 L 5.133 15 L 3 15 L 3 12.867 L 3 12.867 L 4.563 12.867 L 7.224 8.567 L 7.224 7.153 L 7.224 7.153 L 7.224 7.153 L 9.357 7.153 L 9.357 8.511 L 11.514 11.267 L 13 11.267 L 13 13.4 L 10.867 13.4 L 10.867 11.921 L 10.867 11.921 L 8.805 9.287 Z  M 9.389 0.977 L 6.056 0.977 C 5.747 0.977 5.5 1.227 5.5 1.532 L 5.5 5.421 C 5.5 5.727 5.747 5.977 6.056 5.977 L 9.944 5.977 C 10.25 5.977 10.5 5.727 10.5 5.421 L 10.5 2.088 L 9.389 0.977 Z  M 8 5.421 C 7.539 5.421 7.167 5.049 7.167 4.588 C 7.167 4.127 7.539 3.754 8 3.754 C 8.461 3.754 8.833 4.127 8.833 4.588 C 8.833 5.049 8.461 5.421 8 5.421 Z  M 8.833 2.643 L 6.056 2.643 L 6.056 1.532 L 8.833 1.532 L 8.833 2.643 Z " fill-rule="evenodd" fill="rgb(0,0,0)"/></g></svg>