<?xml version="1.0" standalone="no"?><!-- Generator: Gravit.io --><svg xmlns="http://www.w3.org/2000/svg" xmlns:xlink="http://www.w3.org/1999/xlink" style="isolation:isolate" viewBox="0 0 16 16" width="16" height="16"><defs><clipPath id="_clipPath_elTL7dLNyQo8DTd44IaSa6Uley1aqbez"><rect width="16" height="16"/></clipPath></defs><g clip-path="url(#_clipPath_elTL7dLNyQo8DTd44IaSa6Uley1aqbez)"><path d=" M 10.022 6.642 L 10.449 6.464 M 10.842 5.524 L 10.665 5.097 M 11.786 5.908 L 12.213 5.73 M 11.393 6.848 L 11.57 7.275 M 4.063 10.029 L 4.239 9.602 M 3.853 8.658 L 3.426 8.482 M 4.792 8.262 L 4.968 7.835 M 5.179 9.205 L 5.606 9.382 M 0.536 6.448 L 12.161 1.613 C 12.605 1.428 13.115 1.638 13.299 2.082 L 15.933 8.414 C 16.118 8.858 15.907 9.367 15.464 9.552 L 3.839 14.387 C 3.395 14.572 2.885 14.362 2.701 13.918 L 0.067 7.586 C -0.118 7.142 0.093 6.633 0.536 6.448 Z  M 5.436 7.522 L 9.469 5.845 C 9.573 5.801 9.693 5.851 9.736 5.955 L 10.307 7.328 C 10.351 7.432 10.301 7.552 10.197 7.596 L 6.165 9.273 C 6.06 9.316 5.94 9.267 5.897 9.162 L 5.326 7.79 C 5.282 7.686 5.332 7.566 5.436 7.522 Z  M 1.725 6.471 L 11.34 2.472 C 11.851 2.259 12.439 2.501 12.652 3.013 L 14.083 6.453 C 14.295 6.964 14.053 7.552 13.542 7.764 L 3.926 11.764 C 3.415 11.977 2.827 11.734 2.615 11.223 L 1.183 7.783 C 0.971 7.271 1.213 6.684 1.725 6.471 Z  M 1.675 6.353 L 11.291 2.353 C 11.428 2.296 11.576 2.267 11.724 2.267 C 11.948 2.266 12.167 2.332 12.353 2.457 C 12.539 2.58 12.684 2.757 12.77 2.964 C 12.77 2.964 12.77 2.964 12.77 2.964 L 14.201 6.404 C 14.258 6.541 14.288 6.689 14.288 6.837 C 14.288 7.061 14.221 7.28 14.098 7.466 C 13.973 7.652 13.797 7.797 13.591 7.883 C 13.591 7.883 13.591 7.883 13.591 7.883 L 3.975 11.882 C 3.838 11.94 3.691 11.969 3.542 11.969 C 3.318 11.969 3.1 11.903 2.914 11.779 C 2.727 11.655 2.582 11.479 2.496 11.272 C 2.496 11.272 2.496 11.272 2.496 11.272 L 1.065 7.832 C 1.008 7.694 0.979 7.547 0.979 7.398 C 0.978 7.175 1.044 6.956 1.169 6.77 C 1.292 6.584 1.469 6.439 1.675 6.353 C 1.675 6.353 1.675 6.353 1.675 6.353 Z  M 4.732 11.946 L 13.102 8.465 C 13.47 8.312 14.014 8.399 14.316 8.66 L 15.274 9.489 C 15.336 9.542 15.325 9.61 15.25 9.641 L 4.053 14.298 C 3.978 14.33 3.922 14.289 3.927 14.209 L 4.015 12.944 C 4.043 12.546 4.364 12.099 4.732 11.946 Z  M 4.683 11.828 L 13.053 8.347 C 13.053 8.346 13.054 8.346 13.054 8.346 C 13.126 8.317 13.201 8.295 13.277 8.282 C 13.356 8.268 13.435 8.261 13.514 8.261 C 13.676 8.261 13.836 8.287 13.989 8.338 C 14.065 8.363 14.138 8.394 14.207 8.431 C 14.276 8.468 14.34 8.512 14.399 8.562 C 14.399 8.563 14.399 8.563 14.399 8.563 L 15.357 9.391 C 15.381 9.412 15.401 9.436 15.416 9.463 C 15.433 9.493 15.472 9.509 15.472 9.544 C 15.472 9.59 3.892 14.414 3.853 14.371 C 3.834 14.349 3.82 14.324 3.811 14.296 C 3.803 14.271 3.799 14.244 3.799 14.218 C 3.799 14.217 3.799 14.216 3.799 14.215 L 3.8 14.202 L 3.888 12.935 C 3.888 12.935 3.888 12.935 3.888 12.935 C 3.892 12.877 3.901 12.82 3.915 12.763 C 3.929 12.706 3.947 12.649 3.968 12.595 C 4.013 12.483 4.072 12.376 4.142 12.279 C 4.212 12.18 4.294 12.092 4.386 12.013 C 4.431 11.975 4.479 11.94 4.529 11.908 C 4.578 11.877 4.629 11.851 4.683 11.828 C 4.683 11.828 4.683 11.828 4.683 11.828 Z  M 5.002 12.61 C 4.952 12.488 5.009 12.348 5.131 12.298 C 5.253 12.247 5.393 12.305 5.443 12.427 C 5.494 12.548 5.436 12.688 5.315 12.739 C 5.193 12.789 5.053 12.732 5.002 12.61 Z  M 12.915 9.319 C 12.864 9.197 12.922 9.057 13.044 9.006 C 13.166 8.956 13.306 9.013 13.356 9.135 C 13.407 9.257 13.349 9.397 13.227 9.447 C 13.106 9.498 12.966 9.44 12.915 9.319 Z  M 10.235 6.553 C 10.033 6.066 10.264 5.506 10.75 5.304 C 11.237 5.101 11.797 5.332 12 5.819 C 12.202 6.306 11.971 6.866 11.484 7.068 C 10.997 7.271 10.438 7.04 10.235 6.553 Z  M 4.151 9.815 C 3.664 9.614 3.431 9.055 3.632 8.568 C 3.833 8.08 4.392 7.848 4.88 8.049 C 5.367 8.25 5.6 8.809 5.399 9.296 C 5.198 9.784 4.639 10.016 4.151 9.815 Z " fill-rule="evenodd" fill="rgb(0,0,0)"/></g></svg>