<?xml version="1.0" standalone="no"?><!-- Generator: Gravit.io --><svg xmlns="http://www.w3.org/2000/svg" xmlns:xlink="http://www.w3.org/1999/xlink" style="isolation:isolate" viewBox="0 0.445 16 15.109" width="16" height="15.109"><path d=" M 12.054 8.391 L 4.108 0.445 L 2.855 1.699 L 4.97 3.814 L 0.393 8.391 C -0.131 8.915 -0.131 9.76 0.393 10.275 L 5.281 15.163 C 5.539 15.421 5.886 15.555 6.224 15.555 C 6.561 15.555 6.908 15.421 7.166 15.163 L 12.054 10.275 C 12.578 9.76 12.578 8.915 12.054 8.391 Z  M 1.966 9.333 L 6.224 5.076 L 10.481 9.333 L 1.966 9.333 Z  M 14.222 10.666 C 14.222 10.666 12.445 12.595 12.445 13.777 C 12.445 14.755 13.245 15.555 14.222 15.555 C 15.2 15.555 16 14.755 16 13.777 C 16 12.595 14.222 10.666 14.222 10.666 Z " fill="rgb(0,0,0)"/></svg>