<?xml version="1.0" standalone="no"?><!-- Generator: Gravit.io --><svg xmlns="http://www.w3.org/2000/svg" xmlns:xlink="http://www.w3.org/1999/xlink" style="isolation:isolate" viewBox="0 0 16 16" width="16" height="16"><defs><clipPath id="_clipPath_DzxfXWODE2BHir4YAT2KTDnlfpCVZWcW"><rect width="16" height="16"/></clipPath></defs><g clip-path="url(#_clipPath_DzxfXWODE2BHir4YAT2KTDnlfpCVZWcW)"><path d=" M 4.8 0.8 M 15.119 15.995 C 15.146 15.999 15.173 16 15.2 16 L 15.2 16 C 15.642 16 16 15.642 16 15.2 L 16 15.2 L 16 0.8 L 16 0.8 C 16 0.358 15.642 0 15.2 0 L 15.2 0 L 15.2 0 L 15.2 0 C 15.173 0 15.146 0.001 15.119 0.005 L 15.119 0.005 L 15.119 0.005 C 15.087 0.001 15.054 0 15.02 0 L 12.18 0 C 11.639 0 11.2 0.358 11.2 0.8 L 11.2 0.8 C 11.2 1.242 11.639 1.6 12.18 1.6 L 14.4 1.6 L 14.4 14.4 L 12.18 14.4 C 11.639 14.4 11.2 14.758 11.2 15.2 L 11.2 15.2 C 11.2 15.642 11.639 16 12.18 16 L 15.02 16 C 15.054 16 15.087 15.999 15.119 15.995 L 15.119 15.995 Z  M 5.09 7.149 L 3.955 7.149 C 3.485 7.149 3.104 7.53 3.104 8 L 3.104 8 C 3.104 8.47 3.485 8.851 3.955 8.851 L 5.09 8.851 C 5.56 8.851 5.941 8.47 5.941 8 L 5.941 8 C 5.941 7.53 5.56 7.149 5.09 7.149 L 5.09 7.149 L 5.09 7.149 L 5.09 7.149 L 5.09 7.149 L 5.09 7.149 L 5.09 7.149 Z  M 8.567 7.149 L 7.433 7.149 C 6.963 7.149 6.581 7.53 6.581 8 L 6.581 8 C 6.581 8.47 6.963 8.851 7.433 8.851 L 8.567 8.851 C 9.037 8.851 9.419 8.47 9.419 8 L 9.419 8 C 9.419 7.53 9.037 7.149 8.567 7.149 L 8.567 7.149 L 8.567 7.149 L 8.567 7.149 L 8.567 7.149 L 8.567 7.149 L 8.567 7.149 Z  M 12.045 7.149 L 10.91 7.149 C 10.44 7.149 10.059 7.53 10.059 8 L 10.059 8 C 10.059 8.47 10.44 8.851 10.91 8.851 L 12.045 8.851 C 12.515 8.851 12.896 8.47 12.896 8 L 12.896 8 C 12.896 7.53 12.515 7.149 12.045 7.149 L 12.045 7.149 L 12.045 7.149 L 12.045 7.149 L 12.045 7.149 L 12.045 7.149 L 12.045 7.149 Z " fill-rule="evenodd" fill="rgb(0,0,0)"/></g></svg>