<?xml version="1.0" standalone="no"?><!-- Generator: Gravit.io --><svg xmlns="http://www.w3.org/2000/svg" xmlns:xlink="http://www.w3.org/1999/xlink" style="isolation:isolate" viewBox="0 0 16 16" width="16" height="16"><defs><clipPath id="_clipPath_qzjR8lZMeTmH8fEDRsgO439cZFGKOyi1"><rect width="16" height="16"/></clipPath></defs><g clip-path="url(#_clipPath_qzjR8lZMeTmH8fEDRsgO439cZFGKOyi1)"><path d=" M 8 0 L 8 0 C 8.353 0 8.64 0.287 8.64 0.64 L 8.64 15.36 C 8.64 15.713 8.353 16 8 16 L 8 16 C 7.647 16 7.36 15.713 7.36 15.36 L 7.36 0.64 C 7.36 0.287 7.647 0 8 0 L 8 0 L 8 0 L 8 0 Z  M 9.6 8 C 9.6 7.47 10.03 7.04 10.56 7.04 C 11.09 7.04 11.52 7.47 11.52 8 C 11.52 8.53 11.09 8.96 10.56 8.96 C 10.03 8.96 9.6 8.53 9.6 8 L 9.6 8 L 9.6 8 L 9.6 8 Z  M 1.6 8 C 1.6 7.47 2.03 7.04 2.56 7.04 C 3.09 7.04 3.52 7.47 3.52 8 C 3.52 8.53 3.09 8.96 2.56 8.96 C 2.03 8.96 1.6 8.53 1.6 8 L 1.6 8 L 1.6 8 Z  M 12.48 8 C 12.48 7.47 12.91 7.04 13.44 7.04 C 13.97 7.04 14.4 7.47 14.4 8 C 14.4 8.53 13.97 8.96 13.44 8.96 C 12.91 8.96 12.48 8.53 12.48 8 L 12.48 8 Z  M 4.48 8 C 4.48 7.47 4.91 7.04 5.44 7.04 C 5.97 7.04 6.4 7.47 6.4 8 C 6.4 8.53 5.97 8.96 5.44 8.96 C 4.91 8.96 4.48 8.53 4.48 8 Z " fill-rule="evenodd" fill="rgb(0,0,0)"/></g></svg>