<?xml version="1.0" standalone="no"?><!-- Generator: Gravit.io --><svg xmlns="http://www.w3.org/2000/svg" xmlns:xlink="http://www.w3.org/1999/xlink" style="isolation:isolate" viewBox="0 0 16 16" width="16" height="16"><path d=" M 12.444 0 L 1.778 0 C 0.791 0 0 0.8 0 1.778 L 0 14.222 C 0 15.2 0.791 16 1.778 16 L 14.222 16 C 15.2 16 16 15.2 16 14.222 L 16 3.556 L 12.444 0 Z  M 8 14.222 C 6.524 14.222 5.333 13.031 5.333 11.556 C 5.333 10.08 6.524 8.889 8 8.889 C 9.476 8.889 10.667 10.08 10.667 11.556 C 10.667 13.031 9.476 14.222 8 14.222 Z  M 10.667 5.333 L 1.778 5.333 L 1.778 1.778 L 10.667 1.778 L 10.667 5.333 Z " fill="rgb(0,0,0)"/></svg>