<?xml version="1.0" standalone="no"?><!-- Generator: Gravit.io --><svg xmlns="http://www.w3.org/2000/svg" xmlns:xlink="http://www.w3.org/1999/xlink" style="isolation:isolate" viewBox="0 1.6 16 12.8" width="16" height="12.8"><path d=" M 10.4 11.2 L 13.6 11.2 L 13.6 12.8 L 10.4 12.8 L 10.4 11.2 Z  M 10.4 4.8 L 16 4.8 L 16 6.4 L 10.4 6.4 L 10.4 4.8 Z  M 10.4 8 L 15.2 8 L 15.2 9.6 L 10.4 9.6 L 10.4 8 Z  M 0.8 12.8 C 0.8 13.68 1.52 14.4 2.4 14.4 L 7.2 14.4 C 8.08 14.4 8.8 13.68 8.8 12.8 L 8.8 4.8 L 0.8 4.8 L 0.8 12.8 Z  M 9.6 2.4 L 7.2 2.4 L 6.4 1.6 L 3.2 1.6 L 2.4 2.4 L 0 2.4 L 0 4 L 9.6 4 L 9.6 2.4 Z " fill="rgb(0,0,0)"/></svg>