<?xml version="1.0" standalone="no"?><!-- Generator: Gravit.io --><svg xmlns="http://www.w3.org/2000/svg" xmlns:xlink="http://www.w3.org/1999/xlink" style="isolation:isolate" viewBox="0 0 16 16" width="16" height="16"><defs><clipPath id="_clipPath_sr6KwkutGfLfeNPieHnwHypDbQ7q4b1y"><rect width="16" height="16"/></clipPath></defs><g clip-path="url(#_clipPath_sr6KwkutGfLfeNPieHnwHypDbQ7q4b1y)"><path d=" M 11.636 10.182 L 13.091 10.182 L 13.091 4.364 C 13.091 3.564 12.436 2.909 11.636 2.909 L 5.818 2.909 L 5.818 4.364 L 11.636 4.364 L 11.636 10.182 Z  M 4.364 11.636 L 4.364 0 L 2.909 0 L 2.909 2.909 L 0 2.909 L 0 4.364 L 2.909 4.364 L 2.909 11.636 C 2.909 12.436 3.564 13.091 4.364 13.091 L 11.636 13.091 L 11.636 16 L 13.091 16 L 13.091 13.091 L 16 13.091 L 16 11.636 L 4.364 11.636 Z " fill="rgb(0,0,0)"/></g></svg>