<?xml version="1.0" standalone="no"?><!-- Generator: Gravit.io --><svg xmlns="http://www.w3.org/2000/svg" xmlns:xlink="http://www.w3.org/1999/xlink" style="isolation:isolate" viewBox="0 -0.8 16 17.6" width="16" height="17.6"><path d=" M 16 12.8 L 16 11.2 L 4.8 11.2 L 4.8 1.6 L 6.4 1.6 L 4 -0.8 L 1.6 1.6 L 3.2 1.6 L 3.2 3.2 L 0 3.2 L 0 4.8 L 3.2 4.8 L 3.2 11.2 C 3.2 12.08 3.92 12.8 4.8 12.8 L 11.2 12.8 L 11.2 14.4 L 9.6 14.4 L 12 16.8 L 14.4 14.4 L 12.8 14.4 L 12.8 12.8 L 16 12.8 Z  M 6.4 4.8 L 11.2 4.8 L 11.2 9.6 L 12.8 9.6 L 12.8 4.8 C 12.8 3.92 12.08 3.2 11.2 3.2 L 6.4 3.2 L 6.4 4.8 Z " fill="rgb(0,0,0)"/></svg>