<?xml version="1.0" standalone="no"?><!-- Generator: Gravit.io --><svg xmlns="http://www.w3.org/2000/svg" xmlns:xlink="http://www.w3.org/1999/xlink" style="isolation:isolate" viewBox="0 0 16 16" width="16" height="16"><defs><clipPath id="_clipPath_fCrOfH066zCU0ZpDLkyzYOktLmbjvfTn"><rect width="16" height="16"/></clipPath></defs><g clip-path="url(#_clipPath_fCrOfH066zCU0ZpDLkyzYOktLmbjvfTn)"><path d=" M 12.691 7.077 L 13.826 7.077 C 14.296 7.077 14.677 7.458 14.677 7.928 L 14.677 7.928 C 14.677 8.398 14.296 8.779 13.826 8.779 L 12.691 8.779 C 12.221 8.779 11.84 8.398 11.84 7.928 L 11.84 7.928 C 11.84 7.458 12.221 7.077 12.691 7.077 Z  M 2.174 7.077 L 3.309 7.077 C 3.779 7.077 4.16 7.458 4.16 7.928 L 4.16 7.928 C 4.16 8.398 3.779 8.779 3.309 8.779 L 2.174 8.779 C 1.704 8.779 1.323 8.398 1.323 7.928 L 1.323 7.928 C 1.323 7.458 1.704 7.077 2.174 7.077 Z  M 9.703 15.995 C 9.676 15.999 9.649 16 9.622 16 L 9.622 16 C 9.181 16 8.822 15.642 8.822 15.2 L 8.822 0.8 L 8.822 0.8 L 8.822 0.8 C 8.822 0.358 9.181 0 9.622 0 L 9.622 0 C 9.649 0 9.676 0.001 9.703 0.005 C 9.735 0.001 9.768 0 9.802 0 L 12.642 0 C 13.183 0 13.622 0.358 13.622 0.8 L 13.622 0.8 C 13.622 1.242 13.183 1.6 12.642 1.6 L 10.422 1.6 L 10.422 14.4 L 12.642 14.4 C 13.183 14.4 13.622 14.758 13.622 15.2 L 13.622 15.2 C 13.622 15.642 13.183 16 12.642 16 L 9.802 16 C 9.768 16 9.735 15.999 9.703 15.995 Z  M 5.622 14.4 L 5.622 1.6 L 3.402 1.6 C 2.861 1.6 2.422 1.242 2.422 0.8 L 2.422 0.8 C 2.422 0.358 2.861 0 3.402 0 L 6.242 0 C 6.276 0 6.309 0.001 6.341 0.005 C 6.368 0.001 6.395 0 6.422 0 L 6.422 0 C 6.864 0 7.222 0.358 7.222 0.8 L 7.222 0.8 L 7.222 0.8 L 7.222 15.2 C 7.222 15.642 6.864 16 6.422 16 L 6.422 16 C 6.388 16 6.354 15.998 6.321 15.993 C 6.281 15.998 6.24 16 6.198 16 L 3.358 16 C 2.817 16 2.378 15.642 2.378 15.2 L 2.378 15.2 C 2.378 14.758 2.817 14.4 3.358 14.4 L 5.622 14.4 Z " fill-rule="evenodd" fill="rgb(0,0,0)"/></g></svg>