<?xml version="1.0" standalone="no"?><!-- Generator: Gravit.io --><svg xmlns="http://www.w3.org/2000/svg" xmlns:xlink="http://www.w3.org/1999/xlink" style="isolation:isolate" viewBox="0 0 16 16" width="16" height="16"><path d=" M 0 1.778 L 1.778 1.778 L 1.778 0 C 0.8 0 0 0.8 0 1.778 Z  M 0 8.889 L 1.778 8.889 L 1.778 7.111 L 0 7.111 L 0 8.889 Z  M 3.556 16 L 5.333 16 L 5.333 14.222 L 3.556 14.222 L 3.556 16 Z  M 0 5.333 L 1.778 5.333 L 1.778 3.556 L 0 3.556 L 0 5.333 Z  M 8.889 0 L 7.111 0 L 7.111 1.778 L 8.889 1.778 L 8.889 0 Z  M 14.222 0 L 14.222 1.778 L 16 1.778 C 16 0.8 15.2 0 14.222 0 Z  M 1.778 16 L 1.778 14.222 L 0 14.222 C 0 15.2 0.8 16 1.778 16 Z  M 0 12.444 L 1.778 12.444 L 1.778 10.667 L 0 10.667 L 0 12.444 Z  M 5.333 0 L 3.556 0 L 3.556 1.778 L 5.333 1.778 L 5.333 0 Z  M 7.111 16 L 8.889 16 L 8.889 14.222 L 7.111 14.222 L 7.111 16 Z  M 14.222 8.889 L 16 8.889 L 16 7.111 L 14.222 7.111 L 14.222 8.889 Z  M 14.222 16 C 15.2 16 16 15.2 16 14.222 L 14.222 14.222 L 14.222 16 Z  M 14.222 5.333 L 16 5.333 L 16 3.556 L 14.222 3.556 L 14.222 5.333 Z  M 14.222 12.444 L 16 12.444 L 16 10.667 L 14.222 10.667 L 14.222 12.444 Z  M 10.667 16 L 12.444 16 L 12.444 14.222 L 10.667 14.222 L 10.667 16 Z  M 10.667 1.778 L 12.444 1.778 L 12.444 0 L 10.667 0 L 10.667 1.778 Z  M 3.556 12.444 L 12.444 12.444 L 12.444 3.556 L 3.556 3.556 L 3.556 12.444 Z  M 5.333 5.333 L 10.667 5.333 L 10.667 10.667 L 5.333 10.667 L 5.333 5.333 Z " fill="rgb(0,0,0)"/></svg>