<?xml version="1.0" standalone="no"?><!-- Generator: Gravit.io --><svg xmlns="http://www.w3.org/2000/svg" xmlns:xlink="http://www.w3.org/1999/xlink" style="isolation:isolate" viewBox="1.778 0 12.444 16" width="12.444" height="16"><path d=" M 2.667 14.222 C 2.667 15.2 3.467 16 4.444 16 L 11.556 16 C 12.533 16 13.333 15.2 13.333 14.222 L 13.333 3.556 L 2.667 3.556 L 2.667 14.222 Z  M 4.853 7.893 L 6.107 6.64 L 8 8.524 L 9.884 6.64 L 11.138 7.893 L 9.253 9.778 L 11.138 11.662 L 9.884 12.916 L 8 11.031 L 6.116 12.916 L 4.862 11.662 L 6.747 9.778 L 4.853 7.893 Z  M 11.111 0.889 L 10.222 0 L 5.778 0 L 4.889 0.889 L 1.778 0.889 L 1.778 2.667 L 14.222 2.667 L 14.222 0.889 L 11.111 0.889 Z " fill="rgb(0,0,0)"/></svg>