<?xml version="1.0" standalone="no"?><!-- Generator: Gravit.io --><svg xmlns="http://www.w3.org/2000/svg" xmlns:xlink="http://www.w3.org/1999/xlink" style="isolation:isolate" viewBox="0 0 16 16" width="16" height="16"><defs><clipPath id="_clipPath_rXGkGTiWlTVvPffHjn9UUJEr3UdsUI7l"><rect width="16" height="16"/></clipPath></defs><g clip-path="url(#_clipPath_rXGkGTiWlTVvPffHjn9UUJEr3UdsUI7l)"><path d=" M 11.2 0.8 M 0.881 15.995 C 0.854 15.999 0.827 16 0.8 16 L 0.8 16 C 0.358 16 0 15.642 0 15.2 L 0 15.2 L 0 0.8 L 0 0.8 C 0 0.358 0.358 0 0.8 0 L 0.8 0 L 0.8 0 L 0.8 0 C 0.827 0 0.854 0.001 0.881 0.005 L 0.881 0.005 L 0.881 0.005 C 0.913 0.001 0.946 0 0.98 0 L 3.82 0 C 4.361 0 4.8 0.358 4.8 0.8 L 4.8 0.8 C 4.8 1.242 4.361 1.6 3.82 1.6 L 1.6 1.6 L 1.6 14.4 L 3.82 14.4 C 4.361 14.4 4.8 14.758 4.8 15.2 L 4.8 15.2 C 4.8 15.642 4.361 16 3.82 16 L 0.98 16 C 0.946 16 0.913 15.999 0.881 15.995 L 0.881 15.995 Z  M 10.91 7.149 L 12.045 7.149 C 12.515 7.149 12.896 7.53 12.896 8 L 12.896 8 C 12.896 8.47 12.515 8.851 12.045 8.851 L 10.91 8.851 C 10.44 8.851 10.059 8.47 10.059 8 L 10.059 8 C 10.059 7.53 10.44 7.149 10.91 7.149 L 10.91 7.149 L 10.91 7.149 L 10.91 7.149 L 10.91 7.149 L 10.91 7.149 L 10.91 7.149 Z  M 7.433 7.149 L 8.567 7.149 C 9.037 7.149 9.419 7.53 9.419 8 L 9.419 8 C 9.419 8.47 9.037 8.851 8.567 8.851 L 7.433 8.851 C 6.963 8.851 6.581 8.47 6.581 8 L 6.581 8 C 6.581 7.53 6.963 7.149 7.433 7.149 L 7.433 7.149 L 7.433 7.149 L 7.433 7.149 L 7.433 7.149 L 7.433 7.149 L 7.433 7.149 Z  M 3.955 7.149 L 5.09 7.149 C 5.56 7.149 5.941 7.53 5.941 8 L 5.941 8 C 5.941 8.47 5.56 8.851 5.09 8.851 L 3.955 8.851 C 3.485 8.851 3.104 8.47 3.104 8 L 3.104 8 C 3.104 7.53 3.485 7.149 3.955 7.149 L 3.955 7.149 L 3.955 7.149 L 3.955 7.149 L 3.955 7.149 L 3.955 7.149 L 3.955 7.149 Z " fill-rule="evenodd" fill="rgb(0,0,0)"/></g></svg>