<?xml version="1.0" standalone="no"?><!-- Generator: Gravit.io --><svg xmlns="http://www.w3.org/2000/svg" xmlns:xlink="http://www.w3.org/1999/xlink" style="isolation:isolate" viewBox="0 0 16 16" width="16" height="16"><defs><clipPath id="_clipPath_0eX1Xa9arASByj0UBfrVfPDlYzaXLUK9"><rect width="16" height="16"/></clipPath></defs><g clip-path="url(#_clipPath_0eX1Xa9arASByj0UBfrVfPDlYzaXLUK9)"><path d=" M 14.617 13.496 C 14.947 13.495 15.264 13.626 15.499 13.858 C 15.736 14.094 15.869 14.413 15.87 14.745 C 15.87 15.075 15.74 15.393 15.508 15.628 C 15.275 15.864 14.958 15.998 14.626 16 C 14.623 16 14.62 16 14.617 16 L 14.564 16 L 14.546 16 C 14.546 16 14.546 16 14.546 16 C 14.071 16 13.596 15.985 13.123 15.955 C 12.662 15.927 12.203 15.882 11.746 15.82 C 11.306 15.762 10.869 15.686 10.436 15.593 C 10.017 15.504 9.602 15.397 9.192 15.272 C 8.794 15.151 8.402 15.012 8.016 14.855 C 7.641 14.701 7.273 14.53 6.914 14.34 C 6.209 13.969 5.545 13.525 4.933 13.015 C 4.325 12.507 3.772 11.935 3.283 11.31 C 3.035 10.992 2.804 10.663 2.59 10.323 C 2.371 9.975 2.168 9.617 1.983 9.25 C 1.794 8.874 1.62 8.489 1.465 8.097 C 1.304 7.692 1.16 7.281 1.032 6.864 C 0.9 6.432 0.784 5.995 0.684 5.554 C 0.58 5.095 0.491 4.633 0.418 4.168 C 0.346 3.717 0.288 3.264 0.242 2.809 C 0.193 2.311 0.156 1.812 0.132 1.312 C 0.131 1.301 0.131 1.289 0.131 1.277 L 0.131 1.275 C 0.13 1.268 0.13 1.261 0.13 1.253 C 0.13 0.94 0.247 0.638 0.458 0.407 C 0.682 0.163 0.993 0.017 1.323 0.001 C 1.327 0.001 1.332 0.001 1.336 0.001 L 1.338 0.001 C 1.355 0 1.372 0 1.389 0 C 1.696 0.001 1.992 0.116 2.22 0.321 C 2.469 0.544 2.618 0.859 2.633 1.193 C 2.655 1.65 2.689 2.106 2.734 2.56 C 2.775 2.968 2.827 3.373 2.891 3.777 C 2.956 4.188 3.035 4.595 3.126 5 C 3.213 5.381 3.313 5.758 3.427 6.132 C 3.534 6.483 3.656 6.83 3.792 7.172 C 3.921 7.495 4.063 7.813 4.22 8.123 C 4.369 8.419 4.532 8.707 4.708 8.987 C 4.878 9.256 5.061 9.517 5.257 9.768 C 5.636 10.253 6.065 10.697 6.538 11.092 C 7.015 11.489 7.533 11.836 8.082 12.125 C 8.369 12.276 8.663 12.414 8.963 12.536 C 9.277 12.664 9.597 12.778 9.921 12.876 C 10.262 12.981 10.609 13.07 10.958 13.145 C 11.329 13.224 11.702 13.288 12.077 13.338 C 12.476 13.392 12.877 13.431 13.279 13.456 C 13.7 13.482 14.123 13.496 14.545 13.496 L 14.564 13.496 L 14.617 13.496 Z " fill="rgb(0,0,0)"/></g></svg>