<?xml version="1.0" standalone="no"?><!-- Generator: Gravit.io --><svg xmlns="http://www.w3.org/2000/svg" xmlns:xlink="http://www.w3.org/1999/xlink" style="isolation:isolate" viewBox="0 0 16 16" width="16" height="16"><defs><clipPath id="_clipPath_It7U8ff0Z9FbY3U5OYQMnMnASXWZMy5w"><rect width="16" height="16"/></clipPath></defs><g clip-path="url(#_clipPath_It7U8ff0Z9FbY3U5OYQMnMnASXWZMy5w)"><path d=" M 14.564 2.504 L 14.545 2.504 C 14.123 2.504 13.7 2.518 13.279 2.544 C 12.877 2.569 12.476 2.608 12.077 2.662 C 11.702 2.712 11.329 2.776 10.958 2.855 C 10.609 2.93 10.262 3.019 9.921 3.124 C 9.597 3.222 9.277 3.336 8.963 3.464 C 8.663 3.586 8.369 3.724 8.082 3.875 C 7.533 4.164 7.015 4.511 6.538 4.908 C 6.065 5.303 5.636 5.747 5.257 6.232 C 5.061 6.483 4.878 6.744 4.708 7.013 C 4.532 7.293 4.369 7.581 4.22 7.877 C 4.063 8.187 3.921 8.505 3.792 8.828 C 3.656 9.17 3.534 9.517 3.427 9.868 C 3.313 10.242 3.213 10.619 3.126 11 C 3.035 11.405 2.956 11.812 2.891 12.223 C 2.827 12.627 2.775 13.032 2.734 13.44 C 2.689 13.894 2.655 14.35 2.633 14.807 C 2.618 15.141 2.469 15.456 2.22 15.679 C 1.992 15.885 1.696 15.999 1.389 16 C 1.372 16 1.355 16 1.338 15.999 L 1.336 15.999 C 1.332 15.999 1.327 15.999 1.323 15.999 C 0.993 15.983 0.682 15.837 0.458 15.593 C 0.247 15.362 0.13 15.06 0.13 14.747 C 0.13 14.739 0.13 14.732 0.131 14.725 L 0.131 14.723 C 0.131 14.711 0.131 14.699 0.132 14.688 C 0.156 14.188 0.193 13.689 0.242 13.191 C 0.288 12.736 0.346 12.283 0.418 11.832 C 0.491 11.367 0.58 10.905 0.684 10.446 C 0.784 10.005 0.9 9.568 1.032 9.136 C 1.16 8.719 1.304 8.308 1.465 7.903 C 1.62 7.511 1.794 7.126 1.983 6.75 C 2.168 6.383 2.371 6.025 2.59 5.677 C 2.804 5.337 3.035 5.008 3.283 4.69 C 3.772 4.065 4.325 3.493 4.933 2.985 C 5.545 2.475 6.209 2.031 6.914 1.66 C 7.273 1.47 7.641 1.299 8.016 1.145 C 8.402 0.988 8.794 0.849 9.192 0.728 C 9.602 0.603 10.017 0.496 10.436 0.407 C 10.869 0.314 11.306 0.238 11.746 0.18 C 12.203 0.118 12.662 0.073 13.123 0.045 C 13.596 0.015 14.071 0 14.546 0 C 14.546 0 14.546 0 14.546 0 L 14.564 0 L 14.617 0 C 14.62 0 14.623 0 14.626 0 C 14.958 0.002 15.275 0.136 15.508 0.372 C 15.74 0.607 15.87 0.925 15.87 1.255 C 15.869 1.587 15.736 1.906 15.501 2.14 C 15.266 2.374 14.948 2.505 14.617 2.504 L 14.564 2.504 Z " fill="rgb(0,0,0)"/></g></svg>