<?xml version="1.0" standalone="no"?><!-- Generator: Gravit.io --><svg xmlns="http://www.w3.org/2000/svg" xmlns:xlink="http://www.w3.org/1999/xlink" style="isolation:isolate" viewBox="0 0 16 16" width="16" height="16"><defs><clipPath id="_clipPath_VZPrOl0gfNiM6G7XhdMARK5m0NOzJQFX"><rect width="16" height="16"/></clipPath></defs><g clip-path="url(#_clipPath_VZPrOl0gfNiM6G7XhdMARK5m0NOzJQFX)"><path d=" M 11.188 3.947 L 10.095 3.947 L 10.095 3.947 L 6.977 8.986 L 6.977 10.5 L 4.53 10.5 L 4.53 8.053 L 4.53 8.053 L 6.323 8.053 L 9.375 3.121 L 9.375 1.5 L 9.375 1.5 L 9.375 1.5 L 11.821 1.5 L 11.821 3.057 L 14.296 6.218 L 16 6.218 L 16 8.665 L 13.553 8.665 L 13.553 6.969 L 13.553 6.969 L 11.188 3.947 Z  M 8.77 13.5 L 5.265 13.5 L 5.265 14.5 L 8.77 14.5 L 8.77 16 L 10.765 14 L 8.77 12 L 8.77 13.5 Z  M 11.76 13 L 11.76 11.5 L 15.265 11.5 L 15.265 10.5 L 11.76 10.5 L 11.76 9 L 9.765 11 L 11.76 13 Z  M 5.813 2.25 L 3.75 2.25 L 3.75 0.188 C 3.75 0.084 3.666 0 3.563 0 L 2.438 0 C 2.334 0 2.25 0.084 2.25 0.188 L 2.25 2.25 L 0.188 2.25 C 0.084 2.25 0 2.334 0 2.438 L 0 3.563 C 0 3.666 0.084 3.75 0.188 3.75 L 2.25 3.75 L 2.25 5.813 C 2.25 5.916 2.334 6 2.438 6 L 3.563 6 C 3.666 6 3.75 5.916 3.75 5.813 L 3.75 3.75 L 5.813 3.75 C 5.916 3.75 6 3.666 6 3.563 L 6 2.438 C 6 2.334 5.916 2.25 5.813 2.25 Z " fill-rule="evenodd" fill="rgb(0,0,0)"/></g></svg>