<?xml version="1.0" standalone="no"?><!-- Generator: Gravit.io --><svg xmlns="http://www.w3.org/2000/svg" xmlns:xlink="http://www.w3.org/1999/xlink" style="isolation:isolate" viewBox="0 0 16 16" width="16" height="16"><defs><clipPath id="_clipPath_q1TEksbNArFHmPp2oNGBt0jrUCg7gAdp"><rect width="16" height="16"/></clipPath></defs><g clip-path="url(#_clipPath_q1TEksbNArFHmPp2oNGBt0jrUCg7gAdp)"><path d=" M 6.834 8.142 L 6.833 8.007 L 6.833 7.902 C 6.833 7.9 6.833 7.898 6.833 7.896 C 6.833 7.631 6.843 7.367 6.863 7.104 C 6.883 6.824 6.918 6.546 6.966 6.27 C 7.011 6.015 7.068 5.763 7.136 5.513 C 7.202 5.274 7.28 5.04 7.371 4.81 C 7.457 4.588 7.556 4.371 7.665 4.161 C 7.772 3.953 7.891 3.752 8.02 3.557 C 8.149 3.364 8.288 3.177 8.436 2.997 C 8.587 2.816 8.747 2.643 8.916 2.479 C 9.075 2.324 9.242 2.176 9.416 2.037 C 9.597 1.892 9.783 1.757 9.976 1.629 C 10.181 1.494 10.392 1.368 10.609 1.252 C 10.84 1.128 11.076 1.014 11.316 0.91 C 11.427 0.862 11.539 0.816 11.651 0.773 C 11.767 0.727 11.884 0.684 12.002 0.643 C 12.089 0.612 12.177 0.582 12.266 0.553 C 12.357 0.523 12.45 0.495 12.542 0.467 C 12.869 0.37 13.201 0.285 13.535 0.214 C 13.91 0.134 14.288 0.066 14.667 0.012 C 14.692 0.009 14.717 0.006 14.742 0.004 L 14.747 0.004 C 14.776 0.001 14.805 0 14.833 0 C 15.089 0 15.338 0.084 15.541 0.24 C 15.781 0.424 15.941 0.694 15.987 0.993 C 15.991 1.02 15.994 1.048 15.996 1.076 L 15.996 1.081 C 15.999 1.11 16 1.139 16 1.167 C 16 1.423 15.916 1.672 15.76 1.875 C 15.575 2.118 15.302 2.278 15 2.322 C 14.672 2.369 14.346 2.427 14.023 2.496 C 13.748 2.555 13.476 2.624 13.207 2.704 C 13.133 2.726 13.059 2.749 12.985 2.773 C 12.915 2.796 12.845 2.82 12.774 2.844 C 12.683 2.877 12.591 2.911 12.5 2.946 C 12.413 2.98 12.328 3.015 12.242 3.052 C 12.062 3.13 11.885 3.216 11.712 3.308 C 11.558 3.391 11.407 3.481 11.262 3.577 C 11.128 3.665 10.999 3.759 10.874 3.859 C 10.759 3.951 10.649 4.049 10.544 4.151 C 10.433 4.258 10.329 4.371 10.231 4.489 C 10.136 4.603 10.047 4.723 9.965 4.846 C 9.882 4.971 9.806 5.101 9.737 5.234 C 9.665 5.373 9.6 5.517 9.543 5.662 C 9.482 5.816 9.43 5.973 9.386 6.133 C 9.337 6.31 9.297 6.49 9.265 6.67 C 9.23 6.872 9.205 7.075 9.189 7.279 C 9.174 7.483 9.166 7.688 9.166 7.893 L 9.167 7.993 L 9.168 8.132 C 9.168 8.134 9.168 8.136 9.168 8.139 C 9.168 8.475 9.155 8.812 9.128 9.148 C 9.102 9.491 9.058 9.831 8.995 10.169 C 8.978 10.264 8.959 10.358 8.939 10.452 C 8.919 10.545 8.897 10.637 8.874 10.73 C 8.844 10.848 8.812 10.966 8.777 11.084 C 8.743 11.198 8.706 11.312 8.666 11.425 C 8.581 11.67 8.482 11.91 8.37 12.144 C 8.263 12.369 8.144 12.587 8.011 12.797 C 7.884 13 7.745 13.195 7.596 13.382 C 7.447 13.567 7.288 13.743 7.119 13.909 C 6.961 14.064 6.795 14.211 6.622 14.348 C 6.444 14.488 6.259 14.619 6.067 14.739 C 5.867 14.865 5.661 14.981 5.448 15.085 C 5.224 15.195 4.995 15.294 4.762 15.381 C 4.518 15.473 4.27 15.553 4.018 15.621 C 3.745 15.695 3.469 15.757 3.191 15.807 C 2.879 15.864 2.567 15.907 2.252 15.937 C 1.9 15.971 1.546 15.992 1.193 16 C 1.192 16 1.19 16 1.189 16 L 1.188 16 C 1.18 16 1.172 16 1.165 16 C 0.86 16 0.567 15.879 0.349 15.666 C 0.135 15.455 0.009 15.168 0 14.867 C 0 14.863 0 14.859 0 14.855 L 0 14.854 C 0 14.846 0 14.838 0 14.831 C 0 14.526 0.121 14.233 0.334 14.016 C 0.547 13.799 0.836 13.674 1.14 13.666 C 1.437 13.66 1.734 13.642 2.03 13.614 C 2.279 13.591 2.527 13.556 2.773 13.511 C 2.987 13.472 3.199 13.424 3.409 13.368 C 3.59 13.319 3.768 13.262 3.943 13.196 C 4.105 13.135 4.264 13.067 4.419 12.99 C 4.558 12.922 4.693 12.847 4.824 12.765 C 4.945 12.688 5.063 12.605 5.176 12.516 C 5.284 12.431 5.386 12.341 5.484 12.245 C 5.587 12.143 5.684 12.035 5.775 11.922 C 5.868 11.806 5.955 11.684 6.034 11.557 C 6.118 11.423 6.195 11.284 6.263 11.14 C 6.339 10.981 6.406 10.818 6.464 10.651 C 6.492 10.574 6.517 10.496 6.541 10.417 C 6.566 10.332 6.589 10.247 6.611 10.161 C 6.628 10.094 6.643 10.028 6.658 9.961 C 6.673 9.891 6.687 9.82 6.7 9.749 C 6.747 9.491 6.781 9.23 6.802 8.967 C 6.823 8.693 6.834 8.417 6.834 8.142 Z " fill="rgb(0,0,0)"/></g></svg>