<?xml version="1.0" standalone="no"?><!-- Generator: Gravit.io --><svg xmlns="http://www.w3.org/2000/svg" xmlns:xlink="http://www.w3.org/1999/xlink" style="isolation:isolate" viewBox="0 0 16 16" width="16" height="16"><defs><clipPath id="_clipPath_aVclRpadkXWkDgxpBwZjv28CwTvsrsau"><rect width="16" height="16"/></clipPath></defs><g clip-path="url(#_clipPath_aVclRpadkXWkDgxpBwZjv28CwTvsrsau)"><path d=" M 8.134 0.046 C 8.031 0.016 7.924 0 7.815 0 C 7.512 0 7.221 0.121 7.007 0.335 C 6.793 0.548 6.673 0.839 6.673 1.142 L 6.673 1.187 L 6.673 1.187 L 6.673 13.717 L 1.142 13.717 C 0.839 13.717 0.548 13.837 0.335 14.051 C 0.121 14.265 0 14.555 0 14.858 C 0 15.161 0.121 15.452 0.335 15.665 C 0.548 15.879 0.839 16 1.142 16 L 7.815 16 L 7.815 16 C 8.117 16 8.408 15.879 8.622 15.665 L 8.622 15.665 C 8.836 15.452 8.956 15.161 8.956 14.858 L 8.956 14.858 L 8.956 2.329 L 14.858 2.329 C 15.161 2.329 15.452 2.209 15.665 1.995 C 15.879 1.781 16 1.49 16 1.187 C 16 0.885 15.879 0.594 15.665 0.38 C 15.452 0.166 15.161 0.046 14.858 0.046 L 8.134 0.046 Z " fill="rgb(0,0,0)"/></g></svg>