<?xml version="1.0" standalone="no"?><!-- Generator: Gravit.io --><svg xmlns="http://www.w3.org/2000/svg" xmlns:xlink="http://www.w3.org/1999/xlink" style="isolation:isolate" viewBox="0 0 16 16" width="16" height="16"><defs><clipPath id="_clipPath_IM8EwzIfD1pxYNUxmVh3AOAPDLXorlQf"><rect width="16" height="16"/></clipPath></defs><g clip-path="url(#_clipPath_IM8EwzIfD1pxYNUxmVh3AOAPDLXorlQf)"><path d=" M 4.477 1.688 C 2.524 1.688 0.832 2.825 0 4.485 C 0.832 6.146 2.524 7.283 4.477 7.283 C 6.429 7.283 8.122 6.146 8.953 4.485 C 8.122 2.825 6.429 1.688 4.477 1.688 Z  M 6.684 3.171 C 7.21 3.507 7.656 3.957 7.991 4.485 C 7.656 5.015 7.21 5.464 6.684 5.799 C 6.023 6.221 5.26 6.444 4.477 6.444 C 3.694 6.444 2.931 6.221 2.27 5.799 C 1.744 5.463 1.298 5.014 0.963 4.485 C 1.298 3.956 1.744 3.507 2.27 3.171 C 2.304 3.15 2.338 3.128 2.373 3.108 C 2.286 3.347 2.238 3.605 2.238 3.874 C 2.238 5.11 3.24 6.112 4.477 6.112 C 5.713 6.112 6.715 5.11 6.715 3.874 C 6.715 3.605 6.667 3.347 6.58 3.108 C 6.615 3.128 6.649 3.15 6.684 3.171 L 6.684 3.171 L 6.684 3.171 Z  M 4.477 3.646 C 4.477 4.109 4.101 4.485 3.637 4.485 C 3.174 4.485 2.798 4.109 2.798 3.646 C 2.798 3.183 3.174 2.807 3.637 2.807 C 4.101 2.807 4.477 3.183 4.477 3.646 Z  M 11.188 9.447 L 10.095 9.447 L 10.095 9.447 L 6.977 14.486 L 6.977 16 L 4.53 16 L 4.53 13.553 L 4.53 13.553 L 6.323 13.553 L 9.375 8.621 L 9.375 7 L 9.375 7 L 9.375 7 L 11.821 7 L 11.821 8.557 L 14.296 11.718 L 16 11.718 L 16 14.165 L 13.553 14.165 L 13.553 12.469 L 13.553 12.469 L 11.188 9.447 Z " fill-rule="evenodd" fill="rgb(0,0,0)"/></g></svg>