<?xml version="1.0" standalone="no"?><!-- Generator: Gravit.io --><svg xmlns="http://www.w3.org/2000/svg" xmlns:xlink="http://www.w3.org/1999/xlink" style="isolation:isolate" viewBox="0 0 16 16" width="16" height="16"><path d=" M 6.302 11.191 L 7.556 12.444 L 12 8 L 7.556 3.556 L 6.302 4.809 L 8.596 7.111 L 0 7.111 L 0 8.889 L 8.596 8.889 L 6.302 11.191 Z  M 14.222 0 L 1.778 0 C 0.791 0 0 0.8 0 1.778 L 0 5.333 L 1.778 5.333 L 1.778 1.778 L 14.222 1.778 L 14.222 14.222 L 1.778 14.222 L 1.778 10.667 L 0 10.667 L 0 14.222 C 0 15.2 0.791 16 1.778 16 L 14.222 16 C 15.2 16 16 15.2 16 14.222 L 16 1.778 C 16 0.8 15.2 0 14.222 0 Z " fill="rgb(0,0,0)"/></svg>