<?xml version="1.0" standalone="no"?><!-- Generator: Gravit.io --><svg xmlns="http://www.w3.org/2000/svg" xmlns:xlink="http://www.w3.org/1999/xlink" style="isolation:isolate" viewBox="1.091 0 13.818 16" width="13.818" height="16"><path d=" M 11.273 0 L 2.545 0 C 1.745 0 1.091 0.655 1.091 1.455 L 1.091 11.636 L 2.545 11.636 L 2.545 1.455 L 11.273 1.455 L 11.273 0 Z  M 10.545 2.909 L 14.909 7.273 L 14.909 14.545 C 14.909 15.345 14.255 16 13.455 16 L 5.447 16 C 4.647 16 4 15.345 4 14.545 L 4.007 4.364 C 4.007 3.564 4.655 2.909 5.455 2.909 L 10.545 2.909 Z  M 9.818 8 L 13.818 8 L 9.818 4 L 9.818 8 Z " fill="rgb(0,0,0)"/></svg>