<?xml version="1.0" standalone="no"?><!-- Generator: Gravit.io --><svg xmlns="http://www.w3.org/2000/svg" xmlns:xlink="http://www.w3.org/1999/xlink" style="isolation:isolate" viewBox="1.6 0 12.8 16" width="12.8" height="16"><path d=" M 14.4 14.072 L 14.4 4.8 L 9.6 0 L 3.2 0 C 2.32 0 1.608 0.72 1.608 1.6 L 1.6 14.4 C 1.6 15.28 2.312 16 3.192 16 L 12.8 16 C 13.16 16 13.48 15.88 13.752 15.68 L 10.208 12.136 C 9.568 12.552 8.816 12.8 8 12.8 C 5.792 12.8 4 11.008 4 8.8 C 4 6.592 5.792 4.8 8 4.8 C 10.208 4.8 12 6.592 12 8.8 C 12 9.616 11.752 10.368 11.336 11 L 14.4 14.072 Z  M 5.6 8.8 C 5.6 10.128 6.672 11.2 8 11.2 C 9.328 11.2 10.4 10.128 10.4 8.8 C 10.4 7.472 9.328 6.4 8 6.4 C 6.672 6.4 5.6 7.472 5.6 8.8 Z " fill="rgb(0,0,0)"/></svg>