<?xml version="1.0" standalone="no"?><!-- Generator: Gravit.io --><svg xmlns="http://www.w3.org/2000/svg" xmlns:xlink="http://www.w3.org/1999/xlink" style="isolation:isolate" viewBox="0 0 16 16" width="16" height="16"><path d=" M 6.404 1.83 C 7.666 1.83 8.81 2.342 9.642 3.165 L 7.318 5.489 L 12.807 5.489 L 12.807 0 L 10.932 1.875 C 9.77 0.714 8.169 0 6.404 0 C 3.174 0 0.521 2.388 0.073 5.489 L 1.921 5.489 C 2.342 3.403 4.19 1.83 6.404 1.83 Z  M 11.563 10.191 C 12.167 9.368 12.588 8.389 12.734 7.318 L 10.886 7.318 C 10.465 9.404 8.617 10.978 6.404 10.978 C 5.141 10.978 3.998 10.465 3.165 9.642 L 5.489 7.318 L 0 7.318 L 0 12.807 L 1.875 10.932 C 3.037 12.094 4.638 12.807 6.404 12.807 C 7.822 12.807 9.13 12.341 10.191 11.563 L 14.637 16 L 16 14.637 L 11.563 10.191 Z " fill="rgb(0,0,0)"/></svg>