<?xml version="1.0" standalone="no"?><!-- Generator: Gravit.io --><svg xmlns="http://www.w3.org/2000/svg" xmlns:xlink="http://www.w3.org/1999/xlink" style="isolation:isolate" viewBox="0 0 16 16" width="16" height="16"><defs><clipPath id="_clipPath_GgCoYvKcsMC9aeoqvN4nRZENmdFRwrUD"><rect width="16" height="16"/></clipPath></defs><g clip-path="url(#_clipPath_GgCoYvKcsMC9aeoqvN4nRZENmdFRwrUD)"><path d=" M 14.4 3.2 L 7.2 3.2 L 5.6 1.6 L 1.6 1.6 C 0.716 1.6 0 2.316 0 3.2 L 0 12.8 C 0 13.684 0.716 14.4 1.6 14.4 L 14.4 14.4 C 15.284 14.4 16 13.684 16 12.8 L 16 4.8 C 16 3.916 15.284 3.2 14.4 3.2 Z  M 7.424 8.229 L 7.424 8.229 L 5.898 8.229 L 5.898 9.208 L 7.174 9.208 L 7.174 9.208 Q 7.351 9.208 7.438 9.287 L 7.438 9.287 L 7.438 9.287 Q 7.526 9.367 7.526 9.5 L 7.526 9.5 L 7.526 9.5 Q 7.526 9.633 7.437 9.711 L 7.437 9.711 L 7.437 9.711 Q 7.348 9.79 7.174 9.79 L 7.174 9.79 L 5.898 9.79 L 5.898 11.05 L 5.898 11.05 Q 5.898 11.29 5.789 11.406 L 5.789 11.406 L 5.789 11.406 Q 5.681 11.522 5.511 11.522 L 5.511 11.522 L 5.511 11.522 Q 5.339 11.522 5.231 11.405 L 5.231 11.405 L 5.231 11.405 Q 5.123 11.287 5.123 11.05 L 5.123 11.05 L 5.123 8.106 L 5.123 8.106 Q 5.123 7.94 5.172 7.834 L 5.172 7.834 L 5.172 7.834 Q 5.222 7.728 5.327 7.68 L 5.327 7.68 L 5.327 7.68 Q 5.433 7.632 5.598 7.632 L 5.598 7.632 L 7.424 7.632 L 7.424 7.632 Q 7.609 7.632 7.699 7.714 L 7.699 7.714 L 7.699 7.714 Q 7.789 7.796 7.789 7.929 L 7.789 7.929 L 7.789 7.929 Q 7.789 8.065 7.699 8.147 L 7.699 8.147 L 7.699 8.147 Q 7.609 8.229 7.424 8.229 L 7.424 8.229 Z  M 8.225 10.713 L 8.225 10.713 L 9.081 9.463 L 8.361 8.352 L 8.361 8.352 Q 8.259 8.19 8.208 8.074 L 8.208 8.074 L 8.208 8.074 Q 8.157 7.958 8.157 7.851 L 8.157 7.851 L 8.157 7.851 Q 8.157 7.741 8.255 7.654 L 8.255 7.654 L 8.255 7.654 Q 8.353 7.566 8.494 7.566 L 8.494 7.566 L 8.494 7.566 Q 8.656 7.566 8.746 7.662 L 8.746 7.662 L 8.746 7.662 Q 8.836 7.757 8.995 8.015 L 8.995 8.015 L 9.569 8.944 L 10.182 8.015 L 10.182 8.015 Q 10.258 7.898 10.311 7.814 L 10.311 7.814 L 10.311 7.814 Q 10.365 7.731 10.414 7.676 L 10.414 7.676 L 10.414 7.676 Q 10.464 7.621 10.525 7.594 L 10.525 7.594 L 10.525 7.594 Q 10.587 7.566 10.667 7.566 L 10.667 7.566 L 10.667 7.566 Q 10.814 7.566 10.906 7.654 L 10.906 7.654 L 10.906 7.654 Q 10.999 7.741 10.999 7.861 L 10.999 7.861 L 10.999 7.861 Q 10.999 8.036 10.798 8.336 L 10.798 8.336 L 10.044 9.463 L 10.855 10.713 L 10.855 10.713 Q 10.965 10.878 11.014 10.986 L 11.014 10.986 L 11.014 10.986 Q 11.064 11.094 11.064 11.191 L 11.064 11.191 L 11.064 11.191 Q 11.064 11.282 11.02 11.358 L 11.02 11.358 L 11.02 11.358 Q 10.975 11.433 10.894 11.478 L 10.894 11.478 L 10.894 11.478 Q 10.814 11.522 10.712 11.522 L 10.712 11.522 L 10.712 11.522 Q 10.602 11.522 10.527 11.476 L 10.527 11.476 L 10.527 11.476 Q 10.451 11.431 10.404 11.363 L 10.404 11.363 L 10.404 11.363 Q 10.357 11.295 10.229 11.099 L 10.229 11.099 L 9.556 10.04 L 8.841 11.131 L 8.841 11.131 Q 8.757 11.261 8.722 11.313 L 8.722 11.313 L 8.722 11.313 Q 8.687 11.366 8.637 11.415 L 8.637 11.415 L 8.637 11.415 Q 8.588 11.465 8.52 11.493 L 8.52 11.493 L 8.52 11.493 Q 8.452 11.522 8.361 11.522 L 8.361 11.522 L 8.361 11.522 Q 8.22 11.522 8.127 11.436 L 8.127 11.436 L 8.127 11.436 Q 8.035 11.35 8.035 11.185 L 8.035 11.185 L 8.035 11.185 Q 8.035 10.992 8.225 10.713 L 8.225 10.713 Z " fill-rule="evenodd" fill="rgb(0,0,0)"/></g></svg>