<?xml version="1.0" standalone="no"?><!-- Generator: Gravit.io --><svg xmlns="http://www.w3.org/2000/svg" xmlns:xlink="http://www.w3.org/1999/xlink" style="isolation:isolate" viewBox="0 0 16 16" width="16" height="16"><defs><clipPath id="_clipPath_obHBlg5qYKyCp3PcZRD2EVXpPMcn7tJB"><rect width="16" height="16"/></clipPath></defs><g clip-path="url(#_clipPath_obHBlg5qYKyCp3PcZRD2EVXpPMcn7tJB)"><path d=" M 14.4 3.2 L 7.2 3.2 L 5.6 1.6 L 1.6 1.6 C 0.716 1.6 0 2.316 0 3.2 L 0 12.8 C 0 13.684 0.716 14.4 1.6 14.4 L 14.4 14.4 C 15.284 14.4 16 13.684 16 12.8 L 16 4.8 C 16 3.916 15.284 3.2 14.4 3.2 Z  M 4.269 9.583 L 4.269 9.583 L 4.269 10.25 L 4.269 10.25 Q 4.269 10.383 4.243 10.462 L 4.243 10.462 L 4.243 10.462 Q 4.216 10.542 4.147 10.606 L 4.147 10.606 L 4.147 10.606 Q 4.077 10.67 3.967 10.729 L 3.967 10.729 L 3.967 10.729 Q 3.652 10.9 3.36 10.978 L 3.36 10.978 L 3.36 10.978 Q 3.068 11.056 2.724 11.056 L 2.724 11.056 L 2.724 11.056 Q 2.324 11.056 1.994 10.933 L 1.994 10.933 L 1.994 10.933 Q 1.664 10.81 1.432 10.575 L 1.432 10.575 L 1.432 10.575 Q 1.199 10.34 1.075 10.006 L 1.075 10.006 L 1.075 10.006 Q 0.95 9.671 0.95 9.258 L 0.95 9.258 L 0.95 9.258 Q 0.95 8.853 1.071 8.516 L 1.071 8.516 L 1.071 8.516 Q 1.192 8.179 1.427 7.944 L 1.427 7.944 L 1.427 7.944 Q 1.662 7.709 1.999 7.585 L 1.999 7.585 L 1.999 7.585 Q 2.335 7.46 2.762 7.46 L 2.762 7.46 L 2.762 7.46 Q 3.113 7.46 3.384 7.554 L 3.384 7.554 L 3.384 7.554 Q 3.654 7.648 3.823 7.79 L 3.823 7.79 L 3.823 7.79 Q 3.991 7.932 4.077 8.091 L 4.077 8.091 L 4.077 8.091 Q 4.162 8.25 4.162 8.374 L 4.162 8.374 L 4.162 8.374 Q 4.162 8.506 4.063 8.6 L 4.063 8.6 L 4.063 8.6 Q 3.965 8.694 3.827 8.694 L 3.827 8.694 L 3.827 8.694 Q 3.752 8.694 3.682 8.658 L 3.682 8.658 L 3.682 8.658 Q 3.612 8.623 3.564 8.559 L 3.564 8.559 L 3.564 8.559 Q 3.434 8.355 3.344 8.25 L 3.344 8.25 L 3.344 8.25 Q 3.253 8.146 3.1 8.075 L 3.1 8.075 L 3.1 8.075 Q 2.947 8.004 2.71 8.004 L 2.71 8.004 L 2.71 8.004 Q 2.466 8.004 2.274 8.088 L 2.274 8.088 L 2.274 8.088 Q 2.082 8.172 1.945 8.332 L 1.945 8.332 L 1.945 8.332 Q 1.809 8.492 1.736 8.725 L 1.736 8.725 L 1.736 8.725 Q 1.664 8.957 1.664 9.239 L 1.664 9.239 L 1.664 9.239 Q 1.664 9.851 1.945 10.181 L 1.945 10.181 L 1.945 10.181 Q 2.226 10.511 2.729 10.511 L 2.729 10.511 L 2.729 10.511 Q 2.973 10.511 3.188 10.447 L 3.188 10.447 L 3.188 10.447 Q 3.403 10.383 3.623 10.264 L 3.623 10.264 L 3.623 9.7 L 3.078 9.7 L 3.078 9.7 Q 2.881 9.7 2.78 9.64 L 2.78 9.64 L 2.78 9.64 Q 2.679 9.581 2.679 9.439 L 2.679 9.439 L 2.679 9.439 Q 2.679 9.322 2.764 9.247 L 2.764 9.247 L 2.764 9.247 Q 2.848 9.171 2.992 9.171 L 2.992 9.171 L 3.792 9.171 L 3.792 9.171 Q 3.939 9.171 4.041 9.197 L 4.041 9.197 L 4.041 9.197 Q 4.143 9.223 4.206 9.313 L 4.206 9.313 L 4.206 9.313 Q 4.269 9.403 4.269 9.583 L 4.269 9.583 Z  M 7.471 9.249 L 7.471 9.249 L 7.471 9.249 Q 7.471 8.867 7.348 8.587 L 7.348 8.587 L 7.348 8.587 Q 7.224 8.307 6.995 8.164 L 6.995 8.164 L 6.995 8.164 Q 6.767 8.02 6.47 8.02 L 6.47 8.02 L 6.47 8.02 Q 6.259 8.02 6.08 8.1 L 6.08 8.1 L 6.08 8.1 Q 5.901 8.179 5.771 8.331 L 5.771 8.331 L 5.771 8.331 Q 5.642 8.483 5.567 8.719 L 5.567 8.719 L 5.567 8.719 Q 5.493 8.955 5.493 9.249 L 5.493 9.249 L 5.493 9.249 Q 5.493 9.545 5.567 9.785 L 5.567 9.785 L 5.567 9.785 Q 5.642 10.025 5.779 10.182 L 5.779 10.182 L 5.779 10.182 Q 5.915 10.34 6.092 10.418 L 6.092 10.418 L 6.092 10.418 Q 6.268 10.497 6.479 10.497 L 6.479 10.497 L 6.479 10.497 Q 6.75 10.497 6.976 10.361 L 6.976 10.361 L 6.976 10.361 Q 7.203 10.226 7.337 9.944 L 7.337 9.944 L 7.337 9.944 Q 7.471 9.662 7.471 9.249 L 7.471 9.249 Z  M 10.137 8.049 L 10.137 8.049 L 9.487 8.049 L 9.487 9.005 L 10.118 9.005 L 10.118 9.005 Q 10.372 9.005 10.545 8.961 L 10.545 8.961 L 10.545 8.961 Q 10.718 8.917 10.81 8.811 L 10.81 8.811 L 10.81 8.811 Q 10.901 8.706 10.901 8.521 L 10.901 8.521 L 10.901 8.521 Q 10.901 8.376 10.828 8.266 L 10.828 8.266 L 10.828 8.266 Q 10.754 8.155 10.624 8.101 L 10.624 8.101 L 10.624 8.101 Q 10.5 8.049 10.137 8.049 L 10.137 8.049 Z  M 14.573 8.063 L 14.573 8.063 L 12.986 8.063 L 12.986 8.917 L 14.447 8.917 L 14.447 8.917 Q 14.609 8.917 14.688 8.989 L 14.688 8.989 L 14.688 8.989 Q 14.768 9.062 14.768 9.18 L 14.768 9.18 L 14.768 9.18 Q 14.768 9.299 14.689 9.373 L 14.689 9.373 L 14.689 9.373 Q 14.611 9.448 14.447 9.448 L 14.447 9.448 L 12.986 9.448 L 12.986 10.437 L 14.628 10.437 L 14.628 10.437 Q 14.794 10.437 14.878 10.514 L 14.878 10.514 L 14.878 10.514 Q 14.962 10.592 14.962 10.72 L 14.962 10.72 L 14.962 10.72 Q 14.962 10.843 14.878 10.92 L 14.878 10.92 L 14.878 10.92 Q 14.794 10.997 14.628 10.997 L 14.628 10.997 L 12.713 10.997 L 12.713 10.997 Q 12.483 10.997 12.382 10.895 L 12.382 10.895 L 12.382 10.895 Q 12.282 10.793 12.282 10.565 L 12.282 10.565 L 12.282 7.951 L 12.282 7.951 Q 12.282 7.8 12.327 7.703 L 12.327 7.703 L 12.327 7.703 Q 12.372 7.607 12.468 7.564 L 12.468 7.564 L 12.468 7.564 Q 12.564 7.52 12.713 7.52 L 12.713 7.52 L 14.573 7.52 L 14.573 7.52 Q 14.742 7.52 14.823 7.594 L 14.823 7.594 L 14.823 7.594 Q 14.905 7.669 14.905 7.79 L 14.905 7.79 L 14.905 7.79 Q 14.905 7.913 14.823 7.988 L 14.823 7.988 L 14.823 7.988 Q 14.742 8.063 14.573 8.063 L 14.573 8.063 Z  M 6.47 7.46 L 6.47 7.46 L 6.47 7.46 Q 7.011 7.46 7.399 7.68 L 7.399 7.68 L 7.399 7.68 Q 7.787 7.899 7.986 8.304 L 7.986 8.304 L 7.986 8.304 Q 8.185 8.708 8.185 9.254 L 8.185 9.254 L 8.185 9.254 Q 8.185 9.657 8.076 9.987 L 8.076 9.987 L 8.076 9.987 Q 7.967 10.316 7.749 10.558 L 7.749 10.558 L 7.749 10.558 Q 7.53 10.8 7.212 10.928 L 7.212 10.928 L 7.212 10.928 Q 6.895 11.056 6.484 11.056 L 6.484 11.056 L 6.484 11.056 Q 6.076 11.056 5.754 10.925 L 5.754 10.925 L 5.754 10.925 Q 5.431 10.793 5.215 10.554 L 5.215 10.554 L 5.215 10.554 Q 4.999 10.314 4.889 9.977 L 4.889 9.977 L 4.889 9.977 Q 4.779 9.64 4.779 9.249 L 4.779 9.249 L 4.779 9.249 Q 4.779 8.848 4.894 8.514 L 4.894 8.514 L 4.894 8.514 Q 5.009 8.179 5.227 7.944 L 5.227 7.944 L 5.227 7.944 Q 5.445 7.709 5.758 7.585 L 5.758 7.585 L 5.758 7.585 Q 6.071 7.46 6.47 7.46 L 6.47 7.46 Z  M 9.734 9.51 L 9.734 9.51 L 9.487 9.51 L 9.487 10.627 L 9.487 10.627 Q 9.487 10.848 9.39 10.952 L 9.39 10.952 L 9.39 10.952 Q 9.293 11.056 9.136 11.056 L 9.136 11.056 L 9.136 11.056 Q 8.968 11.056 8.875 10.947 L 8.875 10.947 L 8.875 10.947 Q 8.783 10.838 8.783 10.627 L 8.783 10.627 L 8.783 7.951 L 8.783 7.951 Q 8.783 7.724 8.885 7.622 L 8.885 7.622 L 8.885 7.622 Q 8.987 7.52 9.215 7.52 L 9.215 7.52 L 10.36 7.52 L 10.36 7.52 Q 10.597 7.52 10.766 7.54 L 10.766 7.54 L 10.766 7.54 Q 10.934 7.56 11.07 7.622 L 11.07 7.622 L 11.07 7.622 Q 11.233 7.69 11.359 7.819 L 11.359 7.819 L 11.359 7.819 Q 11.485 7.947 11.55 8.116 L 11.55 8.116 L 11.55 8.116 Q 11.615 8.286 11.615 8.476 L 11.615 8.476 L 11.615 8.476 Q 11.615 8.865 11.396 9.097 L 11.396 9.097 L 11.396 9.097 Q 11.176 9.33 10.73 9.427 L 10.73 9.427 L 10.73 9.427 Q 10.918 9.526 11.088 9.721 L 11.088 9.721 L 11.088 9.721 Q 11.259 9.915 11.393 10.135 L 11.393 10.135 L 11.393 10.135 Q 11.527 10.354 11.602 10.531 L 11.602 10.531 L 11.602 10.531 Q 11.677 10.708 11.677 10.774 L 11.677 10.774 L 11.677 10.774 Q 11.677 10.843 11.633 10.911 L 11.633 10.911 L 11.633 10.911 Q 11.589 10.978 11.513 11.017 L 11.513 11.017 L 11.513 11.017 Q 11.437 11.056 11.338 11.056 L 11.338 11.056 L 11.338 11.056 Q 11.219 11.056 11.138 11.001 L 11.138 11.001 L 11.138 11.001 Q 11.058 10.945 11 10.86 L 11 10.86 L 11 10.86 Q 10.941 10.774 10.842 10.608 L 10.842 10.608 L 10.56 10.138 L 10.56 10.138 Q 10.408 9.88 10.288 9.745 L 10.288 9.745 L 10.288 9.745 Q 10.168 9.609 10.045 9.56 L 10.045 9.56 L 10.045 9.56 Q 9.921 9.51 9.734 9.51 L 9.734 9.51 Z " fill-rule="evenodd" fill="rgb(0,0,0)"/></g></svg>