<?xml version="1.0" standalone="no"?><!-- Generator: Gravit.io --><svg xmlns="http://www.w3.org/2000/svg" xmlns:xlink="http://www.w3.org/1999/xlink" style="isolation:isolate" viewBox="0 0 16 16" width="16" height="16"><defs><clipPath id="_clipPath_1gjOKcIgDCmcMmKTrgwB3OleHNqXE0Jo"><rect width="16" height="16"/></clipPath></defs><g clip-path="url(#_clipPath_1gjOKcIgDCmcMmKTrgwB3OleHNqXE0Jo)"><path d=" M 14.4 3.2 L 7.2 3.2 L 5.6 1.6 L 1.6 1.6 C 0.716 1.6 0 2.316 0 3.2 L 0 12.8 C 0 13.684 0.716 14.4 1.6 14.4 L 14.4 14.4 C 15.284 14.4 16 13.684 16 12.8 L 16 4.8 C 16 3.916 15.284 3.2 14.4 3.2 Z  M 4.31 9.758 L 4.31 9.758 L 3.503 9.758 L 3.503 10.875 L 4.336 10.875 L 4.336 10.875 Q 5.121 10.875 5.121 10.309 L 5.121 10.309 L 5.121 10.309 Q 5.121 10.019 4.918 9.889 L 4.918 9.889 L 4.918 9.889 Q 4.714 9.758 4.31 9.758 L 4.31 9.758 Z  M 4.132 8.213 L 3.503 8.213 L 3.503 9.202 L 4.213 9.202 L 4.213 9.202 Q 4.503 9.202 4.661 9.148 L 4.661 9.148 L 4.661 9.148 Q 4.818 9.093 4.902 8.939 L 4.902 8.939 L 4.902 8.939 Q 4.967 8.829 4.967 8.694 L 4.967 8.694 L 4.967 8.694 Q 4.967 8.404 4.761 8.309 L 4.761 8.309 L 4.761 8.309 Q 4.555 8.213 4.132 8.213 L 4.132 8.213 L 4.132 8.213 Z  M 6.379 9.876 L 6.379 9.876 L 6.379 8.036 L 6.379 8.036 Q 6.379 7.801 6.484 7.684 L 6.484 7.684 L 6.484 7.684 Q 6.59 7.566 6.762 7.566 L 6.762 7.566 L 6.762 7.566 Q 6.942 7.566 7.048 7.684 L 7.048 7.684 L 7.048 7.684 Q 7.154 7.801 7.154 8.036 L 7.154 8.036 L 7.154 9.917 L 7.154 9.917 Q 7.154 10.238 7.225 10.454 L 7.225 10.454 L 7.225 10.454 Q 7.297 10.669 7.48 10.788 L 7.48 10.788 L 7.48 10.788 Q 7.663 10.906 7.991 10.906 L 7.991 10.906 L 7.991 10.906 Q 8.445 10.906 8.633 10.665 L 8.633 10.665 L 8.633 10.665 Q 8.821 10.424 8.821 9.933 L 8.821 9.933 L 8.821 8.036 L 8.821 8.036 Q 8.821 7.799 8.925 7.682 L 8.925 7.682 L 8.925 7.682 Q 9.03 7.566 9.205 7.566 L 9.205 7.566 L 9.205 7.566 Q 9.379 7.566 9.488 7.682 L 9.488 7.682 L 9.488 7.682 Q 9.596 7.799 9.596 8.036 L 9.596 8.036 L 9.596 9.876 L 9.596 9.876 Q 9.596 10.324 9.509 10.624 L 9.509 10.624 L 9.509 10.624 Q 9.421 10.925 9.179 11.152 L 9.179 11.152 L 9.179 11.152 Q 8.97 11.345 8.693 11.433 L 8.693 11.433 L 8.693 11.433 Q 8.417 11.522 8.046 11.522 L 8.046 11.522 L 8.046 11.522 Q 7.605 11.522 7.287 11.427 L 7.287 11.427 L 7.287 11.427 Q 6.968 11.332 6.768 11.132 L 6.768 11.132 L 6.768 11.132 Q 6.567 10.932 6.473 10.621 L 6.473 10.621 L 6.473 10.621 Q 6.379 10.309 6.379 9.876 L 6.379 9.876 Z  M 13.34 10.309 L 13.34 10.309 L 13.34 10.309 Q 13.34 10.656 13.162 10.932 L 13.162 10.932 L 13.162 10.932 Q 12.983 11.209 12.639 11.366 L 12.639 11.366 L 12.639 11.366 Q 12.294 11.522 11.822 11.522 L 11.822 11.522 L 11.822 11.522 Q 11.256 11.522 10.888 11.308 L 10.888 11.308 L 10.888 11.308 Q 10.627 11.154 10.464 10.897 L 10.464 10.897 L 10.464 10.897 Q 10.301 10.64 10.301 10.397 L 10.301 10.397 L 10.301 10.397 Q 10.301 10.257 10.398 10.156 L 10.398 10.156 L 10.398 10.156 Q 10.496 10.056 10.648 10.056 L 10.648 10.056 L 10.648 10.056 Q 10.77 10.056 10.855 10.134 L 10.855 10.134 L 10.855 10.134 Q 10.94 10.212 11 10.366 L 11 10.366 L 11 10.366 Q 11.073 10.549 11.158 10.671 L 11.158 10.671 L 11.158 10.671 Q 11.243 10.794 11.396 10.874 L 11.396 10.874 L 11.396 10.874 Q 11.55 10.953 11.801 10.953 L 11.801 10.953 L 11.801 10.953 Q 12.145 10.953 12.361 10.793 L 12.361 10.793 L 12.361 10.793 Q 12.576 10.632 12.576 10.392 L 12.576 10.392 L 12.576 10.392 Q 12.576 10.202 12.46 10.083 L 12.46 10.083 L 12.46 10.083 Q 12.344 9.964 12.16 9.902 L 12.16 9.902 L 12.16 9.902 Q 11.976 9.839 11.668 9.769 L 11.668 9.769 L 11.668 9.769 Q 11.256 9.672 10.978 9.543 L 10.978 9.543 L 10.978 9.543 Q 10.7 9.414 10.537 9.191 L 10.537 9.191 L 10.537 9.191 Q 10.374 8.968 10.374 8.636 L 10.374 8.636 L 10.374 8.636 Q 10.374 8.32 10.546 8.075 L 10.546 8.075 L 10.546 8.075 Q 10.718 7.83 11.044 7.698 L 11.044 7.698 L 11.044 7.698 Q 11.37 7.566 11.811 7.566 L 11.811 7.566 L 11.811 7.566 Q 12.164 7.566 12.421 7.654 L 12.421 7.654 L 12.421 7.654 Q 12.678 7.741 12.847 7.886 L 12.847 7.886 L 12.847 7.886 Q 13.017 8.031 13.095 8.19 L 13.095 8.19 L 13.095 8.19 Q 13.173 8.349 13.173 8.501 L 13.173 8.501 L 13.173 8.501 Q 13.173 8.639 13.076 8.75 L 13.076 8.75 L 13.076 8.75 Q 12.978 8.861 12.832 8.861 L 12.832 8.861 L 12.832 8.861 Q 12.699 8.861 12.629 8.794 L 12.629 8.794 L 12.629 8.794 Q 12.56 8.728 12.479 8.576 L 12.479 8.576 L 12.479 8.576 Q 12.375 8.36 12.229 8.238 L 12.229 8.238 L 12.229 8.238 Q 12.083 8.117 11.759 8.117 L 11.759 8.117 L 11.759 8.117 Q 11.459 8.117 11.275 8.249 L 11.275 8.249 L 11.275 8.249 Q 11.091 8.38 11.091 8.566 L 11.091 8.566 L 11.091 8.566 Q 11.091 8.681 11.154 8.764 L 11.154 8.764 L 11.154 8.764 Q 11.216 8.848 11.326 8.908 L 11.326 8.908 L 11.326 8.908 Q 11.436 8.968 11.548 9.001 L 11.548 9.001 L 11.548 9.001 Q 11.66 9.035 11.918 9.101 L 11.918 9.101 L 11.918 9.101 Q 12.242 9.176 12.504 9.268 L 12.504 9.268 L 12.504 9.268 Q 12.766 9.359 12.95 9.489 L 12.95 9.489 L 12.95 9.489 Q 13.134 9.62 13.237 9.82 L 13.237 9.82 L 13.237 9.82 Q 13.34 10.019 13.34 10.309 L 13.34 10.309 Z  M 4.367 11.457 L 4.367 11.457 L 3.198 11.457 L 3.198 11.457 Q 2.945 11.457 2.837 11.343 L 2.837 11.343 L 2.837 11.343 Q 2.728 11.23 2.728 10.982 L 2.728 10.982 L 2.728 8.106 L 2.728 8.106 Q 2.728 7.853 2.839 7.742 L 2.839 7.742 L 2.839 7.742 Q 2.95 7.632 3.198 7.632 L 3.198 7.632 L 4.437 7.632 L 4.437 7.632 Q 4.711 7.632 4.912 7.666 L 4.912 7.666 L 4.912 7.666 Q 5.113 7.699 5.272 7.796 L 5.272 7.796 L 5.272 7.796 Q 5.408 7.877 5.512 8.001 L 5.512 8.001 L 5.512 8.001 Q 5.617 8.125 5.672 8.275 L 5.672 8.275 L 5.672 8.275 Q 5.726 8.425 5.726 8.592 L 5.726 8.592 L 5.726 8.592 Q 5.726 9.166 5.152 9.432 L 5.152 9.432 L 5.152 9.432 Q 5.906 9.672 5.906 10.366 L 5.906 10.366 L 5.906 10.366 Q 5.906 10.687 5.742 10.944 L 5.742 10.944 L 5.742 10.944 Q 5.578 11.201 5.298 11.324 L 5.298 11.324 L 5.298 11.324 Q 5.124 11.397 4.897 11.427 L 4.897 11.427 L 4.897 11.427 Q 4.67 11.457 4.367 11.457 L 4.367 11.457 Z " fill-rule="evenodd" fill="rgb(0,0,0)"/></g></svg>