<?xml version="1.0" standalone="no"?><!-- Generator: Gravit.io --><svg xmlns="http://www.w3.org/2000/svg" xmlns:xlink="http://www.w3.org/1999/xlink" style="isolation:isolate" viewBox="0 0 16 16" width="16" height="16"><defs><clipPath id="_clipPath_pVRCdZ5R9AIMboo0zu9aOp0Y9vSYuxnQ"><rect width="16" height="16"/></clipPath></defs><g clip-path="url(#_clipPath_pVRCdZ5R9AIMboo0zu9aOp0Y9vSYuxnQ)"><path d=" M 14.4 3.2 L 7.2 3.2 L 5.6 1.6 L 1.6 1.6 C 0.716 1.6 0 2.316 0 3.2 L 0 12.8 C 0 13.684 0.716 14.4 1.6 14.4 L 14.4 14.4 C 15.284 14.4 16 13.684 16 12.8 L 16 4.8 C 16 3.916 15.284 3.2 14.4 3.2 Z  M 6.248 10.309 L 6.248 10.309 L 6.248 10.309 Q 6.248 10.656 6.069 10.932 L 6.069 10.932 L 6.069 10.932 Q 5.89 11.209 5.546 11.366 L 5.546 11.366 L 5.546 11.366 Q 5.201 11.522 4.729 11.522 L 4.729 11.522 L 4.729 11.522 Q 4.163 11.522 3.795 11.308 L 3.795 11.308 L 3.795 11.308 Q 3.534 11.154 3.371 10.897 L 3.371 10.897 L 3.371 10.897 Q 3.208 10.64 3.208 10.397 L 3.208 10.397 L 3.208 10.397 Q 3.208 10.257 3.306 10.156 L 3.306 10.156 L 3.306 10.156 Q 3.403 10.056 3.555 10.056 L 3.555 10.056 L 3.555 10.056 Q 3.677 10.056 3.762 10.134 L 3.762 10.134 L 3.762 10.134 Q 3.847 10.212 3.907 10.366 L 3.907 10.366 L 3.907 10.366 Q 3.98 10.549 4.065 10.671 L 4.065 10.671 L 4.065 10.671 Q 4.15 10.794 4.304 10.874 L 4.304 10.874 L 4.304 10.874 Q 4.458 10.953 4.708 10.953 L 4.708 10.953 L 4.708 10.953 Q 5.053 10.953 5.268 10.793 L 5.268 10.793 L 5.268 10.793 Q 5.483 10.632 5.483 10.392 L 5.483 10.392 L 5.483 10.392 Q 5.483 10.202 5.367 10.083 L 5.367 10.083 L 5.367 10.083 Q 5.251 9.964 5.067 9.902 L 5.067 9.902 L 5.067 9.902 Q 4.883 9.839 4.575 9.769 L 4.575 9.769 L 4.575 9.769 Q 4.163 9.672 3.885 9.543 L 3.885 9.543 L 3.885 9.543 Q 3.607 9.414 3.444 9.191 L 3.444 9.191 L 3.444 9.191 Q 3.281 8.968 3.281 8.636 L 3.281 8.636 L 3.281 8.636 Q 3.281 8.32 3.453 8.075 L 3.453 8.075 L 3.453 8.075 Q 3.625 7.83 3.951 7.698 L 3.951 7.698 L 3.951 7.698 Q 4.278 7.566 4.719 7.566 L 4.719 7.566 L 4.719 7.566 Q 5.071 7.566 5.328 7.654 L 5.328 7.654 L 5.328 7.654 Q 5.585 7.741 5.754 7.886 L 5.754 7.886 L 5.754 7.886 Q 5.924 8.031 6.002 8.19 L 6.002 8.19 L 6.002 8.19 Q 6.081 8.349 6.081 8.501 L 6.081 8.501 L 6.081 8.501 Q 6.081 8.639 5.983 8.75 L 5.983 8.75 L 5.983 8.75 Q 5.885 8.861 5.739 8.861 L 5.739 8.861 L 5.739 8.861 Q 5.606 8.861 5.537 8.794 L 5.537 8.794 L 5.537 8.794 Q 5.467 8.728 5.387 8.576 L 5.387 8.576 L 5.387 8.576 Q 5.282 8.36 5.136 8.238 L 5.136 8.238 L 5.136 8.238 Q 4.99 8.117 4.666 8.117 L 4.666 8.117 L 4.666 8.117 Q 4.366 8.117 4.182 8.249 L 4.182 8.249 L 4.182 8.249 Q 3.998 8.38 3.998 8.566 L 3.998 8.566 L 3.998 8.566 Q 3.998 8.681 4.061 8.764 L 4.061 8.764 L 4.061 8.764 Q 4.124 8.848 4.233 8.908 L 4.233 8.908 L 4.233 8.908 Q 4.343 8.968 4.455 9.001 L 4.455 9.001 L 4.455 9.001 Q 4.567 9.035 4.825 9.101 L 4.825 9.101 L 4.825 9.101 Q 5.149 9.176 5.411 9.268 L 5.411 9.268 L 5.411 9.268 Q 5.674 9.359 5.857 9.489 L 5.857 9.489 L 5.857 9.489 Q 6.041 9.62 6.145 9.82 L 6.145 9.82 L 6.145 9.82 Q 6.248 10.019 6.248 10.309 L 6.248 10.309 Z  M 9.191 8.229 L 9.191 8.229 L 7.664 8.229 L 7.664 9.208 L 8.94 9.208 L 8.94 9.208 Q 9.118 9.208 9.205 9.287 L 9.205 9.287 L 9.205 9.287 Q 9.293 9.367 9.293 9.5 L 9.293 9.5 L 9.293 9.5 Q 9.293 9.633 9.204 9.711 L 9.204 9.711 L 9.204 9.711 Q 9.115 9.79 8.94 9.79 L 8.94 9.79 L 7.664 9.79 L 7.664 11.05 L 7.664 11.05 Q 7.664 11.29 7.556 11.406 L 7.556 11.406 L 7.556 11.406 Q 7.448 11.522 7.278 11.522 L 7.278 11.522 L 7.278 11.522 Q 7.106 11.522 6.998 11.405 L 6.998 11.405 L 6.998 11.405 Q 6.889 11.287 6.889 11.05 L 6.889 11.05 L 6.889 8.106 L 6.889 8.106 Q 6.889 7.94 6.939 7.834 L 6.939 7.834 L 6.939 7.834 Q 6.989 7.728 7.094 7.68 L 7.094 7.68 L 7.094 7.68 Q 7.2 7.632 7.364 7.632 L 7.364 7.632 L 9.191 7.632 L 9.191 7.632 Q 9.376 7.632 9.466 7.714 L 9.466 7.714 L 9.466 7.714 Q 9.556 7.796 9.556 7.929 L 9.556 7.929 L 9.556 7.929 Q 9.556 8.065 9.466 8.147 L 9.466 8.147 L 9.466 8.147 Q 9.376 8.229 9.191 8.229 L 9.191 8.229 Z  M 9.992 10.713 L 9.992 10.713 L 10.848 9.463 L 10.128 8.352 L 10.128 8.352 Q 10.026 8.19 9.975 8.074 L 9.975 8.074 L 9.975 8.074 Q 9.924 7.958 9.924 7.851 L 9.924 7.851 L 9.924 7.851 Q 9.924 7.741 10.022 7.654 L 10.022 7.654 L 10.022 7.654 Q 10.12 7.566 10.261 7.566 L 10.261 7.566 L 10.261 7.566 Q 10.422 7.566 10.513 7.662 L 10.513 7.662 L 10.513 7.662 Q 10.603 7.757 10.762 8.015 L 10.762 8.015 L 11.336 8.944 L 11.949 8.015 L 11.949 8.015 Q 12.025 7.898 12.078 7.814 L 12.078 7.814 L 12.078 7.814 Q 12.132 7.731 12.181 7.676 L 12.181 7.676 L 12.181 7.676 Q 12.231 7.621 12.292 7.594 L 12.292 7.594 L 12.292 7.594 Q 12.353 7.566 12.434 7.566 L 12.434 7.566 L 12.434 7.566 Q 12.58 7.566 12.673 7.654 L 12.673 7.654 L 12.673 7.654 Q 12.766 7.741 12.766 7.861 L 12.766 7.861 L 12.766 7.861 Q 12.766 8.036 12.565 8.336 L 12.565 8.336 L 11.811 9.463 L 12.622 10.713 L 12.622 10.713 Q 12.732 10.878 12.781 10.986 L 12.781 10.986 L 12.781 10.986 Q 12.831 11.094 12.831 11.191 L 12.831 11.191 L 12.831 11.191 Q 12.831 11.282 12.787 11.358 L 12.787 11.358 L 12.787 11.358 Q 12.742 11.433 12.661 11.478 L 12.661 11.478 L 12.661 11.478 Q 12.58 11.522 12.479 11.522 L 12.479 11.522 L 12.479 11.522 Q 12.369 11.522 12.293 11.476 L 12.293 11.476 L 12.293 11.476 Q 12.218 11.431 12.171 11.363 L 12.171 11.363 L 12.171 11.363 Q 12.124 11.295 11.996 11.099 L 11.996 11.099 L 11.323 10.04 L 10.608 11.131 L 10.608 11.131 Q 10.524 11.261 10.489 11.313 L 10.489 11.313 L 10.489 11.313 Q 10.454 11.366 10.404 11.415 L 10.404 11.415 L 10.404 11.415 Q 10.355 11.465 10.287 11.493 L 10.287 11.493 L 10.287 11.493 Q 10.219 11.522 10.128 11.522 L 10.128 11.522 L 10.128 11.522 Q 9.987 11.522 9.894 11.436 L 9.894 11.436 L 9.894 11.436 Q 9.801 11.35 9.801 11.185 L 9.801 11.185 L 9.801 11.185 Q 9.801 10.992 9.992 10.713 L 9.992 10.713 Z " fill-rule="evenodd" fill="rgb(0,0,0)"/></g></svg>