<?xml version="1.0" standalone="no"?><!-- Generator: Gravit.io --><svg xmlns="http://www.w3.org/2000/svg" xmlns:xlink="http://www.w3.org/1999/xlink" style="isolation:isolate" viewBox="0 0 16 16" width="16" height="16"><defs><clipPath id="_clipPath_gwHpwPcFJpDR1TD1G6VcVD6SQjIxElPT"><rect width="16" height="16"/></clipPath></defs><g clip-path="url(#_clipPath_gwHpwPcFJpDR1TD1G6VcVD6SQjIxElPT)"><path d=" M 14.4 3.2 L 7.2 3.2 L 5.6 1.6 L 1.6 1.6 C 0.716 1.6 0 2.316 0 3.2 L 0 12.8 C 0 13.684 0.716 14.4 1.6 14.4 L 14.4 14.4 C 15.284 14.4 16 13.684 16 12.8 L 16 4.8 C 16 3.916 15.284 3.2 14.4 3.2 Z  M 6.155 9.902 L 6.155 9.902 L 6.155 10.635 L 6.155 10.635 Q 6.155 10.781 6.126 10.868 L 6.126 10.868 L 6.126 10.868 Q 6.097 10.956 6.02 11.026 L 6.02 11.026 L 6.02 11.026 Q 5.943 11.097 5.823 11.162 L 5.823 11.162 L 5.823 11.162 Q 5.476 11.35 5.155 11.436 L 5.155 11.436 L 5.155 11.436 Q 4.834 11.522 4.456 11.522 L 4.456 11.522 L 4.456 11.522 Q 4.015 11.522 3.652 11.386 L 3.652 11.386 L 3.652 11.386 Q 3.29 11.251 3.034 10.992 L 3.034 10.992 L 3.034 10.992 Q 2.778 10.734 2.641 10.366 L 2.641 10.366 L 2.641 10.366 Q 2.504 9.998 2.504 9.544 L 2.504 9.544 L 2.504 9.544 Q 2.504 9.098 2.637 8.728 L 2.637 8.728 L 2.637 8.728 Q 2.77 8.357 3.029 8.099 L 3.029 8.099 L 3.029 8.099 Q 3.287 7.84 3.657 7.703 L 3.657 7.703 L 3.657 7.703 Q 4.028 7.566 4.498 7.566 L 4.498 7.566 L 4.498 7.566 Q 4.884 7.566 5.181 7.669 L 5.181 7.669 L 5.181 7.669 Q 5.479 7.773 5.664 7.929 L 5.664 7.929 L 5.664 7.929 Q 5.849 8.086 5.943 8.26 L 5.943 8.26 L 5.943 8.26 Q 6.037 8.435 6.037 8.571 L 6.037 8.571 L 6.037 8.571 Q 6.037 8.717 5.929 8.82 L 5.929 8.82 L 5.929 8.82 Q 5.821 8.923 5.669 8.923 L 5.669 8.923 L 5.669 8.923 Q 5.586 8.923 5.509 8.884 L 5.509 8.884 L 5.509 8.884 Q 5.432 8.845 5.38 8.774 L 5.38 8.774 L 5.38 8.774 Q 5.236 8.55 5.137 8.435 L 5.137 8.435 L 5.137 8.435 Q 5.038 8.32 4.869 8.242 L 4.869 8.242 L 4.869 8.242 Q 4.701 8.164 4.44 8.164 L 4.44 8.164 L 4.44 8.164 Q 4.171 8.164 3.96 8.257 L 3.96 8.257 L 3.96 8.257 Q 3.749 8.349 3.599 8.525 L 3.599 8.525 L 3.599 8.525 Q 3.449 8.701 3.369 8.957 L 3.369 8.957 L 3.369 8.957 Q 3.29 9.213 3.29 9.523 L 3.29 9.523 L 3.29 9.523 Q 3.29 10.197 3.599 10.559 L 3.599 10.559 L 3.599 10.559 Q 3.908 10.922 4.461 10.922 L 4.461 10.922 L 4.461 10.922 Q 4.73 10.922 4.966 10.852 L 4.966 10.852 L 4.966 10.852 Q 5.202 10.781 5.445 10.651 L 5.445 10.651 L 5.445 10.03 L 4.845 10.03 L 4.845 10.03 Q 4.628 10.03 4.517 9.964 L 4.517 9.964 L 4.517 9.964 Q 4.406 9.899 4.406 9.743 L 4.406 9.743 L 4.406 9.743 Q 4.406 9.615 4.499 9.531 L 4.499 9.531 L 4.499 9.531 Q 4.592 9.448 4.751 9.448 L 4.751 9.448 L 5.63 9.448 L 5.63 9.448 Q 5.792 9.448 5.904 9.476 L 5.904 9.476 L 5.904 9.476 Q 6.016 9.505 6.085 9.604 L 6.085 9.604 L 6.085 9.604 Q 6.155 9.703 6.155 9.902 L 6.155 9.902 Z  M 9.377 8.271 L 9.377 8.271 L 8.532 8.271 L 8.532 11.05 L 8.532 11.05 Q 8.532 11.29 8.425 11.406 L 8.425 11.406 L 8.425 11.406 Q 8.318 11.522 8.148 11.522 L 8.148 11.522 L 8.148 11.522 Q 7.976 11.522 7.868 11.405 L 7.868 11.405 L 7.868 11.405 Q 7.759 11.287 7.759 11.05 L 7.759 11.05 L 7.759 8.271 L 6.914 8.271 L 6.914 8.271 Q 6.716 8.271 6.619 8.183 L 6.619 8.183 L 6.619 8.183 Q 6.522 8.096 6.522 7.953 L 6.522 7.953 L 6.522 7.953 Q 6.522 7.804 6.623 7.718 L 6.623 7.718 L 6.623 7.718 Q 6.723 7.632 6.914 7.632 L 6.914 7.632 L 9.377 7.632 L 9.377 7.632 Q 9.578 7.632 9.676 7.72 L 9.676 7.72 L 9.676 7.72 Q 9.774 7.809 9.774 7.953 L 9.774 7.953 L 9.774 7.953 Q 9.774 8.096 9.675 8.183 L 9.675 8.183 L 9.675 8.183 Q 9.575 8.271 9.377 8.271 L 9.377 8.271 Z  M 11.718 8.213 L 11.718 8.213 L 11.003 8.213 L 11.003 9.265 L 11.697 9.265 L 11.697 9.265 Q 11.976 9.265 12.166 9.217 L 12.166 9.217 L 12.166 9.217 Q 12.357 9.168 12.457 9.052 L 12.457 9.052 L 12.457 9.052 Q 12.558 8.936 12.558 8.733 L 12.558 8.733 L 12.558 8.733 Q 12.558 8.574 12.477 8.452 L 12.477 8.452 L 12.477 8.452 Q 12.396 8.331 12.253 8.271 L 12.253 8.271 L 12.253 8.271 Q 12.117 8.213 11.718 8.213 L 11.718 8.213 Z  M 11.274 9.821 L 11.274 9.821 L 11.003 9.821 L 11.003 11.05 L 11.003 11.05 Q 11.003 11.292 10.896 11.407 L 10.896 11.407 L 10.896 11.407 Q 10.789 11.522 10.616 11.522 L 10.616 11.522 L 10.616 11.522 Q 10.431 11.522 10.329 11.402 L 10.329 11.402 L 10.329 11.402 Q 10.228 11.282 10.228 11.05 L 10.228 11.05 L 10.228 8.106 L 10.228 8.106 Q 10.228 7.856 10.34 7.744 L 10.34 7.744 L 10.34 7.744 Q 10.452 7.632 10.703 7.632 L 10.703 7.632 L 11.963 7.632 L 11.963 7.632 Q 12.224 7.632 12.409 7.654 L 12.409 7.654 L 12.409 7.654 Q 12.594 7.676 12.743 7.744 L 12.743 7.744 L 12.743 7.744 Q 12.923 7.819 13.061 7.96 L 13.061 7.96 L 13.061 7.96 Q 13.2 8.101 13.271 8.288 L 13.271 8.288 L 13.271 8.288 Q 13.343 8.474 13.343 8.683 L 13.343 8.683 L 13.343 8.683 Q 13.343 9.111 13.102 9.367 L 13.102 9.367 L 13.102 9.367 Q 12.861 9.623 12.37 9.729 L 12.37 9.729 L 12.37 9.729 Q 12.576 9.839 12.764 10.053 L 12.764 10.053 L 12.764 10.053 Q 12.952 10.267 13.099 10.508 L 13.099 10.508 L 13.099 10.508 Q 13.247 10.75 13.329 10.944 L 13.329 10.944 L 13.329 10.944 Q 13.411 11.139 13.411 11.212 L 13.411 11.212 L 13.411 11.212 Q 13.411 11.287 13.363 11.362 L 13.363 11.362 L 13.363 11.362 Q 13.315 11.436 13.231 11.479 L 13.231 11.479 L 13.231 11.479 Q 13.148 11.522 13.038 11.522 L 13.038 11.522 L 13.038 11.522 Q 12.907 11.522 12.819 11.461 L 12.819 11.461 L 12.819 11.461 Q 12.73 11.399 12.666 11.306 L 12.666 11.306 L 12.666 11.306 Q 12.602 11.212 12.493 11.029 L 12.493 11.029 L 12.182 10.512 L 12.182 10.512 Q 12.015 10.228 11.883 10.079 L 11.883 10.079 L 11.883 10.079 Q 11.752 9.93 11.616 9.876 L 11.616 9.876 L 11.616 9.876 Q 11.48 9.821 11.274 9.821 L 11.274 9.821 Z " fill-rule="evenodd" fill="rgb(0,0,0)"/></g></svg>