<?xml version="1.0" standalone="no"?><!-- Generator: Gravit.io --><svg xmlns="http://www.w3.org/2000/svg" xmlns:xlink="http://www.w3.org/1999/xlink" style="isolation:isolate" viewBox="0 0 16 16" width="16" height="16"><defs><clipPath id="_clipPath_xeEdiWBrTGJLhy3CTouOHbwzjccGgBSZ"><rect width="16" height="16"/></clipPath></defs><g clip-path="url(#_clipPath_xeEdiWBrTGJLhy3CTouOHbwzjccGgBSZ)"><path d=" M 14.4 3.2 L 7.2 3.2 L 5.6 1.6 L 1.6 1.6 C 0.716 1.6 0 2.316 0 3.2 L 0 12.8 C 0 13.684 0.716 14.4 1.6 14.4 L 14.4 14.4 C 15.284 14.4 16 13.684 16 12.8 L 16 4.8 C 16 3.916 15.284 3.2 14.4 3.2 Z  M 9.021 8.419 L 9.021 7.281 C 9.021 6.795 8.626 6.4 8.14 6.4 L 7.86 6.4 L 7.86 6.4 C 7.374 6.4 6.979 6.795 6.979 7.281 L 6.979 8.419 L 5.841 8.419 C 5.355 8.419 4.96 8.814 4.96 9.3 L 4.96 9.58 C 4.96 10.066 5.355 10.461 5.841 10.461 L 6.979 10.461 L 6.979 11.599 C 6.979 12.085 7.374 12.48 7.86 12.48 L 8.14 12.48 C 8.626 12.48 9.021 12.085 9.021 11.599 L 9.021 10.461 L 10.159 10.461 C 10.645 10.461 11.04 10.066 11.04 9.58 L 11.04 9.3 C 11.04 8.814 10.645 8.419 10.159 8.419 L 9.021 8.419 Z " fill-rule="evenodd" fill="rgb(0,0,0)"/></g></svg>