<?xml version="1.0" standalone="no"?><!-- Generator: Gravit.io --><svg xmlns="http://www.w3.org/2000/svg" xmlns:xlink="http://www.w3.org/1999/xlink" style="isolation:isolate" viewBox="0 0 16 16" width="16" height="16"><defs><clipPath id="_clipPath_UIu9mDyyxMYXAylzpc0w3VfOEJwCMzGX"><rect width="16" height="16"/></clipPath></defs><g clip-path="url(#_clipPath_UIu9mDyyxMYXAylzpc0w3VfOEJwCMzGX)"><path d=" M 14.4 3.2 L 7.2 3.2 L 5.6 1.6 L 1.6 1.6 C 0.716 1.6 0 2.316 0 3.2 L 0 12.8 C 0 13.684 0.716 14.4 1.6 14.4 L 14.4 14.4 C 15.284 14.4 16 13.684 16 12.8 L 16 4.8 C 16 3.916 15.284 3.2 14.4 3.2 Z  M 3.776 8.599 L 3.21 10.178 L 4.352 10.178 L 3.776 8.599 L 3.776 8.599 Z  M 7.431 11.096 L 7.431 11.096 L 6.818 8.659 L 6.818 11.3 L 6.818 11.3 Q 6.818 11.519 6.72 11.628 L 6.72 11.628 L 6.72 11.628 Q 6.623 11.738 6.461 11.738 L 6.461 11.738 L 6.461 11.738 Q 6.304 11.738 6.205 11.63 L 6.205 11.63 L 6.205 11.63 Q 6.106 11.521 6.106 11.3 L 6.106 11.3 L 6.106 8.273 L 6.106 8.273 Q 6.106 8.022 6.236 7.935 L 6.236 7.935 L 6.236 7.935 Q 6.367 7.848 6.589 7.848 L 6.589 7.848 L 6.829 7.848 L 6.829 7.848 Q 7.045 7.848 7.143 7.887 L 7.143 7.887 L 7.143 7.887 Q 7.241 7.926 7.288 8.028 L 7.288 8.028 L 7.288 8.028 Q 7.335 8.129 7.395 8.359 L 7.395 8.359 L 7.951 10.454 L 8.506 8.359 L 8.506 8.359 Q 8.567 8.129 8.613 8.028 L 8.613 8.028 L 8.613 8.028 Q 8.66 7.926 8.758 7.887 L 8.758 7.887 L 8.758 7.887 Q 8.856 7.848 9.073 7.848 L 9.073 7.848 L 9.313 7.848 L 9.313 7.848 Q 9.535 7.848 9.665 7.935 L 9.665 7.935 L 9.665 7.935 Q 9.795 8.022 9.795 8.273 L 9.795 8.273 L 9.795 11.3 L 9.795 11.3 Q 9.795 11.519 9.698 11.628 L 9.698 11.628 L 9.698 11.628 Q 9.6 11.738 9.435 11.738 L 9.435 11.738 L 9.435 11.738 Q 9.281 11.738 9.182 11.628 L 9.182 11.628 L 9.182 11.628 Q 9.083 11.519 9.083 11.3 L 9.083 11.3 L 9.083 8.659 L 8.47 11.096 L 8.47 11.096 Q 8.41 11.334 8.372 11.444 L 8.372 11.444 L 8.372 11.444 Q 8.334 11.555 8.233 11.647 L 8.233 11.647 L 8.233 11.647 Q 8.131 11.738 7.951 11.738 L 7.951 11.738 L 7.951 11.738 Q 7.815 11.738 7.721 11.679 L 7.721 11.679 L 7.721 11.679 Q 7.627 11.621 7.575 11.529 L 7.575 11.529 L 7.575 11.529 Q 7.523 11.438 7.493 11.327 L 7.493 11.327 L 7.493 11.327 Q 7.463 11.216 7.431 11.096 L 7.431 11.096 Z  M 12.167 9.974 L 12.167 9.974 L 11.361 9.974 L 11.361 11.091 L 12.193 11.091 L 12.193 11.091 Q 12.979 11.091 12.979 10.525 L 12.979 10.525 L 12.979 10.525 Q 12.979 10.235 12.775 10.105 L 12.775 10.105 L 12.775 10.105 Q 12.572 9.974 12.167 9.974 L 12.167 9.974 Z  M 11.99 8.429 L 11.361 8.429 L 11.361 9.418 L 12.071 9.418 L 12.071 9.418 Q 12.36 9.418 12.518 9.364 L 12.518 9.364 L 12.518 9.364 Q 12.676 9.309 12.76 9.155 L 12.76 9.155 L 12.76 9.155 Q 12.825 9.045 12.825 8.909 L 12.825 8.909 L 12.825 8.909 Q 12.825 8.62 12.619 8.525 L 12.619 8.525 L 12.619 8.525 Q 12.413 8.429 11.99 8.429 L 11.99 8.429 L 11.99 8.429 Z  M 4.744 11.24 L 4.744 11.24 L 4.561 10.76 L 3.006 10.76 L 2.823 11.25 L 2.823 11.25 Q 2.716 11.537 2.641 11.638 L 2.641 11.638 L 2.641 11.638 Q 2.565 11.738 2.393 11.738 L 2.393 11.738 L 2.393 11.738 Q 2.247 11.738 2.135 11.631 L 2.135 11.631 L 2.135 11.631 Q 2.022 11.524 2.022 11.388 L 2.022 11.388 L 2.022 11.388 Q 2.022 11.31 2.048 11.227 L 2.048 11.227 L 2.048 11.227 Q 2.075 11.143 2.135 10.994 L 2.135 10.994 L 3.113 8.51 L 3.113 8.51 Q 3.155 8.403 3.213 8.253 L 3.213 8.253 L 3.213 8.253 Q 3.272 8.103 3.339 8.004 L 3.339 8.004 L 3.339 8.004 Q 3.405 7.905 3.514 7.844 L 3.514 7.844 L 3.514 7.844 Q 3.622 7.782 3.781 7.782 L 3.781 7.782 L 3.781 7.782 Q 3.943 7.782 4.051 7.844 L 4.051 7.844 L 4.051 7.844 Q 4.159 7.905 4.226 8.001 L 4.226 8.001 L 4.226 8.001 Q 4.292 8.098 4.338 8.209 L 4.338 8.209 L 4.338 8.209 Q 4.384 8.32 4.454 8.505 L 4.454 8.505 L 5.454 10.973 L 5.454 10.973 Q 5.571 11.255 5.571 11.383 L 5.571 11.383 L 5.571 11.383 Q 5.571 11.516 5.46 11.627 L 5.46 11.627 L 5.46 11.627 Q 5.349 11.738 5.193 11.738 L 5.193 11.738 L 5.193 11.738 Q 5.101 11.738 5.036 11.705 L 5.036 11.705 L 5.036 11.705 Q 4.971 11.673 4.927 11.617 L 4.927 11.617 L 4.927 11.617 Q 4.882 11.561 4.831 11.444 L 4.831 11.444 L 4.831 11.444 Q 4.78 11.328 4.744 11.24 L 4.744 11.24 Z  M 12.225 11.673 L 12.225 11.673 L 11.056 11.673 L 11.056 11.673 Q 10.803 11.673 10.694 11.559 L 10.694 11.559 L 10.694 11.559 Q 10.586 11.446 10.586 11.198 L 10.586 11.198 L 10.586 8.322 L 10.586 8.322 Q 10.586 8.069 10.697 7.958 L 10.697 7.958 L 10.697 7.958 Q 10.808 7.848 11.056 7.848 L 11.056 7.848 L 12.295 7.848 L 12.295 7.848 Q 12.569 7.848 12.77 7.881 L 12.77 7.881 L 12.77 7.881 Q 12.971 7.915 13.13 8.012 L 13.13 8.012 L 13.13 8.012 Q 13.266 8.093 13.37 8.217 L 13.37 8.217 L 13.37 8.217 Q 13.475 8.341 13.529 8.491 L 13.529 8.491 L 13.529 8.491 Q 13.584 8.641 13.584 8.808 L 13.584 8.808 L 13.584 8.808 Q 13.584 9.382 13.01 9.648 L 13.01 9.648 L 13.01 9.648 Q 13.764 9.888 13.764 10.582 L 13.764 10.582 L 13.764 10.582 Q 13.764 10.903 13.6 11.16 L 13.6 11.16 L 13.6 11.16 Q 13.436 11.417 13.156 11.54 L 13.156 11.54 L 13.156 11.54 Q 12.981 11.613 12.754 11.643 L 12.754 11.643 L 12.754 11.643 Q 12.527 11.673 12.225 11.673 L 12.225 11.673 Z " fill-rule="evenodd" fill="rgb(0,0,0)"/></g></svg>