<?xml version="1.0" standalone="no"?><!-- Generator: Gravit.io --><svg xmlns="http://www.w3.org/2000/svg" xmlns:xlink="http://www.w3.org/1999/xlink" style="isolation:isolate" viewBox="0 0 16 16" width="16" height="16"><defs><clipPath id="_clipPath_Ck9ZkqW7TCBGEDv14IvaGsddEnQNZlCy"><rect width="16" height="16"/></clipPath></defs><g clip-path="url(#_clipPath_Ck9ZkqW7TCBGEDv14IvaGsddEnQNZlCy)"><path d=" M 14.4 3.2 L 7.2 3.2 L 5.6 1.6 L 1.6 1.6 C 0.716 1.6 0 2.316 0 3.2 L 0 12.8 C 0 13.684 0.716 14.4 1.6 14.4 L 14.4 14.4 C 15.284 14.4 16 13.684 16 12.8 L 16 4.8 C 16 3.916 15.284 3.2 14.4 3.2 Z  M 1.736 7.771 L 1.736 7.771 L 2.445 9.869 L 3.156 7.756 L 3.156 7.756 Q 3.212 7.589 3.239 7.524 L 3.239 7.524 L 3.239 7.524 Q 3.267 7.459 3.331 7.407 L 3.331 7.407 L 3.331 7.407 Q 3.395 7.354 3.506 7.354 L 3.506 7.354 L 3.506 7.354 Q 3.587 7.354 3.657 7.395 L 3.657 7.395 L 3.657 7.395 Q 3.726 7.435 3.766 7.503 L 3.766 7.503 L 3.766 7.503 Q 3.805 7.57 3.805 7.638 L 3.805 7.638 L 3.805 7.638 Q 3.805 7.685 3.792 7.74 L 3.792 7.74 L 3.792 7.74 Q 3.779 7.794 3.76 7.846 L 3.76 7.846 L 3.76 7.846 Q 3.741 7.899 3.722 7.954 L 3.722 7.954 L 2.964 9.999 L 2.964 9.999 Q 2.923 10.117 2.883 10.223 L 2.883 10.223 L 2.883 10.223 Q 2.842 10.328 2.789 10.408 L 2.789 10.408 L 2.789 10.408 Q 2.735 10.488 2.647 10.54 L 2.647 10.54 L 2.647 10.54 Q 2.558 10.591 2.43 10.591 L 2.43 10.591 L 2.43 10.591 Q 2.302 10.591 2.213 10.541 L 2.213 10.541 L 2.213 10.541 Q 2.125 10.49 2.07 10.408 L 2.07 10.408 L 2.07 10.408 Q 2.016 10.326 1.975 10.221 L 1.975 10.221 L 1.975 10.221 Q 1.935 10.117 1.894 9.999 L 1.894 9.999 L 1.149 7.971 L 1.149 7.971 Q 1.13 7.916 1.11 7.862 L 1.11 7.862 L 1.11 7.862 Q 1.089 7.809 1.076 7.747 L 1.076 7.747 L 1.076 7.747 Q 1.062 7.685 1.062 7.643 L 1.062 7.643 L 1.062 7.643 Q 1.062 7.534 1.149 7.444 L 1.149 7.444 L 1.149 7.444 Q 1.237 7.354 1.369 7.354 L 1.369 7.354 L 1.369 7.354 Q 1.531 7.354 1.599 7.454 L 1.599 7.454 L 1.599 7.454 Q 1.666 7.553 1.736 7.771 L 1.736 7.771 Z  M 4.307 10.204 L 4.307 10.204 L 4.307 7.739 L 4.307 7.739 Q 4.307 7.546 4.394 7.45 L 4.394 7.45 L 4.394 7.45 Q 4.482 7.354 4.621 7.354 L 4.621 7.354 L 4.621 7.354 Q 4.764 7.354 4.852 7.449 L 4.852 7.449 L 4.852 7.449 Q 4.941 7.544 4.941 7.739 L 4.941 7.739 L 4.941 10.204 L 4.941 10.204 Q 4.941 10.399 4.852 10.495 L 4.852 10.495 L 4.852 10.495 Q 4.764 10.591 4.621 10.591 L 4.621 10.591 L 4.621 10.591 Q 4.484 10.591 4.395 10.494 L 4.395 10.494 L 4.395 10.494 Q 4.307 10.397 4.307 10.204 L 4.307 10.204 Z  M 6.706 7.909 L 6.288 7.909 L 6.288 10.034 L 6.768 10.034 L 6.768 10.034 Q 6.926 10.034 7.016 10.025 L 7.016 10.025 L 7.016 10.025 Q 7.106 10.017 7.202 9.982 L 7.202 9.982 L 7.202 9.982 Q 7.298 9.948 7.368 9.886 L 7.368 9.886 L 7.368 9.886 Q 7.686 9.617 7.686 8.96 L 7.686 8.96 L 7.686 8.96 Q 7.686 8.496 7.546 8.266 L 7.546 8.266 L 7.546 8.266 Q 7.407 8.035 7.202 7.972 L 7.202 7.972 L 7.202 7.972 Q 6.997 7.909 6.706 7.909 L 6.706 7.909 L 6.706 7.909 Z  M 10.948 7.897 L 10.948 7.897 L 9.52 7.897 L 9.52 8.665 L 10.835 8.665 L 10.835 8.665 Q 10.98 8.665 11.052 8.73 L 11.052 8.73 L 11.052 8.73 Q 11.124 8.795 11.124 8.902 L 11.124 8.902 L 11.124 8.902 Q 11.124 9.009 11.053 9.076 L 11.053 9.076 L 11.053 9.076 Q 10.983 9.143 10.835 9.143 L 10.835 9.143 L 9.52 9.143 L 9.52 10.034 L 10.998 10.034 L 10.998 10.034 Q 11.147 10.034 11.223 10.103 L 11.223 10.103 L 11.223 10.103 Q 11.299 10.172 11.299 10.288 L 11.299 10.288 L 11.299 10.288 Q 11.299 10.399 11.223 10.468 L 11.223 10.468 L 11.223 10.468 Q 11.147 10.537 10.998 10.537 L 10.998 10.537 L 9.275 10.537 L 9.275 10.537 Q 9.068 10.537 8.977 10.446 L 8.977 10.446 L 8.977 10.446 Q 8.886 10.354 8.886 10.149 L 8.886 10.149 L 8.886 7.796 L 8.886 7.796 Q 8.886 7.66 8.927 7.573 L 8.927 7.573 L 8.927 7.573 Q 8.967 7.487 9.054 7.447 L 9.054 7.447 L 9.054 7.447 Q 9.14 7.408 9.275 7.408 L 9.275 7.408 L 10.948 7.408 L 10.948 7.408 Q 11.1 7.408 11.174 7.475 L 11.174 7.475 L 11.174 7.475 Q 11.247 7.542 11.247 7.651 L 11.247 7.651 L 11.247 7.651 Q 11.247 7.762 11.174 7.829 L 11.174 7.829 L 11.174 7.829 Q 11.1 7.897 10.948 7.897 L 10.948 7.897 Z  M 14.08 8.964 L 14.08 8.964 L 14.08 8.964 Q 14.08 8.62 13.969 8.368 L 13.969 8.368 L 13.969 8.368 Q 13.858 8.116 13.652 7.987 L 13.652 7.987 L 13.652 7.987 Q 13.446 7.858 13.179 7.858 L 13.179 7.858 L 13.179 7.858 Q 12.989 7.858 12.828 7.93 L 12.828 7.93 L 12.828 7.93 Q 12.667 8.001 12.551 8.138 L 12.551 8.138 L 12.551 8.138 Q 12.434 8.274 12.367 8.487 L 12.367 8.487 L 12.367 8.487 Q 12.3 8.699 12.3 8.964 L 12.3 8.964 L 12.3 8.964 Q 12.3 9.231 12.367 9.447 L 12.367 9.447 L 12.367 9.447 Q 12.434 9.662 12.557 9.804 L 12.557 9.804 L 12.557 9.804 Q 12.68 9.946 12.839 10.017 L 12.839 10.017 L 12.839 10.017 Q 12.998 10.087 13.188 10.087 L 13.188 10.087 L 13.188 10.087 Q 13.431 10.087 13.635 9.965 L 13.635 9.965 L 13.635 9.965 Q 13.839 9.844 13.96 9.59 L 13.96 9.59 L 13.96 9.59 Q 14.08 9.335 14.08 8.964 L 14.08 8.964 Z  M 6.042 7.408 L 6.042 7.408 L 6.869 7.408 L 6.869 7.408 Q 7.191 7.408 7.422 7.467 L 7.422 7.467 L 7.422 7.467 Q 7.652 7.527 7.84 7.692 L 7.84 7.692 L 7.84 7.692 Q 8.329 8.11 8.329 8.964 L 8.329 8.964 L 8.329 8.964 Q 8.329 9.246 8.28 9.479 L 8.28 9.479 L 8.28 9.479 Q 8.231 9.711 8.128 9.898 L 8.128 9.898 L 8.128 9.898 Q 8.026 10.085 7.866 10.232 L 7.866 10.232 L 7.866 10.232 Q 7.74 10.345 7.59 10.414 L 7.59 10.414 L 7.59 10.414 Q 7.441 10.482 7.269 10.51 L 7.269 10.51 L 7.269 10.51 Q 7.097 10.537 6.881 10.537 L 6.881 10.537 L 6.055 10.537 L 6.055 10.537 Q 5.882 10.537 5.795 10.485 L 5.795 10.485 L 5.795 10.485 Q 5.707 10.433 5.681 10.338 L 5.681 10.338 L 5.681 10.338 Q 5.654 10.243 5.654 10.091 L 5.654 10.091 L 5.654 7.796 L 5.654 7.796 Q 5.654 7.591 5.746 7.499 L 5.746 7.499 L 5.746 7.499 Q 5.837 7.408 6.042 7.408 L 6.042 7.408 Z  M 13.179 7.354 L 13.179 7.354 L 13.179 7.354 Q 13.666 7.354 14.015 7.552 L 14.015 7.552 L 14.015 7.552 Q 14.364 7.749 14.544 8.113 L 14.544 8.113 L 14.544 8.113 Q 14.723 8.477 14.723 8.968 L 14.723 8.968 L 14.723 8.968 Q 14.723 9.331 14.625 9.628 L 14.625 9.628 L 14.625 9.628 Q 14.527 9.925 14.33 10.142 L 14.33 10.142 L 14.33 10.142 Q 14.134 10.36 13.848 10.476 L 13.848 10.476 L 13.848 10.476 Q 13.562 10.591 13.192 10.591 L 13.192 10.591 L 13.192 10.591 Q 12.825 10.591 12.535 10.472 L 12.535 10.472 L 12.535 10.472 Q 12.244 10.354 12.05 10.138 L 12.05 10.138 L 12.05 10.138 Q 11.856 9.923 11.757 9.619 L 11.757 9.619 L 11.757 9.619 Q 11.657 9.316 11.657 8.964 L 11.657 8.964 L 11.657 8.964 Q 11.657 8.603 11.761 8.302 L 11.761 8.302 L 11.761 8.302 Q 11.864 8.001 12.061 7.79 L 12.061 7.79 L 12.061 7.79 Q 12.257 7.578 12.539 7.466 L 12.539 7.466 L 12.539 7.466 Q 12.821 7.354 13.179 7.354 L 13.179 7.354 Z " fill-rule="evenodd" fill="rgb(0,0,0)"/></g></svg>