<?xml version="1.0" standalone="no"?><!-- Generator: Gravit.io --><svg xmlns="http://www.w3.org/2000/svg" xmlns:xlink="http://www.w3.org/1999/xlink" style="isolation:isolate" viewBox="0 0 16 16" width="16" height="16"><defs><clipPath id="_clipPath_8dmvpsUujyCy8pNQfJTNdYn2waEa0dzf"><rect width="16" height="16"/></clipPath></defs><g clip-path="url(#_clipPath_8dmvpsUujyCy8pNQfJTNdYn2waEa0dzf)"><path d=" M 14.4 3.2 L 7.2 3.2 L 5.6 1.6 L 1.6 1.6 C 0.716 1.6 0 2.316 0 3.2 L 0 12.8 C 0 13.684 0.716 14.4 1.6 14.4 L 14.4 14.4 C 15.284 14.4 16 13.684 16 12.8 L 16 4.8 C 16 3.916 15.284 3.2 14.4 3.2 Z  M 2.233 8.213 L 2.233 8.213 L 1.711 8.213 L 1.711 9.382 L 2.233 9.382 L 2.233 9.382 Q 2.507 9.382 2.691 9.325 L 2.691 9.325 L 2.691 9.325 Q 2.875 9.268 2.971 9.137 L 2.971 9.137 L 2.971 9.137 Q 3.068 9.007 3.068 8.795 L 3.068 8.795 L 3.068 8.795 Q 3.068 8.542 2.919 8.383 L 2.919 8.383 L 2.919 8.383 Q 2.752 8.213 2.233 8.213 L 2.233 8.213 Z  M 7.021 8.229 L 7.021 8.229 L 5.275 8.229 L 5.275 9.168 L 6.883 9.168 L 6.883 9.168 Q 7.06 9.168 7.148 9.248 L 7.148 9.248 L 7.148 9.248 Q 7.235 9.328 7.235 9.458 L 7.235 9.458 L 7.235 9.458 Q 7.235 9.589 7.149 9.671 L 7.149 9.671 L 7.149 9.671 Q 7.063 9.753 6.883 9.753 L 6.883 9.753 L 5.275 9.753 L 5.275 10.841 L 7.081 10.841 L 7.081 10.841 Q 7.264 10.841 7.356 10.926 L 7.356 10.926 L 7.356 10.926 Q 7.449 11.011 7.449 11.152 L 7.449 11.152 L 7.449 11.152 Q 7.449 11.287 7.356 11.372 L 7.356 11.372 L 7.356 11.372 Q 7.264 11.457 7.081 11.457 L 7.081 11.457 L 4.975 11.457 L 4.975 11.457 Q 4.722 11.457 4.611 11.345 L 4.611 11.345 L 4.611 11.345 Q 4.5 11.232 4.5 10.982 L 4.5 10.982 L 4.5 8.106 L 4.5 8.106 Q 4.5 7.94 4.55 7.834 L 4.55 7.834 L 4.55 7.834 Q 4.6 7.728 4.705 7.68 L 4.705 7.68 L 4.705 7.68 Q 4.811 7.632 4.975 7.632 L 4.975 7.632 L 7.021 7.632 L 7.021 7.632 Q 7.206 7.632 7.296 7.714 L 7.296 7.714 L 7.296 7.714 Q 7.386 7.796 7.386 7.929 L 7.386 7.929 L 7.386 7.929 Q 7.386 8.065 7.296 8.147 L 7.296 8.147 L 7.296 8.147 Q 7.206 8.229 7.021 8.229 L 7.021 8.229 Z  M 9.549 8.213 L 9.549 8.213 L 8.834 8.213 L 8.834 9.265 L 9.529 9.265 L 9.529 9.265 Q 9.808 9.265 9.998 9.217 L 9.998 9.217 L 9.998 9.217 Q 10.189 9.168 10.289 9.052 L 10.289 9.052 L 10.289 9.052 Q 10.39 8.936 10.39 8.733 L 10.39 8.733 L 10.39 8.733 Q 10.39 8.574 10.309 8.452 L 10.309 8.452 L 10.309 8.452 Q 10.228 8.331 10.084 8.271 L 10.084 8.271 L 10.084 8.271 Q 9.949 8.213 9.549 8.213 L 9.549 8.213 Z  M 15.097 10.249 L 15.097 10.249 L 15.097 10.249 Q 15.097 10.431 15.007 10.644 L 15.007 10.644 L 15.007 10.644 Q 14.917 10.857 14.724 11.062 L 14.724 11.062 L 14.724 11.062 Q 14.531 11.266 14.231 11.394 L 14.231 11.394 L 14.231 11.394 Q 13.93 11.522 13.531 11.522 L 13.531 11.522 L 13.531 11.522 Q 13.229 11.522 12.981 11.465 L 12.981 11.465 L 12.981 11.465 Q 12.733 11.407 12.531 11.286 L 12.531 11.286 L 12.531 11.286 Q 12.328 11.165 12.159 10.966 L 12.159 10.966 L 12.159 10.966 Q 12.007 10.786 11.9 10.563 L 11.9 10.563 L 11.9 10.563 Q 11.793 10.34 11.74 10.087 L 11.74 10.087 L 11.74 10.087 Q 11.686 9.834 11.686 9.549 L 11.686 9.549 L 11.686 9.549 Q 11.686 9.088 11.821 8.722 L 11.821 8.722 L 11.821 8.722 Q 11.955 8.357 12.206 8.097 L 12.206 8.097 L 12.206 8.097 Q 12.456 7.838 12.793 7.702 L 12.793 7.702 L 12.793 7.702 Q 13.129 7.566 13.51 7.566 L 13.51 7.566 L 13.51 7.566 Q 13.975 7.566 14.338 7.752 L 14.338 7.752 L 14.338 7.752 Q 14.7 7.937 14.893 8.21 L 14.893 8.21 L 14.893 8.21 Q 15.086 8.482 15.086 8.725 L 15.086 8.725 L 15.086 8.725 Q 15.086 8.858 14.992 8.96 L 14.992 8.96 L 14.992 8.96 Q 14.899 9.062 14.765 9.062 L 14.765 9.062 L 14.765 9.062 Q 14.617 9.062 14.542 8.991 L 14.542 8.991 L 14.542 8.991 Q 14.468 8.921 14.377 8.748 L 14.377 8.748 L 14.377 8.748 Q 14.225 8.464 14.02 8.323 L 14.02 8.323 L 14.02 8.323 Q 13.816 8.182 13.516 8.182 L 13.516 8.182 L 13.516 8.182 Q 13.038 8.182 12.755 8.545 L 12.755 8.545 L 12.755 8.545 Q 12.472 8.908 12.472 9.576 L 12.472 9.576 L 12.472 9.576 Q 12.472 10.022 12.597 10.318 L 12.597 10.318 L 12.597 10.318 Q 12.722 10.614 12.952 10.76 L 12.952 10.76 L 12.952 10.76 Q 13.182 10.906 13.489 10.906 L 13.489 10.906 L 13.489 10.906 Q 13.823 10.906 14.054 10.741 L 14.054 10.741 L 14.054 10.741 Q 14.285 10.575 14.403 10.254 L 14.403 10.254 L 14.403 10.254 Q 14.452 10.103 14.525 10.007 L 14.525 10.007 L 14.525 10.007 Q 14.598 9.912 14.76 9.912 L 14.76 9.912 L 14.76 9.912 Q 14.899 9.912 14.998 10.009 L 14.998 10.009 L 14.998 10.009 Q 15.097 10.105 15.097 10.249 L 15.097 10.249 Z  M 2.421 9.967 L 2.421 9.967 L 1.711 9.967 L 1.711 11.05 L 1.711 11.05 Q 1.711 11.282 1.601 11.402 L 1.601 11.402 L 1.601 11.402 Q 1.492 11.522 1.325 11.522 L 1.325 11.522 L 1.325 11.522 Q 1.15 11.522 1.043 11.403 L 1.043 11.403 L 1.043 11.403 Q 0.936 11.285 0.936 11.055 L 0.936 11.055 L 0.936 8.106 L 0.936 8.106 Q 0.936 7.851 1.053 7.741 L 1.053 7.741 L 1.053 7.741 Q 1.171 7.632 1.427 7.632 L 1.427 7.632 L 2.421 7.632 L 2.421 7.632 Q 2.862 7.632 3.099 7.699 L 3.099 7.699 L 3.099 7.699 Q 3.334 7.765 3.505 7.916 L 3.505 7.916 L 3.505 7.916 Q 3.676 8.067 3.765 8.287 L 3.765 8.287 L 3.765 8.287 Q 3.853 8.506 3.853 8.78 L 3.853 8.78 L 3.853 8.78 Q 3.853 9.364 3.493 9.666 L 3.493 9.666 L 3.493 9.666 Q 3.133 9.967 2.421 9.967 L 2.421 9.967 Z  M 9.106 9.821 L 9.106 9.821 L 8.834 9.821 L 8.834 11.05 L 8.834 11.05 Q 8.834 11.292 8.727 11.407 L 8.727 11.407 L 8.727 11.407 Q 8.62 11.522 8.448 11.522 L 8.448 11.522 L 8.448 11.522 Q 8.263 11.522 8.161 11.402 L 8.161 11.402 L 8.161 11.402 Q 8.059 11.282 8.059 11.05 L 8.059 11.05 L 8.059 8.106 L 8.059 8.106 Q 8.059 7.856 8.172 7.744 L 8.172 7.744 L 8.172 7.744 Q 8.284 7.632 8.534 7.632 L 8.534 7.632 L 9.795 7.632 L 9.795 7.632 Q 10.056 7.632 10.241 7.654 L 10.241 7.654 L 10.241 7.654 Q 10.426 7.676 10.575 7.744 L 10.575 7.744 L 10.575 7.744 Q 10.755 7.819 10.893 7.96 L 10.893 7.96 L 10.893 7.96 Q 11.032 8.101 11.103 8.288 L 11.103 8.288 L 11.103 8.288 Q 11.175 8.474 11.175 8.683 L 11.175 8.683 L 11.175 8.683 Q 11.175 9.111 10.934 9.367 L 10.934 9.367 L 10.934 9.367 Q 10.692 9.623 10.202 9.729 L 10.202 9.729 L 10.202 9.729 Q 10.408 9.839 10.596 10.053 L 10.596 10.053 L 10.596 10.053 Q 10.784 10.267 10.931 10.508 L 10.931 10.508 L 10.931 10.508 Q 11.078 10.75 11.161 10.944 L 11.161 10.944 L 11.161 10.944 Q 11.243 11.139 11.243 11.212 L 11.243 11.212 L 11.243 11.212 Q 11.243 11.287 11.195 11.362 L 11.195 11.362 L 11.195 11.362 Q 11.146 11.436 11.063 11.479 L 11.063 11.479 L 11.063 11.479 Q 10.979 11.522 10.87 11.522 L 10.87 11.522 L 10.87 11.522 Q 10.739 11.522 10.651 11.461 L 10.651 11.461 L 10.651 11.461 Q 10.562 11.399 10.498 11.306 L 10.498 11.306 L 10.498 11.306 Q 10.434 11.212 10.324 11.029 L 10.324 11.029 L 10.014 10.512 L 10.014 10.512 Q 9.847 10.228 9.715 10.079 L 9.715 10.079 L 9.715 10.079 Q 9.583 9.93 9.448 9.876 L 9.448 9.876 L 9.448 9.876 Q 9.312 9.821 9.106 9.821 L 9.106 9.821 Z " fill-rule="evenodd" fill="rgb(0,0,0)"/></g></svg>