<?xml version="1.0" standalone="no"?><!-- Generator: Gravit.io --><svg xmlns="http://www.w3.org/2000/svg" xmlns:xlink="http://www.w3.org/1999/xlink" style="isolation:isolate" viewBox="0 0 16 16" width="16" height="16"><defs><clipPath id="_clipPath_d5ImkU3Ce31T2kWEO7YTMawNAHwGsQCO"><rect width="16" height="16"/></clipPath></defs><g clip-path="url(#_clipPath_d5ImkU3Ce31T2kWEO7YTMawNAHwGsQCO)"><path d=" M 14.4 3.2 L 7.2 3.2 L 5.6 1.6 L 1.6 1.6 C 0.716 1.6 0 2.316 0 3.2 L 0 12.8 C 0 13.684 0.716 14.4 1.6 14.4 L 14.4 14.4 C 15.284 14.4 16 13.684 16 12.8 L 16 4.8 C 16 3.916 15.284 3.2 14.4 3.2 Z  M 3.805 8.229 L 3.805 8.229 L 2.278 8.229 L 2.278 9.208 L 3.554 9.208 L 3.554 9.208 Q 3.732 9.208 3.819 9.287 L 3.819 9.287 L 3.819 9.287 Q 3.907 9.367 3.907 9.5 L 3.907 9.5 L 3.907 9.5 Q 3.907 9.633 3.818 9.711 L 3.818 9.711 L 3.818 9.711 Q 3.729 9.79 3.554 9.79 L 3.554 9.79 L 2.278 9.79 L 2.278 11.05 L 2.278 11.05 Q 2.278 11.29 2.17 11.406 L 2.17 11.406 L 2.17 11.406 Q 2.062 11.522 1.892 11.522 L 1.892 11.522 L 1.892 11.522 Q 1.72 11.522 1.612 11.405 L 1.612 11.405 L 1.612 11.405 Q 1.503 11.287 1.503 11.05 L 1.503 11.05 L 1.503 8.106 L 1.503 8.106 Q 1.503 7.94 1.553 7.834 L 1.553 7.834 L 1.553 7.834 Q 1.603 7.728 1.708 7.68 L 1.708 7.68 L 1.708 7.68 Q 1.814 7.632 1.978 7.632 L 1.978 7.632 L 3.805 7.632 L 3.805 7.632 Q 3.99 7.632 4.08 7.714 L 4.08 7.714 L 4.08 7.714 Q 4.17 7.796 4.17 7.929 L 4.17 7.929 L 4.17 7.929 Q 4.17 8.065 4.08 8.147 L 4.08 8.147 L 4.08 8.147 Q 3.99 8.229 3.805 8.229 L 3.805 8.229 Z  M 7.267 8.229 L 7.267 8.229 L 5.522 8.229 L 5.522 9.168 L 7.129 9.168 L 7.129 9.168 Q 7.306 9.168 7.394 9.248 L 7.394 9.248 L 7.394 9.248 Q 7.481 9.328 7.481 9.458 L 7.481 9.458 L 7.481 9.458 Q 7.481 9.589 7.395 9.671 L 7.395 9.671 L 7.395 9.671 Q 7.309 9.753 7.129 9.753 L 7.129 9.753 L 5.522 9.753 L 5.522 10.841 L 7.327 10.841 L 7.327 10.841 Q 7.51 10.841 7.603 10.926 L 7.603 10.926 L 7.603 10.926 Q 7.695 11.011 7.695 11.152 L 7.695 11.152 L 7.695 11.152 Q 7.695 11.287 7.603 11.372 L 7.603 11.372 L 7.603 11.372 Q 7.51 11.457 7.327 11.457 L 7.327 11.457 L 5.222 11.457 L 5.222 11.457 Q 4.969 11.457 4.858 11.345 L 4.858 11.345 L 4.858 11.345 Q 4.747 11.232 4.747 10.982 L 4.747 10.982 L 4.747 8.106 L 4.747 8.106 Q 4.747 7.94 4.796 7.834 L 4.796 7.834 L 4.796 7.834 Q 4.846 7.728 4.952 7.68 L 4.952 7.68 L 4.952 7.68 Q 5.057 7.632 5.222 7.632 L 5.222 7.632 L 7.267 7.632 L 7.267 7.632 Q 7.453 7.632 7.543 7.714 L 7.543 7.714 L 7.543 7.714 Q 7.633 7.796 7.633 7.929 L 7.633 7.929 L 7.633 7.929 Q 7.633 8.065 7.543 8.147 L 7.543 8.147 L 7.543 8.147 Q 7.453 8.229 7.267 8.229 L 7.267 8.229 Z  M 10.832 8.229 L 10.832 8.229 L 9.086 8.229 L 9.086 9.168 L 10.693 9.168 L 10.693 9.168 Q 10.871 9.168 10.958 9.248 L 10.958 9.248 L 10.958 9.248 Q 11.046 9.328 11.046 9.458 L 11.046 9.458 L 11.046 9.458 Q 11.046 9.589 10.96 9.671 L 10.96 9.671 L 10.96 9.671 Q 10.873 9.753 10.693 9.753 L 10.693 9.753 L 9.086 9.753 L 9.086 10.841 L 10.892 10.841 L 10.892 10.841 Q 11.074 10.841 11.167 10.926 L 11.167 10.926 L 11.167 10.926 Q 11.26 11.011 11.26 11.152 L 11.26 11.152 L 11.26 11.152 Q 11.26 11.287 11.167 11.372 L 11.167 11.372 L 11.167 11.372 Q 11.074 11.457 10.892 11.457 L 10.892 11.457 L 8.786 11.457 L 8.786 11.457 Q 8.533 11.457 8.422 11.345 L 8.422 11.345 L 8.422 11.345 Q 8.311 11.232 8.311 10.982 L 8.311 10.982 L 8.311 8.106 L 8.311 8.106 Q 8.311 7.94 8.361 7.834 L 8.361 7.834 L 8.361 7.834 Q 8.41 7.728 8.516 7.68 L 8.516 7.68 L 8.516 7.68 Q 8.622 7.632 8.786 7.632 L 8.786 7.632 L 10.832 7.632 L 10.832 7.632 Q 11.017 7.632 11.107 7.714 L 11.107 7.714 L 11.107 7.714 Q 11.197 7.796 11.197 7.929 L 11.197 7.929 L 11.197 7.929 Q 11.197 8.065 11.107 8.147 L 11.107 8.147 L 11.107 8.147 Q 11.017 8.229 10.832 8.229 L 10.832 8.229 Z  M 14.359 8.271 L 14.359 8.271 L 13.514 8.271 L 13.514 11.05 L 13.514 11.05 Q 13.514 11.29 13.407 11.406 L 13.407 11.406 L 13.407 11.406 Q 13.3 11.522 13.13 11.522 L 13.13 11.522 L 13.13 11.522 Q 12.958 11.522 12.85 11.405 L 12.85 11.405 L 12.85 11.405 Q 12.742 11.287 12.742 11.05 L 12.742 11.05 L 12.742 8.271 L 11.896 8.271 L 11.896 8.271 Q 11.698 8.271 11.601 8.183 L 11.601 8.183 L 11.601 8.183 Q 11.505 8.096 11.505 7.953 L 11.505 7.953 L 11.505 7.953 Q 11.505 7.804 11.605 7.718 L 11.605 7.718 L 11.605 7.718 Q 11.706 7.632 11.896 7.632 L 11.896 7.632 L 14.359 7.632 L 14.359 7.632 Q 14.56 7.632 14.658 7.72 L 14.658 7.72 L 14.658 7.72 Q 14.756 7.809 14.756 7.953 L 14.756 7.953 L 14.756 7.953 Q 14.756 8.096 14.657 8.183 L 14.657 8.183 L 14.657 8.183 Q 14.558 8.271 14.359 8.271 L 14.359 8.271 Z " fill-rule="evenodd" fill="rgb(0,0,0)"/></g></svg>