<?xml version="1.0" standalone="no"?><!-- Generator: Gravit.io --><svg xmlns="http://www.w3.org/2000/svg" xmlns:xlink="http://www.w3.org/1999/xlink" style="isolation:isolate" viewBox="0 0 16 16" width="16" height="16"><defs><clipPath id="_clipPath_TiHC8V69r4948Z0HMnV7pQgBHPXepsVm"><rect width="16" height="16"/></clipPath></defs><g clip-path="url(#_clipPath_TiHC8V69r4948Z0HMnV7pQgBHPXepsVm)"><path d=" M 14.4 3.2 L 7.2 3.2 L 5.6 1.6 L 1.6 1.6 C 0.716 1.6 0 2.316 0 3.2 L 0 12.8 C 0 13.684 0.716 14.4 1.6 14.4 L 14.4 14.4 C 15.284 14.4 16 13.684 16 12.8 L 16 4.8 C 16 3.916 15.284 3.2 14.4 3.2 Z  M 4.002 9.953 L 4.002 9.953 L 4.002 9.953 Q 4.002 10.269 3.84 10.52 L 3.84 10.52 L 3.84 10.52 Q 3.677 10.772 3.364 10.914 L 3.364 10.914 L 3.364 10.914 Q 3.051 11.056 2.622 11.056 L 2.622 11.056 L 2.622 11.056 Q 2.107 11.056 1.772 10.862 L 1.772 10.862 L 1.772 10.862 Q 1.535 10.722 1.387 10.488 L 1.387 10.488 L 1.387 10.488 Q 1.239 10.255 1.239 10.034 L 1.239 10.034 L 1.239 10.034 Q 1.239 9.906 1.328 9.815 L 1.328 9.815 L 1.328 9.815 Q 1.417 9.723 1.554 9.723 L 1.554 9.723 L 1.554 9.723 Q 1.666 9.723 1.743 9.794 L 1.743 9.794 L 1.743 9.794 Q 1.82 9.866 1.874 10.006 L 1.874 10.006 L 1.874 10.006 Q 1.941 10.172 2.018 10.283 L 2.018 10.283 L 2.018 10.283 Q 2.095 10.395 2.235 10.467 L 2.235 10.467 L 2.235 10.467 Q 2.375 10.539 2.603 10.539 L 2.603 10.539 L 2.603 10.539 Q 2.916 10.539 3.111 10.393 L 3.111 10.393 L 3.111 10.393 Q 3.307 10.248 3.307 10.029 L 3.307 10.029 L 3.307 10.029 Q 3.307 9.856 3.202 9.748 L 3.202 9.748 L 3.202 9.748 Q 3.096 9.64 2.929 9.583 L 2.929 9.583 L 2.929 9.583 Q 2.762 9.526 2.482 9.462 L 2.482 9.462 L 2.482 9.462 Q 2.107 9.375 1.854 9.257 L 1.854 9.257 L 1.854 9.257 Q 1.602 9.14 1.453 8.937 L 1.453 8.937 L 1.453 8.937 Q 1.305 8.734 1.305 8.433 L 1.305 8.433 L 1.305 8.433 Q 1.305 8.146 1.462 7.923 L 1.462 7.923 L 1.462 7.923 Q 1.618 7.7 1.915 7.58 L 1.915 7.58 L 1.915 7.58 Q 2.211 7.46 2.612 7.46 L 2.612 7.46 L 2.612 7.46 Q 2.932 7.46 3.166 7.54 L 3.166 7.54 L 3.166 7.54 Q 3.4 7.619 3.554 7.751 L 3.554 7.751 L 3.554 7.751 Q 3.708 7.883 3.779 8.027 L 3.779 8.027 L 3.779 8.027 Q 3.85 8.172 3.85 8.31 L 3.85 8.31 L 3.85 8.31 Q 3.85 8.435 3.761 8.536 L 3.761 8.536 L 3.761 8.536 Q 3.672 8.637 3.54 8.637 L 3.54 8.637 L 3.54 8.637 Q 3.419 8.637 3.356 8.576 L 3.356 8.576 L 3.356 8.576 Q 3.293 8.516 3.219 8.378 L 3.219 8.378 L 3.219 8.378 Q 3.124 8.181 2.992 8.071 L 2.992 8.071 L 2.992 8.071 Q 2.859 7.961 2.565 7.961 L 2.565 7.961 L 2.565 7.961 Q 2.292 7.961 2.125 8.081 L 2.125 8.081 L 2.125 8.081 Q 1.957 8.2 1.957 8.369 L 1.957 8.369 L 1.957 8.369 Q 1.957 8.473 2.014 8.549 L 2.014 8.549 L 2.014 8.549 Q 2.071 8.625 2.171 8.68 L 2.171 8.68 L 2.171 8.68 Q 2.27 8.734 2.372 8.765 L 2.372 8.765 L 2.372 8.765 Q 2.474 8.796 2.709 8.855 L 2.709 8.855 L 2.709 8.855 Q 3.003 8.924 3.242 9.007 L 3.242 9.007 L 3.242 9.007 Q 3.48 9.09 3.648 9.209 L 3.648 9.209 L 3.648 9.209 Q 3.815 9.327 3.908 9.509 L 3.908 9.509 L 3.908 9.509 Q 4.002 9.69 4.002 9.953 L 4.002 9.953 Z  M 4.605 9.56 L 4.605 9.56 L 4.605 7.887 L 4.605 7.887 Q 4.605 7.674 4.701 7.567 L 4.701 7.567 L 4.701 7.567 Q 4.797 7.46 4.953 7.46 L 4.953 7.46 L 4.953 7.46 Q 5.117 7.46 5.213 7.567 L 5.213 7.567 L 5.213 7.567 Q 5.309 7.674 5.309 7.887 L 5.309 7.887 L 5.309 9.598 L 5.309 9.598 Q 5.309 9.889 5.374 10.085 L 5.374 10.085 L 5.374 10.085 Q 5.44 10.281 5.606 10.389 L 5.606 10.389 L 5.606 10.389 Q 5.772 10.497 6.071 10.497 L 6.071 10.497 L 6.071 10.497 Q 6.483 10.497 6.654 10.277 L 6.654 10.277 L 6.654 10.277 Q 6.825 10.058 6.825 9.612 L 6.825 9.612 L 6.825 7.887 L 6.825 7.887 Q 6.825 7.671 6.92 7.566 L 6.92 7.566 L 6.92 7.566 Q 7.015 7.46 7.174 7.46 L 7.174 7.46 L 7.174 7.46 Q 7.333 7.46 7.431 7.566 L 7.431 7.566 L 7.431 7.566 Q 7.529 7.671 7.529 7.887 L 7.529 7.887 L 7.529 9.56 L 7.529 9.56 Q 7.529 9.968 7.45 10.24 L 7.45 10.24 L 7.45 10.24 Q 7.371 10.513 7.15 10.72 L 7.15 10.72 L 7.15 10.72 Q 6.96 10.895 6.709 10.976 L 6.709 10.976 L 6.709 10.976 Q 6.457 11.056 6.12 11.056 L 6.12 11.056 L 6.12 11.056 Q 5.72 11.056 5.43 10.97 L 5.43 10.97 L 5.43 10.97 Q 5.141 10.883 4.958 10.702 L 4.958 10.702 L 4.958 10.702 Q 4.775 10.52 4.69 10.237 L 4.69 10.237 L 4.69 10.237 Q 4.605 9.953 4.605 9.56 L 4.605 9.56 Z  M 9.641 8.049 L 9.641 8.049 L 8.991 8.049 L 8.991 9.005 L 9.622 9.005 L 9.622 9.005 Q 9.875 9.005 10.049 8.961 L 10.049 8.961 L 10.049 8.961 Q 10.222 8.917 10.313 8.811 L 10.313 8.811 L 10.313 8.811 Q 10.404 8.706 10.404 8.521 L 10.404 8.521 L 10.404 8.521 Q 10.404 8.376 10.331 8.266 L 10.331 8.266 L 10.331 8.266 Q 10.257 8.155 10.127 8.101 L 10.127 8.101 L 10.127 8.101 Q 10.004 8.049 9.641 8.049 L 9.641 8.049 Z  M 13.135 8.049 L 13.135 8.049 L 12.485 8.049 L 12.485 9.005 L 13.116 9.005 L 13.116 9.005 Q 13.37 9.005 13.543 8.961 L 13.543 8.961 L 13.543 8.961 Q 13.716 8.917 13.807 8.811 L 13.807 8.811 L 13.807 8.811 Q 13.899 8.706 13.899 8.521 L 13.899 8.521 L 13.899 8.521 Q 13.899 8.376 13.825 8.266 L 13.825 8.266 L 13.825 8.266 Q 13.752 8.155 13.621 8.101 L 13.621 8.101 L 13.621 8.101 Q 13.498 8.049 13.135 8.049 L 13.135 8.049 Z  M 9.237 9.51 L 9.237 9.51 L 8.991 9.51 L 8.991 10.627 L 8.991 10.627 Q 8.991 10.848 8.893 10.952 L 8.893 10.952 L 8.893 10.952 Q 8.796 11.056 8.64 11.056 L 8.64 11.056 L 8.64 11.056 Q 8.471 11.056 8.379 10.947 L 8.379 10.947 L 8.379 10.947 Q 8.286 10.838 8.286 10.627 L 8.286 10.627 L 8.286 7.951 L 8.286 7.951 Q 8.286 7.724 8.388 7.622 L 8.388 7.622 L 8.388 7.622 Q 8.49 7.52 8.718 7.52 L 8.718 7.52 L 9.864 7.52 L 9.864 7.52 Q 10.101 7.52 10.269 7.54 L 10.269 7.54 L 10.269 7.54 Q 10.438 7.56 10.573 7.622 L 10.573 7.622 L 10.573 7.622 Q 10.737 7.69 10.862 7.819 L 10.862 7.819 L 10.862 7.819 Q 10.988 7.947 11.053 8.116 L 11.053 8.116 L 11.053 8.116 Q 11.118 8.286 11.118 8.476 L 11.118 8.476 L 11.118 8.476 Q 11.118 8.865 10.899 9.097 L 10.899 9.097 L 10.899 9.097 Q 10.68 9.33 10.234 9.427 L 10.234 9.427 L 10.234 9.427 Q 10.421 9.526 10.592 9.721 L 10.592 9.721 L 10.592 9.721 Q 10.763 9.915 10.897 10.135 L 10.897 10.135 L 10.897 10.135 Q 11.031 10.354 11.105 10.531 L 11.105 10.531 L 11.105 10.531 Q 11.18 10.708 11.18 10.774 L 11.18 10.774 L 11.18 10.774 Q 11.18 10.843 11.136 10.911 L 11.136 10.911 L 11.136 10.911 Q 11.092 10.978 11.016 11.017 L 11.016 11.017 L 11.016 11.017 Q 10.941 11.056 10.841 11.056 L 10.841 11.056 L 10.841 11.056 Q 10.722 11.056 10.642 11.001 L 10.642 11.001 L 10.642 11.001 Q 10.561 10.945 10.503 10.86 L 10.503 10.86 L 10.503 10.86 Q 10.445 10.774 10.345 10.608 L 10.345 10.608 L 10.063 10.138 L 10.063 10.138 Q 9.911 9.88 9.791 9.745 L 9.791 9.745 L 9.791 9.745 Q 9.671 9.609 9.548 9.56 L 9.548 9.56 L 9.548 9.56 Q 9.425 9.51 9.237 9.51 L 9.237 9.51 Z  M 12.732 9.51 L 12.732 9.51 L 12.485 9.51 L 12.485 10.627 L 12.485 10.627 Q 12.485 10.848 12.388 10.952 L 12.388 10.952 L 12.388 10.952 Q 12.29 11.056 12.134 11.056 L 12.134 11.056 L 12.134 11.056 Q 11.965 11.056 11.873 10.947 L 11.873 10.947 L 11.873 10.947 Q 11.78 10.838 11.78 10.627 L 11.78 10.627 L 11.78 7.951 L 11.78 7.951 Q 11.78 7.724 11.882 7.622 L 11.882 7.622 L 11.882 7.622 Q 11.984 7.52 12.212 7.52 L 12.212 7.52 L 13.358 7.52 L 13.358 7.52 Q 13.595 7.52 13.763 7.54 L 13.763 7.54 L 13.763 7.54 Q 13.932 7.56 14.067 7.622 L 14.067 7.622 L 14.067 7.622 Q 14.231 7.69 14.356 7.819 L 14.356 7.819 L 14.356 7.819 Q 14.482 7.947 14.547 8.116 L 14.547 8.116 L 14.547 8.116 Q 14.613 8.286 14.613 8.476 L 14.613 8.476 L 14.613 8.476 Q 14.613 8.865 14.393 9.097 L 14.393 9.097 L 14.393 9.097 Q 14.174 9.33 13.728 9.427 L 13.728 9.427 L 13.728 9.427 Q 13.915 9.526 14.086 9.721 L 14.086 9.721 L 14.086 9.721 Q 14.257 9.915 14.391 10.135 L 14.391 10.135 L 14.391 10.135 Q 14.525 10.354 14.6 10.531 L 14.6 10.531 L 14.6 10.531 Q 14.674 10.708 14.674 10.774 L 14.674 10.774 L 14.674 10.774 Q 14.674 10.843 14.63 10.911 L 14.63 10.911 L 14.63 10.911 Q 14.587 10.978 14.511 11.017 L 14.511 11.017 L 14.511 11.017 Q 14.435 11.056 14.335 11.056 L 14.335 11.056 L 14.335 11.056 Q 14.216 11.056 14.136 11.001 L 14.136 11.001 L 14.136 11.001 Q 14.055 10.945 13.997 10.86 L 13.997 10.86 L 13.997 10.86 Q 13.939 10.774 13.839 10.608 L 13.839 10.608 L 13.557 10.138 L 13.557 10.138 Q 13.405 9.88 13.285 9.745 L 13.285 9.745 L 13.285 9.745 Q 13.166 9.609 13.042 9.56 L 13.042 9.56 L 13.042 9.56 Q 12.919 9.51 12.732 9.51 L 12.732 9.51 Z " fill-rule="evenodd" fill="rgb(0,0,0)"/></g></svg>