<?xml version="1.0" standalone="no"?><!-- Generator: Gravit.io --><svg xmlns="http://www.w3.org/2000/svg" xmlns:xlink="http://www.w3.org/1999/xlink" style="isolation:isolate" viewBox="0 0 16 16" width="16" height="16"><defs><clipPath id="_clipPath_9z1syBn4IdpS2WiGsqLpfk67k5XARdpa"><rect width="16" height="16"/></clipPath></defs><g clip-path="url(#_clipPath_9z1syBn4IdpS2WiGsqLpfk67k5XARdpa)"><path d=" M 14.4 3.2 L 7.2 3.2 L 5.6 1.6 L 1.6 1.6 C 0.716 1.6 0 2.316 0 3.2 L 0 12.8 C 0 13.684 0.716 14.4 1.6 14.4 L 14.4 14.4 C 15.284 14.4 16 13.684 16 12.8 L 16 4.8 C 16 3.916 15.284 3.2 14.4 3.2 Z  M 2.634 9.758 L 2.634 9.758 L 1.827 9.758 L 1.827 10.875 L 2.66 10.875 L 2.66 10.875 Q 3.445 10.875 3.445 10.309 L 3.445 10.309 L 3.445 10.309 Q 3.445 10.019 3.241 9.889 L 3.241 9.889 L 3.241 9.889 Q 3.038 9.758 2.634 9.758 L 2.634 9.758 Z  M 2.456 8.213 L 1.827 8.213 L 1.827 9.202 L 2.537 9.202 L 2.537 9.202 Q 2.827 9.202 2.984 9.148 L 2.984 9.148 L 2.984 9.148 Q 3.142 9.093 3.226 8.939 L 3.226 8.939 L 3.226 8.939 Q 3.291 8.829 3.291 8.694 L 3.291 8.694 L 3.291 8.694 Q 3.291 8.404 3.085 8.309 L 3.085 8.309 L 3.085 8.309 Q 2.879 8.213 2.456 8.213 L 2.456 8.213 L 2.456 8.213 Z  M 6.177 8.383 L 5.611 9.962 L 6.754 9.962 L 6.177 8.383 L 6.177 8.383 Z  M 11.448 10.309 L 11.448 10.309 L 11.448 10.309 Q 11.448 10.656 11.269 10.932 L 11.269 10.932 L 11.269 10.932 Q 11.09 11.209 10.746 11.366 L 10.746 11.366 L 10.746 11.366 Q 10.401 11.522 9.929 11.522 L 9.929 11.522 L 9.929 11.522 Q 9.363 11.522 8.995 11.308 L 8.995 11.308 L 8.995 11.308 Q 8.734 11.154 8.571 10.897 L 8.571 10.897 L 8.571 10.897 Q 8.408 10.64 8.408 10.397 L 8.408 10.397 L 8.408 10.397 Q 8.408 10.257 8.506 10.156 L 8.506 10.156 L 8.506 10.156 Q 8.604 10.056 8.755 10.056 L 8.755 10.056 L 8.755 10.056 Q 8.878 10.056 8.962 10.134 L 8.962 10.134 L 8.962 10.134 Q 9.047 10.212 9.107 10.366 L 9.107 10.366 L 9.107 10.366 Q 9.18 10.549 9.265 10.671 L 9.265 10.671 L 9.265 10.671 Q 9.35 10.794 9.504 10.874 L 9.504 10.874 L 9.504 10.874 Q 9.658 10.953 9.908 10.953 L 9.908 10.953 L 9.908 10.953 Q 10.253 10.953 10.468 10.793 L 10.468 10.793 L 10.468 10.793 Q 10.683 10.632 10.683 10.392 L 10.683 10.392 L 10.683 10.392 Q 10.683 10.202 10.567 10.083 L 10.567 10.083 L 10.567 10.083 Q 10.451 9.964 10.267 9.902 L 10.267 9.902 L 10.267 9.902 Q 10.083 9.839 9.775 9.769 L 9.775 9.769 L 9.775 9.769 Q 9.363 9.672 9.085 9.543 L 9.085 9.543 L 9.085 9.543 Q 8.807 9.414 8.644 9.191 L 8.644 9.191 L 8.644 9.191 Q 8.481 8.968 8.481 8.636 L 8.481 8.636 L 8.481 8.636 Q 8.481 8.32 8.653 8.075 L 8.653 8.075 L 8.653 8.075 Q 8.825 7.83 9.152 7.698 L 9.152 7.698 L 9.152 7.698 Q 9.478 7.566 9.919 7.566 L 9.919 7.566 L 9.919 7.566 Q 10.271 7.566 10.528 7.654 L 10.528 7.654 L 10.528 7.654 Q 10.785 7.741 10.955 7.886 L 10.955 7.886 L 10.955 7.886 Q 11.124 8.031 11.203 8.19 L 11.203 8.19 L 11.203 8.19 Q 11.281 8.349 11.281 8.501 L 11.281 8.501 L 11.281 8.501 Q 11.281 8.639 11.183 8.75 L 11.183 8.75 L 11.183 8.75 Q 11.085 8.861 10.939 8.861 L 10.939 8.861 L 10.939 8.861 Q 10.806 8.861 10.737 8.794 L 10.737 8.794 L 10.737 8.794 Q 10.668 8.728 10.587 8.576 L 10.587 8.576 L 10.587 8.576 Q 10.482 8.36 10.336 8.238 L 10.336 8.238 L 10.336 8.238 Q 10.19 8.117 9.867 8.117 L 9.867 8.117 L 9.867 8.117 Q 9.566 8.117 9.383 8.249 L 9.383 8.249 L 9.383 8.249 Q 9.199 8.38 9.199 8.566 L 9.199 8.566 L 9.199 8.566 Q 9.199 8.681 9.261 8.764 L 9.261 8.764 L 9.261 8.764 Q 9.324 8.848 9.433 8.908 L 9.433 8.908 L 9.433 8.908 Q 9.543 8.968 9.655 9.001 L 9.655 9.001 L 9.655 9.001 Q 9.767 9.035 10.026 9.101 L 10.026 9.101 L 10.026 9.101 Q 10.349 9.176 10.612 9.268 L 10.612 9.268 L 10.612 9.268 Q 10.874 9.359 11.058 9.489 L 11.058 9.489 L 11.058 9.489 Q 11.242 9.62 11.345 9.82 L 11.345 9.82 L 11.345 9.82 Q 11.448 10.019 11.448 10.309 L 11.448 10.309 Z  M 15.012 10.309 L 15.012 10.309 L 15.012 10.309 Q 15.012 10.656 14.833 10.932 L 14.833 10.932 L 14.833 10.932 Q 14.655 11.209 14.31 11.366 L 14.31 11.366 L 14.31 11.366 Q 13.966 11.522 13.494 11.522 L 13.494 11.522 L 13.494 11.522 Q 12.927 11.522 12.559 11.308 L 12.559 11.308 L 12.559 11.308 Q 12.298 11.154 12.135 10.897 L 12.135 10.897 L 12.135 10.897 Q 11.972 10.64 11.972 10.397 L 11.972 10.397 L 11.972 10.397 Q 11.972 10.257 12.07 10.156 L 12.07 10.156 L 12.07 10.156 Q 12.168 10.056 12.319 10.056 L 12.319 10.056 L 12.319 10.056 Q 12.442 10.056 12.527 10.134 L 12.527 10.134 L 12.527 10.134 Q 12.612 10.212 12.672 10.366 L 12.672 10.366 L 12.672 10.366 Q 12.745 10.549 12.829 10.671 L 12.829 10.671 L 12.829 10.671 Q 12.914 10.794 13.068 10.874 L 13.068 10.874 L 13.068 10.874 Q 13.222 10.953 13.473 10.953 L 13.473 10.953 L 13.473 10.953 Q 13.817 10.953 14.032 10.793 L 14.032 10.793 L 14.032 10.793 Q 14.248 10.632 14.248 10.392 L 14.248 10.392 L 14.248 10.392 Q 14.248 10.202 14.132 10.083 L 14.132 10.083 L 14.132 10.083 Q 14.015 9.964 13.831 9.902 L 13.831 9.902 L 13.831 9.902 Q 13.647 9.839 13.34 9.769 L 13.34 9.769 L 13.34 9.769 Q 12.927 9.672 12.649 9.543 L 12.649 9.543 L 12.649 9.543 Q 12.372 9.414 12.208 9.191 L 12.208 9.191 L 12.208 9.191 Q 12.045 8.968 12.045 8.636 L 12.045 8.636 L 12.045 8.636 Q 12.045 8.32 12.218 8.075 L 12.218 8.075 L 12.218 8.075 Q 12.39 7.83 12.716 7.698 L 12.716 7.698 L 12.716 7.698 Q 13.042 7.566 13.483 7.566 L 13.483 7.566 L 13.483 7.566 Q 13.835 7.566 14.092 7.654 L 14.092 7.654 L 14.092 7.654 Q 14.349 7.741 14.519 7.886 L 14.519 7.886 L 14.519 7.886 Q 14.689 8.031 14.767 8.19 L 14.767 8.19 L 14.767 8.19 Q 14.845 8.349 14.845 8.501 L 14.845 8.501 L 14.845 8.501 Q 14.845 8.639 14.747 8.75 L 14.747 8.75 L 14.747 8.75 Q 14.649 8.861 14.503 8.861 L 14.503 8.861 L 14.503 8.861 Q 14.37 8.861 14.301 8.794 L 14.301 8.794 L 14.301 8.794 Q 14.232 8.728 14.151 8.576 L 14.151 8.576 L 14.151 8.576 Q 14.047 8.36 13.901 8.238 L 13.901 8.238 L 13.901 8.238 Q 13.754 8.117 13.431 8.117 L 13.431 8.117 L 13.431 8.117 Q 13.131 8.117 12.947 8.249 L 12.947 8.249 L 12.947 8.249 Q 12.763 8.38 12.763 8.566 L 12.763 8.566 L 12.763 8.566 Q 12.763 8.681 12.826 8.764 L 12.826 8.764 L 12.826 8.764 Q 12.888 8.848 12.998 8.908 L 12.998 8.908 L 12.998 8.908 Q 13.107 8.968 13.22 9.001 L 13.22 9.001 L 13.22 9.001 Q 13.332 9.035 13.59 9.101 L 13.59 9.101 L 13.59 9.101 Q 13.914 9.176 14.176 9.268 L 14.176 9.268 L 14.176 9.268 Q 14.438 9.359 14.622 9.489 L 14.622 9.489 L 14.622 9.489 Q 14.806 9.62 14.909 9.82 L 14.909 9.82 L 14.909 9.82 Q 15.012 10.019 15.012 10.309 L 15.012 10.309 Z  M 7.145 11.024 L 7.145 11.024 L 6.962 10.544 L 5.407 10.544 L 5.225 11.034 L 5.225 11.034 Q 5.118 11.321 5.042 11.422 L 5.042 11.422 L 5.042 11.422 Q 4.966 11.522 4.794 11.522 L 4.794 11.522 L 4.794 11.522 Q 4.648 11.522 4.536 11.415 L 4.536 11.415 L 4.536 11.415 Q 4.424 11.308 4.424 11.172 L 4.424 11.172 L 4.424 11.172 Q 4.424 11.094 4.45 11.011 L 4.45 11.011 L 4.45 11.011 Q 4.476 10.927 4.536 10.778 L 4.536 10.778 L 5.514 8.294 L 5.514 8.294 Q 5.556 8.187 5.615 8.037 L 5.615 8.037 L 5.615 8.037 Q 5.673 7.887 5.74 7.788 L 5.74 7.788 L 5.74 7.788 Q 5.806 7.689 5.915 7.628 L 5.915 7.628 L 5.915 7.628 Q 6.023 7.566 6.182 7.566 L 6.182 7.566 L 6.182 7.566 Q 6.344 7.566 6.452 7.628 L 6.452 7.628 L 6.452 7.628 Q 6.561 7.689 6.627 7.786 L 6.627 7.786 L 6.627 7.786 Q 6.694 7.882 6.739 7.993 L 6.739 7.993 L 6.739 7.993 Q 6.785 8.104 6.855 8.289 L 6.855 8.289 L 7.855 10.758 L 7.855 10.758 Q 7.972 11.039 7.972 11.167 L 7.972 11.167 L 7.972 11.167 Q 7.972 11.3 7.861 11.411 L 7.861 11.411 L 7.861 11.411 Q 7.75 11.522 7.594 11.522 L 7.594 11.522 L 7.594 11.522 Q 7.503 11.522 7.437 11.489 L 7.437 11.489 L 7.437 11.489 Q 7.372 11.457 7.328 11.401 L 7.328 11.401 L 7.328 11.401 Q 7.283 11.345 7.232 11.229 L 7.232 11.229 L 7.232 11.229 Q 7.182 11.112 7.145 11.024 L 7.145 11.024 Z  M 2.691 11.457 L 2.691 11.457 L 1.522 11.457 L 1.522 11.457 Q 1.269 11.457 1.161 11.343 L 1.161 11.343 L 1.161 11.343 Q 1.052 11.23 1.052 10.982 L 1.052 10.982 L 1.052 8.106 L 1.052 8.106 Q 1.052 7.853 1.163 7.742 L 1.163 7.742 L 1.163 7.742 Q 1.274 7.632 1.522 7.632 L 1.522 7.632 L 2.761 7.632 L 2.761 7.632 Q 3.035 7.632 3.236 7.666 L 3.236 7.666 L 3.236 7.666 Q 3.437 7.699 3.596 7.796 L 3.596 7.796 L 3.596 7.796 Q 3.732 7.877 3.836 8.001 L 3.836 8.001 L 3.836 8.001 Q 3.941 8.125 3.996 8.275 L 3.996 8.275 L 3.996 8.275 Q 4.05 8.425 4.05 8.592 L 4.05 8.592 L 4.05 8.592 Q 4.05 9.166 3.476 9.432 L 3.476 9.432 L 3.476 9.432 Q 4.23 9.672 4.23 10.366 L 4.23 10.366 L 4.23 10.366 Q 4.23 10.687 4.066 10.944 L 4.066 10.944 L 4.066 10.944 Q 3.902 11.201 3.622 11.324 L 3.622 11.324 L 3.622 11.324 Q 3.448 11.397 3.221 11.427 L 3.221 11.427 L 3.221 11.427 Q 2.994 11.457 2.691 11.457 L 2.691 11.457 Z " fill-rule="evenodd" fill="rgb(0,0,0)"/></g></svg>