<?xml version="1.0" standalone="no"?><!-- Generator: Gravit.io --><svg xmlns="http://www.w3.org/2000/svg" xmlns:xlink="http://www.w3.org/1999/xlink" style="isolation:isolate" viewBox="0 0 16 16" width="16" height="16"><defs><clipPath id="_clipPath_944gfOGrk1XQANYwD6nIcqLbKlnddh4T"><rect width="16" height="16"/></clipPath></defs><g clip-path="url(#_clipPath_944gfOGrk1XQANYwD6nIcqLbKlnddh4T)"><path d=" M 14.4 3.2 L 7.2 3.2 L 5.6 1.6 L 1.6 1.6 C 0.716 1.6 0 2.316 0 3.2 L 0 12.8 C 0 13.684 0.716 14.4 1.6 14.4 L 14.4 14.4 C 15.284 14.4 16 13.684 16 12.8 L 16 4.8 C 16 3.916 15.284 3.2 14.4 3.2 Z  M 6.066 8.245 L 5.554 8.245 L 5.554 10.841 L 6.141 10.841 L 6.141 10.841 Q 6.334 10.841 6.444 10.831 L 6.444 10.831 L 6.444 10.831 Q 6.553 10.82 6.671 10.778 L 6.671 10.778 L 6.671 10.778 Q 6.788 10.737 6.874 10.661 L 6.874 10.661 L 6.874 10.661 Q 7.263 10.332 7.263 9.529 L 7.263 9.529 L 7.263 9.529 Q 7.263 8.962 7.092 8.681 L 7.092 8.681 L 7.092 8.681 Q 6.921 8.399 6.671 8.322 L 6.671 8.322 L 6.671 8.322 Q 6.42 8.245 6.066 8.245 L 6.066 8.245 L 6.066 8.245 Z  M 8.589 10.713 L 8.589 10.713 L 9.445 9.463 L 8.724 8.352 L 8.724 8.352 Q 8.623 8.19 8.572 8.074 L 8.572 8.074 L 8.572 8.074 Q 8.521 7.958 8.521 7.851 L 8.521 7.851 L 8.521 7.851 Q 8.521 7.741 8.619 7.654 L 8.619 7.654 L 8.619 7.654 Q 8.717 7.566 8.858 7.566 L 8.858 7.566 L 8.858 7.566 Q 9.019 7.566 9.109 7.662 L 9.109 7.662 L 9.109 7.662 Q 9.199 7.757 9.359 8.015 L 9.359 8.015 L 9.933 8.944 L 10.546 8.015 L 10.546 8.015 Q 10.621 7.898 10.675 7.814 L 10.675 7.814 L 10.675 7.814 Q 10.728 7.731 10.778 7.676 L 10.778 7.676 L 10.778 7.676 Q 10.828 7.621 10.889 7.594 L 10.889 7.594 L 10.889 7.594 Q 10.95 7.566 11.031 7.566 L 11.031 7.566 L 11.031 7.566 Q 11.177 7.566 11.27 7.654 L 11.27 7.654 L 11.27 7.654 Q 11.362 7.741 11.362 7.861 L 11.362 7.861 L 11.362 7.861 Q 11.362 8.036 11.162 8.336 L 11.162 8.336 L 10.407 9.463 L 11.219 10.713 L 11.219 10.713 Q 11.329 10.878 11.378 10.986 L 11.378 10.986 L 11.378 10.986 Q 11.428 11.094 11.428 11.191 L 11.428 11.191 L 11.428 11.191 Q 11.428 11.282 11.383 11.358 L 11.383 11.358 L 11.383 11.358 Q 11.339 11.433 11.258 11.478 L 11.258 11.478 L 11.258 11.478 Q 11.177 11.522 11.075 11.522 L 11.075 11.522 L 11.075 11.522 Q 10.966 11.522 10.89 11.476 L 10.89 11.476 L 10.89 11.476 Q 10.815 11.431 10.768 11.363 L 10.768 11.363 L 10.768 11.363 Q 10.721 11.295 10.593 11.099 L 10.593 11.099 L 9.92 10.04 L 9.205 11.131 L 9.205 11.131 Q 9.121 11.261 9.086 11.313 L 9.086 11.313 L 9.086 11.313 Q 9.051 11.366 9.001 11.415 L 9.001 11.415 L 9.001 11.415 Q 8.951 11.465 8.884 11.493 L 8.884 11.493 L 8.884 11.493 Q 8.816 11.522 8.724 11.522 L 8.724 11.522 L 8.724 11.522 Q 8.584 11.522 8.491 11.436 L 8.491 11.436 L 8.491 11.436 Q 8.398 11.35 8.398 11.185 L 8.398 11.185 L 8.398 11.185 Q 8.398 10.992 8.589 10.713 L 8.589 10.713 Z  M 5.254 7.632 L 5.254 7.632 L 6.264 7.632 L 6.264 7.632 Q 6.658 7.632 6.94 7.705 L 6.94 7.705 L 6.94 7.705 Q 7.221 7.778 7.451 7.979 L 7.451 7.979 L 7.451 7.979 Q 8.049 8.49 8.049 9.534 L 8.049 9.534 L 8.049 9.534 Q 8.049 9.878 7.989 10.163 L 7.989 10.163 L 7.989 10.163 Q 7.929 10.447 7.803 10.675 L 7.803 10.675 L 7.803 10.675 Q 7.678 10.904 7.482 11.084 L 7.482 11.084 L 7.482 11.084 Q 7.328 11.222 7.146 11.306 L 7.146 11.306 L 7.146 11.306 Q 6.963 11.389 6.753 11.423 L 6.753 11.423 L 6.753 11.423 Q 6.543 11.457 6.28 11.457 L 6.28 11.457 L 5.27 11.457 L 5.27 11.457 Q 5.058 11.457 4.951 11.393 L 4.951 11.393 L 4.951 11.393 Q 4.844 11.329 4.812 11.213 L 4.812 11.213 L 4.812 11.213 Q 4.779 11.097 4.779 10.912 L 4.779 10.912 L 4.779 8.106 L 4.779 8.106 Q 4.779 7.856 4.891 7.744 L 4.891 7.744 L 4.891 7.744 Q 5.004 7.632 5.254 7.632 L 5.254 7.632 Z " fill-rule="evenodd" fill="rgb(0,0,0)"/></g></svg>