<?xml version="1.0" standalone="no"?><!-- Generator: Gravit.io --><svg xmlns="http://www.w3.org/2000/svg" xmlns:xlink="http://www.w3.org/1999/xlink" style="isolation:isolate" viewBox="0 0 16 16" width="16" height="16"><defs><clipPath id="_clipPath_pHtjJrcI300Ew3FiXetzCe2GUS6uWryA"><rect width="16" height="16"/></clipPath></defs><g clip-path="url(#_clipPath_pHtjJrcI300Ew3FiXetzCe2GUS6uWryA)"><path d=" M 14.4 3.2 L 7.2 3.2 L 5.6 1.6 L 1.6 1.6 C 0.716 1.6 0 2.316 0 3.2 L 0 12.8 C 0 13.684 0.716 14.4 1.6 14.4 L 14.4 14.4 C 15.284 14.4 16 13.684 16 12.8 L 16 4.8 C 16 3.916 15.284 3.2 14.4 3.2 Z  M 1.983 8.036 L 1.983 8.036 L 1.983 9.377 L 3.505 7.791 L 3.505 7.791 Q 3.614 7.676 3.691 7.621 L 3.691 7.621 L 3.691 7.621 Q 3.768 7.566 3.896 7.566 L 3.896 7.566 L 3.896 7.566 Q 4.063 7.566 4.166 7.664 L 4.166 7.664 L 4.166 7.664 Q 4.269 7.762 4.269 7.903 L 4.269 7.903 L 4.269 7.903 Q 4.269 8.073 4.094 8.24 L 4.094 8.24 L 3.152 9.132 L 4.238 10.687 L 4.238 10.687 Q 4.353 10.849 4.41 10.97 L 4.41 10.97 L 4.41 10.97 Q 4.467 11.092 4.467 11.206 L 4.467 11.206 L 4.467 11.206 Q 4.467 11.334 4.367 11.428 L 4.367 11.428 L 4.367 11.428 Q 4.267 11.522 4.094 11.522 L 4.094 11.522 L 4.094 11.522 Q 3.933 11.522 3.831 11.453 L 3.831 11.453 L 3.831 11.453 Q 3.729 11.384 3.659 11.269 L 3.659 11.269 L 3.659 11.269 Q 3.588 11.154 3.533 11.06 L 3.533 11.06 L 2.617 9.651 L 1.983 10.259 L 1.983 11.05 L 1.983 11.05 Q 1.983 11.29 1.874 11.406 L 1.874 11.406 L 1.874 11.406 Q 1.764 11.522 1.592 11.522 L 1.592 11.522 L 1.592 11.522 Q 1.493 11.522 1.402 11.47 L 1.402 11.47 L 1.402 11.47 Q 1.31 11.418 1.261 11.329 L 1.261 11.329 L 1.261 11.329 Q 1.224 11.256 1.216 11.159 L 1.216 11.159 L 1.216 11.159 Q 1.208 11.063 1.208 10.88 L 1.208 10.88 L 1.208 8.036 L 1.208 8.036 Q 1.208 7.801 1.312 7.684 L 1.312 7.684 L 1.312 7.684 Q 1.415 7.566 1.592 7.566 L 1.592 7.566 L 1.592 7.566 Q 1.767 7.566 1.875 7.682 L 1.875 7.682 L 1.875 7.682 Q 1.983 7.799 1.983 8.036 L 1.983 8.036 Z  M 7.68 8.229 L 7.68 8.229 L 5.934 8.229 L 5.934 9.168 L 7.541 9.168 L 7.541 9.168 Q 7.719 9.168 7.806 9.248 L 7.806 9.248 L 7.806 9.248 Q 7.894 9.328 7.894 9.458 L 7.894 9.458 L 7.894 9.458 Q 7.894 9.589 7.807 9.671 L 7.807 9.671 L 7.807 9.671 Q 7.721 9.753 7.541 9.753 L 7.541 9.753 L 5.934 9.753 L 5.934 10.841 L 7.74 10.841 L 7.74 10.841 Q 7.922 10.841 8.015 10.926 L 8.015 10.926 L 8.015 10.926 Q 8.108 11.011 8.108 11.152 L 8.108 11.152 L 8.108 11.152 Q 8.108 11.287 8.015 11.372 L 8.015 11.372 L 8.015 11.372 Q 7.922 11.457 7.74 11.457 L 7.74 11.457 L 5.634 11.457 L 5.634 11.457 Q 5.381 11.457 5.27 11.345 L 5.27 11.345 L 5.27 11.345 Q 5.159 11.232 5.159 10.982 L 5.159 10.982 L 5.159 8.106 L 5.159 8.106 Q 5.159 7.94 5.209 7.834 L 5.209 7.834 L 5.209 7.834 Q 5.258 7.728 5.364 7.68 L 5.364 7.68 L 5.364 7.68 Q 5.469 7.632 5.634 7.632 L 5.634 7.632 L 7.68 7.632 L 7.68 7.632 Q 7.865 7.632 7.955 7.714 L 7.955 7.714 L 7.955 7.714 Q 8.045 7.796 8.045 7.929 L 8.045 7.929 L 8.045 7.929 Q 8.045 8.065 7.955 8.147 L 7.955 8.147 L 7.955 8.147 Q 7.865 8.229 7.68 8.229 L 7.68 8.229 Z  M 9.577 11.05 L 9.577 11.05 L 9.577 9.836 L 8.642 8.388 L 8.642 8.388 Q 8.52 8.193 8.469 8.083 L 8.469 8.083 L 8.469 8.083 Q 8.418 7.973 8.418 7.893 L 8.418 7.893 L 8.418 7.893 Q 8.418 7.759 8.521 7.663 L 8.521 7.663 L 8.521 7.663 Q 8.624 7.566 8.775 7.566 L 8.775 7.566 L 8.775 7.566 Q 8.935 7.566 9.017 7.656 L 9.017 7.656 L 9.017 7.656 Q 9.099 7.746 9.263 8.015 L 9.263 8.015 L 9.978 9.176 L 10.701 8.015 L 10.701 8.015 Q 10.766 7.908 10.811 7.835 L 10.811 7.835 L 10.811 7.835 Q 10.855 7.762 10.909 7.698 L 10.909 7.698 L 10.909 7.698 Q 10.962 7.634 11.027 7.6 L 11.027 7.6 L 11.027 7.6 Q 11.093 7.566 11.187 7.566 L 11.187 7.566 L 11.187 7.566 Q 11.333 7.566 11.43 7.662 L 11.43 7.662 L 11.43 7.662 Q 11.528 7.757 11.528 7.882 L 11.528 7.882 L 11.528 7.882 Q 11.528 7.984 11.479 8.086 L 11.479 8.086 L 11.479 8.086 Q 11.429 8.187 11.309 8.367 L 11.309 8.367 L 10.352 9.836 L 10.352 11.05 L 10.352 11.05 Q 10.352 11.287 10.242 11.405 L 10.242 11.405 L 10.242 11.405 Q 10.132 11.522 9.963 11.522 L 9.963 11.522 L 9.963 11.522 Q 9.791 11.522 9.684 11.406 L 9.684 11.406 L 9.684 11.406 Q 9.577 11.29 9.577 11.05 L 9.577 11.05 Z  M 14.837 10.309 L 14.837 10.309 L 14.837 10.309 Q 14.837 10.656 14.658 10.932 L 14.658 10.932 L 14.658 10.932 Q 14.479 11.209 14.135 11.366 L 14.135 11.366 L 14.135 11.366 Q 13.791 11.522 13.318 11.522 L 13.318 11.522 L 13.318 11.522 Q 12.752 11.522 12.384 11.308 L 12.384 11.308 L 12.384 11.308 Q 12.123 11.154 11.96 10.897 L 11.96 10.897 L 11.96 10.897 Q 11.797 10.64 11.797 10.397 L 11.797 10.397 L 11.797 10.397 Q 11.797 10.257 11.895 10.156 L 11.895 10.156 L 11.895 10.156 Q 11.993 10.056 12.144 10.056 L 12.144 10.056 L 12.144 10.056 Q 12.267 10.056 12.352 10.134 L 12.352 10.134 L 12.352 10.134 Q 12.436 10.212 12.496 10.366 L 12.496 10.366 L 12.496 10.366 Q 12.569 10.549 12.654 10.671 L 12.654 10.671 L 12.654 10.671 Q 12.739 10.794 12.893 10.874 L 12.893 10.874 L 12.893 10.874 Q 13.047 10.953 13.297 10.953 L 13.297 10.953 L 13.297 10.953 Q 13.642 10.953 13.857 10.793 L 13.857 10.793 L 13.857 10.793 Q 14.072 10.632 14.072 10.392 L 14.072 10.392 L 14.072 10.392 Q 14.072 10.202 13.956 10.083 L 13.956 10.083 L 13.956 10.083 Q 13.84 9.964 13.656 9.902 L 13.656 9.902 L 13.656 9.902 Q 13.472 9.839 13.164 9.769 L 13.164 9.769 L 13.164 9.769 Q 12.752 9.672 12.474 9.543 L 12.474 9.543 L 12.474 9.543 Q 12.196 9.414 12.033 9.191 L 12.033 9.191 L 12.033 9.191 Q 11.87 8.968 11.87 8.636 L 11.87 8.636 L 11.87 8.636 Q 11.87 8.32 12.042 8.075 L 12.042 8.075 L 12.042 8.075 Q 12.215 7.83 12.541 7.698 L 12.541 7.698 L 12.541 7.698 Q 12.867 7.566 13.308 7.566 L 13.308 7.566 L 13.308 7.566 Q 13.66 7.566 13.917 7.654 L 13.917 7.654 L 13.917 7.654 Q 14.174 7.741 14.344 7.886 L 14.344 7.886 L 14.344 7.886 Q 14.513 8.031 14.592 8.19 L 14.592 8.19 L 14.592 8.19 Q 14.67 8.349 14.67 8.501 L 14.67 8.501 L 14.67 8.501 Q 14.67 8.639 14.572 8.75 L 14.572 8.75 L 14.572 8.75 Q 14.474 8.861 14.328 8.861 L 14.328 8.861 L 14.328 8.861 Q 14.195 8.861 14.126 8.794 L 14.126 8.794 L 14.126 8.794 Q 14.057 8.728 13.976 8.576 L 13.976 8.576 L 13.976 8.576 Q 13.871 8.36 13.725 8.238 L 13.725 8.238 L 13.725 8.238 Q 13.579 8.117 13.256 8.117 L 13.256 8.117 L 13.256 8.117 Q 12.956 8.117 12.772 8.249 L 12.772 8.249 L 12.772 8.249 Q 12.588 8.38 12.588 8.566 L 12.588 8.566 L 12.588 8.566 Q 12.588 8.681 12.65 8.764 L 12.65 8.764 L 12.65 8.764 Q 12.713 8.848 12.823 8.908 L 12.823 8.908 L 12.823 8.908 Q 12.932 8.968 13.044 9.001 L 13.044 9.001 L 13.044 9.001 Q 13.157 9.035 13.415 9.101 L 13.415 9.101 L 13.415 9.101 Q 13.738 9.176 14.001 9.268 L 14.001 9.268 L 14.001 9.268 Q 14.263 9.359 14.447 9.489 L 14.447 9.489 L 14.447 9.489 Q 14.631 9.62 14.734 9.82 L 14.734 9.82 L 14.734 9.82 Q 14.837 10.019 14.837 10.309 L 14.837 10.309 Z " fill-rule="evenodd" fill="rgb(0,0,0)"/></g></svg>