<?xml version="1.0" standalone="no"?><!-- Generator: Gravit.io --><svg xmlns="http://www.w3.org/2000/svg" xmlns:xlink="http://www.w3.org/1999/xlink" style="isolation:isolate" viewBox="0 0 16 16" width="16" height="16"><defs><clipPath id="_clipPath_hPavV2u1trFVij1p0q8lJSiV2zQjS9u7"><rect width="16" height="16"/></clipPath></defs><g clip-path="url(#_clipPath_hPavV2u1trFVij1p0q8lJSiV2zQjS9u7)"><path d=" M 14.4 3.2 L 7.2 3.2 L 5.6 1.6 L 1.6 1.6 C 0.716 1.6 0 2.316 0 3.2 L 0 12.8 C 0 13.684 0.716 14.4 1.6 14.4 L 14.4 14.4 C 15.284 14.4 16 13.684 16 12.8 L 16 4.8 C 16 3.916 15.284 3.2 14.4 3.2 Z  M 7.802 10.309 L 7.802 10.309 L 7.802 10.309 Q 7.802 10.656 7.623 10.932 L 7.623 10.932 L 7.623 10.932 Q 7.445 11.209 7.1 11.366 L 7.1 11.366 L 7.1 11.366 Q 6.756 11.522 6.284 11.522 L 6.284 11.522 L 6.284 11.522 Q 5.717 11.522 5.349 11.308 L 5.349 11.308 L 5.349 11.308 Q 5.088 11.154 4.925 10.897 L 4.925 10.897 L 4.925 10.897 Q 4.762 10.64 4.762 10.397 L 4.762 10.397 L 4.762 10.397 Q 4.762 10.257 4.86 10.156 L 4.86 10.156 L 4.86 10.156 Q 4.958 10.056 5.109 10.056 L 5.109 10.056 L 5.109 10.056 Q 5.232 10.056 5.317 10.134 L 5.317 10.134 L 5.317 10.134 Q 5.402 10.212 5.462 10.366 L 5.462 10.366 L 5.462 10.366 Q 5.535 10.549 5.619 10.671 L 5.619 10.671 L 5.619 10.671 Q 5.704 10.794 5.858 10.874 L 5.858 10.874 L 5.858 10.874 Q 6.012 10.953 6.263 10.953 L 6.263 10.953 L 6.263 10.953 Q 6.607 10.953 6.822 10.793 L 6.822 10.793 L 6.822 10.793 Q 7.038 10.632 7.038 10.392 L 7.038 10.392 L 7.038 10.392 Q 7.038 10.202 6.922 10.083 L 6.922 10.083 L 6.922 10.083 Q 6.805 9.964 6.621 9.902 L 6.621 9.902 L 6.621 9.902 Q 6.437 9.839 6.13 9.769 L 6.13 9.769 L 6.13 9.769 Q 5.717 9.672 5.439 9.543 L 5.439 9.543 L 5.439 9.543 Q 5.162 9.414 4.998 9.191 L 4.998 9.191 L 4.998 9.191 Q 4.835 8.968 4.835 8.636 L 4.835 8.636 L 4.835 8.636 Q 4.835 8.32 5.008 8.075 L 5.008 8.075 L 5.008 8.075 Q 5.18 7.83 5.506 7.698 L 5.506 7.698 L 5.506 7.698 Q 5.832 7.566 6.273 7.566 L 6.273 7.566 L 6.273 7.566 Q 6.625 7.566 6.882 7.654 L 6.882 7.654 L 6.882 7.654 Q 7.139 7.741 7.309 7.886 L 7.309 7.886 L 7.309 7.886 Q 7.479 8.031 7.557 8.19 L 7.557 8.19 L 7.557 8.19 Q 7.635 8.349 7.635 8.501 L 7.635 8.501 L 7.635 8.501 Q 7.635 8.639 7.537 8.75 L 7.537 8.75 L 7.537 8.75 Q 7.439 8.861 7.293 8.861 L 7.293 8.861 L 7.293 8.861 Q 7.16 8.861 7.091 8.794 L 7.091 8.794 L 7.091 8.794 Q 7.022 8.728 6.941 8.576 L 6.941 8.576 L 6.941 8.576 Q 6.837 8.36 6.691 8.238 L 6.691 8.238 L 6.691 8.238 Q 6.544 8.117 6.221 8.117 L 6.221 8.117 L 6.221 8.117 Q 5.921 8.117 5.737 8.249 L 5.737 8.249 L 5.737 8.249 Q 5.553 8.38 5.553 8.566 L 5.553 8.566 L 5.553 8.566 Q 5.553 8.681 5.616 8.764 L 5.616 8.764 L 5.616 8.764 Q 5.678 8.848 5.788 8.908 L 5.788 8.908 L 5.788 8.908 Q 5.897 8.968 6.01 9.001 L 6.01 9.001 L 6.01 9.001 Q 6.122 9.035 6.38 9.101 L 6.38 9.101 L 6.38 9.101 Q 6.704 9.176 6.966 9.268 L 6.966 9.268 L 6.966 9.268 Q 7.228 9.359 7.412 9.489 L 7.412 9.489 L 7.412 9.489 Q 7.596 9.62 7.699 9.82 L 7.699 9.82 L 7.699 9.82 Q 7.802 10.019 7.802 10.309 L 7.802 10.309 Z  M 10.944 8.271 L 10.944 8.271 L 10.098 8.271 L 10.098 11.05 L 10.098 11.05 Q 10.098 11.29 9.991 11.406 L 9.991 11.406 L 9.991 11.406 Q 9.884 11.522 9.715 11.522 L 9.715 11.522 L 9.715 11.522 Q 9.543 11.522 9.434 11.405 L 9.434 11.405 L 9.434 11.405 Q 9.326 11.287 9.326 11.05 L 9.326 11.05 L 9.326 8.271 L 8.481 8.271 L 8.481 8.271 Q 8.282 8.271 8.186 8.183 L 8.186 8.183 L 8.186 8.183 Q 8.089 8.096 8.089 7.953 L 8.089 7.953 L 8.089 7.953 Q 8.089 7.804 8.19 7.718 L 8.19 7.718 L 8.19 7.718 Q 8.29 7.632 8.481 7.632 L 8.481 7.632 L 10.944 7.632 L 10.944 7.632 Q 11.145 7.632 11.243 7.72 L 11.243 7.72 L 11.243 7.72 Q 11.34 7.809 11.34 7.953 L 11.34 7.953 L 11.34 7.953 Q 11.34 8.096 11.241 8.183 L 11.241 8.183 L 11.241 8.183 Q 11.142 8.271 10.944 8.271 L 10.944 8.271 Z " fill-rule="evenodd" fill="rgb(0,0,0)"/></g></svg>