<?xml version="1.0" standalone="no"?><!-- Generator: Gravit.io --><svg xmlns="http://www.w3.org/2000/svg" xmlns:xlink="http://www.w3.org/1999/xlink" style="isolation:isolate" viewBox="0 0 16 16" width="16" height="16"><defs><clipPath id="_clipPath_aiVXpwlARYS5j3cpMiFrI6mZABoUUiMZ"><rect width="16" height="16"/></clipPath></defs><g clip-path="url(#_clipPath_aiVXpwlARYS5j3cpMiFrI6mZABoUUiMZ)"><path d=" M 14.4 3.2 L 7.2 3.2 L 5.6 1.6 L 1.6 1.6 C 0.716 1.6 0 2.316 0 3.2 L 0 12.8 C 0 13.684 0.716 14.4 1.6 14.4 L 14.4 14.4 C 15.284 14.4 16 13.684 16 12.8 L 16 4.8 C 16 3.916 15.284 3.2 14.4 3.2 Z  M 5.385 10.48 L 5.385 10.48 L 4.772 8.043 L 4.772 10.684 L 4.772 10.684 Q 4.772 10.903 4.674 11.013 L 4.674 11.013 L 4.674 11.013 Q 4.577 11.122 4.415 11.122 L 4.415 11.122 L 4.415 11.122 Q 4.258 11.122 4.159 11.014 L 4.159 11.014 L 4.159 11.014 Q 4.06 10.906 4.06 10.684 L 4.06 10.684 L 4.06 7.657 L 4.06 7.657 Q 4.06 7.406 4.19 7.319 L 4.19 7.319 L 4.19 7.319 Q 4.321 7.232 4.543 7.232 L 4.543 7.232 L 4.783 7.232 L 4.783 7.232 Q 4.999 7.232 5.097 7.271 L 5.097 7.271 L 5.097 7.271 Q 5.195 7.31 5.242 7.412 L 5.242 7.412 L 5.242 7.412 Q 5.289 7.513 5.349 7.743 L 5.349 7.743 L 5.905 9.838 L 6.46 7.743 L 6.46 7.743 Q 6.52 7.513 6.567 7.412 L 6.567 7.412 L 6.567 7.412 Q 6.614 7.31 6.712 7.271 L 6.712 7.271 L 6.712 7.271 Q 6.81 7.232 7.027 7.232 L 7.027 7.232 L 7.267 7.232 L 7.267 7.232 Q 7.489 7.232 7.619 7.319 L 7.619 7.319 L 7.619 7.319 Q 7.749 7.406 7.749 7.657 L 7.749 7.657 L 7.749 10.684 L 7.749 10.684 Q 7.749 10.903 7.652 11.013 L 7.652 11.013 L 7.652 11.013 Q 7.554 11.122 7.389 11.122 L 7.389 11.122 L 7.389 11.122 Q 7.235 11.122 7.136 11.013 L 7.136 11.013 L 7.136 11.013 Q 7.037 10.903 7.037 10.684 L 7.037 10.684 L 7.037 8.043 L 6.424 10.48 L 6.424 10.48 Q 6.364 10.718 6.326 10.829 L 6.326 10.829 L 6.326 10.829 Q 6.288 10.939 6.186 11.031 L 6.186 11.031 L 6.186 11.031 Q 6.085 11.122 5.905 11.122 L 5.905 11.122 L 5.905 11.122 Q 5.769 11.122 5.675 11.063 L 5.675 11.063 L 5.675 11.063 Q 5.581 11.005 5.529 10.913 L 5.529 10.913 L 5.529 10.913 Q 5.477 10.822 5.447 10.711 L 5.447 10.711 L 5.447 10.711 Q 5.417 10.6 5.385 10.48 L 5.385 10.48 Z  M 9.555 7.631 L 9.555 7.631 L 11.045 9.885 L 11.045 7.61 L 11.045 7.61 Q 11.045 7.388 11.14 7.277 L 11.14 7.277 L 11.14 7.277 Q 11.236 7.166 11.397 7.166 L 11.397 7.166 L 11.397 7.166 Q 11.564 7.166 11.661 7.277 L 11.661 7.277 L 11.661 7.277 Q 11.757 7.388 11.757 7.61 L 11.757 7.61 L 11.757 10.619 L 11.757 10.619 Q 11.757 11.122 11.34 11.122 L 11.34 11.122 L 11.34 11.122 Q 11.236 11.122 11.152 11.092 L 11.152 11.092 L 11.152 11.092 Q 11.069 11.062 10.995 10.997 L 10.995 10.997 L 10.995 10.997 Q 10.922 10.932 10.86 10.844 L 10.86 10.844 L 10.86 10.844 Q 10.797 10.757 10.735 10.665 L 10.735 10.665 L 9.281 8.437 L 9.281 10.679 L 9.281 10.679 Q 9.281 10.898 9.179 11.01 L 9.179 11.01 L 9.179 11.01 Q 9.078 11.122 8.918 11.122 L 8.918 11.122 L 8.918 11.122 Q 8.754 11.122 8.655 11.009 L 8.655 11.009 L 8.655 11.009 Q 8.556 10.895 8.556 10.679 L 8.556 10.679 L 8.556 7.727 L 8.556 7.727 Q 8.556 7.54 8.597 7.433 L 8.597 7.433 L 8.597 7.433 Q 8.647 7.315 8.762 7.241 L 8.762 7.241 L 8.762 7.241 Q 8.877 7.166 9.01 7.166 L 9.01 7.166 L 9.01 7.166 Q 9.114 7.166 9.188 7.2 L 9.188 7.2 L 9.188 7.2 Q 9.263 7.234 9.319 7.292 L 9.319 7.292 L 9.319 7.292 Q 9.375 7.349 9.434 7.44 L 9.434 7.44 L 9.434 7.44 Q 9.492 7.532 9.555 7.631 L 9.555 7.631 Z " fill-rule="evenodd" fill="rgb(0,0,0)"/></g></svg>