<?xml version="1.0" standalone="no"?><!-- Generator: Gravit.io --><svg xmlns="http://www.w3.org/2000/svg" xmlns:xlink="http://www.w3.org/1999/xlink" style="isolation:isolate" viewBox="0 0 16 16" width="16" height="16"><defs><clipPath id="_clipPath_J5VZm8CtmVXsjsf01GbqEH0GbjwJwMwK"><rect width="16" height="16"/></clipPath></defs><g clip-path="url(#_clipPath_J5VZm8CtmVXsjsf01GbqEH0GbjwJwMwK)"><path d=" M 14.4 3.2 L 7.2 3.2 L 5.6 1.6 L 1.6 1.6 C 0.716 1.6 0 2.316 0 3.2 L 0 12.8 C 0 13.684 0.716 14.4 1.6 14.4 L 14.4 14.4 C 15.284 14.4 16 13.684 16 12.8 L 16 4.8 C 16 3.916 15.284 3.2 14.4 3.2 Z  M 1.802 8.103 L 1.802 8.103 L 1.802 9.1 L 3.322 9.1 L 3.322 8.103 L 3.322 8.103 Q 3.322 7.89 3.418 7.783 L 3.418 7.783 L 3.418 7.783 Q 3.514 7.676 3.671 7.676 L 3.671 7.676 L 3.671 7.676 Q 3.83 7.676 3.928 7.782 L 3.928 7.782 L 3.928 7.782 Q 4.027 7.887 4.027 8.103 L 4.027 8.103 L 4.027 10.843 L 4.027 10.843 Q 4.027 11.059 3.927 11.166 L 3.927 11.166 L 3.927 11.166 Q 3.827 11.272 3.671 11.272 L 3.671 11.272 L 3.671 11.272 Q 3.512 11.272 3.417 11.164 L 3.417 11.164 L 3.417 11.164 Q 3.322 11.056 3.322 10.843 L 3.322 10.843 L 3.322 9.674 L 1.802 9.674 L 1.802 10.843 L 1.802 10.843 Q 1.802 11.059 1.702 11.166 L 1.702 11.166 L 1.702 11.166 Q 1.602 11.272 1.446 11.272 L 1.446 11.272 L 1.446 11.272 Q 1.287 11.272 1.192 11.164 L 1.192 11.164 L 1.192 11.164 Q 1.097 11.056 1.097 10.843 L 1.097 10.843 L 1.097 8.103 L 1.097 8.103 Q 1.097 7.89 1.191 7.783 L 1.191 7.783 L 1.191 7.783 Q 1.285 7.676 1.446 7.676 L 1.446 7.676 L 1.446 7.676 Q 1.605 7.676 1.703 7.782 L 1.703 7.782 L 1.703 7.782 Q 1.802 7.887 1.802 8.103 L 1.802 8.103 Z  M 6.128 8.419 L 5.614 9.854 L 6.653 9.854 L 6.128 8.419 L 6.128 8.419 Z  M 9.196 8.098 L 9.196 8.098 L 10.55 10.148 L 10.55 8.079 L 10.55 8.079 Q 10.55 7.878 10.637 7.777 L 10.637 7.777 L 10.637 7.777 Q 10.723 7.676 10.87 7.676 L 10.87 7.676 L 10.87 7.676 Q 11.022 7.676 11.11 7.777 L 11.11 7.777 L 11.11 7.777 Q 11.198 7.878 11.198 8.079 L 11.198 8.079 L 11.198 10.815 L 11.198 10.815 Q 11.198 11.272 10.818 11.272 L 10.818 11.272 L 10.818 11.272 Q 10.723 11.272 10.647 11.245 L 10.647 11.245 L 10.647 11.245 Q 10.571 11.218 10.505 11.158 L 10.505 11.158 L 10.505 11.158 Q 10.439 11.099 10.382 11.02 L 10.382 11.02 L 10.382 11.02 Q 10.325 10.94 10.268 10.857 L 10.268 10.857 L 8.946 8.831 L 8.946 10.869 L 8.946 10.869 Q 8.946 11.068 8.854 11.17 L 8.854 11.17 L 8.854 11.17 Q 8.761 11.272 8.617 11.272 L 8.617 11.272 L 8.617 11.272 Q 8.467 11.272 8.377 11.169 L 8.377 11.169 L 8.377 11.169 Q 8.287 11.066 8.287 10.869 L 8.287 10.869 L 8.287 8.186 L 8.287 8.186 Q 8.287 8.015 8.325 7.918 L 8.325 7.918 L 8.325 7.918 Q 8.37 7.811 8.474 7.744 L 8.474 7.744 L 8.474 7.744 Q 8.579 7.676 8.7 7.676 L 8.7 7.676 L 8.7 7.676 Q 8.795 7.676 8.862 7.707 L 8.862 7.707 L 8.862 7.707 Q 8.93 7.738 8.981 7.79 L 8.981 7.79 L 8.981 7.79 Q 9.032 7.842 9.085 7.925 L 9.085 7.925 L 9.085 7.925 Q 9.139 8.008 9.196 8.098 L 9.196 8.098 Z  M 13.143 8.293 L 12.678 8.293 L 12.678 10.653 L 13.212 10.653 L 13.212 10.653 Q 13.387 10.653 13.487 10.644 L 13.487 10.644 L 13.487 10.644 Q 13.586 10.634 13.693 10.596 L 13.693 10.596 L 13.693 10.596 Q 13.8 10.558 13.878 10.49 L 13.878 10.49 L 13.878 10.49 Q 14.232 10.191 14.232 9.46 L 14.232 9.46 L 14.232 9.46 Q 14.232 8.945 14.076 8.689 L 14.076 8.689 L 14.076 8.689 Q 13.921 8.433 13.693 8.363 L 13.693 8.363 L 13.693 8.363 Q 13.465 8.293 13.143 8.293 L 13.143 8.293 L 13.143 8.293 Z  M 7.008 10.819 L 7.008 10.819 L 6.842 10.383 L 5.429 10.383 L 5.263 10.829 L 5.263 10.829 Q 5.165 11.09 5.097 11.181 L 5.097 11.181 L 5.097 11.181 Q 5.028 11.272 4.871 11.272 L 4.871 11.272 L 4.871 11.272 Q 4.738 11.272 4.636 11.175 L 4.636 11.175 L 4.636 11.175 Q 4.534 11.078 4.534 10.954 L 4.534 10.954 L 4.534 10.954 Q 4.534 10.883 4.558 10.807 L 4.558 10.807 L 4.558 10.807 Q 4.582 10.732 4.636 10.596 L 4.636 10.596 L 5.526 8.338 L 5.526 8.338 Q 5.564 8.241 5.617 8.104 L 5.617 8.104 L 5.617 8.104 Q 5.671 7.968 5.731 7.878 L 5.731 7.878 L 5.731 7.878 Q 5.792 7.788 5.89 7.732 L 5.89 7.732 L 5.89 7.732 Q 5.988 7.676 6.133 7.676 L 6.133 7.676 L 6.133 7.676 Q 6.28 7.676 6.379 7.732 L 6.379 7.732 L 6.379 7.732 Q 6.477 7.788 6.538 7.875 L 6.538 7.875 L 6.538 7.875 Q 6.598 7.963 6.64 8.064 L 6.64 8.064 L 6.64 8.064 Q 6.681 8.165 6.745 8.333 L 6.745 8.333 L 7.654 10.577 L 7.654 10.577 Q 7.76 10.834 7.76 10.95 L 7.76 10.95 L 7.76 10.95 Q 7.76 11.071 7.66 11.172 L 7.66 11.172 L 7.66 11.172 Q 7.559 11.272 7.416 11.272 L 7.416 11.272 L 7.416 11.272 Q 7.333 11.272 7.274 11.243 L 7.274 11.243 L 7.274 11.243 Q 7.215 11.213 7.175 11.162 L 7.175 11.162 L 7.175 11.162 Q 7.134 11.111 7.088 11.005 L 7.088 11.005 L 7.088 11.005 Q 7.042 10.9 7.008 10.819 L 7.008 10.819 Z  M 12.405 7.736 L 12.405 7.736 L 13.323 7.736 L 13.323 7.736 Q 13.681 7.736 13.937 7.802 L 13.937 7.802 L 13.937 7.802 Q 14.194 7.868 14.402 8.051 L 14.402 8.051 L 14.402 8.051 Q 14.946 8.516 14.946 9.465 L 14.946 9.465 L 14.946 9.465 Q 14.946 9.778 14.891 10.036 L 14.891 10.036 L 14.891 10.036 Q 14.836 10.295 14.723 10.503 L 14.723 10.503 L 14.723 10.503 Q 14.609 10.71 14.431 10.874 L 14.431 10.874 L 14.431 10.874 Q 14.291 11 14.125 11.075 L 14.125 11.075 L 14.125 11.075 Q 13.959 11.151 13.768 11.182 L 13.768 11.182 L 13.768 11.182 Q 13.577 11.213 13.337 11.213 L 13.337 11.213 L 12.419 11.213 L 12.419 11.213 Q 12.227 11.213 12.13 11.155 L 12.13 11.155 L 12.13 11.155 Q 12.033 11.097 12.003 10.991 L 12.003 10.991 L 12.003 10.991 Q 11.973 10.886 11.973 10.717 L 11.973 10.717 L 11.973 8.167 L 11.973 8.167 Q 11.973 7.94 12.075 7.838 L 12.075 7.838 L 12.075 7.838 Q 12.177 7.736 12.405 7.736 L 12.405 7.736 Z " fill-rule="evenodd" fill="rgb(0,0,0)"/></g></svg>