<?xml version="1.0" standalone="no"?><!-- Generator: Gravit.io --><svg xmlns="http://www.w3.org/2000/svg" xmlns:xlink="http://www.w3.org/1999/xlink" style="isolation:isolate" viewBox="0 0 16 16" width="16" height="16"><defs><clipPath id="_clipPath_KxAahLEDQd5kXGE8N7bJyxxG553weHbi"><rect width="16" height="16"/></clipPath></defs><g clip-path="url(#_clipPath_KxAahLEDQd5kXGE8N7bJyxxG553weHbi)"><path d=" M 10.285 4.08 Q 9.297 6.233 10.689 10.12 Q 9.361 12.778 9.533 14.219 C 9.705 15.66 11.873 16.112 12.439 15.215 Q 13.004 14.318 13.428 10.546 Q 14.746 7.332 14.778 5.878 C 14.811 4.424 11.396 1.659 10.285 4.08 Z  M 9.89 1.764 C 9.83 1.013 10.216 0.368 10.751 0.326 C 11.286 0.283 11.768 0.859 11.828 1.61 C 11.888 2.361 11.502 3.005 10.967 3.048 C 10.432 3.09 9.949 2.515 9.89 1.764 Z  M 12.209 1.917 C 12.385 1.333 12.842 0.954 13.228 1.071 C 13.615 1.188 13.786 1.756 13.61 2.339 C 13.434 2.923 12.977 3.302 12.591 3.185 C 12.204 3.068 12.033 2.5 12.209 1.917 Z  M 13.79 2.808 C 14.051 2.391 14.463 2.178 14.71 2.333 C 14.957 2.488 14.946 2.952 14.685 3.369 C 14.424 3.786 14.012 3.999 13.765 3.844 C 13.517 3.689 13.529 3.225 13.79 2.808 Z  M 14.777 3.809 C 15.086 3.501 15.471 3.386 15.636 3.551 C 15.801 3.717 15.684 4.101 15.375 4.409 C 15.065 4.717 14.681 4.832 14.516 4.667 C 14.351 4.501 14.468 4.117 14.777 3.809 Z  M 15.304 4.905 C 15.576 4.713 15.875 4.669 15.97 4.805 C 16.066 4.941 15.923 5.206 15.651 5.397 C 15.378 5.589 15.08 5.633 14.985 5.497 C 14.889 5.361 15.032 5.096 15.304 4.905 Z  M 5.715 4.08 Q 6.703 6.233 5.311 10.12 Q 6.639 12.778 6.467 14.219 C 6.295 15.66 4.127 16.112 3.561 15.215 Q 2.996 14.318 2.572 10.546 Q 1.254 7.332 1.222 5.878 C 1.189 4.424 4.604 1.659 5.715 4.08 Z  M 6.11 1.764 C 6.17 1.013 5.784 0.368 5.249 0.326 C 4.714 0.283 4.232 0.859 4.172 1.61 C 4.112 2.361 4.498 3.005 5.033 3.048 C 5.568 3.09 6.051 2.515 6.11 1.764 Z  M 3.791 1.917 C 3.615 1.333 3.158 0.954 2.772 1.071 C 2.385 1.188 2.214 1.756 2.39 2.339 C 2.566 2.923 3.023 3.302 3.409 3.185 C 3.796 3.068 3.967 2.5 3.791 1.917 Z  M 2.21 2.808 C 1.949 2.391 1.537 2.178 1.29 2.333 C 1.043 2.488 1.054 2.952 1.315 3.369 C 1.576 3.786 1.988 3.999 2.235 3.844 C 2.483 3.689 2.471 3.225 2.21 2.808 Z  M 1.223 3.809 C 0.914 3.501 0.529 3.386 0.364 3.551 C 0.199 3.717 0.316 4.101 0.625 4.409 C 0.935 4.717 1.319 4.832 1.484 4.667 C 1.649 4.501 1.532 4.117 1.223 3.809 Z  M 0.696 4.905 C 0.424 4.713 0.125 4.669 0.03 4.805 C -0.066 4.941 0.077 5.206 0.349 5.397 C 0.622 5.589 0.92 5.633 1.015 5.497 C 1.111 5.361 0.968 5.096 0.696 4.905 Z " fill-rule="evenodd" fill="rgb(0,0,0)"/></g></svg>