<?xml version="1.0" standalone="no"?><!-- Generator: Gravit.io --><svg xmlns="http://www.w3.org/2000/svg" xmlns:xlink="http://www.w3.org/1999/xlink" style="isolation:isolate" viewBox="0 0 16 16" width="16" height="16"><defs><clipPath id="_clipPath_aJgYibO2bmMbg7LchdNBhLm8Uc7jKQhm"><rect width="16" height="16"/></clipPath></defs><g clip-path="url(#_clipPath_aJgYibO2bmMbg7LchdNBhLm8Uc7jKQhm)"><path d=" M 6.201 7.388 L 6.201 7.388 L 2.763 7.388 L 2.763 9.592 L 5.636 9.592 L 5.636 9.592 Q 6.036 9.592 6.233 9.771 L 6.233 9.771 L 6.233 9.771 Q 6.43 9.95 6.43 10.25 L 6.43 10.25 L 6.43 10.25 Q 6.43 10.55 6.23 10.726 L 6.23 10.726 L 6.23 10.726 Q 6.03 10.902 5.636 10.902 L 5.636 10.902 L 2.763 10.902 L 2.763 13.741 L 2.763 13.741 Q 2.763 14.281 2.519 14.543 L 2.519 14.543 L 2.519 14.543 Q 2.275 14.804 1.893 14.804 L 1.893 14.804 L 1.893 14.804 Q 1.505 14.804 1.261 14.54 L 1.261 14.54 L 1.261 14.54 Q 1.018 14.275 1.018 13.741 L 1.018 13.741 L 1.018 7.112 L 1.018 7.112 Q 1.018 6.736 1.129 6.498 L 1.129 6.498 L 1.129 6.498 Q 1.241 6.26 1.479 6.151 L 1.479 6.151 L 1.479 6.151 Q 1.717 6.042 2.087 6.042 L 2.087 6.042 L 6.201 6.042 L 6.201 6.042 Q 6.618 6.042 6.82 6.227 L 6.82 6.227 L 6.82 6.227 Q 7.023 6.413 7.023 6.712 L 7.023 6.712 L 7.023 6.712 Q 7.023 7.018 6.82 7.203 L 6.82 7.203 L 6.82 7.203 Q 6.618 7.388 6.201 7.388 Z  M 11.689 14.14 L 11.689 14.14 L 10.526 12.43 L 9.333 14.14 L 9.333 14.14 Q 9.074 14.499 8.895 14.651 L 8.895 14.651 L 8.895 14.651 Q 8.716 14.804 8.439 14.804 L 8.439 14.804 L 8.439 14.804 Q 8.134 14.804 7.919 14.613 L 7.919 14.613 L 7.919 14.613 Q 7.705 14.422 7.705 14.175 L 7.705 14.175 L 7.705 14.175 Q 7.705 13.923 8.034 13.453 L 8.034 13.453 L 9.485 11.372 L 8.199 9.639 L 8.199 9.639 Q 7.864 9.21 7.864 8.892 L 7.864 8.892 L 7.864 8.892 Q 7.864 8.646 8.063 8.463 L 8.063 8.463 L 8.063 8.463 Q 8.263 8.281 8.586 8.281 L 8.586 8.281 L 8.586 8.281 Q 8.868 8.281 9.054 8.44 L 9.054 8.44 L 9.054 8.44 Q 9.239 8.599 9.485 8.939 L 9.485 8.939 L 10.526 10.362 L 11.536 8.939 L 11.536 8.939 Q 11.789 8.587 11.974 8.434 L 11.974 8.434 L 11.974 8.434 Q 12.159 8.281 12.435 8.281 L 12.435 8.281 L 12.435 8.281 Q 12.753 8.281 12.961 8.461 L 12.961 8.461 L 12.961 8.461 Q 13.17 8.64 13.17 8.892 L 13.17 8.892 L 13.17 8.892 Q 13.17 9.075 13.085 9.242 L 13.085 9.242 L 13.085 9.242 Q 13 9.41 12.823 9.639 L 12.823 9.639 L 11.536 11.372 L 12.988 13.453 L 12.988 13.453 Q 13.329 13.94 13.329 14.187 L 13.329 14.187 L 13.329 14.187 Q 13.329 14.44 13.117 14.622 L 13.117 14.622 L 13.117 14.622 Q 12.906 14.804 12.594 14.804 L 12.594 14.804 L 12.594 14.804 Q 12.318 14.804 12.127 14.645 L 12.127 14.645 L 12.127 14.645 Q 11.936 14.487 11.689 14.14 Z  M 10.521 5.057 L 10.521 5.057 L 9.352 5.057 L 9.352 5.057 Q 9.099 5.057 8.991 4.943 L 8.991 4.943 L 8.991 4.943 Q 8.882 4.83 8.882 4.582 L 8.882 4.582 L 8.882 1.706 L 8.882 1.706 Q 8.882 1.453 8.993 1.342 L 8.993 1.342 L 8.993 1.342 Q 9.104 1.232 9.352 1.232 L 9.352 1.232 L 10.591 1.232 L 10.591 1.232 Q 10.865 1.232 11.066 1.266 L 11.066 1.266 L 11.066 1.266 Q 11.267 1.299 11.426 1.396 L 11.426 1.396 L 11.426 1.396 Q 11.562 1.477 11.666 1.601 L 11.666 1.601 L 11.666 1.601 Q 11.771 1.725 11.826 1.875 L 11.826 1.875 L 11.826 1.875 Q 11.88 2.025 11.88 2.192 L 11.88 2.192 L 11.88 2.192 Q 11.88 2.766 11.306 3.032 L 11.306 3.032 L 11.306 3.032 Q 12.06 3.272 12.06 3.966 L 12.06 3.966 L 12.06 3.966 Q 12.06 4.287 11.896 4.544 L 11.896 4.544 L 11.896 4.544 Q 11.732 4.801 11.452 4.924 L 11.452 4.924 L 11.452 4.924 Q 11.278 4.997 11.051 5.027 L 11.051 5.027 L 11.051 5.027 Q 10.824 5.057 10.521 5.057 Z  M 10.463 3.358 L 10.463 3.358 L 9.657 3.358 L 9.657 4.475 L 10.49 4.475 L 10.49 4.475 Q 11.275 4.475 11.275 3.909 L 11.275 3.909 L 11.275 3.909 Q 11.275 3.619 11.071 3.489 L 11.071 3.489 L 11.071 3.489 Q 10.868 3.358 10.463 3.358 Z  M 10.286 1.813 L 9.657 1.813 L 9.657 2.802 L 10.367 2.802 L 10.367 2.802 Q 10.657 2.802 10.814 2.748 L 10.814 2.748 L 10.814 2.748 Q 10.972 2.693 11.056 2.539 L 11.056 2.539 L 11.056 2.539 Q 11.121 2.429 11.121 2.294 L 11.121 2.294 L 11.121 2.294 Q 11.121 2.004 10.915 1.909 L 10.915 1.909 L 10.915 1.909 Q 10.709 1.813 10.286 1.813 L 10.286 1.813 Z  M 14.216 3.567 L 14.216 3.567 L 13.506 3.567 L 13.506 4.65 L 13.506 4.65 Q 13.506 4.882 13.396 5.002 L 13.396 5.002 L 13.396 5.002 Q 13.287 5.122 13.12 5.122 L 13.12 5.122 L 13.12 5.122 Q 12.945 5.122 12.838 5.003 L 12.838 5.003 L 12.838 5.003 Q 12.731 4.885 12.731 4.655 L 12.731 4.655 L 12.731 1.706 L 12.731 1.706 Q 12.731 1.451 12.848 1.341 L 12.848 1.341 L 12.848 1.341 Q 12.966 1.232 13.222 1.232 L 13.222 1.232 L 14.216 1.232 L 14.216 1.232 Q 14.657 1.232 14.894 1.299 L 14.894 1.299 L 14.894 1.299 Q 15.129 1.365 15.3 1.516 L 15.3 1.516 L 15.3 1.516 Q 15.471 1.667 15.559 1.887 L 15.559 1.887 L 15.559 1.887 Q 15.648 2.106 15.648 2.38 L 15.648 2.38 L 15.648 2.38 Q 15.648 2.964 15.288 3.266 L 15.288 3.266 L 15.288 3.266 Q 14.928 3.567 14.216 3.567 Z  M 14.028 1.813 L 14.028 1.813 L 13.506 1.813 L 13.506 2.982 L 14.028 2.982 L 14.028 2.982 Q 14.302 2.982 14.486 2.925 L 14.486 2.925 L 14.486 2.925 Q 14.67 2.868 14.766 2.737 L 14.766 2.737 L 14.766 2.737 Q 14.863 2.607 14.863 2.395 L 14.863 2.395 L 14.863 2.395 Q 14.863 2.142 14.714 1.983 L 14.714 1.983 L 14.714 1.983 Q 14.547 1.813 14.028 1.813 Z " fill-rule="evenodd" fill="rgb(0,0,0)"/></g></svg>