<?xml version="1.0" standalone="no"?><!-- Generator: Gravit.io --><svg xmlns="http://www.w3.org/2000/svg" xmlns:xlink="http://www.w3.org/1999/xlink" style="isolation:isolate" viewBox="0 0 16 16" width="16" height="16"><defs><clipPath id="_clipPath_f4vGxrdxu3NAFYe7JiGYTM0urH0g3G6x"><rect width="16" height="16"/></clipPath></defs><g clip-path="url(#_clipPath_f4vGxrdxu3NAFYe7JiGYTM0urH0g3G6x)"><path d=" M 12.963 3.215 L 12.963 2.077 C 12.963 1.591 12.569 1.196 12.083 1.196 L 11.802 1.196 L 11.802 1.196 C 11.316 1.196 10.922 1.591 10.922 2.077 L 10.922 3.215 L 9.783 3.215 C 9.297 3.215 8.902 3.61 8.902 4.096 L 8.902 4.376 C 8.902 4.862 9.297 5.257 9.783 5.257 L 10.922 5.257 L 10.922 6.395 C 10.922 6.881 11.316 7.276 11.802 7.276 L 12.083 7.276 C 12.569 7.276 12.963 6.881 12.963 6.395 L 12.963 5.257 L 14.102 5.257 C 14.588 5.257 14.982 4.862 14.982 4.376 L 14.982 4.096 C 14.982 3.61 14.588 3.215 14.102 3.215 L 12.963 3.215 Z  M 6.201 7.388 L 6.201 7.388 L 2.763 7.388 L 2.763 9.592 L 5.636 9.592 L 5.636 9.592 Q 6.036 9.592 6.233 9.771 L 6.233 9.771 L 6.233 9.771 Q 6.43 9.95 6.43 10.25 L 6.43 10.25 L 6.43 10.25 Q 6.43 10.55 6.23 10.726 L 6.23 10.726 L 6.23 10.726 Q 6.03 10.902 5.636 10.902 L 5.636 10.902 L 2.763 10.902 L 2.763 13.741 L 2.763 13.741 Q 2.763 14.281 2.519 14.543 L 2.519 14.543 L 2.519 14.543 Q 2.275 14.804 1.893 14.804 L 1.893 14.804 L 1.893 14.804 Q 1.505 14.804 1.261 14.54 L 1.261 14.54 L 1.261 14.54 Q 1.018 14.275 1.018 13.741 L 1.018 13.741 L 1.018 7.112 L 1.018 7.112 Q 1.018 6.736 1.129 6.498 L 1.129 6.498 L 1.129 6.498 Q 1.241 6.26 1.479 6.151 L 1.479 6.151 L 1.479 6.151 Q 1.717 6.042 2.087 6.042 L 2.087 6.042 L 6.201 6.042 L 6.201 6.042 Q 6.618 6.042 6.82 6.227 L 6.82 6.227 L 6.82 6.227 Q 7.023 6.413 7.023 6.712 L 7.023 6.712 L 7.023 6.712 Q 7.023 7.018 6.82 7.203 L 6.82 7.203 L 6.82 7.203 Q 6.618 7.388 6.201 7.388 Z  M 11.689 14.14 L 11.689 14.14 L 10.526 12.43 L 9.333 14.14 L 9.333 14.14 Q 9.074 14.499 8.895 14.651 L 8.895 14.651 L 8.895 14.651 Q 8.716 14.804 8.439 14.804 L 8.439 14.804 L 8.439 14.804 Q 8.134 14.804 7.919 14.613 L 7.919 14.613 L 7.919 14.613 Q 7.705 14.422 7.705 14.175 L 7.705 14.175 L 7.705 14.175 Q 7.705 13.923 8.034 13.453 L 8.034 13.453 L 9.485 11.372 L 8.199 9.639 L 8.199 9.639 Q 7.864 9.21 7.864 8.892 L 7.864 8.892 L 7.864 8.892 Q 7.864 8.646 8.063 8.463 L 8.063 8.463 L 8.063 8.463 Q 8.263 8.281 8.586 8.281 L 8.586 8.281 L 8.586 8.281 Q 8.868 8.281 9.054 8.44 L 9.054 8.44 L 9.054 8.44 Q 9.239 8.599 9.485 8.939 L 9.485 8.939 L 10.526 10.362 L 11.536 8.939 L 11.536 8.939 Q 11.789 8.587 11.974 8.434 L 11.974 8.434 L 11.974 8.434 Q 12.159 8.281 12.435 8.281 L 12.435 8.281 L 12.435 8.281 Q 12.753 8.281 12.961 8.461 L 12.961 8.461 L 12.961 8.461 Q 13.17 8.64 13.17 8.892 L 13.17 8.892 L 13.17 8.892 Q 13.17 9.075 13.085 9.242 L 13.085 9.242 L 13.085 9.242 Q 13 9.41 12.823 9.639 L 12.823 9.639 L 11.536 11.372 L 12.988 13.453 L 12.988 13.453 Q 13.329 13.94 13.329 14.187 L 13.329 14.187 L 13.329 14.187 Q 13.329 14.44 13.117 14.622 L 13.117 14.622 L 13.117 14.622 Q 12.906 14.804 12.594 14.804 L 12.594 14.804 L 12.594 14.804 Q 12.318 14.804 12.127 14.645 L 12.127 14.645 L 12.127 14.645 Q 11.936 14.487 11.689 14.14 Z " fill-rule="evenodd" fill="rgb(0,0,0)"/></g></svg>