<?xml version="1.0" standalone="no"?><!-- Generator: Gravit.io --><svg xmlns="http://www.w3.org/2000/svg" xmlns:xlink="http://www.w3.org/1999/xlink" style="isolation:isolate" viewBox="0 0 16 16" width="16" height="16"><defs><clipPath id="_clipPath_hJ7jcPbVe2Quz0FtVpBWHKGZkcjjvs1N"><rect width="16" height="16"/></clipPath></defs><g clip-path="url(#_clipPath_hJ7jcPbVe2Quz0FtVpBWHKGZkcjjvs1N)"><path d=" M 1.26 0 L 14.74 0 C 15.074 0 15.395 0.133 15.631 0.369 C 15.867 0.605 16 0.926 16 1.26 L 16 14.74 C 16 15.074 15.867 15.395 15.631 15.631 C 15.395 15.867 15.074 16 14.74 16 L 1.26 16 C 0.926 16 0.605 15.867 0.369 15.631 C 0.133 15.395 0 15.074 0 14.74 L 0 1.26 C 0 0.926 0.133 0.605 0.369 0.369 C 0.605 0.133 0.926 0 1.26 0 Z  M 1.26 1.021 L 14.74 1.021 C 14.804 1.021 14.864 1.046 14.909 1.091 C 14.954 1.136 14.979 1.196 14.979 1.26 L 14.979 14.74 C 14.979 14.804 14.954 14.864 14.909 14.909 C 14.864 14.954 14.804 14.979 14.74 14.979 L 1.26 14.979 C 1.196 14.979 1.136 14.954 1.091 14.909 C 1.046 14.864 1.021 14.804 1.021 14.74 L 1.021 1.26 C 1.021 1.196 1.046 1.136 1.091 1.091 C 1.136 1.046 1.196 1.021 1.26 1.021 Z  M 13.68 4.683 L 13.68 3.2 C 13.68 2.847 13.393 2.56 13.04 2.56 L 13.04 2.56 L 13.04 2.56 L 13.04 2.56 L 13.04 2.56 L 13.04 2.56 C 12.687 2.56 12.4 2.847 12.4 3.2 L 12.4 4.683 C 12.124 4.755 11.92 5.005 11.92 5.303 L 11.92 6.4 C 11.92 6.698 12.124 6.949 12.4 7.02 L 12.4 12.8 C 12.4 13.153 12.687 13.44 13.04 13.44 L 13.04 13.44 C 13.393 13.44 13.68 13.153 13.68 12.8 L 13.68 7.02 C 13.956 6.949 14.16 6.698 14.16 6.4 L 14.16 5.303 C 14.16 5.005 13.956 4.755 13.68 4.683 Z  M 10.32 6.603 L 10.32 3.2 C 10.32 2.847 10.033 2.56 9.68 2.56 L 9.68 2.56 L 9.68 2.56 L 9.68 2.56 L 9.68 2.56 L 9.68 2.56 C 9.327 2.56 9.04 2.847 9.04 3.2 L 9.04 6.603 C 8.764 6.675 8.56 6.925 8.56 7.223 L 8.56 8.32 C 8.56 8.618 8.764 8.869 9.04 8.94 L 9.04 12.8 C 9.04 13.153 9.327 13.44 9.68 13.44 L 9.68 13.44 C 10.033 13.44 10.32 13.153 10.32 12.8 L 10.32 8.94 C 10.596 8.869 10.8 8.618 10.8 8.32 L 10.8 7.223 C 10.8 6.925 10.596 6.675 10.32 6.603 L 10.32 6.603 Z  M 6.96 6.059 L 6.96 3.2 C 6.96 2.847 6.673 2.56 6.32 2.56 L 6.32 2.56 L 6.32 2.56 L 6.32 2.56 L 6.32 2.56 L 6.32 2.56 C 5.967 2.56 5.68 2.847 5.68 3.2 L 5.68 6.059 C 5.404 6.131 5.2 6.381 5.2 6.679 L 5.2 7.776 C 5.2 8.074 5.404 8.325 5.68 8.396 L 5.68 12.8 C 5.68 13.153 5.967 13.44 6.32 13.44 L 6.32 13.44 C 6.673 13.44 6.96 13.153 6.96 12.8 L 6.96 8.396 C 7.236 8.325 7.44 8.074 7.44 7.776 L 7.44 6.679 C 7.44 6.381 7.236 6.131 6.96 6.059 L 6.96 6.059 L 6.96 6.059 Z  M 3.6 4.683 L 3.6 3.2 C 3.6 2.847 3.313 2.56 2.96 2.56 L 2.96 2.56 L 2.96 2.56 L 2.96 2.56 L 2.96 2.56 C 2.607 2.56 2.32 2.847 2.32 3.2 L 2.32 4.683 C 2.044 4.755 1.84 5.005 1.84 5.303 L 1.84 6.4 C 1.84 6.698 2.044 6.949 2.32 7.02 L 2.32 12.8 C 2.32 13.153 2.607 13.44 2.96 13.44 L 2.96 13.44 C 3.313 13.44 3.6 13.153 3.6 12.8 L 3.6 7.02 C 3.876 6.949 4.08 6.698 4.08 6.4 L 4.08 5.303 C 4.08 5.005 3.876 4.755 3.6 4.683 L 3.6 4.683 L 3.6 4.683 L 3.6 4.683 Z " fill-rule="evenodd" fill="rgb(0,0,0)"/></g></svg>