<?xml version="1.0" standalone="no"?><!-- Generator: Gravit.io --><svg xmlns="http://www.w3.org/2000/svg" xmlns:xlink="http://www.w3.org/1999/xlink" style="isolation:isolate" viewBox="0 0 16 16" width="16" height="16"><defs><clipPath id="_clipPath_ZyVAll6XaYDVMEWfhEw0WhR8PkZL1iHq"><rect width="16" height="16"/></clipPath></defs><g clip-path="url(#_clipPath_ZyVAll6XaYDVMEWfhEw0WhR8PkZL1iHq)"><path d=" M 10.969 3 L 9.729 3 C 9.309 3 8.969 3.341 8.969 3.76 L 8.969 4.24 C 8.969 4.659 9.309 5 9.729 5 L 10.969 5 L 10.969 6.255 C 10.969 6.675 11.309 7.016 11.729 7.016 L 12.208 7.016 C 12.628 7.016 12.969 6.675 12.969 6.255 L 12.969 5 L 14.24 5 C 14.659 5 15 4.659 15 4.24 L 15 3.76 C 15 3.341 14.659 3 14.24 3 L 12.969 3 L 12.969 1.745 C 12.969 1.325 12.628 0.984 12.208 0.984 L 11.729 0.984 C 11.309 0.984 10.969 1.325 10.969 1.745 L 10.969 3 Z  M 1 0 L 3 0 L 3 16 L 1 16 L 1 0 Z  M 8.969 8 L 10.969 8 L 10.969 15.953 L 8.969 15.953 L 8.969 8 Z  M 5.078 0 L 7.078 0 L 7.078 16 L 5.078 16 L 5.078 0 Z  M 13 8 L 15 8 L 15 15.953 L 13 15.953 L 13 8 Z " fill-rule="evenodd" fill="rgb(0,0,0)"/></g></svg>