<?xml version="1.0" standalone="no"?><!-- Generator: Gravit.io --><svg xmlns="http://www.w3.org/2000/svg" xmlns:xlink="http://www.w3.org/1999/xlink" style="isolation:isolate" viewBox="0 0 16 16" width="16" height="16"><defs><clipPath id="_clipPath_DG4uYyWD8LB4GiFjStKBNizrk1u6dUXI"><rect width="16" height="16"/></clipPath></defs><g clip-path="url(#_clipPath_DG4uYyWD8LB4GiFjStKBNizrk1u6dUXI)"><path d=" M 0.801 3.81 L 15.199 3.81 C 15.641 3.81 16 4.151 16 4.571 L 16 4.571 C 16 4.992 15.641 5.333 15.199 5.333 L 0.801 5.333 C 0.359 5.333 0 4.992 0 4.571 L 0 4.571 C 0 4.151 0.359 3.81 0.801 3.81 Z  M 0.801 7.238 L 15.199 7.238 C 15.641 7.238 16 7.579 16 8 L 16 8 C 16 8.421 15.641 8.762 15.199 8.762 L 0.801 8.762 C 0.359 8.762 0 8.421 0 8 L 0 8 C 0 7.579 0.359 7.238 0.801 7.238 Z  M 0.801 10.667 L 15.199 10.667 C 15.641 10.667 16 11.008 16 11.429 L 16 11.429 C 16 11.849 15.641 12.19 15.199 12.19 L 0.801 12.19 C 0.359 12.19 0 11.849 0 11.429 L 0 11.429 C 0 11.008 0.359 10.667 0.801 10.667 Z  M 3.368 15.199 L 3.368 14.515 C 3.368 14.073 3.727 13.714 4.169 13.714 L 4.252 13.714 C 4.694 13.714 5.053 14.073 5.053 14.515 L 5.053 15.199 C 5.053 15.641 4.694 16 4.252 16 L 4.169 16 C 3.727 16 3.368 15.641 3.368 15.199 Z  M 7.158 15.199 L 7.158 14.515 C 7.158 14.073 7.517 13.714 7.959 13.714 L 8.041 13.714 C 8.483 13.714 8.842 14.073 8.842 14.515 L 8.842 15.199 C 8.842 15.641 8.483 16 8.041 16 L 7.959 16 C 7.517 16 7.158 15.641 7.158 15.199 Z  M 10.947 15.199 L 10.947 14.515 C 10.947 14.073 11.306 13.714 11.748 13.714 L 11.831 13.714 C 12.273 13.714 12.632 14.073 12.632 14.515 L 12.632 15.199 C 12.632 15.641 12.273 16 11.831 16 L 11.748 16 C 11.306 16 10.947 15.641 10.947 15.199 Z  M 3.368 1.485 L 3.368 0.801 C 3.368 0.359 3.727 0 4.169 0 L 4.252 0 C 4.694 0 5.053 0.359 5.053 0.801 L 5.053 1.485 C 5.053 1.927 4.694 2.286 4.252 2.286 L 4.169 2.286 C 3.727 2.286 3.368 1.927 3.368 1.485 Z  M 7.158 1.485 L 7.158 0.801 C 7.158 0.359 7.517 0 7.959 0 L 8.041 0 C 8.483 0 8.842 0.359 8.842 0.801 L 8.842 1.485 C 8.842 1.927 8.483 2.286 8.041 2.286 L 7.959 2.286 C 7.517 2.286 7.158 1.927 7.158 1.485 Z  M 10.947 1.485 L 10.947 0.801 C 10.947 0.359 11.306 0 11.748 0 L 11.831 0 C 12.273 0 12.632 0.359 12.632 0.801 L 12.632 1.485 C 12.632 1.927 12.273 2.286 11.831 2.286 L 11.748 2.286 C 11.306 2.286 10.947 1.927 10.947 1.485 Z " fill-rule="evenodd" fill="rgb(0,0,0)"/></g></svg>