<?xml version="1.0" standalone="no"?><!-- Generator: Gravit.io --><svg xmlns="http://www.w3.org/2000/svg" xmlns:xlink="http://www.w3.org/1999/xlink" style="isolation:isolate" viewBox="0 0 16 16" width="16" height="16"><defs><clipPath id="_clipPath_mBMywVaqzeA33tWCYT965Q4i0a5pGYrJ"><rect width="16" height="16"/></clipPath></defs><g clip-path="url(#_clipPath_mBMywVaqzeA33tWCYT965Q4i0a5pGYrJ)"><path d=" M 3 0.977 L 3 0 L 1 0 L 1 0 L 1 0.977 L 3 0.977 Z  M 3 2.977 L 3 5.008 L 1 5.008 L 1 2.977 L 3 2.977 Z  M 3 7.008 L 3 8.898 L 1 8.898 L 1 7.008 L 3 7.008 Z  M 3 10.898 L 3 12.977 L 1 12.977 L 1 10.898 L 3 10.898 Z  M 3 14.977 L 3 16 L 1 16 L 1 14.977 L 3 14.977 Z  M 10.969 0.977 L 10.969 -0.047 L 8.969 -0.047 L 8.969 -0.047 L 8.969 0.977 L 10.969 0.977 Z  M 10.969 2.977 L 10.969 5.008 L 8.969 5.008 L 8.969 2.977 L 10.969 2.977 Z  M 10.969 7.008 L 10.969 8.898 L 8.969 8.898 L 8.969 7.008 L 10.969 7.008 Z  M 10.969 10.898 L 10.969 12.977 L 8.969 12.977 L 8.969 10.898 L 10.969 10.898 Z  M 10.969 14.977 L 10.969 15.953 L 8.969 15.953 L 8.969 14.977 L 10.969 14.977 Z  M 7.078 0.977 L 7.078 0 L 5.078 0 L 5.078 0 L 5.078 0.977 L 7.078 0.977 Z  M 7.078 2.977 L 7.078 5.008 L 5.078 5.008 L 5.078 2.977 L 7.078 2.977 Z  M 7.078 7.008 L 7.078 8.898 L 5.078 8.898 L 5.078 7.008 L 7.078 7.008 Z  M 7.078 10.898 L 7.078 12.977 L 5.078 12.977 L 5.078 10.898 L 7.078 10.898 Z  M 7.078 14.977 L 7.078 16 L 5.078 16 L 5.078 14.977 L 7.078 14.977 Z  M 15 0.977 L 15 -0.047 L 13 -0.047 L 13 -0.047 L 13 0.977 L 15 0.977 Z  M 15 2.977 L 15 5.008 L 13 5.008 L 13 2.977 L 15 2.977 Z  M 15 7.008 L 15 8.898 L 13 8.898 L 13 7.008 L 15 7.008 Z  M 15 10.898 L 15 12.977 L 13 12.977 L 13 10.898 L 15 10.898 Z  M 15 14.977 L 15 15.953 L 13 15.953 L 13 14.977 L 15 14.977 Z " fill-rule="evenodd" fill="rgb(0,0,0)"/></g></svg>