<?xml version="1.0" standalone="no"?><!-- Generator: Gravit.io --><svg xmlns="http://www.w3.org/2000/svg" xmlns:xlink="http://www.w3.org/1999/xlink" style="isolation:isolate" viewBox="0 0 16 16" width="16" height="16"><defs><clipPath id="_clipPath_xqi1G2SfnYSet6QJ2LiUHzzNKJc9hKwt"><rect width="16" height="16"/></clipPath></defs><g clip-path="url(#_clipPath_xqi1G2SfnYSet6QJ2LiUHzzNKJc9hKwt)"><path d=" M 0 0 L 0 0 M 1 0 L 3 0 L 3 16 L 1 16 L 1 0 Z  M 8.969 8 L 10.969 8 L 10.969 15.953 L 8.969 15.953 L 8.969 8 Z  M 9.729 3 L 14.24 3 C 14.659 3 15 3.341 15 3.76 L 15 4.24 C 15 4.659 14.659 5 14.24 5 L 9.729 5 C 9.309 5 8.969 4.659 8.969 4.24 L 8.969 3.76 C 8.969 3.341 9.309 3 9.729 3 Z  M 5.078 0 L 7.078 0 L 7.078 16 L 5.078 16 L 5.078 0 Z  M 13 8 L 15 8 L 15 15.953 L 13 15.953 L 13 8 Z " fill-rule="evenodd" fill="rgb(0,0,0)"/></g></svg>