<?xml version="1.0" standalone="no"?><!-- Generator: Gravit.io --><svg xmlns="http://www.w3.org/2000/svg" xmlns:xlink="http://www.w3.org/1999/xlink" style="isolation:isolate" viewBox="0 0 16 16" width="16" height="16"><defs><clipPath id="_clipPath_JhqJVeLWe1ly6qCrKX57ufgw2HGrZJcu"><rect width="16" height="16"/></clipPath></defs><g clip-path="url(#_clipPath_JhqJVeLWe1ly6qCrKX57ufgw2HGrZJcu)"><path d=" M 5.453 9.698 L 5.061 9.305 C 5.061 9.305 5.061 9.305 5.061 9.305 C 4.84 9.084 4.715 8.784 4.715 8.471 C 4.715 8.159 4.84 7.859 5.061 7.638 C 5.061 7.638 5.061 7.638 5.061 7.638 L 5.061 7.638 L 5.061 7.638 L 7.638 5.061 C 7.638 5.061 7.638 5.061 7.638 5.061 C 7.859 4.84 8.159 4.715 8.471 4.715 C 8.784 4.715 9.084 4.84 9.305 5.061 C 9.305 5.061 9.305 5.061 9.305 5.061 L 9.698 5.453 L 10.169 4.982 L 9.776 4.59 C 9.776 4.59 9.776 4.59 9.776 4.59 C 9.555 4.369 9.431 4.069 9.431 3.756 C 9.431 3.444 9.555 3.144 9.776 2.922 C 9.776 2.922 9.776 2.922 9.776 2.922 L 12.353 0.345 C 12.353 0.345 12.353 0.345 12.353 0.345 C 12.575 0.124 12.874 0 13.187 0 C 13.5 0 13.8 0.124 14.021 0.345 C 14.021 0.345 14.021 0.345 14.021 0.345 L 15.655 1.979 C 15.655 1.979 15.655 1.979 15.655 1.979 C 15.876 2.2 16 2.5 16 2.813 C 16 3.126 15.876 3.425 15.655 3.647 C 15.655 3.647 15.655 3.647 15.655 3.647 L 13.078 6.224 C 13.078 6.224 13.078 6.224 13.078 6.224 L 13.078 6.224 L 13.078 6.224 L 13.078 6.224 C 12.856 6.445 12.556 6.569 12.244 6.569 C 11.931 6.569 11.631 6.445 11.41 6.224 C 11.41 6.224 11.41 6.224 11.41 6.224 L 11.018 5.831 L 11.018 5.831 L 10.547 6.302 L 10.939 6.695 C 10.939 6.695 10.939 6.695 10.939 6.695 C 11.16 6.916 11.285 7.216 11.285 7.529 C 11.285 7.841 11.16 8.141 10.939 8.362 C 10.939 8.362 10.939 8.362 10.939 8.362 L 8.362 10.939 C 8.362 10.939 8.362 10.939 8.362 10.939 C 8.141 11.16 7.841 11.285 7.529 11.285 C 7.216 11.285 6.916 11.16 6.695 10.939 C 6.695 10.939 6.695 10.939 6.695 10.939 L 6.302 10.547 L 5.831 11.018 L 6.224 11.41 C 6.224 11.41 6.224 11.41 6.224 11.41 C 6.445 11.631 6.569 11.931 6.569 12.244 C 6.569 12.556 6.445 12.856 6.224 13.078 C 6.224 13.078 6.224 13.078 6.224 13.078 L 3.647 15.655 C 3.647 15.655 3.647 15.655 3.647 15.655 C 3.425 15.876 3.126 16 2.813 16 C 2.5 16 2.2 15.876 1.979 15.655 C 1.979 15.655 1.979 15.655 1.979 15.655 L 0.345 14.021 C 0.345 14.021 0.345 14.021 0.345 14.021 C 0.124 13.8 0 13.5 0 13.187 C 0 12.874 0.124 12.575 0.345 12.353 C 0.345 12.353 0.345 12.353 0.345 12.353 L 0.345 12.353 L 0.345 12.353 L 0.345 12.353 L 0.345 12.353 L 2.922 9.776 C 2.922 9.776 2.922 9.776 2.922 9.776 C 3.144 9.555 3.444 9.431 3.756 9.431 C 4.069 9.431 4.369 9.555 4.59 9.776 C 4.59 9.776 4.59 9.776 4.59 9.776 L 4.982 10.169 L 5.453 9.698 Z  M 6.161 8.99 L 5.769 8.598 C 5.736 8.564 5.717 8.519 5.717 8.471 C 5.717 8.425 5.736 8.379 5.769 8.346 L 5.769 8.346 L 5.769 8.346 L 8.346 5.769 C 8.379 5.736 8.425 5.717 8.471 5.717 C 8.519 5.717 8.564 5.736 8.598 5.769 L 8.99 6.161 L 8.99 6.161 L 8.401 6.75 C 8.288 6.863 8.224 7.016 8.224 7.175 C 8.224 7.334 8.288 7.487 8.401 7.599 C 8.513 7.712 8.666 7.776 8.825 7.776 C 8.984 7.776 9.137 7.712 9.25 7.599 L 9.839 7.01 L 10.231 7.402 C 10.264 7.436 10.283 7.481 10.283 7.529 C 10.283 7.575 10.264 7.621 10.231 7.654 L 7.654 10.231 C 7.621 10.264 7.575 10.283 7.529 10.283 C 7.481 10.283 7.436 10.264 7.402 10.231 L 7.01 9.839 L 7.599 9.25 C 7.712 9.137 7.776 8.984 7.776 8.825 C 7.776 8.666 7.712 8.513 7.599 8.401 C 7.487 8.288 7.334 8.224 7.175 8.224 C 7.016 8.224 6.863 8.288 6.75 8.401 L 6.161 8.99 Z  M 4.274 10.876 L 3.882 10.484 C 3.848 10.451 3.803 10.432 3.756 10.432 C 3.709 10.432 3.663 10.451 3.63 10.484 L 1.053 13.061 L 1.053 13.061 L 1.053 13.061 L 1.053 13.061 L 1.053 13.061 C 1.02 13.095 1.001 13.14 1.001 13.187 C 1.001 13.234 1.02 13.279 1.053 13.313 L 2.687 14.947 C 2.721 14.98 2.766 14.999 2.813 14.999 C 2.86 14.999 2.905 14.98 2.939 14.947 L 5.516 12.37 C 5.549 12.337 5.568 12.291 5.568 12.244 C 5.568 12.197 5.549 12.152 5.516 12.118 L 5.124 11.726 L 4.534 12.315 C 4.422 12.428 4.269 12.491 4.11 12.491 C 3.951 12.491 3.798 12.428 3.685 12.315 C 3.572 12.202 3.509 12.049 3.509 11.89 C 3.509 11.731 3.572 11.578 3.685 11.466 L 4.274 10.876 Z  M 11.726 5.124 L 12.118 5.516 C 12.152 5.549 12.197 5.568 12.244 5.568 C 12.291 5.568 12.337 5.549 12.37 5.516 L 14.947 2.939 C 14.98 2.905 14.999 2.86 14.999 2.813 C 14.999 2.766 14.98 2.721 14.947 2.687 L 13.313 1.053 C 13.279 1.02 13.234 1.001 13.187 1.001 C 13.14 1.001 13.095 1.02 13.061 1.053 L 10.484 3.63 L 10.484 3.63 L 10.484 3.63 L 10.484 3.63 C 10.451 3.663 10.432 3.709 10.432 3.756 C 10.432 3.803 10.451 3.848 10.484 3.882 L 10.876 4.274 L 11.466 3.685 C 11.578 3.572 11.731 3.509 11.89 3.509 C 12.049 3.509 12.202 3.572 12.315 3.685 C 12.428 3.798 12.491 3.951 12.491 4.11 C 12.491 4.269 12.428 4.422 12.315 4.534 L 11.726 5.124 L 11.726 5.124 Z " fill-rule="evenodd" fill="rgb(0,0,0)"/></g></svg>