<?xml version="1.0" standalone="no"?><!-- Generator: Gravit.io --><svg xmlns="http://www.w3.org/2000/svg" xmlns:xlink="http://www.w3.org/1999/xlink" style="isolation:isolate" viewBox="0 0 16 16" width="16" height="16"><defs><clipPath id="_clipPath_kPGxm5y4MNPpjB4hafaQiFhbj7tfHhZv"><rect width="16" height="16"/></clipPath></defs><g clip-path="url(#_clipPath_kPGxm5y4MNPpjB4hafaQiFhbj7tfHhZv)"><path d=" M 4.435 12.296 L 4.435 12.304 L 4.435 12.304 L 5.823 10.888 L 5.823 10.879 L 12.644 3.917 C 12.646 3.918 12.647 3.92 12.649 3.921 L 13.749 2.798 L 13.749 2.798 C 13.748 2.796 13.746 2.795 13.745 2.793 L 15.521 0.981 C 15.729 0.768 15.729 0.422 15.521 0.21 L 15.471 0.159 C 15.263 -0.054 14.924 -0.054 14.715 0.159 L 12.864 2.048 C 11.659 1.179 10.187 0.668 8.598 0.668 C 4.511 0.668 1.196 4.051 1.196 8.223 C 1.196 9.129 1.353 9.998 1.64 10.803 C 1.358 11.293 1.196 11.863 1.196 12.472 C 1.196 12.912 1.281 13.332 1.433 13.715 L 0.156 15.019 C -0.053 15.232 -0.053 15.578 0.156 15.79 L 0.205 15.841 C 0.414 16.054 0.753 16.054 0.961 15.841 L 2.06 14.719 C 2.061 14.721 2.063 14.722 2.064 14.724 L 3.972 12.777 L 3.972 12.768 L 4.435 12.296 Z  M 4.435 10.652 L 4.435 9.167 L 5.36 9.167 L 5.36 9.167 C 5.504 9.167 5.633 9.235 5.718 9.342 L 11.723 3.213 C 10.813 2.647 9.743 2.321 8.598 2.321 C 5.277 2.321 2.584 5.069 2.584 8.459 C 2.584 8.877 2.626 9.285 2.704 9.679 C 3.081 9.435 3.51 9.268 3.972 9.201 L 3.972 11.124 L 4.435 10.652 Z  M 4.435 13.948 L 4.435 15.778 L 5.36 15.778 C 5.615 15.778 5.823 15.565 5.823 15.306 L 5.823 12.532 L 4.435 13.948 L 4.435 13.948 Z  M 14.505 3.67 C 15.444 4.936 16.001 6.513 16.001 8.223 L 16.001 8.223 C 16.001 9.129 15.844 9.997 15.557 10.803 C 15.839 11.293 16.001 11.863 16.001 12.472 C 16.001 14.137 14.794 15.514 13.225 15.744 L 13.225 9.2 C 13.686 9.268 14.117 9.434 14.494 9.679 C 14.572 9.284 14.613 8.876 14.613 8.459 C 14.613 7.08 14.167 5.807 13.415 4.782 L 14.505 3.67 L 14.505 3.67 Z  M 2.985 15.428 C 3.289 15.584 3.622 15.693 3.972 15.744 L 3.972 14.42 L 2.985 15.428 L 2.985 15.428 Z  M 11.837 9.167 C 11.582 9.167 11.374 9.38 11.374 9.639 L 11.374 15.306 C 11.374 15.565 11.582 15.778 11.837 15.778 L 12.762 15.778 L 12.762 9.167 L 11.837 9.167 L 11.837 9.167 L 11.837 9.167 Z " fill-rule="evenodd" fill="rgb(0,0,0)"/></g></svg>