<?xml version="1.0" standalone="no"?><!-- Generator: Gravit.io --><svg xmlns="http://www.w3.org/2000/svg" xmlns:xlink="http://www.w3.org/1999/xlink" style="isolation:isolate" viewBox="0 1.143 16 13.714" width="16" height="13.714"><path d=" M 9.143 1.143 C 5.356 1.143 2.286 4.213 2.286 8 L 0 8 L 2.964 10.964 L 3.017 11.07 L 6.095 8 L 3.81 8 C 3.81 5.051 6.194 2.667 9.143 2.667 C 12.091 2.667 14.476 5.051 14.476 8 C 14.476 10.949 12.091 13.333 9.143 13.333 C 7.672 13.333 6.339 12.731 5.379 11.764 L 4.297 12.846 C 5.539 14.088 7.246 14.857 9.143 14.857 C 12.93 14.857 16 11.787 16 8 C 16 4.213 12.93 1.143 9.143 1.143 Z  M 8.381 4.952 L 8.381 8.762 L 11.642 10.697 L 12.19 9.775 L 9.524 8.19 L 9.524 4.952 L 8.381 4.952 Z " fill="rgb(0,0,0)"/></svg>