<?xml version="1.0" standalone="no"?><!-- Generator: Gravit.io --><svg xmlns="http://www.w3.org/2000/svg" xmlns:xlink="http://www.w3.org/1999/xlink" style="isolation:isolate" viewBox="0 0 16 16" width="16" height="16"><defs><clipPath id="_clipPath_xjIfblejGYjQK8EYfnsumqupk6M8GMj5"><rect width="16" height="16"/></clipPath></defs><g clip-path="url(#_clipPath_xjIfblejGYjQK8EYfnsumqupk6M8GMj5)"><path d=" M 8.32 4.138 C 8.547 4.147 8.773 4.164 8.998 4.191 C 9.144 4.208 9.29 4.231 9.435 4.259 C 9.564 4.283 9.691 4.313 9.817 4.348 C 9.925 4.379 10.031 4.416 10.135 4.459 C 10.18 4.478 10.224 4.499 10.268 4.521 C 10.307 4.541 10.344 4.564 10.381 4.588 C 10.414 4.61 10.445 4.634 10.474 4.661 C 10.5 4.685 10.524 4.711 10.545 4.74 C 10.565 4.767 10.581 4.797 10.592 4.828 C 10.604 4.859 10.609 4.892 10.61 4.924 C 10.61 4.927 10.61 4.929 10.609 4.931 L 10.609 4.931 C 13.745 5.128 16 5.669 16 6.306 C 16 6.955 13.656 7.506 10.423 7.692 C 10.123 7.96 9.294 8.16 8.288 8.192 L 8.288 8.192 L 8.288 12.92 L 7.648 12.92 L 7.648 8.19 C 6.671 8.152 5.871 7.954 5.577 7.692 L 5.577 7.692 L 5.577 7.692 C 2.344 7.506 0 6.955 0 6.306 C 0 5.669 2.255 5.128 5.391 4.931 L 5.391 4.931 C 5.39 4.929 5.39 4.927 5.39 4.924 C 5.391 4.892 5.396 4.859 5.407 4.828 C 5.419 4.797 5.435 4.767 5.455 4.74 C 5.476 4.711 5.5 4.685 5.526 4.661 C 5.555 4.634 5.586 4.61 5.619 4.588 C 5.656 4.564 5.693 4.541 5.732 4.521 C 5.776 4.499 5.82 4.478 5.865 4.459 C 5.969 4.416 6.075 4.379 6.183 4.348 C 6.309 4.313 6.436 4.283 6.565 4.259 C 6.71 4.231 6.856 4.208 7.002 4.191 C 7.227 4.164 7.453 4.147 7.68 4.138 L 7.68 3.4 C 7.68 3.223 7.823 3.08 8 3.08 L 8 3.08 C 8.177 3.08 8.32 3.223 8.32 3.4 L 8.32 4.138 Z  M 7.696 4.65 C 7.488 4.674 7.345 4.723 7.345 4.779 L 7.345 4.779 L 7.345 4.779 L 7.345 4.779 C 7.345 4.859 7.639 4.924 8 4.924 C 8.361 4.924 8.655 4.859 8.655 4.779 C 8.655 4.723 8.512 4.674 8.304 4.65 C 8.315 4.619 8.32 4.586 8.32 4.552 L 8.32 4.267 C 8.541 4.275 8.763 4.292 8.983 4.318 C 9.126 4.335 9.269 4.357 9.411 4.384 C 9.536 4.408 9.66 4.437 9.782 4.472 C 9.885 4.501 9.987 4.536 10.086 4.577 C 10.127 4.595 10.168 4.614 10.208 4.635 C 10.243 4.653 10.277 4.673 10.31 4.695 C 10.337 4.713 10.364 4.733 10.388 4.756 C 10.408 4.774 10.426 4.794 10.442 4.816 C 10.455 4.833 10.465 4.852 10.472 4.872 C 10.478 4.889 10.481 4.907 10.482 4.924 C 10.481 4.942 10.478 4.96 10.472 4.977 C 10.465 4.997 10.455 5.016 10.442 5.033 C 10.426 5.055 10.408 5.075 10.388 5.093 C 10.364 5.115 10.337 5.136 10.31 5.154 C 10.277 5.176 10.243 5.196 10.208 5.214 C 10.168 5.235 10.127 5.254 10.086 5.272 C 9.987 5.313 9.885 5.348 9.782 5.377 C 9.66 5.412 9.536 5.441 9.411 5.465 C 9.269 5.492 9.126 5.514 8.983 5.531 C 8.657 5.57 8.329 5.588 8 5.588 L 8 5.588 L 8 5.588 L 8 5.588 L 8 5.588 C 7.671 5.588 7.343 5.57 7.017 5.531 C 6.874 5.514 6.731 5.492 6.589 5.465 C 6.464 5.441 6.34 5.412 6.218 5.377 C 6.115 5.348 6.013 5.313 5.914 5.272 C 5.873 5.254 5.832 5.235 5.792 5.214 C 5.757 5.196 5.723 5.176 5.69 5.154 C 5.663 5.136 5.636 5.115 5.612 5.093 C 5.592 5.075 5.574 5.055 5.558 5.033 C 5.545 5.016 5.535 4.997 5.528 4.977 C 5.522 4.96 5.519 4.942 5.518 4.924 C 5.519 4.907 5.522 4.889 5.528 4.872 C 5.535 4.852 5.545 4.833 5.558 4.816 C 5.574 4.794 5.592 4.774 5.612 4.756 C 5.636 4.733 5.663 4.713 5.69 4.695 C 5.723 4.673 5.757 4.653 5.792 4.635 C 5.832 4.614 5.873 4.595 5.914 4.577 C 6.013 4.536 6.115 4.501 6.218 4.472 C 6.34 4.437 6.464 4.408 6.589 4.384 C 6.731 4.357 6.874 4.335 7.017 4.318 C 7.237 4.292 7.459 4.275 7.68 4.267 L 7.68 4.552 C 7.68 4.586 7.685 4.619 7.696 4.65 Z  M 8 5.588 C 8 5.588 8 5.588 8 5.588 L 8 5.588 L 8 5.588 L 8 5.588 L 8 5.588 L 8 5.588 L 8 5.588 Z " fill-rule="evenodd" fill="rgb(0,0,0)"/></g></svg>