<?xml version="1.0" standalone="no"?><!-- Generator: Gravit.io --><svg xmlns="http://www.w3.org/2000/svg" xmlns:xlink="http://www.w3.org/1999/xlink" style="isolation:isolate" viewBox="0 0 16 16" width="16" height="16"><defs><clipPath id="_clipPath_oEaWgX0rowgqgRoW2cv1MUlDQJCyHl9h"><rect width="16" height="16"/></clipPath></defs><g clip-path="url(#_clipPath_oEaWgX0rowgqgRoW2cv1MUlDQJCyHl9h)"><path d=" M 8.763 5.043 C 9.546 5.384 10.118 5.778 10.151 5.997 C 10.152 5.999 10.152 6.002 10.152 6.004 L 10.152 6.004 L 10.152 6.004 L 10.152 6.004 L 10.152 6.004 C 10.153 6.009 10.153 6.013 10.152 6.017 C 10.152 6.03 10.15 6.042 10.145 6.053 C 10.055 6.271 9.2 6.128 8.235 5.732 C 7.338 5.364 6.661 4.907 6.643 4.669 C 6.644 4.659 6.646 4.649 6.65 4.64 L 6.65 4.64 C 6.73 4.446 7.431 4.542 8.273 4.847 L 8.17 5.094 C 8.152 5.136 8.143 5.179 8.143 5.221 C 7.999 5.182 7.894 5.177 7.878 5.214 L 7.878 5.214 C 7.856 5.269 8.039 5.396 8.287 5.498 C 8.535 5.6 8.754 5.638 8.777 5.583 C 8.792 5.546 8.715 5.476 8.588 5.404 C 8.616 5.375 8.64 5.338 8.657 5.297 L 8.763 5.043 Z  M 8.322 4.73 C 8.255 4.706 8.187 4.682 8.12 4.66 C 7.971 4.61 7.82 4.565 7.668 4.526 C 7.538 4.492 7.405 4.464 7.272 4.443 C 7.215 4.433 7.157 4.426 7.099 4.421 C 7.048 4.416 6.997 4.413 6.946 4.413 C 6.904 4.413 6.862 4.415 6.82 4.42 C 6.782 4.424 6.745 4.432 6.709 4.444 C 6.674 4.455 6.642 4.471 6.613 4.492 C 3.019 3.136 0.205 2.446 0.011 2.92 C -0.215 3.472 3.181 5.387 7.59 7.196 C 7.672 7.229 7.753 7.263 7.835 7.295 L 7.835 7.295 L 7.835 7.295 L 7.835 10.92 L 7.734 10.92 L 7.734 10.92 C 7.639 10.92 7.562 10.997 7.562 11.093 L 7.562 11.853 C 7.562 11.949 7.639 12.026 7.734 12.026 L 7.835 12.026 L 7.835 13.229 L 8.368 13.229 L 8.368 12.026 L 8.468 12.026 C 8.564 12.026 8.641 11.949 8.641 11.853 L 8.641 11.093 C 8.641 10.997 8.564 10.92 8.468 10.92 L 8.368 10.92 L 8.368 7.509 C 12.434 9.12 15.777 9.992 15.989 9.474 C 16.182 9.004 13.74 7.541 10.28 5.999 L 10.28 5.999 L 10.28 5.999 L 10.28 5.999 C 10.278 5.976 10.274 5.952 10.266 5.93 C 10.258 5.904 10.246 5.879 10.232 5.856 C 10.218 5.831 10.202 5.808 10.184 5.786 C 10.165 5.762 10.145 5.739 10.124 5.717 C 10.075 5.667 10.023 5.62 9.968 5.577 C 9.904 5.527 9.837 5.478 9.769 5.433 C 9.69 5.381 9.61 5.331 9.528 5.284 C 9.437 5.231 9.345 5.181 9.251 5.133 C 9.107 5.06 8.961 4.99 8.812 4.926 L 8.857 4.819 C 8.923 4.659 8.868 4.483 8.734 4.427 L 8.734 4.427 C 8.6 4.371 8.436 4.456 8.369 4.616 L 8.322 4.73 Z " fill-rule="evenodd" fill="rgb(0,0,0)"/></g></svg>