<?xml version="1.0" standalone="no"?><!-- Generator: Gravit.io --><svg xmlns="http://www.w3.org/2000/svg" xmlns:xlink="http://www.w3.org/1999/xlink" style="isolation:isolate" viewBox="0 0 16 16" width="16" height="16"><defs><clipPath id="_clipPath_WJiCKR6oxovrnYFWGWVqPDPirrmIU3XW"><rect width="16" height="16"/></clipPath></defs><g clip-path="url(#_clipPath_WJiCKR6oxovrnYFWGWVqPDPirrmIU3XW)"><path d=" M 10.511 15.675 C 10.27 15.884 9.957 16 9.633 16 L 6.344 16 C 6.025 16 5.718 15.887 5.478 15.685 C 5.238 15.887 4.931 16 4.611 16 L 1.323 16 C 0.972 16 0.635 15.864 0.388 15.623 C 0.14 15.381 0 15.053 0 14.712 L 0 1.288 C 0 0.947 0.14 0.619 0.388 0.377 C 0.635 0.136 0.972 0 1.323 0 L 1.323 0 L 4.27 0 L 4.611 0 L 4.611 0 L 4.611 0 L 6.344 0 L 6.458 0 L 6.458 0 L 9.405 0 L 9.633 0 L 9.633 0 L 11.389 0 L 11.389 0 L 11.389 0 L 11.593 0 L 14.677 0 C 15.028 0 15.365 0.136 15.612 0.377 C 15.86 0.619 16 0.947 16 1.288 L 16 14.712 C 16 15.053 15.86 15.381 15.612 15.623 C 15.365 15.864 15.028 16 14.677 16 L 11.389 16 C 11.064 16 10.752 15.884 10.511 15.675 Z  M 12.211 0.889 L 12.211 10.96 C 12.211 11.301 11.934 11.578 11.593 11.578 L 10.979 11.578 L 10.979 11.578 L 10.979 11.578 L 10.979 14.712 C 10.979 14.818 11.022 14.92 11.099 14.994 C 11.175 15.069 11.28 15.111 11.389 15.111 L 14.677 15.111 C 14.786 15.111 14.89 15.069 14.967 14.994 C 15.044 14.92 15.087 14.818 15.087 14.712 L 15.087 1.288 C 15.087 1.182 15.044 1.08 14.967 1.006 C 14.89 0.931 14.786 0.889 14.677 0.889 L 12.211 0.889 Z  M 10.043 11.578 L 10.043 14.712 C 10.043 14.818 9.999 14.92 9.923 14.994 C 9.846 15.069 9.742 15.111 9.633 15.111 L 6.344 15.111 C 6.236 15.111 6.131 15.069 6.054 14.994 C 5.978 14.92 5.934 14.818 5.934 14.712 L 5.934 14.712 L 5.934 14.712 L 5.934 11.578 L 5.934 11.578 L 6.458 11.578 C 6.799 11.578 7.076 11.301 7.076 10.96 L 7.076 0.889 L 8.787 0.889 L 8.787 10.96 C 8.787 11.301 9.064 11.578 9.405 11.578 L 10.043 11.578 L 10.043 11.578 Z  M 3.652 0.889 L 1.323 0.889 L 1.323 0.889 C 1.214 0.889 1.11 0.931 1.033 1.006 C 0.956 1.08 0.913 1.182 0.913 1.288 L 0.913 14.712 C 0.913 14.818 0.956 14.92 1.033 14.994 C 1.11 15.069 1.214 15.111 1.323 15.111 L 4.611 15.111 C 4.72 15.111 4.825 15.069 4.901 14.994 C 4.978 14.92 5.021 14.818 5.021 14.712 L 5.021 11.578 L 4.27 11.578 C 3.929 11.578 3.652 11.301 3.652 10.96 L 3.652 0.889 L 3.652 0.889 L 3.652 0.889 Z " fill-rule="evenodd" fill="rgb(0,0,0)"/></g></svg>