<?xml version="1.0" standalone="no"?><!-- Generator: Gravit.io --><svg xmlns="http://www.w3.org/2000/svg" xmlns:xlink="http://www.w3.org/1999/xlink" style="isolation:isolate" viewBox="0 0 16 16" width="16" height="16"><defs><clipPath id="_clipPath_iIY0oahweGgIkud7mBGxlJ5nVohoBWbr"><rect width="16" height="16"/></clipPath></defs><g clip-path="url(#_clipPath_iIY0oahweGgIkud7mBGxlJ5nVohoBWbr)"><path d=" M 13.858 12.432 C 14.885 11.149 15.5 9.521 15.5 7.75 C 15.5 3.611 12.139 0.25 8 0.25 C 3.861 0.25 0.5 3.611 0.5 7.75 L 0.5 7.75 C 0.5 9.521 1.115 11.149 2.142 12.432 L 0.674 14.781 C 0.62 14.761 0.561 14.75 0.5 14.75 C 0.224 14.75 0 14.974 0 15.25 C 0 15.526 0.224 15.75 0.5 15.75 C 0.776 15.75 1 15.526 1 15.25 C 1 15.121 0.951 15.003 0.871 14.915 L 0.871 14.915 L 0.871 14.915 L 2.302 12.625 C 3.678 14.231 5.721 15.25 8 15.25 C 10.279 15.25 12.322 14.231 13.698 12.625 L 15.129 14.915 C 15.049 15.003 15 15.121 15 15.25 C 15 15.526 15.224 15.75 15.5 15.75 C 15.776 15.75 16 15.526 16 15.25 C 16 14.974 15.776 14.75 15.5 14.75 C 15.439 14.75 15.38 14.761 15.326 14.781 L 15.326 14.781 L 13.858 12.432 Z  M 9 10.25 C 9 9.422 9.672 8.75 10.5 8.75 C 11.328 8.75 12 9.422 12 10.25 C 12 11.078 11.328 11.75 10.5 11.75 C 9.672 11.75 9 11.078 9 10.25 L 9 10.25 L 9 10.25 Z  M 1.5 7.75 C 1.5 4.163 4.413 1.25 8 1.25 C 11.587 1.25 14.5 4.163 14.5 7.75 C 14.5 11.337 11.587 14.25 8 14.25 C 4.413 14.25 1.5 11.337 1.5 7.75 L 1.5 7.75 L 1.5 7.75 Z " fill-rule="evenodd" fill="rgb(0,0,0)"/></g></svg>