<?xml version="1.0" standalone="no"?><!-- Generator: Gravit.io --><svg xmlns="http://www.w3.org/2000/svg" xmlns:xlink="http://www.w3.org/1999/xlink" style="isolation:isolate" viewBox="0 0 16 16" width="16" height="16"><defs><clipPath id="_clipPath_Nhmhuv890NMVoyhcGbGcbuai7zHT2JZI"><rect width="16" height="16"/></clipPath></defs><g clip-path="url(#_clipPath_Nhmhuv890NMVoyhcGbGcbuai7zHT2JZI)"><path d=" M 2.588 11.399 L 4.634 13.44 C 4.759 13.565 4.783 13.743 4.689 13.838 L 4.689 13.838 C 4.594 13.933 4.416 13.909 4.291 13.784 L 2.245 11.743 C 2.12 11.618 2.096 11.44 2.19 11.345 L 2.19 11.345 C 2.285 11.25 2.463 11.274 2.588 11.399 L 2.588 11.399 Z  M 4.1 8.031 C 2.901 7.756 1.71 8 0.906 8.805 C -0.483 10.196 -0.193 12.74 1.553 14.482 C 3.298 16.224 5.843 16.509 7.231 15.117 C 8.035 14.312 8.276 13.121 7.999 11.922 C 8.685 11.948 9.321 11.74 9.78 11.28 C 10.834 10.224 10.56 8.239 9.169 6.851 C 7.777 5.462 5.792 5.192 4.738 6.248 C 4.279 6.708 4.072 7.345 4.1 8.031 L 4.1 8.031 Z  M 5.484 8.549 C 5.977 8.055 6.823 8.101 7.373 8.65 C 7.923 9.199 7.971 10.045 7.478 10.538 C 6.986 11.032 6.14 10.986 5.589 10.437 C 5.039 9.888 4.992 9.042 5.484 8.549 Z  M 13.171 1.791 L 14.203 2.82 L 9.372 7.66 L 8.341 6.631 L 13.171 1.791 Z  M 13.386 1.733 L 14.792 0 L 15.972 1.199 L 14.29 2.635 L 13.386 1.733 Z " fill-rule="evenodd" fill="rgb(0,0,0)"/></g></svg>