<?xml version="1.0" standalone="no"?><!-- Generator: Gravit.io --><svg xmlns="http://www.w3.org/2000/svg" xmlns:xlink="http://www.w3.org/1999/xlink" style="isolation:isolate" viewBox="0 0 16 16" width="16" height="16"><defs><clipPath id="_clipPath_WtRrvtYQymANDKvnKbH9HcqXKwVx2LI6"><rect width="16" height="16"/></clipPath></defs><g clip-path="url(#_clipPath_WtRrvtYQymANDKvnKbH9HcqXKwVx2LI6)"><path d=" M 7.193 7.731 L 12.845 2.325 L 13.12 1.57 L 14.811 0.13 L 15.691 0.37 L 16 1.159 L 14.263 2.668 L 13.371 2.85 L 7.952 8.471 Q 7.985 8.502 8.017 8.533 Q 7.042 9.356 7.488 9.888 C 8.067 10.415 8.313 9.832 8.403 10.282 C 8.22 11.208 6.763 10.837 6.4 12.011 C 6.082 13.039 6.528 13.397 5.563 14.823 C 1.654 18.231 -1.618 12.419 0.863 10.2 C 2.304 9.089 2.684 10.134 3.563 8.981 C 3.957 6.53 6.703 7.218 7.126 7.664 Q 7.159 7.698 7.193 7.731 Z " fill="rgb(0,0,0)"/></g></svg>