<?xml version="1.0" standalone="no"?><!-- Generator: Gravit.io --><svg xmlns="http://www.w3.org/2000/svg" xmlns:xlink="http://www.w3.org/1999/xlink" style="isolation:isolate" viewBox="0 0 16 16" width="16" height="16"><defs><clipPath id="_clipPath_0YIUjRastoKb1pvfea9pGS8QzKFGHAF7"><rect width="16" height="16"/></clipPath></defs><g clip-path="url(#_clipPath_0YIUjRastoKb1pvfea9pGS8QzKFGHAF7)"><path d=" M 9.745 3.226 L 6.36 7.458 L 8.053 8.304 L 9.745 3.226 L 9.745 3.226 Z  M 6.36 13.382 L 9.745 9.15 L 8.053 8.304 L 6.36 13.382 L 6.36 13.382 Z  M 9.745 1.455 L 9.804 1.455 C 10.253 1.455 10.723 1.804 10.852 2.235 L 14.748 15.22 C 14.877 15.65 14.617 16 14.167 16 L 1.833 16 C 1.383 16 1.123 15.65 1.252 15.22 L 5.148 2.235 C 5.277 1.804 5.747 1.455 6.196 1.455 L 6.255 1.455 L 6.255 0.407 C 6.255 0.182 6.437 0 6.662 0 L 9.338 0 C 9.563 0 9.745 0.182 9.745 0.407 L 9.745 1.455 L 9.745 1.455 Z " fill-rule="evenodd" fill="rgb(0,0,0)"/></g></svg>