<?xml version="1.0" standalone="no"?><!-- Generator: Gravit.io --><svg xmlns="http://www.w3.org/2000/svg" xmlns:xlink="http://www.w3.org/1999/xlink" style="isolation:isolate" viewBox="0 0 16 16" width="16" height="16"><defs><clipPath id="_clipPath_zuQ1VTHruGJjflks5U5g4YvyrUrhaySc"><rect width="16" height="16"/></clipPath></defs><g clip-path="url(#_clipPath_zuQ1VTHruGJjflks5U5g4YvyrUrhaySc)"><path d=" M 0.798 0 L 15.202 0 C 15.643 0 16 0.357 16 0.798 L 16 15.202 C 16 15.643 15.643 16 15.202 16 L 0.798 16 C 0.357 16 0 15.643 0 15.202 L 0 0.798 C 0 0.357 0.357 0 0.798 0 Z  M 1.92 1.28 L 14.08 1.28 C 14.433 1.28 14.72 1.567 14.72 1.92 L 14.72 14.08 C 14.72 14.433 14.433 14.72 14.08 14.72 L 1.92 14.72 C 1.567 14.72 1.28 14.433 1.28 14.08 L 1.28 1.92 C 1.28 1.567 1.567 1.28 1.92 1.28 Z  M 7.209 11.62 C 7.209 11.183 7.563 10.829 8 10.829 C 8.437 10.829 8.791 11.183 8.791 11.62 C 8.791 12.056 8.437 12.411 8 12.411 C 7.563 12.411 7.209 12.056 7.209 11.62 L 7.209 11.62 L 7.209 11.62 L 7.209 11.62 L 7.209 11.62 Z  M 3.571 7.982 C 3.571 7.545 3.925 7.191 4.362 7.191 C 4.798 7.191 5.153 7.545 5.153 7.982 C 5.153 8.418 4.798 8.772 4.362 8.772 C 3.925 8.772 3.571 8.418 3.571 7.982 L 3.571 7.982 L 3.571 7.982 L 3.571 7.982 Z  M 10.847 7.982 C 10.847 7.545 11.202 7.191 11.638 7.191 C 12.075 7.191 12.429 7.545 12.429 7.982 C 12.429 8.418 12.075 8.772 11.638 8.772 C 11.202 8.772 10.847 8.418 10.847 7.982 L 10.847 7.982 L 10.847 7.982 Z  M 10.056 10.354 C 10.056 9.918 10.411 9.563 10.847 9.563 C 11.284 9.563 11.638 9.918 11.638 10.354 C 11.638 10.791 11.284 11.145 10.847 11.145 C 10.411 11.145 10.056 10.791 10.056 10.354 L 10.056 10.354 Z  M 7.367 2.64 C 4.697 2.954 2.622 5.227 2.622 7.982 C 2.622 10.95 5.032 13.36 8 13.36 C 10.968 13.36 13.378 10.95 13.378 7.982 C 13.378 5.227 11.303 2.954 8.633 2.64 L 8.633 3.552 L 7.367 3.552 L 7.367 2.64 L 7.367 2.64 L 7.367 2.64 L 7.367 2.64 L 7.367 2.64 Z  M 4.52 10.354 C 4.52 9.918 4.874 9.563 5.311 9.563 C 5.747 9.563 6.102 9.918 6.102 10.354 C 6.102 10.791 5.747 11.145 5.311 11.145 C 4.874 11.145 4.52 10.791 4.52 10.354 Z " fill-rule="evenodd" fill="rgb(0,0,0)"/></g></svg>