<?xml version="1.0" standalone="no"?><!-- Generator: Gravit.io --><svg xmlns="http://www.w3.org/2000/svg" xmlns:xlink="http://www.w3.org/1999/xlink" style="isolation:isolate" viewBox="0 0 16 16" width="16" height="16"><defs><clipPath id="_clipPath_KwuFJT9leIaoeeqrQ2LACWn9379D7S1B"><rect width="16" height="16"/></clipPath></defs><g clip-path="url(#_clipPath_KwuFJT9leIaoeeqrQ2LACWn9379D7S1B)"><path d=" M 0.798 0 L 15.202 0 C 15.643 0 16 0.357 16 0.798 L 16 15.202 C 16 15.643 15.643 16 15.202 16 L 0.798 16 C 0.357 16 0 15.643 0 15.202 L 0 0.798 C 0 0.357 0.357 0 0.798 0 L 0.798 0 Z  M 7.23 11.62 C 7.23 11.183 7.585 10.829 8.021 10.829 C 8.458 10.829 8.812 11.183 8.812 11.62 C 8.812 12.056 8.458 12.411 8.021 12.411 C 7.585 12.411 7.23 12.056 7.23 11.62 L 7.23 11.62 L 7.23 11.62 L 7.23 11.62 L 7.23 11.62 L 7.23 11.62 Z  M 3.592 7.982 C 3.592 7.545 3.946 7.191 4.383 7.191 C 4.82 7.191 5.174 7.545 5.174 7.982 C 5.174 8.418 4.82 8.772 4.383 8.772 C 3.946 8.772 3.592 8.418 3.592 7.982 L 3.592 7.982 L 3.592 7.982 L 3.592 7.982 L 3.592 7.982 Z  M 10.869 7.982 C 10.869 7.545 11.223 7.191 11.66 7.191 C 12.096 7.191 12.451 7.545 12.451 7.982 C 12.451 8.418 12.096 8.772 11.66 8.772 C 11.223 8.772 10.869 8.418 10.869 7.982 L 10.869 7.982 L 10.869 7.982 L 10.869 7.982 Z  M 10.078 10.354 C 10.078 9.918 10.432 9.563 10.869 9.563 C 11.305 9.563 11.66 9.918 11.66 10.354 C 11.66 10.791 11.305 11.145 10.869 11.145 C 10.432 11.145 10.078 10.791 10.078 10.354 L 10.078 10.354 L 10.078 10.354 Z  M 4.541 10.354 C 4.541 9.918 4.896 9.563 5.332 9.563 C 5.769 9.563 6.123 9.918 6.123 10.354 C 6.123 10.791 5.769 11.145 5.332 11.145 C 4.896 11.145 4.541 10.791 4.541 10.354 L 4.541 10.354 Z  M 7.389 2.64 C 4.718 2.954 2.643 5.227 2.643 7.982 C 2.643 10.95 5.053 13.36 8.021 13.36 C 10.99 13.36 13.4 10.95 13.4 7.982 C 13.4 5.227 11.325 2.954 8.654 2.64 L 8.654 3.552 L 7.389 3.552 L 7.389 2.64 L 7.389 2.64 L 7.389 2.64 L 7.389 2.64 L 7.389 2.64 L 7.389 2.64 Z " fill-rule="evenodd" fill="rgb(0,0,0)"/></g></svg>