<?xml version="1.0" standalone="no"?><!-- Generator: Gravit.io --><svg xmlns="http://www.w3.org/2000/svg" xmlns:xlink="http://www.w3.org/1999/xlink" style="isolation:isolate" viewBox="0 0 16 16" width="16" height="16"><defs><clipPath id="_clipPath_75mg5YTpha8TAT4IkGu7KiquXMwHNFDX"><rect width="16" height="16"/></clipPath></defs><g clip-path="url(#_clipPath_75mg5YTpha8TAT4IkGu7KiquXMwHNFDX)"><path d=" M 6.824 13.384 C 6.824 12.735 7.351 12.208 8 12.208 C 8.649 12.208 9.176 12.735 9.176 13.384 C 9.176 14.034 8.649 14.561 8 14.561 C 7.351 14.561 6.824 14.034 6.824 13.384 L 6.824 13.384 L 6.824 13.384 L 6.824 13.384 L 6.824 13.384 Z  M 1.412 7.973 C 1.412 7.323 1.939 6.796 2.588 6.796 C 3.238 6.796 3.765 7.323 3.765 7.973 C 3.765 8.622 3.238 9.149 2.588 9.149 C 1.939 9.149 1.412 8.622 1.412 7.973 L 1.412 7.973 L 1.412 7.973 L 1.412 7.973 Z  M 12.235 7.973 C 12.235 7.323 12.762 6.796 13.412 6.796 C 14.061 6.796 14.588 7.323 14.588 7.973 C 14.588 8.622 14.061 9.149 13.412 9.149 C 12.762 9.149 12.235 8.622 12.235 7.973 L 12.235 7.973 L 12.235 7.973 Z  M 11.059 11.502 C 11.059 10.853 11.586 10.325 12.235 10.325 C 12.885 10.325 13.412 10.853 13.412 11.502 C 13.412 12.151 12.885 12.678 12.235 12.678 C 11.586 12.678 11.059 12.151 11.059 11.502 L 11.059 11.502 Z  M 7.059 0.027 C 3.086 0.494 0 3.876 0 7.973 C 0 12.388 3.585 15.973 8 15.973 C 12.415 15.973 16 12.388 16 7.973 C 16 3.876 12.914 0.494 8.941 0.027 L 8.941 1.384 L 7.059 1.384 L 7.059 0.027 L 7.059 0.027 L 7.059 0.027 L 7.059 0.027 L 7.059 0.027 Z  M 2.824 11.502 C 2.824 10.853 3.351 10.325 4 10.325 C 4.649 10.325 5.176 10.853 5.176 11.502 C 5.176 12.151 4.649 12.678 4 12.678 C 3.351 12.678 2.824 12.151 2.824 11.502 Z " fill-rule="evenodd" fill="rgb(0,0,0)"/></g></svg>