<?xml version="1.0" standalone="no"?><!-- Generator: Gravit.io --><svg xmlns="http://www.w3.org/2000/svg" xmlns:xlink="http://www.w3.org/1999/xlink" style="isolation:isolate" viewBox="0 0 16 16" width="16" height="16"><path d=" M 2.909 0.727 C 2.909 0.327 2.582 0 2.182 0 C 1.782 0 1.455 0.327 1.455 0.727 L 1.455 3.636 L 0 3.636 L 0 8 L 4.364 8 L 4.364 3.636 L 2.909 3.636 L 2.909 0.727 Z  M 5.818 10.909 C 5.818 11.855 6.429 12.655 7.273 12.96 L 7.273 16 L 8.727 16 L 8.727 12.96 C 9.571 12.662 10.182 11.862 10.182 10.909 L 10.182 9.455 L 5.818 9.455 L 5.818 10.909 Z  M 0 10.909 C 0 11.855 0.611 12.655 1.455 12.96 L 1.455 16 L 2.909 16 L 2.909 12.96 C 3.753 12.655 4.364 11.855 4.364 10.909 L 4.364 9.455 L 0 9.455 L 0 10.909 Z  M 14.545 3.636 L 14.545 0.727 C 14.545 0.327 14.218 0 13.818 0 C 13.418 0 13.091 0.327 13.091 0.727 L 13.091 3.636 L 11.636 3.636 L 11.636 8 L 16 8 L 16 3.636 L 14.545 3.636 Z  M 8.727 0.727 C 8.727 0.327 8.4 0 8 0 C 7.6 0 7.273 0.327 7.273 0.727 L 7.273 3.636 L 5.818 3.636 L 5.818 8 L 10.182 8 L 10.182 3.636 L 8.727 3.636 L 8.727 0.727 Z  M 11.636 10.909 C 11.636 11.855 12.247 12.655 13.091 12.96 L 13.091 16 L 14.545 16 L 14.545 12.96 C 15.389 12.662 16 11.862 16 10.909 L 16 9.455 L 11.636 9.455 L 11.636 10.909 Z " fill="rgb(0,0,0)"/></svg>