<?xml version="1.0" standalone="no"?><!-- Generator: Gravit.io --><svg xmlns="http://www.w3.org/2000/svg" xmlns:xlink="http://www.w3.org/1999/xlink" style="isolation:isolate" viewBox="0 0 16 16" width="16" height="16"><defs><clipPath id="_clipPath_Bv9xzEb05GukF2w26xQ8qa3JML6278iZ"><rect width="16" height="16"/></clipPath></defs><g clip-path="url(#_clipPath_Bv9xzEb05GukF2w26xQ8qa3JML6278iZ)"><path d=" M 15.202 0 L 0.798 0 C 0.357 0 0 0.357 0 0.798 L 0 15.202 C 0 15.643 0.357 16 0.798 16 L 15.202 16 C 15.643 16 16 15.643 16 15.202 L 16 0.798 C 16 0.357 15.643 0 15.202 0 Z  M 14.08 1.28 L 1.92 1.28 C 1.567 1.28 1.28 1.567 1.28 1.92 L 1.28 14.08 C 1.28 14.433 1.567 14.72 1.92 14.72 L 14.08 14.72 C 14.433 14.72 14.72 14.433 14.72 14.08 L 14.72 1.92 C 14.72 1.567 14.433 1.28 14.08 1.28 Z  M 6.173 9.589 C 6.009 9.448 5.824 9.333 5.624 9.249 C 5.363 9.139 5.083 9.082 4.8 9.082 C 4.517 9.082 4.237 9.139 3.976 9.249 C 3.725 9.355 3.496 9.51 3.303 9.703 C 3.11 9.896 2.955 10.125 2.849 10.376 C 2.739 10.637 2.682 10.917 2.682 11.2 L 2.682 11.2 L 2.682 11.2 C 2.682 11.483 2.739 11.763 2.849 12.024 C 2.955 12.275 3.11 12.504 3.303 12.697 C 3.496 12.89 3.725 13.045 3.976 13.151 C 4.237 13.261 4.517 13.318 4.8 13.318 C 5.083 13.318 5.363 13.261 5.624 13.151 C 5.875 13.045 6.104 12.89 6.297 12.697 C 6.49 12.504 6.645 12.275 6.751 12.024 C 6.861 11.763 6.918 11.483 6.918 11.2 C 6.918 10.917 6.861 10.637 6.751 10.376 C 6.667 10.176 6.552 9.991 6.411 9.827 C 6.41 9.83 6.407 9.832 6.405 9.835 L 4.887 11.353 C 4.865 11.375 4.829 11.375 4.807 11.353 L 4.647 11.193 C 4.625 11.171 4.625 11.135 4.647 11.113 L 6.165 9.595 C 6.168 9.593 6.17 9.59 6.173 9.589 Z  M 2.174 11.2 C 2.174 10.849 2.244 10.502 2.381 10.178 C 2.513 9.866 2.704 9.583 2.944 9.344 C 3.183 9.104 3.466 8.913 3.778 8.781 C 4.102 8.644 4.449 8.574 4.8 8.574 C 5.151 8.574 5.498 8.644 5.822 8.781 C 6.134 8.913 6.417 9.104 6.656 9.344 C 6.896 9.583 7.087 9.866 7.219 10.178 C 7.356 10.502 7.426 10.849 7.426 11.2 C 7.426 11.551 7.356 11.898 7.219 12.222 C 7.087 12.534 6.896 12.817 6.656 13.056 C 6.417 13.296 6.134 13.487 5.822 13.619 C 5.498 13.756 5.151 13.826 4.8 13.826 C 4.449 13.826 4.102 13.756 3.778 13.619 C 3.466 13.487 3.183 13.296 2.944 13.056 C 2.704 12.817 2.513 12.534 2.381 12.222 C 2.244 11.898 2.174 11.551 2.174 11.2 L 2.174 11.2 L 2.174 11.2 Z  M 1.92 11.2 C 1.92 9.61 3.21 8.32 4.8 8.32 C 6.39 8.32 7.68 9.61 7.68 11.2 C 7.68 12.79 6.39 14.08 4.8 14.08 C 3.21 14.08 1.92 12.79 1.92 11.2 L 1.92 11.2 Z  M 6.245 9.595 L 6.405 9.755 C 6.427 9.777 6.427 9.813 6.405 9.835 L 4.887 11.353 C 4.865 11.375 4.829 11.375 4.807 11.353 L 4.647 11.193 C 4.625 11.171 4.625 11.135 4.647 11.113 L 6.165 9.595 C 6.187 9.573 6.223 9.573 6.245 9.595 Z  M 6.277 9.563 L 6.437 9.723 C 6.437 9.723 6.437 9.723 6.437 9.723 C 6.456 9.742 6.467 9.768 6.467 9.795 C 6.467 9.822 6.456 9.848 6.437 9.867 C 6.437 9.867 6.437 9.867 6.437 9.867 L 4.919 11.385 C 4.919 11.385 4.919 11.385 4.919 11.385 C 4.9 11.404 4.874 11.415 4.847 11.415 C 4.82 11.415 4.794 11.404 4.775 11.385 C 4.775 11.385 4.775 11.385 4.775 11.385 L 4.615 11.225 C 4.615 11.225 4.615 11.225 4.615 11.225 C 4.596 11.206 4.585 11.18 4.585 11.153 C 4.585 11.126 4.596 11.1 4.615 11.081 C 4.615 11.081 4.615 11.081 4.615 11.081 L 6.133 9.563 C 6.133 9.563 6.133 9.563 6.133 9.563 C 6.152 9.544 6.178 9.533 6.205 9.533 C 6.232 9.533 6.258 9.544 6.277 9.563 C 6.277 9.563 6.277 9.563 6.277 9.563 Z  M 6.173 3.189 C 6.009 3.048 5.824 2.933 5.624 2.849 C 5.363 2.739 5.083 2.682 4.8 2.682 C 4.517 2.682 4.237 2.739 3.976 2.849 C 3.725 2.955 3.496 3.11 3.303 3.303 C 3.11 3.496 2.955 3.725 2.849 3.976 C 2.739 4.237 2.682 4.517 2.682 4.8 L 2.682 4.8 L 2.682 4.8 C 2.682 5.083 2.739 5.363 2.849 5.624 C 2.955 5.875 3.11 6.104 3.303 6.297 C 3.496 6.49 3.725 6.645 3.976 6.751 C 4.237 6.861 4.517 6.918 4.8 6.918 C 5.083 6.918 5.363 6.861 5.624 6.751 C 5.875 6.645 6.104 6.49 6.297 6.297 C 6.49 6.104 6.645 5.875 6.751 5.624 C 6.861 5.363 6.918 5.083 6.918 4.8 C 6.918 4.517 6.861 4.237 6.751 3.976 C 6.667 3.776 6.552 3.591 6.411 3.427 C 6.41 3.43 6.407 3.432 6.405 3.435 L 4.887 4.953 C 4.865 4.975 4.829 4.975 4.807 4.953 L 4.647 4.793 C 4.625 4.771 4.625 4.735 4.647 4.713 L 6.165 3.195 C 6.168 3.193 6.17 3.19 6.173 3.189 Z  M 2.174 4.8 C 2.174 4.449 2.244 4.102 2.381 3.778 C 2.513 3.466 2.704 3.183 2.944 2.944 C 3.183 2.704 3.466 2.513 3.778 2.381 C 4.102 2.244 4.449 2.174 4.8 2.174 C 5.151 2.174 5.498 2.244 5.822 2.381 C 6.134 2.513 6.417 2.704 6.656 2.944 C 6.896 3.183 7.087 3.466 7.219 3.778 C 7.356 4.102 7.426 4.449 7.426 4.8 C 7.426 5.151 7.356 5.498 7.219 5.822 C 7.087 6.134 6.896 6.417 6.656 6.656 C 6.417 6.896 6.134 7.087 5.822 7.219 C 5.498 7.356 5.151 7.426 4.8 7.426 C 4.449 7.426 4.102 7.356 3.778 7.219 C 3.466 7.087 3.183 6.896 2.944 6.656 C 2.704 6.417 2.513 6.134 2.381 5.822 C 2.244 5.498 2.174 5.151 2.174 4.8 L 2.174 4.8 L 2.174 4.8 Z  M 1.92 4.8 C 1.92 3.21 3.21 1.92 4.8 1.92 C 6.39 1.92 7.68 3.21 7.68 4.8 C 7.68 6.39 6.39 7.68 4.8 7.68 C 3.21 7.68 1.92 6.39 1.92 4.8 L 1.92 4.8 Z  M 6.245 3.195 L 6.405 3.355 C 6.427 3.377 6.427 3.413 6.405 3.435 L 4.887 4.953 C 4.865 4.975 4.829 4.975 4.807 4.953 L 4.647 4.793 C 4.625 4.771 4.625 4.735 4.647 4.713 L 6.165 3.195 C 6.187 3.173 6.223 3.173 6.245 3.195 Z  M 6.277 3.163 L 6.437 3.323 C 6.437 3.323 6.437 3.323 6.437 3.323 C 6.456 3.342 6.467 3.368 6.467 3.395 C 6.467 3.422 6.456 3.448 6.437 3.467 C 6.437 3.467 6.437 3.467 6.437 3.467 L 4.919 4.985 C 4.919 4.985 4.919 4.985 4.919 4.985 C 4.9 5.004 4.874 5.015 4.847 5.015 C 4.82 5.015 4.794 5.004 4.775 4.985 C 4.775 4.985 4.775 4.985 4.775 4.985 L 4.615 4.825 C 4.615 4.825 4.615 4.825 4.615 4.825 C 4.596 4.806 4.585 4.78 4.585 4.753 C 4.585 4.726 4.596 4.7 4.615 4.681 C 4.615 4.681 4.615 4.681 4.615 4.681 L 6.133 3.163 C 6.133 3.163 6.133 3.163 6.133 3.163 C 6.152 3.144 6.178 3.133 6.205 3.133 C 6.232 3.133 6.258 3.144 6.277 3.163 C 6.277 3.163 6.277 3.163 6.277 3.163 Z  M 12.573 9.589 C 12.409 9.448 12.224 9.333 12.024 9.249 C 11.763 9.139 11.483 9.082 11.2 9.082 C 10.917 9.082 10.637 9.139 10.376 9.249 C 10.125 9.355 9.896 9.51 9.703 9.703 C 9.51 9.896 9.355 10.125 9.249 10.376 C 9.139 10.637 9.082 10.917 9.082 11.2 L 9.082 11.2 L 9.082 11.2 C 9.082 11.483 9.139 11.763 9.249 12.024 C 9.355 12.275 9.51 12.504 9.703 12.697 C 9.896 12.89 10.125 13.045 10.376 13.151 C 10.637 13.261 10.917 13.318 11.2 13.318 C 11.483 13.318 11.763 13.261 12.024 13.151 C 12.275 13.045 12.504 12.89 12.697 12.697 C 12.89 12.504 13.045 12.275 13.151 12.024 C 13.261 11.763 13.318 11.483 13.318 11.2 C 13.318 10.917 13.261 10.637 13.151 10.376 C 13.067 10.176 12.952 9.991 12.811 9.827 C 12.81 9.83 12.807 9.832 12.805 9.835 L 11.287 11.353 C 11.265 11.375 11.229 11.375 11.207 11.353 L 11.047 11.193 C 11.025 11.171 11.025 11.135 11.047 11.113 L 12.565 9.595 C 12.568 9.593 12.57 9.59 12.573 9.589 Z  M 8.574 11.2 C 8.574 10.849 8.644 10.502 8.781 10.178 C 8.913 9.866 9.104 9.583 9.344 9.344 C 9.583 9.104 9.866 8.913 10.178 8.781 C 10.502 8.644 10.849 8.574 11.2 8.574 C 11.551 8.574 11.898 8.644 12.222 8.781 C 12.534 8.913 12.817 9.104 13.056 9.344 C 13.296 9.583 13.487 9.866 13.619 10.178 C 13.756 10.502 13.826 10.849 13.826 11.2 C 13.826 11.551 13.756 11.898 13.619 12.222 C 13.487 12.534 13.296 12.817 13.056 13.056 C 12.817 13.296 12.534 13.487 12.222 13.619 C 11.898 13.756 11.551 13.826 11.2 13.826 C 10.849 13.826 10.502 13.756 10.178 13.619 C 9.866 13.487 9.583 13.296 9.344 13.056 C 9.104 12.817 8.913 12.534 8.781 12.222 C 8.644 11.898 8.574 11.551 8.574 11.2 L 8.574 11.2 L 8.574 11.2 Z  M 8.32 11.2 C 8.32 9.61 9.61 8.32 11.2 8.32 C 12.79 8.32 14.08 9.61 14.08 11.2 C 14.08 12.79 12.79 14.08 11.2 14.08 C 9.61 14.08 8.32 12.79 8.32 11.2 L 8.32 11.2 Z  M 12.645 9.595 L 12.805 9.755 C 12.827 9.777 12.827 9.813 12.805 9.835 L 11.287 11.353 C 11.265 11.375 11.229 11.375 11.207 11.353 L 11.047 11.193 C 11.025 11.171 11.025 11.135 11.047 11.113 L 12.565 9.595 C 12.587 9.573 12.623 9.573 12.645 9.595 Z  M 12.677 9.563 L 12.837 9.723 C 12.837 9.723 12.837 9.723 12.837 9.723 C 12.856 9.742 12.867 9.768 12.867 9.795 C 12.867 9.822 12.856 9.848 12.837 9.867 C 12.837 9.867 12.837 9.867 12.837 9.867 L 11.319 11.385 C 11.319 11.385 11.319 11.385 11.319 11.385 C 11.3 11.404 11.274 11.415 11.247 11.415 C 11.22 11.415 11.194 11.404 11.175 11.385 C 11.175 11.385 11.175 11.385 11.175 11.385 L 11.015 11.225 C 11.015 11.225 11.015 11.225 11.015 11.225 C 10.996 11.206 10.985 11.18 10.985 11.153 C 10.985 11.126 10.996 11.1 11.015 11.081 C 11.015 11.081 11.015 11.081 11.015 11.081 L 12.533 9.563 C 12.533 9.563 12.533 9.563 12.533 9.563 C 12.552 9.544 12.578 9.533 12.605 9.533 C 12.632 9.533 12.658 9.544 12.677 9.563 C 12.677 9.563 12.677 9.563 12.677 9.563 Z  M 12.573 3.189 C 12.409 3.048 12.224 2.933 12.024 2.849 C 11.763 2.739 11.483 2.682 11.2 2.682 C 10.917 2.682 10.637 2.739 10.376 2.849 C 10.125 2.955 9.896 3.11 9.703 3.303 C 9.51 3.496 9.355 3.725 9.249 3.976 C 9.139 4.237 9.082 4.517 9.082 4.8 L 9.082 4.8 L 9.082 4.8 C 9.082 5.083 9.139 5.363 9.249 5.624 C 9.355 5.875 9.51 6.104 9.703 6.297 C 9.896 6.49 10.125 6.645 10.376 6.751 C 10.637 6.861 10.917 6.918 11.2 6.918 C 11.483 6.918 11.763 6.861 12.024 6.751 C 12.275 6.645 12.504 6.49 12.697 6.297 C 12.89 6.104 13.045 5.875 13.151 5.624 C 13.261 5.363 13.318 5.083 13.318 4.8 C 13.318 4.517 13.261 4.237 13.151 3.976 C 13.067 3.776 12.952 3.591 12.811 3.427 C 12.81 3.43 12.807 3.432 12.805 3.435 L 11.287 4.953 C 11.265 4.975 11.229 4.975 11.207 4.953 L 11.047 4.793 C 11.025 4.771 11.025 4.735 11.047 4.713 L 12.565 3.195 C 12.568 3.193 12.57 3.19 12.573 3.189 Z  M 8.574 4.8 C 8.574 4.449 8.644 4.102 8.781 3.778 C 8.913 3.466 9.104 3.183 9.344 2.944 C 9.583 2.704 9.866 2.513 10.178 2.381 C 10.502 2.244 10.849 2.174 11.2 2.174 C 11.551 2.174 11.898 2.244 12.222 2.381 C 12.534 2.513 12.817 2.704 13.056 2.944 C 13.296 3.183 13.487 3.466 13.619 3.778 C 13.756 4.102 13.826 4.449 13.826 4.8 C 13.826 5.151 13.756 5.498 13.619 5.822 C 13.487 6.134 13.296 6.417 13.056 6.656 C 12.817 6.896 12.534 7.087 12.222 7.219 C 11.898 7.356 11.551 7.426 11.2 7.426 C 10.849 7.426 10.502 7.356 10.178 7.219 C 9.866 7.087 9.583 6.896 9.344 6.656 C 9.104 6.417 8.913 6.134 8.781 5.822 C 8.644 5.498 8.574 5.151 8.574 4.8 L 8.574 4.8 L 8.574 4.8 Z  M 8.32 4.8 C 8.32 3.21 9.61 1.92 11.2 1.92 C 12.79 1.92 14.08 3.21 14.08 4.8 C 14.08 6.39 12.79 7.68 11.2 7.68 C 9.61 7.68 8.32 6.39 8.32 4.8 L 8.32 4.8 Z  M 12.645 3.195 L 12.805 3.355 C 12.827 3.377 12.827 3.413 12.805 3.435 L 11.287 4.953 C 11.265 4.975 11.229 4.975 11.207 4.953 L 11.047 4.793 C 11.025 4.771 11.025 4.735 11.047 4.713 L 12.565 3.195 C 12.587 3.173 12.623 3.173 12.645 3.195 Z  M 12.677 3.163 L 12.837 3.323 C 12.837 3.323 12.837 3.323 12.837 3.323 C 12.856 3.342 12.867 3.368 12.867 3.395 C 12.867 3.422 12.856 3.448 12.837 3.467 C 12.837 3.467 12.837 3.467 12.837 3.467 L 11.319 4.985 C 11.319 4.985 11.319 4.985 11.319 4.985 C 11.3 5.004 11.274 5.015 11.247 5.015 C 11.22 5.015 11.194 5.004 11.175 4.985 C 11.175 4.985 11.175 4.985 11.175 4.985 L 11.015 4.825 C 11.015 4.825 11.015 4.825 11.015 4.825 C 10.996 4.806 10.985 4.78 10.985 4.753 C 10.985 4.726 10.996 4.7 11.015 4.681 C 11.015 4.681 11.015 4.681 11.015 4.681 L 12.533 3.163 C 12.533 3.163 12.533 3.163 12.533 3.163 C 12.552 3.144 12.578 3.133 12.605 3.133 C 12.632 3.133 12.658 3.144 12.677 3.163 C 12.677 3.163 12.677 3.163 12.677 3.163 Z " fill-rule="evenodd" fill="rgb(0,0,0)"/></g></svg>