<?xml version="1.0" standalone="no"?><!-- Generator: Gravit.io --><svg xmlns="http://www.w3.org/2000/svg" xmlns:xlink="http://www.w3.org/1999/xlink" style="isolation:isolate" viewBox="0 0 16 16" width="16" height="16"><defs><clipPath id="_clipPath_iXHXy8AYvaFdQjLqF7ZLomuWsC70d1e6"><rect width="16" height="16"/></clipPath></defs><g clip-path="url(#_clipPath_iXHXy8AYvaFdQjLqF7ZLomuWsC70d1e6)"><path d=" M 11.815 3.524 C 11.358 3.134 10.843 2.815 10.288 2.58 C 9.564 2.274 8.786 2.117 8 2.118 C 7.214 2.117 6.436 2.274 5.712 2.58 C 5.013 2.876 4.378 3.304 3.841 3.841 C 3.304 4.378 2.876 5.013 2.58 5.711 C 2.274 6.435 2.117 7.214 2.118 8 L 2.118 8 L 2.118 8 C 2.117 8.786 2.274 9.564 2.58 10.288 C 2.876 10.987 3.304 11.622 3.841 12.159 C 4.378 12.696 5.013 13.124 5.712 13.42 C 6.436 13.726 7.214 13.883 8 13.882 C 8.786 13.883 9.564 13.726 10.288 13.42 C 10.987 13.124 11.622 12.696 12.159 12.159 C 12.696 11.622 13.124 10.987 13.42 10.288 C 13.726 9.564 13.883 8.786 13.882 8 C 13.883 7.214 13.726 6.436 13.42 5.712 C 13.185 5.157 12.866 4.642 12.476 4.185 C 12.471 4.193 12.465 4.201 12.458 4.208 L 8.241 8.424 C 8.18 8.485 8.082 8.485 8.021 8.424 L 7.576 7.979 C 7.515 7.918 7.515 7.82 7.576 7.759 L 11.792 3.542 C 11.799 3.535 11.807 3.529 11.815 3.524 Z  M 0.706 8 C 0.705 7.025 0.9 6.06 1.28 5.162 C 1.647 4.296 2.178 3.508 2.843 2.843 C 3.508 2.178 4.296 1.647 5.161 1.28 C 6.06 0.9 7.025 0.705 8 0.706 C 8.975 0.705 9.94 0.9 10.839 1.28 C 11.704 1.647 12.492 2.178 13.157 2.843 C 13.822 3.508 14.353 4.296 14.72 5.161 C 15.1 6.06 15.295 7.025 15.294 8 C 15.295 8.975 15.1 9.94 14.72 10.839 C 14.353 11.704 13.822 12.492 13.157 13.157 C 12.492 13.822 11.704 14.353 10.839 14.72 C 9.94 15.1 8.975 15.295 8 15.294 C 7.025 15.295 6.06 15.1 5.161 14.72 C 4.296 14.353 3.508 13.822 2.843 13.157 C 2.178 12.492 1.647 11.704 1.28 10.839 C 0.9 9.94 0.705 8.975 0.706 8 L 0.706 8 L 0.706 8 Z  M 0 8 C 0 3.585 3.585 0 8 0 C 12.415 0 16 3.585 16 8 C 16 12.415 12.415 16 8 16 C 3.585 16 0 12.415 0 8 L 0 8 Z  M 12.013 3.542 L 12.458 3.987 C 12.519 4.048 12.519 4.147 12.458 4.208 L 8.241 8.424 C 8.18 8.485 8.082 8.485 8.021 8.424 L 7.576 7.979 C 7.515 7.918 7.515 7.82 7.576 7.759 L 11.792 3.542 C 11.853 3.481 11.952 3.481 12.013 3.542 Z  M 12.103 3.452 L 12.548 3.897 C 12.548 3.897 12.548 3.897 12.548 3.897 C 12.601 3.95 12.631 4.022 12.631 4.098 C 12.631 4.173 12.601 4.245 12.548 4.298 C 12.548 4.298 12.548 4.298 12.548 4.298 L 8.332 8.515 C 8.332 8.515 8.332 8.515 8.332 8.515 C 8.279 8.568 8.206 8.598 8.131 8.598 C 8.056 8.598 7.983 8.568 7.93 8.515 C 7.93 8.515 7.93 8.515 7.93 8.515 L 7.485 8.07 C 7.485 8.07 7.485 8.07 7.485 8.07 C 7.432 8.017 7.402 7.944 7.402 7.869 C 7.402 7.794 7.432 7.721 7.485 7.668 C 7.485 7.668 7.485 7.668 7.485 7.668 L 11.702 3.452 C 11.702 3.452 11.702 3.452 11.702 3.452 C 11.755 3.399 11.827 3.369 11.902 3.369 C 11.978 3.369 12.05 3.399 12.103 3.452 C 12.103 3.452 12.103 3.452 12.103 3.452 Z " fill-rule="evenodd" fill="rgb(0,0,0)"/></g></svg>