<?xml version="1.0" standalone="no"?><!-- Generator: Gravit.io --><svg xmlns="http://www.w3.org/2000/svg" xmlns:xlink="http://www.w3.org/1999/xlink" style="isolation:isolate" viewBox="0 0 16 16" width="16" height="16"><path d=" M 14.222 14.222 L 1.778 14.222 L 1.778 1.778 L 8 1.778 L 8 0 L 1.778 0 C 0.791 0 0 0.8 0 1.778 L 0 14.222 C 0 15.2 0.791 16 1.778 16 L 14.222 16 C 15.2 16 16 15.2 16 14.222 L 16 8 L 14.222 8 L 14.222 14.222 Z  M 9.778 0 L 9.778 1.778 L 12.969 1.778 L 4.231 10.516 L 5.484 11.769 L 14.222 3.031 L 14.222 6.222 L 16 6.222 L 16 0 L 9.778 0 Z " fill="rgb(0,0,0)"/></svg>