<?xml version="1.0" standalone="no"?><!-- Generator: Gravit.io --><svg xmlns="http://www.w3.org/2000/svg" xmlns:xlink="http://www.w3.org/1999/xlink" style="isolation:isolate" viewBox="0 0 16 16" width="16" height="16"><path d=" M 14.4 0 L 4.8 0 C 3.92 0 3.2 0.72 3.2 1.6 L 3.2 11.2 C 3.2 12.08 3.92 12.8 4.8 12.8 L 14.4 12.8 C 15.28 12.8 16 12.08 16 11.2 L 16 1.6 C 16 0.72 15.28 0 14.4 0 Z  M 12.8 4 L 10.4 4 L 10.4 8.4 C 10.4 9.504 9.504 10.4 8.4 10.4 C 7.296 10.4 6.4 9.504 6.4 8.4 C 6.4 7.296 7.296 6.4 8.4 6.4 C 8.856 6.4 9.264 6.552 9.6 6.808 L 9.6 2.4 L 12.8 2.4 L 12.8 4 Z  M 1.6 3.2 L 0 3.2 L 0 14.4 C 0 15.28 0.72 16 1.6 16 L 12.8 16 L 12.8 14.4 L 1.6 14.4 L 1.6 3.2 Z " fill="rgb(0,0,0)"/></svg>