<?xml version="1.0" standalone="no"?><!-- Generator: Gravit.io --><svg xmlns="http://www.w3.org/2000/svg" xmlns:xlink="http://www.w3.org/1999/xlink" style="isolation:isolate" viewBox="0 0 16 16" width="16" height="16"><path d=" M 1.6 3.2 L 0 3.2 L 0 14.4 C 0 15.28 0.72 16 1.6 16 L 12.8 16 L 12.8 14.4 L 1.6 14.4 L 1.6 3.2 Z  M 14.4 0 L 4.8 0 C 3.92 0 3.2 0.72 3.2 1.6 L 3.2 11.2 C 3.2 12.08 3.92 12.8 4.8 12.8 L 14.4 12.8 C 15.28 12.8 16 12.08 16 11.2 L 16 1.6 C 16 0.72 15.28 0 14.4 0 Z  M 13.6 7.2 L 10.4 7.2 L 10.4 10.4 L 8.8 10.4 L 8.8 7.2 L 5.6 7.2 L 5.6 5.6 L 8.8 5.6 L 8.8 2.4 L 10.4 2.4 L 10.4 5.6 L 13.6 5.6 L 13.6 7.2 Z " fill="rgb(0,0,0)"/></svg>