<?xml version="1.0" standalone="no"?><!-- Generator: Gravit.io --><svg xmlns="http://www.w3.org/2000/svg" xmlns:xlink="http://www.w3.org/1999/xlink" style="isolation:isolate" viewBox="0 0.8 16 14.4" width="16" height="14.4"><path d=" M 12 4 L 8.8 4 L 8.8 5.52 L 12 5.52 C 13.368 5.52 14.48 6.632 14.48 8 C 14.48 9.144 13.696 10.104 12.632 10.384 L 13.8 11.552 C 15.104 10.888 16 9.56 16 8 C 16 5.792 14.208 4 12 4 Z  M 11.2 7.2 L 9.448 7.2 L 11.048 8.8 L 11.2 8.8 L 11.2 7.2 Z  M 0 1.816 L 2.488 4.304 C 1.032 4.896 0 6.328 0 8 C 0 10.208 1.792 12 4 12 L 7.2 12 L 7.2 10.48 L 4 10.48 C 2.632 10.48 1.52 9.368 1.52 8 C 1.52 6.728 2.488 5.68 3.728 5.544 L 5.384 7.2 L 4.8 7.2 L 4.8 8.8 L 6.984 8.8 L 8.8 10.616 L 8.8 12 L 10.184 12 L 13.392 15.2 L 14.4 14.192 L 1.016 0.8 L 0 1.816 Z " fill="rgb(0,0,0)"/></svg>