<?xml version="1.0" standalone="no"?><!-- Generator: Gravit.io --><svg xmlns="http://www.w3.org/2000/svg" xmlns:xlink="http://www.w3.org/1999/xlink" style="isolation:isolate" viewBox="0 4 16 8" width="16" height="8"><path d=" M 1.52 8 C 1.52 6.632 2.632 5.52 4 5.52 L 7.2 5.52 L 7.2 4 L 4 4 C 1.792 4 0 5.792 0 8 C 0 10.208 1.792 12 4 12 L 7.2 12 L 7.2 10.48 L 4 10.48 C 2.632 10.48 1.52 9.368 1.52 8 Z  M 4.8 8.8 L 11.2 8.8 L 11.2 7.2 L 4.8 7.2 L 4.8 8.8 Z  M 12 4 L 8.8 4 L 8.8 5.52 L 12 5.52 C 13.368 5.52 14.48 6.632 14.48 8 C 14.48 9.368 13.368 10.48 12 10.48 L 8.8 10.48 L 8.8 12 L 12 12 C 14.208 12 16 10.208 16 8 C 16 5.792 14.208 4 12 4 Z " fill="rgb(0,0,0)"/></svg>