<?xml version="1.0" standalone="no"?><!-- Generator: Gravit.io --><svg xmlns="http://www.w3.org/2000/svg" xmlns:xlink="http://www.w3.org/1999/xlink" style="isolation:isolate" viewBox="0 0 16 16" width="16" height="16"><defs><clipPath id="_clipPath_SzwytHZOVYrAdObQpRPqA5Ki8IsdEQUL"><rect width="16" height="16"/></clipPath></defs><g clip-path="url(#_clipPath_SzwytHZOVYrAdObQpRPqA5Ki8IsdEQUL)"><path d=" M 0.023 0 L 8.2 0 L 8.2 6.453 L 4.089 8.518 L 0 6.453 L 0.023 0 Z  M 4.1 9.611 L 4.1 9.611 C 4.335 9.611 4.526 9.802 4.526 10.037 L 4.526 15.574 C 4.526 15.809 4.335 16 4.1 16 L 4.1 16 C 3.865 16 3.674 15.809 3.674 15.574 L 3.674 10.037 C 3.674 9.802 3.865 9.611 4.1 9.611 Z  M 2.778 6.396 L 2.778 6.396 L 1.667 6.396 L 1.667 6.396 Q 1.525 6.396 1.462 6.332 L 1.462 6.332 L 1.462 6.332 Q 1.399 6.269 1.399 6.127 L 1.399 6.127 L 1.399 1.298 L 1.399 1.298 Q 1.399 1.156 1.462 1.093 L 1.462 1.093 L 1.462 1.093 Q 1.525 1.029 1.667 1.029 L 1.667 1.029 L 2.867 1.029 L 2.867 1.029 Q 2.986 1.029 3.065 1.081 L 3.065 1.081 L 3.065 1.081 Q 3.143 1.134 3.21 1.253 L 3.21 1.253 L 3.881 2.468 L 3.881 2.468 Q 3.918 2.535 3.944 2.565 L 3.944 2.565 L 3.944 2.565 Q 3.97 2.594 4.015 2.594 L 4.015 2.594 L 4.082 2.594 L 4.082 2.594 Q 4.127 2.594 4.153 2.565 L 4.153 2.565 L 4.153 2.565 Q 4.179 2.535 4.216 2.468 L 4.216 2.468 L 4.88 1.253 L 4.88 1.253 Q 4.947 1.134 5.025 1.081 L 5.025 1.081 L 5.025 1.081 Q 5.103 1.029 5.222 1.029 L 5.222 1.029 L 6.43 1.029 L 6.43 1.029 Q 6.571 1.029 6.635 1.093 L 6.635 1.093 L 6.635 1.093 Q 6.698 1.156 6.698 1.298 L 6.698 1.298 L 6.698 6.127 L 6.698 6.127 Q 6.698 6.269 6.635 6.332 L 6.635 6.332 L 6.635 6.332 Q 6.571 6.396 6.43 6.396 L 6.43 6.396 L 5.282 6.396 L 5.282 6.396 Q 5.14 6.396 5.077 6.332 L 5.077 6.332 L 5.077 6.332 Q 5.014 6.269 5.014 6.127 L 5.014 6.127 L 5.014 3.504 L 4.574 4.316 L 4.574 4.316 Q 4.507 4.443 4.414 4.499 L 4.414 4.499 L 4.414 4.499 Q 4.32 4.555 4.179 4.555 L 4.179 4.555 L 3.881 4.555 L 3.881 4.555 Q 3.739 4.555 3.646 4.499 L 3.646 4.499 L 3.646 4.499 Q 3.553 4.443 3.486 4.316 L 3.486 4.316 L 3.046 3.504 L 3.046 6.127 L 3.046 6.127 Q 3.046 6.269 2.983 6.332 L 2.983 6.332 L 2.983 6.332 Q 2.919 6.396 2.778 6.396 Z  M 14.937 13.494 L 15.742 12.689 C 16.086 12.345 16.086 11.787 15.742 11.443 L 15.544 11.245 L 15.544 11.245 C 15.2 10.901 14.642 10.901 14.298 11.245 L 13.494 12.05 L 12.689 11.245 C 12.345 10.901 11.787 10.901 11.443 11.245 L 11.245 11.443 C 10.901 11.787 10.901 12.345 11.245 12.689 L 12.05 13.494 L 11.245 14.298 C 10.901 14.642 10.901 15.2 11.245 15.544 L 11.443 15.742 C 11.787 16.086 12.345 16.086 12.689 15.742 L 13.494 14.937 L 14.298 15.742 C 14.642 16.086 15.2 16.086 15.544 15.742 L 15.742 15.544 C 16.086 15.2 16.086 14.642 15.742 14.298 L 14.937 13.494 Z " fill-rule="evenodd" fill="rgb(0,0,0)"/></g></svg>