<?xml version="1.0" standalone="no"?><!-- Generator: Gravit.io --><svg xmlns="http://www.w3.org/2000/svg" xmlns:xlink="http://www.w3.org/1999/xlink" style="isolation:isolate" viewBox="0 0 16 16" width="16" height="16"><defs><clipPath id="_clipPath_Dhpb5x8KQhIdT2GTbhwDOFGW9dAOErpf"><rect width="16" height="16"/></clipPath></defs><g clip-path="url(#_clipPath_Dhpb5x8KQhIdT2GTbhwDOFGW9dAOErpf)"><path d=" M 8.056 13.059 C 8.043 12.924 8.098 12.787 8.212 12.698 L 10.847 10.645 C 11.026 10.505 11.285 10.537 11.425 10.717 L 11.621 10.968 C 11.76 11.147 11.728 11.406 11.549 11.546 L 10.258 12.551 L 15.48 12.576 C 15.795 12.578 16.05 12.835 16.048 13.15 L 16.048 13.15 C 16.047 13.466 15.79 13.72 15.474 13.719 L 10.253 13.694 L 11.534 14.711 C 11.712 14.853 11.741 15.112 11.6 15.291 L 11.402 15.539 C 11.261 15.718 11.001 15.747 10.823 15.606 L 8.208 13.527 C 8.095 13.437 8.041 13.3 8.055 13.165 C 8.053 13.148 8.053 13.13 8.053 13.112 L 8.053 13.112 C 8.053 13.094 8.054 13.076 8.056 13.059 Z  M 8.226 0 L 0.048 0 L 0.048 6.454 L 4.16 8.519 L 8.249 6.454 L 8.226 0 Z  M 4.149 9.612 L 4.149 9.612 C 3.914 9.612 3.723 9.803 3.723 10.038 L 3.723 15.576 C 3.723 15.811 3.914 16.002 4.149 16.002 L 4.149 16.002 C 4.384 16.002 4.575 15.811 4.575 15.576 L 4.575 10.038 C 4.575 9.803 4.384 9.612 4.149 9.612 Z  M 5.471 6.396 L 5.471 6.396 L 6.582 6.396 L 6.582 6.396 Q 6.724 6.396 6.787 6.333 L 6.787 6.333 L 6.787 6.333 Q 6.85 6.27 6.85 6.128 L 6.85 6.128 L 6.85 1.298 L 6.85 1.298 Q 6.85 1.156 6.787 1.093 L 6.787 1.093 L 6.787 1.093 Q 6.724 1.029 6.582 1.029 L 6.582 1.029 L 5.382 1.029 L 5.382 1.029 Q 5.263 1.029 5.184 1.082 L 5.184 1.082 L 5.184 1.082 Q 5.106 1.134 5.039 1.253 L 5.039 1.253 L 4.368 2.468 L 4.368 2.468 Q 4.331 2.535 4.305 2.565 L 4.305 2.565 L 4.305 2.565 Q 4.279 2.595 4.234 2.595 L 4.234 2.595 L 4.167 2.595 L 4.167 2.595 Q 4.122 2.595 4.096 2.565 L 4.096 2.565 L 4.096 2.565 Q 4.07 2.535 4.033 2.468 L 4.033 2.468 L 3.369 1.253 L 3.369 1.253 Q 3.302 1.134 3.224 1.082 L 3.224 1.082 L 3.224 1.082 Q 3.146 1.029 3.026 1.029 L 3.026 1.029 L 1.819 1.029 L 1.819 1.029 Q 1.677 1.029 1.614 1.093 L 1.614 1.093 L 1.614 1.093 Q 1.55 1.156 1.55 1.298 L 1.55 1.298 L 1.55 6.128 L 1.55 6.128 Q 1.55 6.27 1.614 6.333 L 1.614 6.333 L 1.614 6.333 Q 1.677 6.396 1.819 6.396 L 1.819 6.396 L 2.967 6.396 L 2.967 6.396 Q 3.108 6.396 3.172 6.333 L 3.172 6.333 L 3.172 6.333 Q 3.235 6.27 3.235 6.128 L 3.235 6.128 L 3.235 3.504 L 3.675 4.317 L 3.675 4.317 Q 3.742 4.443 3.835 4.499 L 3.835 4.499 L 3.835 4.499 Q 3.928 4.555 4.07 4.555 L 4.07 4.555 L 4.368 4.555 L 4.368 4.555 Q 4.51 4.555 4.603 4.499 L 4.603 4.499 L 4.603 4.499 Q 4.696 4.443 4.763 4.317 L 4.763 4.317 L 5.203 3.504 L 5.203 6.128 L 5.203 6.128 Q 5.203 6.27 5.266 6.333 L 5.266 6.333 L 5.266 6.333 Q 5.33 6.396 5.471 6.396 Z " fill-rule="evenodd" fill="rgb(0,0,0)"/></g></svg>