<?xml version="1.0" standalone="no"?><!-- Generator: Gravit.io --><svg xmlns="http://www.w3.org/2000/svg" xmlns:xlink="http://www.w3.org/1999/xlink" style="isolation:isolate" viewBox="0 0 16 16" width="16" height="16"><defs><clipPath id="_clipPath_cQVC3JKzXNcz3BsaytjBe5SYenQ8izs1"><rect width="16" height="16"/></clipPath></defs><g clip-path="url(#_clipPath_cQVC3JKzXNcz3BsaytjBe5SYenQ8izs1)"><path d=" M 8.041 13.059 C 8.053 12.924 7.999 12.787 7.885 12.698 L 5.25 10.645 C 5.07 10.505 4.811 10.537 4.671 10.717 L 4.476 10.968 C 4.336 11.147 4.368 11.406 4.548 11.546 L 5.838 12.551 L 0.617 12.576 C 0.301 12.578 0.047 12.835 0.048 13.15 L 0.048 13.15 C 0.05 13.466 0.307 13.72 0.622 13.719 L 5.843 13.694 L 4.563 14.711 C 4.385 14.853 4.355 15.112 4.497 15.291 L 4.694 15.539 C 4.836 15.718 5.095 15.747 5.273 15.606 L 7.888 13.527 C 8.002 13.437 8.055 13.3 8.041 13.165 C 8.043 13.148 8.044 13.13 8.044 13.112 L 8.044 13.112 C 8.044 13.094 8.043 13.076 8.041 13.059 Z  M 7.87 0 L 16.048 0 L 16.048 6.454 L 11.936 8.519 L 7.847 6.454 L 7.87 0 Z  M 11.948 9.612 L 11.948 9.612 C 12.183 9.612 12.374 9.803 12.374 10.038 L 12.374 15.576 C 12.374 15.811 12.183 16.002 11.948 16.002 L 11.948 16.002 C 11.713 16.002 11.522 15.811 11.522 15.576 L 11.522 10.038 C 11.522 9.803 11.713 9.612 11.948 9.612 Z  M 10.625 6.396 L 10.625 6.396 L 9.514 6.396 L 9.514 6.396 Q 9.373 6.396 9.31 6.333 L 9.31 6.333 L 9.31 6.333 Q 9.246 6.27 9.246 6.128 L 9.246 6.128 L 9.246 1.298 L 9.246 1.298 Q 9.246 1.156 9.31 1.093 L 9.31 1.093 L 9.31 1.093 Q 9.373 1.029 9.514 1.029 L 9.514 1.029 L 10.715 1.029 L 10.715 1.029 Q 10.834 1.029 10.912 1.082 L 10.912 1.082 L 10.912 1.082 Q 10.99 1.134 11.058 1.253 L 11.058 1.253 L 11.728 2.468 L 11.728 2.468 Q 11.766 2.535 11.792 2.565 L 11.792 2.565 L 11.792 2.565 Q 11.818 2.595 11.863 2.595 L 11.863 2.595 L 11.93 2.595 L 11.93 2.595 Q 11.974 2.595 12 2.565 L 12 2.565 L 12 2.565 Q 12.027 2.535 12.064 2.468 L 12.064 2.468 L 12.727 1.253 L 12.727 1.253 Q 12.794 1.134 12.873 1.082 L 12.873 1.082 L 12.873 1.082 Q 12.951 1.029 13.07 1.029 L 13.07 1.029 L 14.278 1.029 L 14.278 1.029 Q 14.419 1.029 14.483 1.093 L 14.483 1.093 L 14.483 1.093 Q 14.546 1.156 14.546 1.298 L 14.546 1.298 L 14.546 6.128 L 14.546 6.128 Q 14.546 6.27 14.483 6.333 L 14.483 6.333 L 14.483 6.333 Q 14.419 6.396 14.278 6.396 L 14.278 6.396 L 13.13 6.396 L 13.13 6.396 Q 12.988 6.396 12.925 6.333 L 12.925 6.333 L 12.925 6.333 Q 12.861 6.27 12.861 6.128 L 12.861 6.128 L 12.861 3.504 L 12.422 4.317 L 12.422 4.317 Q 12.355 4.443 12.261 4.499 L 12.261 4.499 L 12.261 4.499 Q 12.168 4.555 12.027 4.555 L 12.027 4.555 L 11.728 4.555 L 11.728 4.555 Q 11.587 4.555 11.494 4.499 L 11.494 4.499 L 11.494 4.499 Q 11.4 4.443 11.333 4.317 L 11.333 4.317 L 10.894 3.504 L 10.894 6.128 L 10.894 6.128 Q 10.894 6.27 10.83 6.333 L 10.83 6.333 L 10.83 6.333 Q 10.767 6.396 10.625 6.396 Z " fill-rule="evenodd" fill="rgb(0,0,0)"/></g></svg>