<?xml version="1.0" standalone="no"?><!-- Generator: Gravit.io --><svg xmlns="http://www.w3.org/2000/svg" xmlns:xlink="http://www.w3.org/1999/xlink" style="isolation:isolate" viewBox="0 0 16 16" width="16" height="16"><defs><clipPath id="_clipPath_XTtEInK0nxC6oebIbO9N0vZlwiNiS2V1"><rect width="16" height="16"/></clipPath></defs><g clip-path="url(#_clipPath_XTtEInK0nxC6oebIbO9N0vZlwiNiS2V1)"><rect width="16" height="16" style="fill:rgb(0,0,0)" fill-opacity="0"/><path d=" M 0.922 0 L 2.372 0 C 2.881 0 3.294 0.413 3.294 0.922 L 3.294 2.372 C 3.294 2.881 2.881 3.294 2.372 3.294 L 0.922 3.294 C 0.413 3.294 0 2.881 0 2.372 L 0 0.922 C 0 0.413 0.413 0 0.922 0 Z  M 0.922 4.235 L 2.372 4.235 C 2.881 4.235 3.294 4.649 3.294 5.158 L 3.294 6.607 C 3.294 7.116 2.881 7.529 2.372 7.529 L 0.922 7.529 C 0.413 7.529 0 7.116 0 6.607 L 0 5.158 C 0 4.649 0.413 4.235 0.922 4.235 Z  M 0.922 8.471 L 2.372 8.471 C 2.881 8.471 3.294 8.884 3.294 9.393 L 3.294 10.842 C 3.294 11.351 2.881 11.765 2.372 11.765 L 0.922 11.765 C 0.413 11.765 0 11.351 0 10.842 L 0 9.393 C 0 8.884 0.413 8.471 0.922 8.471 Z  M 0.922 12.706 L 2.372 12.706 C 2.881 12.706 3.294 13.119 3.294 13.628 L 3.294 15.078 C 3.294 15.587 2.881 16 2.372 16 L 0.922 16 C 0.413 16 0 15.587 0 15.078 L 0 13.628 C 0 13.119 0.413 12.706 0.922 12.706 Z  M 5.158 0 L 6.607 0 C 7.116 0 7.529 0.413 7.529 0.922 L 7.529 2.372 C 7.529 2.881 7.116 3.294 6.607 3.294 L 5.158 3.294 C 4.649 3.294 4.235 2.881 4.235 2.372 L 4.235 0.922 C 4.235 0.413 4.649 0 5.158 0 Z  M 5.158 4.235 L 6.607 4.235 C 7.116 4.235 7.529 4.649 7.529 5.158 L 7.529 6.607 C 7.529 7.116 7.116 7.529 6.607 7.529 L 5.158 7.529 C 4.649 7.529 4.235 7.116 4.235 6.607 L 4.235 5.158 C 4.235 4.649 4.649 4.235 5.158 4.235 Z  M 5.158 8.471 L 6.607 8.471 C 7.116 8.471 7.529 8.884 7.529 9.393 L 7.529 10.842 C 7.529 11.351 7.116 11.765 6.607 11.765 L 5.158 11.765 C 4.649 11.765 4.235 11.351 4.235 10.842 L 4.235 9.393 C 4.235 8.884 4.649 8.471 5.158 8.471 Z  M 5.158 12.706 L 6.607 12.706 C 7.116 12.706 7.529 13.119 7.529 13.628 L 7.529 15.078 C 7.529 15.587 7.116 16 6.607 16 L 5.158 16 C 4.649 16 4.235 15.587 4.235 15.078 L 4.235 13.628 C 4.235 13.119 4.649 12.706 5.158 12.706 Z  M 9.393 0 L 10.842 0 C 11.351 0 11.765 0.413 11.765 0.922 L 11.765 2.372 C 11.765 2.881 11.351 3.294 10.842 3.294 L 9.393 3.294 C 8.884 3.294 8.471 2.881 8.471 2.372 L 8.471 0.922 C 8.471 0.413 8.884 0 9.393 0 Z  M 9.393 4.235 L 10.842 4.235 C 11.351 4.235 11.765 4.649 11.765 5.158 L 11.765 6.607 C 11.765 7.116 11.351 7.529 10.842 7.529 L 9.393 7.529 C 8.884 7.529 8.471 7.116 8.471 6.607 L 8.471 5.158 C 8.471 4.649 8.884 4.235 9.393 4.235 Z  M 9.393 8.471 L 10.842 8.471 C 11.351 8.471 11.765 8.884 11.765 9.393 L 11.765 10.842 C 11.765 11.351 11.351 11.765 10.842 11.765 L 9.393 11.765 C 8.884 11.765 8.471 11.351 8.471 10.842 L 8.471 9.393 C 8.471 8.884 8.884 8.471 9.393 8.471 Z  M 9.393 12.706 L 10.842 12.706 C 11.351 12.706 11.765 13.119 11.765 13.628 L 11.765 15.078 C 11.765 15.587 11.351 16 10.842 16 L 9.393 16 C 8.884 16 8.471 15.587 8.471 15.078 L 8.471 13.628 C 8.471 13.119 8.884 12.706 9.393 12.706 Z  M 13.628 0 L 15.078 0 C 15.587 0 16 0.413 16 0.922 L 16 2.372 C 16 2.881 15.587 3.294 15.078 3.294 L 13.628 3.294 C 13.119 3.294 12.706 2.881 12.706 2.372 L 12.706 0.922 C 12.706 0.413 13.119 0 13.628 0 Z  M 13.628 4.235 L 15.078 4.235 C 15.587 4.235 16 4.649 16 5.158 L 16 6.607 C 16 7.116 15.587 7.529 15.078 7.529 L 13.628 7.529 C 13.119 7.529 12.706 7.116 12.706 6.607 L 12.706 5.158 C 12.706 4.649 13.119 4.235 13.628 4.235 Z  M 13.628 8.471 L 15.078 8.471 C 15.587 8.471 16 8.884 16 9.393 L 16 10.842 C 16 11.351 15.587 11.765 15.078 11.765 L 13.628 11.765 C 13.119 11.765 12.706 11.351 12.706 10.842 L 12.706 9.393 C 12.706 8.884 13.119 8.471 13.628 8.471 Z  M 13.628 12.706 L 15.078 12.706 C 15.587 12.706 16 13.119 16 13.628 L 16 15.078 C 16 15.587 15.587 16 15.078 16 L 13.628 16 C 13.119 16 12.706 15.587 12.706 15.078 L 12.706 13.628 C 12.706 13.119 13.119 12.706 13.628 12.706 Z " fill-rule="evenodd" fill="rgb(0,0,0)"/></g></svg>