<?xml version="1.0" standalone="no"?><!-- Generator: Gravit.io --><svg xmlns="http://www.w3.org/2000/svg" xmlns:xlink="http://www.w3.org/1999/xlink" style="isolation:isolate" viewBox="0 0 16 16" width="16" height="16"><defs><clipPath id="_clipPath_v591X5Hkla6k7BJTRTEvDwzb66XPqeoW"><rect width="16" height="16"/></clipPath></defs><g clip-path="url(#_clipPath_v591X5Hkla6k7BJTRTEvDwzb66XPqeoW)"><path d=" M 0 0 L 3.294 0 L 3.294 3.294 L 0 3.294 L 0 0 Z  M 0 4.235 L 3.294 4.235 L 3.294 7.529 L 0 7.529 L 0 4.235 Z  M 0 8.471 L 3.294 8.471 L 3.294 11.765 L 0 11.765 L 0 8.471 Z  M 0 12.706 L 3.294 12.706 L 3.294 16 L 0 16 L 0 12.706 Z  M 4.235 0 L 7.529 0 L 7.529 3.294 L 4.235 3.294 L 4.235 0 Z  M 4.235 4.235 L 7.529 4.235 L 7.529 7.529 L 4.235 7.529 L 4.235 4.235 Z  M 4.235 8.471 L 7.529 8.471 L 7.529 11.765 L 4.235 11.765 L 4.235 8.471 Z  M 4.235 12.706 L 7.529 12.706 L 7.529 16 L 4.235 16 L 4.235 12.706 Z  M 8.471 0 L 11.765 0 L 11.765 3.294 L 8.471 3.294 L 8.471 0 Z  M 8.471 4.235 L 11.765 4.235 L 11.765 7.529 L 8.471 7.529 L 8.471 4.235 Z  M 8.471 8.471 L 11.765 8.471 L 11.765 11.765 L 8.471 11.765 L 8.471 8.471 Z  M 8.471 12.706 L 11.765 12.706 L 11.765 16 L 8.471 16 L 8.471 12.706 Z  M 12.706 0 L 16 0 L 16 3.294 L 12.706 3.294 L 12.706 0 Z  M 12.706 4.235 L 16 4.235 L 16 7.529 L 12.706 7.529 L 12.706 4.235 Z  M 12.706 8.471 L 16 8.471 L 16 11.765 L 12.706 11.765 L 12.706 8.471 Z  M 12.706 12.706 L 16 12.706 L 16 16 L 12.706 16 L 12.706 12.706 Z " fill-rule="evenodd" fill="rgb(0,0,0)"/></g></svg>