<?xml version="1.0" standalone="no"?><!-- Generator: Gravit.io --><svg xmlns="http://www.w3.org/2000/svg" xmlns:xlink="http://www.w3.org/1999/xlink" style="isolation:isolate" viewBox="0 0 16 16" width="16" height="16"><defs><clipPath id="_clipPath_xYKxfAFqEOh7HDVfn8f8GCFHKx03XfkT"><rect width="16" height="16"/></clipPath></defs><g clip-path="url(#_clipPath_xYKxfAFqEOh7HDVfn8f8GCFHKx03XfkT)"><path d=" M 1.085 0.184 L 2.501 0.184 C 2.999 0.184 3.402 0.588 3.402 1.085 L 3.402 2.501 C 3.402 2.999 2.999 3.402 2.501 3.402 L 1.085 3.402 C 0.588 3.402 0.184 2.999 0.184 2.501 L 0.184 1.085 C 0.184 0.588 0.588 0.184 1.085 0.184 Z  M 0 2.501 L 0 1.085 C 0 0.797 0.114 0.521 0.318 0.318 C 0.521 0.114 0.797 0 1.085 0 L 2.501 0 C 2.789 0 3.065 0.114 3.269 0.318 C 3.472 0.521 3.586 0.797 3.586 1.085 L 3.586 2.501 C 3.586 2.789 3.472 3.065 3.269 3.269 C 3.065 3.472 2.789 3.586 2.501 3.586 L 1.085 3.586 C 0.797 3.586 0.521 3.472 0.318 3.269 C 0.114 3.065 0 2.789 0 2.501 Z  M 1.085 4.322 L 2.501 4.322 C 2.999 4.322 3.402 4.726 3.402 5.223 L 3.402 6.639 C 3.402 7.136 2.999 7.54 2.501 7.54 L 1.085 7.54 C 0.588 7.54 0.184 7.136 0.184 6.639 L 0.184 5.223 C 0.184 4.726 0.588 4.322 1.085 4.322 Z  M 0 6.639 L 0 5.223 C 0 4.935 0.114 4.659 0.318 4.456 C 0.521 4.252 0.797 4.138 1.085 4.138 L 2.501 4.138 C 2.789 4.138 3.065 4.252 3.269 4.456 C 3.472 4.659 3.586 4.935 3.586 5.223 L 3.586 6.639 C 3.586 6.927 3.472 7.203 3.269 7.406 C 3.065 7.61 2.789 7.724 2.501 7.724 L 1.085 7.724 C 0.797 7.724 0.521 7.61 0.318 7.406 C 0.114 7.203 0 6.927 0 6.639 Z  M 1.085 8.46 L 2.501 8.46 C 2.999 8.46 3.402 8.864 3.402 9.361 L 3.402 10.777 C 3.402 11.274 2.999 11.678 2.501 11.678 L 1.085 11.678 C 0.588 11.678 0.184 11.274 0.184 10.777 L 0.184 9.361 C 0.184 8.864 0.588 8.46 1.085 8.46 Z  M 0 10.777 L 0 9.361 C 0 9.073 0.114 8.797 0.318 8.594 C 0.521 8.39 0.797 8.276 1.085 8.276 L 2.501 8.276 C 2.789 8.276 3.065 8.39 3.269 8.594 C 3.472 8.797 3.586 9.073 3.586 9.361 L 3.586 10.777 C 3.586 11.065 3.472 11.341 3.269 11.544 C 3.065 11.748 2.789 11.862 2.501 11.862 L 1.085 11.862 C 0.797 11.862 0.521 11.748 0.318 11.544 C 0.114 11.341 0 11.065 0 10.777 Z  M 1.085 12.598 L 2.501 12.598 C 2.999 12.598 3.402 13.001 3.402 13.499 L 3.402 14.915 C 3.402 15.412 2.999 15.816 2.501 15.816 L 1.085 15.816 C 0.588 15.816 0.184 15.412 0.184 14.915 L 0.184 13.499 C 0.184 13.001 0.588 12.598 1.085 12.598 Z  M 0 14.915 L 0 13.499 C 0 13.211 0.114 12.935 0.318 12.731 C 0.521 12.528 0.797 12.414 1.085 12.414 L 2.501 12.414 C 2.789 12.414 3.065 12.528 3.269 12.731 C 3.472 12.935 3.586 13.211 3.586 13.499 L 3.586 14.915 C 3.586 15.203 3.472 15.479 3.269 15.682 C 3.065 15.886 2.789 16 2.501 16 L 1.085 16 C 0.797 16 0.521 15.886 0.318 15.682 C 0.114 15.479 0 15.203 0 14.915 Z  M 5.223 0.184 L 6.639 0.184 C 7.136 0.184 7.54 0.588 7.54 1.085 L 7.54 2.501 C 7.54 2.999 7.136 3.402 6.639 3.402 L 5.223 3.402 C 4.726 3.402 4.322 2.999 4.322 2.501 L 4.322 1.085 C 4.322 0.588 4.726 0.184 5.223 0.184 Z  M 5.223 0 L 6.639 0 C 6.927 0 7.203 0.114 7.406 0.318 C 7.61 0.521 7.724 0.797 7.724 1.085 L 7.724 2.501 C 7.724 2.789 7.61 3.065 7.406 3.269 C 7.203 3.472 6.927 3.586 6.639 3.586 L 5.223 3.586 C 4.935 3.586 4.659 3.472 4.456 3.269 C 4.252 3.065 4.138 2.789 4.138 2.501 L 4.138 1.085 C 4.138 0.797 4.252 0.521 4.456 0.318 C 4.659 0.114 4.935 0 5.223 0 Z  M 5.223 4.322 L 6.639 4.322 C 7.136 4.322 7.54 4.726 7.54 5.223 L 7.54 6.639 C 7.54 7.136 7.136 7.54 6.639 7.54 L 5.223 7.54 C 4.726 7.54 4.322 7.136 4.322 6.639 L 4.322 5.223 C 4.322 4.726 4.726 4.322 5.223 4.322 Z  M 5.223 4.138 L 6.639 4.138 C 6.927 4.138 7.203 4.252 7.406 4.456 C 7.61 4.659 7.724 4.935 7.724 5.223 L 7.724 6.639 C 7.724 6.927 7.61 7.203 7.406 7.406 C 7.203 7.61 6.927 7.724 6.639 7.724 L 5.223 7.724 C 4.935 7.724 4.659 7.61 4.456 7.406 C 4.252 7.203 4.138 6.927 4.138 6.639 L 4.138 5.223 C 4.138 4.935 4.252 4.659 4.456 4.456 C 4.659 4.252 4.935 4.138 5.223 4.138 Z  M 5.223 8.46 L 6.639 8.46 C 7.136 8.46 7.54 8.864 7.54 9.361 L 7.54 10.777 C 7.54 11.274 7.136 11.678 6.639 11.678 L 5.223 11.678 C 4.726 11.678 4.322 11.274 4.322 10.777 L 4.322 9.361 C 4.322 8.864 4.726 8.46 5.223 8.46 Z  M 5.223 8.276 L 6.639 8.276 C 6.927 8.276 7.203 8.39 7.406 8.594 C 7.61 8.797 7.724 9.073 7.724 9.361 L 7.724 10.777 C 7.724 11.065 7.61 11.341 7.406 11.544 C 7.203 11.748 6.927 11.862 6.639 11.862 L 5.223 11.862 C 4.935 11.862 4.659 11.748 4.456 11.544 C 4.252 11.341 4.138 11.065 4.138 10.777 L 4.138 9.361 C 4.138 9.073 4.252 8.797 4.456 8.594 C 4.659 8.39 4.935 8.276 5.223 8.276 Z  M 5.223 12.598 L 6.639 12.598 C 7.136 12.598 7.54 13.001 7.54 13.499 L 7.54 14.915 C 7.54 15.412 7.136 15.816 6.639 15.816 L 5.223 15.816 C 4.726 15.816 4.322 15.412 4.322 14.915 L 4.322 13.499 C 4.322 13.001 4.726 12.598 5.223 12.598 Z  M 5.223 12.414 L 6.639 12.414 C 6.927 12.414 7.203 12.528 7.406 12.731 C 7.61 12.935 7.724 13.211 7.724 13.499 L 7.724 14.915 C 7.724 15.203 7.61 15.479 7.406 15.682 C 7.203 15.886 6.927 16 6.639 16 L 5.223 16 C 4.935 16 4.659 15.886 4.456 15.682 C 4.252 15.479 4.138 15.203 4.138 14.915 L 4.138 13.499 C 4.138 13.211 4.252 12.935 4.456 12.731 C 4.659 12.528 4.935 12.414 5.223 12.414 Z  M 9.361 0.184 L 10.777 0.184 C 11.274 0.184 11.678 0.588 11.678 1.085 L 11.678 2.501 C 11.678 2.999 11.274 3.402 10.777 3.402 L 9.361 3.402 C 8.864 3.402 8.46 2.999 8.46 2.501 L 8.46 1.085 C 8.46 0.588 8.864 0.184 9.361 0.184 Z  M 9.361 0 L 10.777 0 C 11.065 0 11.341 0.114 11.544 0.318 C 11.748 0.521 11.862 0.797 11.862 1.085 L 11.862 2.501 C 11.862 2.789 11.748 3.065 11.544 3.269 C 11.341 3.472 11.065 3.586 10.777 3.586 L 9.361 3.586 C 9.073 3.586 8.797 3.472 8.594 3.269 C 8.39 3.065 8.276 2.789 8.276 2.501 L 8.276 1.085 C 8.276 0.797 8.39 0.521 8.594 0.318 C 8.797 0.114 9.073 0 9.361 0 Z  M 9.361 4.322 L 10.777 4.322 C 11.274 4.322 11.678 4.726 11.678 5.223 L 11.678 6.639 C 11.678 7.136 11.274 7.54 10.777 7.54 L 9.361 7.54 C 8.864 7.54 8.46 7.136 8.46 6.639 L 8.46 5.223 C 8.46 4.726 8.864 4.322 9.361 4.322 Z  M 9.361 4.138 L 10.777 4.138 C 11.065 4.138 11.341 4.252 11.544 4.456 C 11.748 4.659 11.862 4.935 11.862 5.223 L 11.862 6.639 C 11.862 6.927 11.748 7.203 11.544 7.406 C 11.341 7.61 11.065 7.724 10.777 7.724 L 9.361 7.724 C 9.073 7.724 8.797 7.61 8.594 7.406 C 8.39 7.203 8.276 6.927 8.276 6.639 L 8.276 5.223 C 8.276 4.935 8.39 4.659 8.594 4.456 C 8.797 4.252 9.073 4.138 9.361 4.138 Z  M 9.361 8.46 L 10.777 8.46 C 11.274 8.46 11.678 8.864 11.678 9.361 L 11.678 10.777 C 11.678 11.274 11.274 11.678 10.777 11.678 L 9.361 11.678 C 8.864 11.678 8.46 11.274 8.46 10.777 L 8.46 9.361 C 8.46 8.864 8.864 8.46 9.361 8.46 Z  M 9.361 8.276 L 10.777 8.276 C 11.065 8.276 11.341 8.39 11.544 8.594 C 11.748 8.797 11.862 9.073 11.862 9.361 L 11.862 10.777 C 11.862 11.065 11.748 11.341 11.544 11.544 C 11.341 11.748 11.065 11.862 10.777 11.862 L 9.361 11.862 C 9.073 11.862 8.797 11.748 8.594 11.544 C 8.39 11.341 8.276 11.065 8.276 10.777 L 8.276 9.361 C 8.276 9.073 8.39 8.797 8.594 8.594 C 8.797 8.39 9.073 8.276 9.361 8.276 Z  M 9.361 12.598 L 10.777 12.598 C 11.274 12.598 11.678 13.001 11.678 13.499 L 11.678 14.915 C 11.678 15.412 11.274 15.816 10.777 15.816 L 9.361 15.816 C 8.864 15.816 8.46 15.412 8.46 14.915 L 8.46 13.499 C 8.46 13.001 8.864 12.598 9.361 12.598 Z  M 9.361 12.414 L 10.777 12.414 C 11.065 12.414 11.341 12.528 11.544 12.731 C 11.748 12.935 11.862 13.211 11.862 13.499 L 11.862 14.915 C 11.862 15.203 11.748 15.479 11.544 15.682 C 11.341 15.886 11.065 16 10.777 16 L 9.361 16 C 9.073 16 8.797 15.886 8.594 15.682 C 8.39 15.479 8.276 15.203 8.276 14.915 L 8.276 13.499 C 8.276 13.211 8.39 12.935 8.594 12.731 C 8.797 12.528 9.073 12.414 9.361 12.414 Z  M 13.499 0.184 L 14.915 0.184 C 15.412 0.184 15.816 0.588 15.816 1.085 L 15.816 2.501 C 15.816 2.999 15.412 3.402 14.915 3.402 L 13.499 3.402 C 13.001 3.402 12.598 2.999 12.598 2.501 L 12.598 1.085 C 12.598 0.588 13.001 0.184 13.499 0.184 Z  M 13.499 0 L 14.915 0 C 15.203 0 15.479 0.114 15.682 0.318 C 15.886 0.521 16 0.797 16 1.085 L 16 2.501 C 16 2.789 15.886 3.065 15.682 3.269 C 15.479 3.472 15.203 3.586 14.915 3.586 L 13.499 3.586 C 13.211 3.586 12.935 3.472 12.731 3.269 C 12.528 3.065 12.414 2.789 12.414 2.501 L 12.414 1.085 C 12.414 0.797 12.528 0.521 12.731 0.318 C 12.935 0.114 13.211 0 13.499 0 Z  M 13.499 4.322 L 14.915 4.322 C 15.412 4.322 15.816 4.726 15.816 5.223 L 15.816 6.639 C 15.816 7.136 15.412 7.54 14.915 7.54 L 13.499 7.54 C 13.001 7.54 12.598 7.136 12.598 6.639 L 12.598 5.223 C 12.598 4.726 13.001 4.322 13.499 4.322 Z  M 13.499 4.138 L 14.915 4.138 C 15.203 4.138 15.479 4.252 15.682 4.456 C 15.886 4.659 16 4.935 16 5.223 L 16 6.639 C 16 6.927 15.886 7.203 15.682 7.406 C 15.479 7.61 15.203 7.724 14.915 7.724 L 13.499 7.724 C 13.211 7.724 12.935 7.61 12.731 7.406 C 12.528 7.203 12.414 6.927 12.414 6.639 L 12.414 5.223 C 12.414 4.935 12.528 4.659 12.731 4.456 C 12.935 4.252 13.211 4.138 13.499 4.138 Z  M 13.499 8.46 L 14.915 8.46 C 15.412 8.46 15.816 8.864 15.816 9.361 L 15.816 10.777 C 15.816 11.274 15.412 11.678 14.915 11.678 L 13.499 11.678 C 13.001 11.678 12.598 11.274 12.598 10.777 L 12.598 9.361 C 12.598 8.864 13.001 8.46 13.499 8.46 Z  M 13.499 8.276 L 14.915 8.276 C 15.203 8.276 15.479 8.39 15.682 8.594 C 15.886 8.797 16 9.073 16 9.361 L 16 10.777 C 16 11.065 15.886 11.341 15.682 11.544 C 15.479 11.748 15.203 11.862 14.915 11.862 L 13.499 11.862 C 13.211 11.862 12.935 11.748 12.731 11.544 C 12.528 11.341 12.414 11.065 12.414 10.777 L 12.414 9.361 C 12.414 9.073 12.528 8.797 12.731 8.594 C 12.935 8.39 13.211 8.276 13.499 8.276 Z  M 13.499 12.598 L 14.915 12.598 C 15.412 12.598 15.816 13.001 15.816 13.499 L 15.816 14.915 C 15.816 15.412 15.412 15.816 14.915 15.816 L 13.499 15.816 C 13.001 15.816 12.598 15.412 12.598 14.915 L 12.598 13.499 C 12.598 13.001 13.001 12.598 13.499 12.598 Z  M 13.499 12.414 L 14.915 12.414 C 15.203 12.414 15.479 12.528 15.682 12.731 C 15.886 12.935 16 13.211 16 13.499 L 16 14.915 C 16 15.203 15.886 15.479 15.682 15.682 C 15.479 15.886 15.203 16 14.915 16 L 13.499 16 C 13.211 16 12.935 15.886 12.731 15.682 C 12.528 15.479 12.414 15.203 12.414 14.915 L 12.414 13.499 C 12.414 13.211 12.528 12.935 12.731 12.731 C 12.935 12.528 13.211 12.414 13.499 12.414 Z " fill-rule="evenodd" fill="rgb(0,0,0)"/></g></svg>