<?xml version="1.0" standalone="no"?><!-- Generator: Gravit.io --><svg xmlns="http://www.w3.org/2000/svg" xmlns:xlink="http://www.w3.org/1999/xlink" style="isolation:isolate" viewBox="0 0 16 16" width="16" height="16"><defs><clipPath id="_clipPath_Ykx29k4YJrTcpUJ2orEQn0AnbGr0Qkc3"><rect width="16" height="16"/></clipPath></defs><g clip-path="url(#_clipPath_Ykx29k4YJrTcpUJ2orEQn0AnbGr0Qkc3)"><path d=" M 1.793 0.184 L 1.793 0.184 C 2.681 0.184 3.402 0.905 3.402 1.793 L 3.402 1.793 C 3.402 2.681 2.681 3.402 1.793 3.402 L 1.793 3.402 C 0.905 3.402 0.184 2.681 0.184 1.793 L 0.184 1.793 C 0.184 0.905 0.905 0.184 1.793 0.184 Z  M 1.793 0 C 2.269 0 2.725 0.189 3.061 0.525 C 3.397 0.861 3.586 1.318 3.586 1.793 C 3.586 2.269 3.397 2.725 3.061 3.061 C 2.725 3.397 2.269 3.586 1.793 3.586 C 1.318 3.586 0.861 3.397 0.525 3.061 C 0.189 2.725 0 2.269 0 1.793 C 0 1.318 0.189 0.861 0.525 0.525 C 0.861 0.189 1.318 0 1.793 0 Z  M 1.793 4.322 L 1.793 4.322 C 2.681 4.322 3.402 5.043 3.402 5.931 L 3.402 5.931 C 3.402 6.819 2.681 7.54 1.793 7.54 L 1.793 7.54 C 0.905 7.54 0.184 6.819 0.184 5.931 L 0.184 5.931 C 0.184 5.043 0.905 4.322 1.793 4.322 Z  M 1.793 4.138 C 2.269 4.138 2.725 4.327 3.061 4.663 C 3.397 4.999 3.586 5.456 3.586 5.931 C 3.586 6.406 3.397 6.863 3.061 7.199 C 2.725 7.535 2.269 7.724 1.793 7.724 C 1.318 7.724 0.861 7.535 0.525 7.199 C 0.189 6.863 0 6.406 0 5.931 C 0 5.456 0.189 4.999 0.525 4.663 C 0.861 4.327 1.318 4.138 1.793 4.138 Z  M 1.793 8.46 L 1.793 8.46 C 2.681 8.46 3.402 9.181 3.402 10.069 L 3.402 10.069 C 3.402 10.957 2.681 11.678 1.793 11.678 L 1.793 11.678 C 0.905 11.678 0.184 10.957 0.184 10.069 L 0.184 10.069 C 0.184 9.181 0.905 8.46 1.793 8.46 Z  M 1.793 8.276 C 2.269 8.276 2.725 8.465 3.061 8.801 C 3.397 9.137 3.586 9.594 3.586 10.069 C 3.586 10.544 3.397 11.001 3.061 11.337 C 2.725 11.673 2.269 11.862 1.793 11.862 C 1.318 11.862 0.861 11.673 0.525 11.337 C 0.189 11.001 0 10.544 0 10.069 C 0 9.594 0.189 9.137 0.525 8.801 C 0.861 8.465 1.318 8.276 1.793 8.276 Z  M 1.793 12.598 L 1.793 12.598 C 2.681 12.598 3.402 13.319 3.402 14.207 L 3.402 14.207 C 3.402 15.095 2.681 15.816 1.793 15.816 L 1.793 15.816 C 0.905 15.816 0.184 15.095 0.184 14.207 L 0.184 14.207 C 0.184 13.319 0.905 12.598 1.793 12.598 Z  M 1.793 12.414 C 2.269 12.414 2.725 12.603 3.061 12.939 C 3.397 13.275 3.586 13.731 3.586 14.207 C 3.586 14.682 3.397 15.139 3.061 15.475 C 2.725 15.811 2.269 16 1.793 16 C 1.318 16 0.861 15.811 0.525 15.475 C 0.189 15.139 0 14.682 0 14.207 C 0 13.731 0.189 13.275 0.525 12.939 C 0.861 12.603 1.318 12.414 1.793 12.414 Z  M 5.931 0.184 L 5.931 0.184 C 6.819 0.184 7.54 0.905 7.54 1.793 L 7.54 1.793 C 7.54 2.681 6.819 3.402 5.931 3.402 L 5.931 3.402 C 5.043 3.402 4.322 2.681 4.322 1.793 L 4.322 1.793 C 4.322 0.905 5.043 0.184 5.931 0.184 Z  M 5.931 0 C 6.406 0 6.863 0.189 7.199 0.525 C 7.535 0.861 7.724 1.318 7.724 1.793 C 7.724 2.269 7.535 2.725 7.199 3.061 C 6.863 3.397 6.406 3.586 5.931 3.586 C 5.456 3.586 4.999 3.397 4.663 3.061 C 4.327 2.725 4.138 2.269 4.138 1.793 C 4.138 1.318 4.327 0.861 4.663 0.525 C 4.999 0.189 5.456 0 5.931 0 Z  M 5.931 4.322 L 5.931 4.322 C 6.819 4.322 7.54 5.043 7.54 5.931 L 7.54 5.931 C 7.54 6.819 6.819 7.54 5.931 7.54 L 5.931 7.54 C 5.043 7.54 4.322 6.819 4.322 5.931 L 4.322 5.931 C 4.322 5.043 5.043 4.322 5.931 4.322 Z  M 5.931 4.138 C 6.406 4.138 6.863 4.327 7.199 4.663 C 7.535 4.999 7.724 5.456 7.724 5.931 C 7.724 6.406 7.535 6.863 7.199 7.199 C 6.863 7.535 6.406 7.724 5.931 7.724 C 5.456 7.724 4.999 7.535 4.663 7.199 C 4.327 6.863 4.138 6.406 4.138 5.931 C 4.138 5.456 4.327 4.999 4.663 4.663 C 4.999 4.327 5.456 4.138 5.931 4.138 Z  M 5.931 8.46 L 5.931 8.46 C 6.819 8.46 7.54 9.181 7.54 10.069 L 7.54 10.069 C 7.54 10.957 6.819 11.678 5.931 11.678 L 5.931 11.678 C 5.043 11.678 4.322 10.957 4.322 10.069 L 4.322 10.069 C 4.322 9.181 5.043 8.46 5.931 8.46 Z  M 5.931 8.276 C 6.406 8.276 6.863 8.465 7.199 8.801 C 7.535 9.137 7.724 9.594 7.724 10.069 C 7.724 10.544 7.535 11.001 7.199 11.337 C 6.863 11.673 6.406 11.862 5.931 11.862 C 5.456 11.862 4.999 11.673 4.663 11.337 C 4.327 11.001 4.138 10.544 4.138 10.069 C 4.138 9.594 4.327 9.137 4.663 8.801 C 4.999 8.465 5.456 8.276 5.931 8.276 Z  M 5.931 12.598 L 5.931 12.598 C 6.819 12.598 7.54 13.319 7.54 14.207 L 7.54 14.207 C 7.54 15.095 6.819 15.816 5.931 15.816 L 5.931 15.816 C 5.043 15.816 4.322 15.095 4.322 14.207 L 4.322 14.207 C 4.322 13.319 5.043 12.598 5.931 12.598 Z  M 5.931 12.414 C 6.406 12.414 6.863 12.603 7.199 12.939 C 7.535 13.275 7.724 13.731 7.724 14.207 C 7.724 14.682 7.535 15.139 7.199 15.475 C 6.863 15.811 6.406 16 5.931 16 C 5.456 16 4.999 15.811 4.663 15.475 C 4.327 15.139 4.138 14.682 4.138 14.207 C 4.138 13.731 4.327 13.275 4.663 12.939 C 4.999 12.603 5.456 12.414 5.931 12.414 Z  M 10.069 0.184 L 10.069 0.184 C 10.957 0.184 11.678 0.905 11.678 1.793 L 11.678 1.793 C 11.678 2.681 10.957 3.402 10.069 3.402 L 10.069 3.402 C 9.181 3.402 8.46 2.681 8.46 1.793 L 8.46 1.793 C 8.46 0.905 9.181 0.184 10.069 0.184 Z  M 10.069 0 C 10.544 0 11.001 0.189 11.337 0.525 C 11.673 0.861 11.862 1.318 11.862 1.793 C 11.862 2.269 11.673 2.725 11.337 3.061 C 11.001 3.397 10.544 3.586 10.069 3.586 C 9.594 3.586 9.137 3.397 8.801 3.061 C 8.465 2.725 8.276 2.269 8.276 1.793 C 8.276 1.318 8.465 0.861 8.801 0.525 C 9.137 0.189 9.594 0 10.069 0 Z  M 10.069 4.322 L 10.069 4.322 C 10.957 4.322 11.678 5.043 11.678 5.931 L 11.678 5.931 C 11.678 6.819 10.957 7.54 10.069 7.54 L 10.069 7.54 C 9.181 7.54 8.46 6.819 8.46 5.931 L 8.46 5.931 C 8.46 5.043 9.181 4.322 10.069 4.322 Z  M 10.069 4.138 C 10.544 4.138 11.001 4.327 11.337 4.663 C 11.673 4.999 11.862 5.456 11.862 5.931 C 11.862 6.406 11.673 6.863 11.337 7.199 C 11.001 7.535 10.544 7.724 10.069 7.724 C 9.594 7.724 9.137 7.535 8.801 7.199 C 8.465 6.863 8.276 6.406 8.276 5.931 C 8.276 5.456 8.465 4.999 8.801 4.663 C 9.137 4.327 9.594 4.138 10.069 4.138 Z  M 10.069 8.46 L 10.069 8.46 C 10.957 8.46 11.678 9.181 11.678 10.069 L 11.678 10.069 C 11.678 10.957 10.957 11.678 10.069 11.678 L 10.069 11.678 C 9.181 11.678 8.46 10.957 8.46 10.069 L 8.46 10.069 C 8.46 9.181 9.181 8.46 10.069 8.46 Z  M 10.069 8.276 C 10.544 8.276 11.001 8.465 11.337 8.801 C 11.673 9.137 11.862 9.594 11.862 10.069 C 11.862 10.544 11.673 11.001 11.337 11.337 C 11.001 11.673 10.544 11.862 10.069 11.862 C 9.594 11.862 9.137 11.673 8.801 11.337 C 8.465 11.001 8.276 10.544 8.276 10.069 C 8.276 9.594 8.465 9.137 8.801 8.801 C 9.137 8.465 9.594 8.276 10.069 8.276 Z  M 10.069 12.598 L 10.069 12.598 C 10.957 12.598 11.678 13.319 11.678 14.207 L 11.678 14.207 C 11.678 15.095 10.957 15.816 10.069 15.816 L 10.069 15.816 C 9.181 15.816 8.46 15.095 8.46 14.207 L 8.46 14.207 C 8.46 13.319 9.181 12.598 10.069 12.598 Z  M 10.069 12.414 C 10.544 12.414 11.001 12.603 11.337 12.939 C 11.673 13.275 11.862 13.731 11.862 14.207 C 11.862 14.682 11.673 15.139 11.337 15.475 C 11.001 15.811 10.544 16 10.069 16 C 9.594 16 9.137 15.811 8.801 15.475 C 8.465 15.139 8.276 14.682 8.276 14.207 C 8.276 13.731 8.465 13.275 8.801 12.939 C 9.137 12.603 9.594 12.414 10.069 12.414 Z  M 14.207 0.184 L 14.207 0.184 C 15.095 0.184 15.816 0.905 15.816 1.793 L 15.816 1.793 C 15.816 2.681 15.095 3.402 14.207 3.402 L 14.207 3.402 C 13.319 3.402 12.598 2.681 12.598 1.793 L 12.598 1.793 C 12.598 0.905 13.319 0.184 14.207 0.184 Z  M 14.207 0 C 14.682 0 15.139 0.189 15.475 0.525 C 15.811 0.861 16 1.318 16 1.793 C 16 2.269 15.811 2.725 15.475 3.061 C 15.139 3.397 14.682 3.586 14.207 3.586 C 13.731 3.586 13.275 3.397 12.939 3.061 C 12.603 2.725 12.414 2.269 12.414 1.793 C 12.414 1.318 12.603 0.861 12.939 0.525 C 13.275 0.189 13.731 0 14.207 0 Z  M 14.207 4.322 L 14.207 4.322 C 15.095 4.322 15.816 5.043 15.816 5.931 L 15.816 5.931 C 15.816 6.819 15.095 7.54 14.207 7.54 L 14.207 7.54 C 13.319 7.54 12.598 6.819 12.598 5.931 L 12.598 5.931 C 12.598 5.043 13.319 4.322 14.207 4.322 Z  M 14.207 4.138 C 14.682 4.138 15.139 4.327 15.475 4.663 C 15.811 4.999 16 5.456 16 5.931 C 16 6.406 15.811 6.863 15.475 7.199 C 15.139 7.535 14.682 7.724 14.207 7.724 C 13.731 7.724 13.275 7.535 12.939 7.199 C 12.603 6.863 12.414 6.406 12.414 5.931 C 12.414 5.456 12.603 4.999 12.939 4.663 C 13.275 4.327 13.731 4.138 14.207 4.138 Z  M 14.207 8.46 L 14.207 8.46 C 15.095 8.46 15.816 9.181 15.816 10.069 L 15.816 10.069 C 15.816 10.957 15.095 11.678 14.207 11.678 L 14.207 11.678 C 13.319 11.678 12.598 10.957 12.598 10.069 L 12.598 10.069 C 12.598 9.181 13.319 8.46 14.207 8.46 Z  M 14.207 8.276 C 14.682 8.276 15.139 8.465 15.475 8.801 C 15.811 9.137 16 9.594 16 10.069 C 16 10.544 15.811 11.001 15.475 11.337 C 15.139 11.673 14.682 11.862 14.207 11.862 C 13.731 11.862 13.275 11.673 12.939 11.337 C 12.603 11.001 12.414 10.544 12.414 10.069 C 12.414 9.594 12.603 9.137 12.939 8.801 C 13.275 8.465 13.731 8.276 14.207 8.276 Z  M 14.207 12.598 L 14.207 12.598 C 15.095 12.598 15.816 13.319 15.816 14.207 L 15.816 14.207 C 15.816 15.095 15.095 15.816 14.207 15.816 L 14.207 15.816 C 13.319 15.816 12.598 15.095 12.598 14.207 L 12.598 14.207 C 12.598 13.319 13.319 12.598 14.207 12.598 Z  M 14.207 12.414 C 14.682 12.414 15.139 12.603 15.475 12.939 C 15.811 13.275 16 13.731 16 14.207 C 16 14.682 15.811 15.139 15.475 15.475 C 15.139 15.811 14.682 16 14.207 16 C 13.731 16 13.275 15.811 12.939 15.475 C 12.603 15.139 12.414 14.682 12.414 14.207 C 12.414 13.731 12.603 13.275 12.939 12.939 C 13.275 12.603 13.731 12.414 14.207 12.414 Z " fill-rule="evenodd" fill="rgb(0,0,0)"/></g></svg>