<?xml version="1.0" standalone="no"?><!-- Generator: Gravit.io --><svg xmlns="http://www.w3.org/2000/svg" xmlns:xlink="http://www.w3.org/1999/xlink" style="isolation:isolate" viewBox="0 0 16 16" width="16" height="16"><defs><clipPath id="_clipPath_9ALJh3DwDwgzP4lJqBOYmuohYj31FN1R"><rect width="16" height="16"/></clipPath></defs><g clip-path="url(#_clipPath_9ALJh3DwDwgzP4lJqBOYmuohYj31FN1R)"><path d=" M 1.647 0 L 1.647 0 C 2.556 0 3.294 0.738 3.294 1.647 L 3.294 1.647 C 3.294 2.556 2.556 3.294 1.647 3.294 L 1.647 3.294 C 0.738 3.294 0 2.556 0 1.647 L 0 1.647 C 0 0.738 0.738 0 1.647 0 Z  M 1.647 4.235 L 1.647 4.235 C 2.556 4.235 3.294 4.973 3.294 5.882 L 3.294 5.882 C 3.294 6.791 2.556 7.529 1.647 7.529 L 1.647 7.529 C 0.738 7.529 0 6.791 0 5.882 L 0 5.882 C 0 4.973 0.738 4.235 1.647 4.235 Z  M 1.647 8.471 L 1.647 8.471 C 2.556 8.471 3.294 9.209 3.294 10.118 L 3.294 10.118 C 3.294 11.027 2.556 11.765 1.647 11.765 L 1.647 11.765 C 0.738 11.765 0 11.027 0 10.118 L 0 10.118 C 0 9.209 0.738 8.471 1.647 8.471 Z  M 1.647 12.706 L 1.647 12.706 C 2.556 12.706 3.294 13.444 3.294 14.353 L 3.294 14.353 C 3.294 15.262 2.556 16 1.647 16 L 1.647 16 C 0.738 16 0 15.262 0 14.353 L 0 14.353 C 0 13.444 0.738 12.706 1.647 12.706 Z  M 5.882 0 L 5.882 0 C 6.791 0 7.529 0.738 7.529 1.647 L 7.529 1.647 C 7.529 2.556 6.791 3.294 5.882 3.294 L 5.882 3.294 C 4.973 3.294 4.235 2.556 4.235 1.647 L 4.235 1.647 C 4.235 0.738 4.973 0 5.882 0 Z  M 5.882 4.235 L 5.882 4.235 C 6.791 4.235 7.529 4.973 7.529 5.882 L 7.529 5.882 C 7.529 6.791 6.791 7.529 5.882 7.529 L 5.882 7.529 C 4.973 7.529 4.235 6.791 4.235 5.882 L 4.235 5.882 C 4.235 4.973 4.973 4.235 5.882 4.235 Z  M 5.882 8.471 L 5.882 8.471 C 6.791 8.471 7.529 9.209 7.529 10.118 L 7.529 10.118 C 7.529 11.027 6.791 11.765 5.882 11.765 L 5.882 11.765 C 4.973 11.765 4.235 11.027 4.235 10.118 L 4.235 10.118 C 4.235 9.209 4.973 8.471 5.882 8.471 Z  M 5.882 12.706 L 5.882 12.706 C 6.791 12.706 7.529 13.444 7.529 14.353 L 7.529 14.353 C 7.529 15.262 6.791 16 5.882 16 L 5.882 16 C 4.973 16 4.235 15.262 4.235 14.353 L 4.235 14.353 C 4.235 13.444 4.973 12.706 5.882 12.706 Z  M 10.118 0 L 10.118 0 C 11.027 0 11.765 0.738 11.765 1.647 L 11.765 1.647 C 11.765 2.556 11.027 3.294 10.118 3.294 L 10.118 3.294 C 9.209 3.294 8.471 2.556 8.471 1.647 L 8.471 1.647 C 8.471 0.738 9.209 0 10.118 0 Z  M 10.118 4.235 L 10.118 4.235 C 11.027 4.235 11.765 4.973 11.765 5.882 L 11.765 5.882 C 11.765 6.791 11.027 7.529 10.118 7.529 L 10.118 7.529 C 9.209 7.529 8.471 6.791 8.471 5.882 L 8.471 5.882 C 8.471 4.973 9.209 4.235 10.118 4.235 Z  M 10.118 8.471 L 10.118 8.471 C 11.027 8.471 11.765 9.209 11.765 10.118 L 11.765 10.118 C 11.765 11.027 11.027 11.765 10.118 11.765 L 10.118 11.765 C 9.209 11.765 8.471 11.027 8.471 10.118 L 8.471 10.118 C 8.471 9.209 9.209 8.471 10.118 8.471 Z  M 10.118 12.706 L 10.118 12.706 C 11.027 12.706 11.765 13.444 11.765 14.353 L 11.765 14.353 C 11.765 15.262 11.027 16 10.118 16 L 10.118 16 C 9.209 16 8.471 15.262 8.471 14.353 L 8.471 14.353 C 8.471 13.444 9.209 12.706 10.118 12.706 Z  M 14.353 0 L 14.353 0 C 15.262 0 16 0.738 16 1.647 L 16 1.647 C 16 2.556 15.262 3.294 14.353 3.294 L 14.353 3.294 C 13.444 3.294 12.706 2.556 12.706 1.647 L 12.706 1.647 C 12.706 0.738 13.444 0 14.353 0 Z  M 14.353 4.235 L 14.353 4.235 C 15.262 4.235 16 4.973 16 5.882 L 16 5.882 C 16 6.791 15.262 7.529 14.353 7.529 L 14.353 7.529 C 13.444 7.529 12.706 6.791 12.706 5.882 L 12.706 5.882 C 12.706 4.973 13.444 4.235 14.353 4.235 Z  M 14.353 8.471 L 14.353 8.471 C 15.262 8.471 16 9.209 16 10.118 L 16 10.118 C 16 11.027 15.262 11.765 14.353 11.765 L 14.353 11.765 C 13.444 11.765 12.706 11.027 12.706 10.118 L 12.706 10.118 C 12.706 9.209 13.444 8.471 14.353 8.471 Z  M 14.353 12.706 L 14.353 12.706 C 15.262 12.706 16 13.444 16 14.353 L 16 14.353 C 16 15.262 15.262 16 14.353 16 L 14.353 16 C 13.444 16 12.706 15.262 12.706 14.353 L 12.706 14.353 C 12.706 13.444 13.444 12.706 14.353 12.706 Z " fill-rule="evenodd" fill="rgb(0,0,0)"/></g></svg>