<?xml version="1.0" standalone="no"?><!-- Generator: Gravit.io --><svg xmlns="http://www.w3.org/2000/svg" xmlns:xlink="http://www.w3.org/1999/xlink" style="isolation:isolate" viewBox="0 0 16 16" width="16" height="16"><defs><clipPath id="_clipPath_DEZPHbb5JhEMZPUnPrHRETyAwk49J2Pc"><rect width="16" height="16"/></clipPath></defs><g clip-path="url(#_clipPath_DEZPHbb5JhEMZPUnPrHRETyAwk49J2Pc)"><path d=" M 2.441 3.465 C 2.672 3.376 2.883 3.239 3.061 3.061 C 3.397 2.725 3.586 2.269 3.586 1.793 C 3.586 1.318 3.397 0.861 3.061 0.525 C 2.725 0.189 2.269 0 1.793 0 L 1.793 0 C 1.318 0 0.861 0.189 0.525 0.525 C 0.189 0.861 0 1.318 0 1.793 C 0 2.269 0.189 2.725 0.525 3.061 C 0.861 3.397 1.318 3.586 1.793 3.586 C 1.8 3.586 1.806 3.586 1.813 3.586 C 1.856 3.773 1.9 3.959 1.946 4.145 C 1.895 4.14 1.844 4.138 1.793 4.138 L 1.793 4.138 C 1.318 4.138 0.861 4.327 0.525 4.663 C 0.189 4.999 0 5.456 0 5.931 C 0 6.406 0.189 6.863 0.525 7.199 C 0.861 7.535 1.318 7.724 1.793 7.724 C 2.222 7.724 2.635 7.57 2.959 7.294 C 3.032 7.463 3.109 7.63 3.19 7.795 C 3.264 7.946 3.343 8.094 3.427 8.241 C 3.452 8.285 3.477 8.329 3.503 8.372 C 3.528 8.414 3.554 8.455 3.579 8.496 C 3.666 8.635 3.758 8.769 3.855 8.9 C 3.939 9.012 4.028 9.12 4.122 9.223 C 4.149 9.254 4.178 9.284 4.207 9.314 C 4.229 9.337 4.252 9.36 4.275 9.382 C 4.185 9.598 4.138 9.831 4.138 10.069 C 4.138 10.544 4.327 11.001 4.663 11.337 C 4.999 11.673 5.456 11.862 5.931 11.862 C 6.406 11.862 6.863 11.673 7.199 11.337 C 7.535 11.001 7.724 10.544 7.724 10.069 C 7.724 9.86 7.688 9.655 7.618 9.463 C 7.852 9.291 8.072 9.102 8.277 8.897 C 8.558 8.617 8.823 8.322 9.072 8.014 C 9.184 7.876 9.293 7.736 9.399 7.594 C 9.61 7.679 9.837 7.724 10.069 7.724 C 10.544 7.724 11.001 7.535 11.337 7.199 C 11.673 6.863 11.862 6.406 11.862 5.931 C 11.862 5.456 11.673 4.999 11.337 4.663 C 11.001 4.327 10.544 4.138 10.069 4.138 L 10.069 4.138 C 9.594 4.138 9.137 4.327 8.801 4.663 C 8.465 4.999 8.276 5.456 8.276 5.931 C 8.276 6.406 8.465 6.863 8.801 7.199 C 8.819 7.217 8.837 7.234 8.856 7.251 C 8.764 7.373 8.67 7.493 8.574 7.612 C 8.34 7.902 8.09 8.18 7.825 8.444 C 7.659 8.609 7.482 8.763 7.295 8.905 C 7.265 8.869 7.233 8.834 7.199 8.801 C 6.863 8.465 6.406 8.276 5.931 8.276 L 5.931 8.276 C 5.456 8.276 4.999 8.465 4.663 8.801 C 4.653 8.811 4.642 8.822 4.632 8.833 C 4.62 8.819 4.607 8.806 4.595 8.793 C 4.515 8.705 4.439 8.612 4.368 8.517 C 4.281 8.4 4.199 8.28 4.122 8.156 C 4.098 8.119 4.075 8.082 4.053 8.044 C 4.029 8.004 4.005 7.964 3.983 7.924 C 3.906 7.789 3.833 7.652 3.764 7.512 C 3.683 7.347 3.606 7.178 3.533 7.008 C 3.49 6.909 3.449 6.808 3.409 6.708 C 3.525 6.468 3.586 6.202 3.586 5.931 C 3.586 5.456 3.397 4.999 3.061 4.663 C 2.942 4.543 2.807 4.442 2.661 4.362 C 2.659 4.355 2.657 4.348 2.656 4.341 C 2.58 4.05 2.509 3.758 2.441 3.465 Z  M 1.993 4.334 C 1.928 4.326 1.861 4.322 1.793 4.322 L 1.793 4.322 L 1.793 4.322 C 0.905 4.322 0.184 5.043 0.184 5.931 L 0.184 5.931 C 0.184 6.819 0.905 7.54 1.793 7.54 L 1.793 7.54 C 2.213 7.54 2.596 7.379 2.883 7.114 C 2.832 6.991 2.783 6.867 2.735 6.742 C 2.66 6.542 2.588 6.341 2.519 6.139 C 2.47 5.994 2.423 5.848 2.377 5.702 C 2.327 5.541 2.279 5.38 2.232 5.219 C 2.199 5.104 2.166 4.988 2.135 4.872 C 2.101 4.749 2.068 4.625 2.036 4.501 C 2.022 4.446 2.007 4.39 1.993 4.334 Z  M 2.73 4.623 C 3.137 4.915 3.402 5.392 3.402 5.931 L 3.402 5.931 C 3.402 6.116 3.371 6.294 3.313 6.46 C 3.248 6.286 3.185 6.11 3.125 5.934 C 3.078 5.794 3.032 5.653 2.988 5.511 C 2.94 5.355 2.892 5.199 2.847 5.042 C 2.815 4.929 2.783 4.816 2.752 4.703 C 2.745 4.677 2.737 4.65 2.73 4.623 Z  M 7.145 9.013 C 6.85 8.674 6.415 8.46 5.931 8.46 L 5.931 8.46 L 5.931 8.46 C 5.471 8.46 5.056 8.653 4.762 8.963 C 4.785 8.985 4.809 9.006 4.833 9.028 C 4.863 9.054 4.894 9.08 4.926 9.105 C 5.013 9.174 5.106 9.236 5.203 9.29 C 5.284 9.335 5.37 9.373 5.458 9.403 C 5.54 9.431 5.624 9.451 5.709 9.463 C 5.794 9.475 5.88 9.479 5.966 9.476 C 6.052 9.472 6.138 9.461 6.222 9.443 C 6.321 9.422 6.418 9.393 6.512 9.357 C 6.626 9.314 6.736 9.262 6.843 9.203 C 6.947 9.144 7.048 9.081 7.145 9.013 Z  M 7.462 9.572 C 7.513 9.729 7.54 9.896 7.54 10.069 L 7.54 10.069 C 7.54 10.957 6.819 11.678 5.931 11.678 L 5.931 11.678 C 5.043 11.678 4.322 10.957 4.322 10.069 L 4.322 10.069 C 4.322 9.875 4.356 9.688 4.42 9.516 C 4.455 9.547 4.491 9.577 4.528 9.607 C 4.643 9.697 4.764 9.778 4.891 9.849 C 5.007 9.914 5.128 9.967 5.253 10.01 C 5.372 10.05 5.494 10.079 5.619 10.096 C 5.743 10.114 5.868 10.12 5.994 10.115 C 6.116 10.11 6.237 10.094 6.357 10.068 C 6.487 10.041 6.615 10.003 6.739 9.956 C 6.883 9.901 7.022 9.836 7.156 9.761 C 7.26 9.702 7.362 9.639 7.462 9.572 Z  M 1.793 0.184 L 1.793 0.184 C 2.681 0.184 3.402 0.905 3.402 1.793 L 3.402 1.793 C 3.402 2.681 2.681 3.402 1.793 3.402 L 1.793 3.402 C 1.786 3.402 1.779 3.402 1.772 3.402 C 0.893 3.391 0.184 2.674 0.184 1.793 L 0.184 1.793 C 0.184 0.905 0.905 0.184 1.793 0.184 L 1.793 0.184 Z  M 10.069 4.322 L 10.069 4.322 C 10.957 4.322 11.678 5.043 11.678 5.931 L 11.678 5.931 C 11.678 6.819 10.957 7.54 10.069 7.54 L 10.069 7.54 C 9.873 7.54 9.685 7.505 9.512 7.441 C 8.898 7.214 8.46 6.623 8.46 5.931 L 8.46 5.931 C 8.46 5.043 9.181 4.322 10.069 4.322 L 10.069 4.322 Z  M 1.793 0.184 L 1.793 0.184 C 2.681 0.184 3.402 0.905 3.402 1.793 L 3.402 1.793 C 3.402 2.466 2.988 3.043 2.401 3.283 C 2.213 3.36 2.008 3.402 1.793 3.402 L 1.793 3.402 C 1.786 3.402 1.779 3.402 1.772 3.402 C 0.893 3.391 0.184 2.674 0.184 1.793 L 0.184 1.793 C 0.184 0.905 0.905 0.184 1.793 0.184 L 1.793 0.184 Z  M 1.793 8.46 L 1.793 8.46 C 2.681 8.46 3.402 9.181 3.402 10.069 L 3.402 10.069 C 3.402 10.957 2.681 11.678 1.793 11.678 L 1.793 11.678 C 0.905 11.678 0.184 10.957 0.184 10.069 L 0.184 10.069 C 0.184 9.181 0.905 8.46 1.793 8.46 L 1.793 8.46 Z  M 14.207 12.598 L 14.207 12.598 C 15.095 12.598 15.816 13.319 15.816 14.207 L 15.816 14.207 C 15.816 15.095 15.095 15.816 14.207 15.816 L 14.207 15.816 C 13.319 15.816 12.598 15.095 12.598 14.207 L 12.598 14.207 C 12.598 13.319 13.319 12.598 14.207 12.598 L 14.207 12.598 Z  M 1.793 12.598 L 1.793 12.598 C 2.681 12.598 3.402 13.319 3.402 14.207 L 3.402 14.207 C 3.402 15.095 2.681 15.816 1.793 15.816 L 1.793 15.816 C 0.905 15.816 0.184 15.095 0.184 14.207 L 0.184 14.207 C 0.184 13.319 0.905 12.598 1.793 12.598 L 1.793 12.598 Z  M 14.207 8.46 L 14.207 8.46 C 15.095 8.46 15.816 9.181 15.816 10.069 L 15.816 10.069 C 15.816 10.957 15.095 11.678 14.207 11.678 L 14.207 11.678 C 13.319 11.678 12.598 10.957 12.598 10.069 L 12.598 10.069 C 12.598 9.181 13.319 8.46 14.207 8.46 L 14.207 8.46 Z  M 5.931 0.184 L 5.931 0.184 C 6.819 0.184 7.54 0.905 7.54 1.793 L 7.54 1.793 C 7.54 2.681 6.819 3.402 5.931 3.402 L 5.931 3.402 C 5.043 3.402 4.322 2.681 4.322 1.793 L 4.322 1.793 C 4.322 0.905 5.043 0.184 5.931 0.184 L 5.931 0.184 Z  M 14.207 4.322 L 14.207 4.322 C 15.095 4.322 15.816 5.043 15.816 5.931 L 15.816 5.931 C 15.816 6.819 15.095 7.54 14.207 7.54 L 14.207 7.54 C 13.319 7.54 12.598 6.819 12.598 5.931 L 12.598 5.931 C 12.598 5.043 13.319 4.322 14.207 4.322 L 14.207 4.322 Z  M 5.931 4.322 L 5.931 4.322 C 6.819 4.322 7.54 5.043 7.54 5.931 L 7.54 5.931 C 7.54 6.819 6.819 7.54 5.931 7.54 L 5.931 7.54 C 5.043 7.54 4.322 6.819 4.322 5.931 L 4.322 5.931 C 4.322 5.043 5.043 4.322 5.931 4.322 L 5.931 4.322 Z  M 14.207 0.184 L 14.207 0.184 C 15.095 0.184 15.816 0.905 15.816 1.793 L 15.816 1.793 C 15.816 2.681 15.095 3.402 14.207 3.402 L 14.207 3.402 C 13.319 3.402 12.598 2.681 12.598 1.793 L 12.598 1.793 C 12.598 0.905 13.319 0.184 14.207 0.184 L 14.207 0.184 Z  M 10.069 12.598 L 10.069 12.598 C 10.957 12.598 11.678 13.319 11.678 14.207 L 11.678 14.207 C 11.678 15.095 10.957 15.816 10.069 15.816 L 10.069 15.816 C 9.181 15.816 8.46 15.095 8.46 14.207 L 8.46 14.207 C 8.46 13.319 9.181 12.598 10.069 12.598 L 10.069 12.598 Z  M 5.931 12.598 L 5.931 12.598 C 6.819 12.598 7.54 13.319 7.54 14.207 L 7.54 14.207 C 7.54 15.095 6.819 15.816 5.931 15.816 L 5.931 15.816 C 5.043 15.816 4.322 15.095 4.322 14.207 L 4.322 14.207 C 4.322 13.319 5.043 12.598 5.931 12.598 L 5.931 12.598 Z  M 10.069 8.46 L 10.069 8.46 C 10.957 8.46 11.678 9.181 11.678 10.069 L 11.678 10.069 C 11.678 10.957 10.957 11.678 10.069 11.678 L 10.069 11.678 C 9.181 11.678 8.46 10.957 8.46 10.069 L 8.46 10.069 C 8.46 9.181 9.181 8.46 10.069 8.46 L 10.069 8.46 Z  M 10.069 0.184 L 10.069 0.184 C 10.957 0.184 11.678 0.905 11.678 1.793 L 11.678 1.793 C 11.678 2.681 10.957 3.402 10.069 3.402 L 10.069 3.402 C 9.181 3.402 8.46 2.681 8.46 1.793 L 8.46 1.793 C 8.46 0.905 9.181 0.184 10.069 0.184 L 10.069 0.184 Z  M 10.069 4.322 L 10.069 4.322 C 10.957 4.322 11.678 5.043 11.678 5.931 L 11.678 5.931 C 11.678 6.819 10.957 7.54 10.069 7.54 L 10.069 7.54 C 9.642 7.54 9.255 7.374 8.966 7.103 C 8.655 6.809 8.46 6.393 8.46 5.931 L 8.46 5.931 C 8.46 5.043 9.181 4.322 10.069 4.322 L 10.069 4.322 Z  M 5.931 0 C 6.406 0 6.863 0.189 7.199 0.525 C 7.535 0.861 7.724 1.318 7.724 1.793 C 7.724 2.269 7.535 2.725 7.199 3.061 C 6.863 3.397 6.406 3.586 5.931 3.586 C 5.456 3.586 4.999 3.397 4.663 3.061 C 4.327 2.725 4.138 2.269 4.138 1.793 C 4.138 1.318 4.327 0.861 4.663 0.525 C 4.999 0.189 5.456 0 5.931 0 L 5.931 0 Z  M 10.069 0 C 10.544 0 11.001 0.189 11.337 0.525 C 11.673 0.861 11.862 1.318 11.862 1.793 C 11.862 2.269 11.673 2.725 11.337 3.061 C 11.001 3.397 10.544 3.586 10.069 3.586 C 9.594 3.586 9.137 3.397 8.801 3.061 C 8.465 2.725 8.276 2.269 8.276 1.793 C 8.276 1.318 8.465 0.861 8.801 0.525 C 9.137 0.189 9.594 0 10.069 0 L 10.069 0 Z  M 5.931 12.414 C 6.406 12.414 6.863 12.603 7.199 12.939 C 7.535 13.275 7.724 13.731 7.724 14.207 C 7.724 14.682 7.535 15.139 7.199 15.475 C 6.863 15.811 6.406 16 5.931 16 C 5.456 16 4.999 15.811 4.663 15.475 C 4.327 15.139 4.138 14.682 4.138 14.207 C 4.138 13.731 4.327 13.275 4.663 12.939 C 4.999 12.603 5.456 12.414 5.931 12.414 L 5.931 12.414 Z  M 10.069 8.276 C 10.544 8.276 11.001 8.465 11.337 8.801 C 11.673 9.137 11.862 9.594 11.862 10.069 C 11.862 10.544 11.673 11.001 11.337 11.337 C 11.001 11.673 10.544 11.862 10.069 11.862 C 9.594 11.862 9.137 11.673 8.801 11.337 C 8.465 11.001 8.276 10.544 8.276 10.069 C 8.276 9.594 8.465 9.137 8.801 8.801 C 9.137 8.465 9.594 8.276 10.069 8.276 L 10.069 8.276 Z  M 10.069 12.414 C 10.544 12.414 11.001 12.603 11.337 12.939 C 11.673 13.275 11.862 13.731 11.862 14.207 C 11.862 14.682 11.673 15.139 11.337 15.475 C 11.001 15.811 10.544 16 10.069 16 C 9.594 16 9.137 15.811 8.801 15.475 C 8.465 15.139 8.276 14.682 8.276 14.207 C 8.276 13.731 8.465 13.275 8.801 12.939 C 9.137 12.603 9.594 12.414 10.069 12.414 L 10.069 12.414 Z  M 5.931 4.138 C 6.406 4.138 6.863 4.327 7.199 4.663 C 7.535 4.999 7.724 5.456 7.724 5.931 C 7.724 6.406 7.535 6.863 7.199 7.199 C 6.863 7.535 6.406 7.724 5.931 7.724 C 5.456 7.724 4.999 7.535 4.663 7.199 C 4.327 6.863 4.138 6.406 4.138 5.931 C 4.138 5.456 4.327 4.999 4.663 4.663 C 4.999 4.327 5.456 4.138 5.931 4.138 L 5.931 4.138 Z  M 14.207 0 C 14.682 0 15.139 0.189 15.475 0.525 C 15.811 0.861 16 1.318 16 1.793 C 16 2.269 15.811 2.725 15.475 3.061 C 15.139 3.397 14.682 3.586 14.207 3.586 C 13.731 3.586 13.275 3.397 12.939 3.061 C 12.603 2.725 12.414 2.269 12.414 1.793 C 12.414 1.318 12.603 0.861 12.939 0.525 C 13.275 0.189 13.731 0 14.207 0 L 14.207 0 Z  M 14.207 4.138 C 14.682 4.138 15.139 4.327 15.475 4.663 C 15.811 4.999 16 5.456 16 5.931 C 16 6.406 15.811 6.863 15.475 7.199 C 15.139 7.535 14.682 7.724 14.207 7.724 C 13.731 7.724 13.275 7.535 12.939 7.199 C 12.603 6.863 12.414 6.406 12.414 5.931 C 12.414 5.456 12.603 4.999 12.939 4.663 C 13.275 4.327 13.731 4.138 14.207 4.138 L 14.207 4.138 Z  M 1.793 12.414 C 2.269 12.414 2.725 12.603 3.061 12.939 C 3.397 13.275 3.586 13.731 3.586 14.207 C 3.586 14.682 3.397 15.139 3.061 15.475 C 2.725 15.811 2.269 16 1.793 16 C 1.318 16 0.861 15.811 0.525 15.475 C 0.189 15.139 0 14.682 0 14.207 C 0 13.731 0.189 13.275 0.525 12.939 C 0.861 12.603 1.318 12.414 1.793 12.414 L 1.793 12.414 Z  M 14.207 8.276 C 14.682 8.276 15.139 8.465 15.475 8.801 C 15.811 9.137 16 9.594 16 10.069 C 16 10.544 15.811 11.001 15.475 11.337 C 15.139 11.673 14.682 11.862 14.207 11.862 C 13.731 11.862 13.275 11.673 12.939 11.337 C 12.603 11.001 12.414 10.544 12.414 10.069 C 12.414 9.594 12.603 9.137 12.939 8.801 C 13.275 8.465 13.731 8.276 14.207 8.276 L 14.207 8.276 Z  M 1.793 8.276 C 2.269 8.276 2.725 8.465 3.061 8.801 C 3.397 9.137 3.586 9.594 3.586 10.069 C 3.586 10.544 3.397 11.001 3.061 11.337 C 2.725 11.673 2.269 11.862 1.793 11.862 C 1.318 11.862 0.861 11.673 0.525 11.337 C 0.189 11.001 0 10.544 0 10.069 C 0 9.594 0.189 9.137 0.525 8.801 C 0.861 8.465 1.318 8.276 1.793 8.276 L 1.793 8.276 Z  M 14.207 12.414 C 14.682 12.414 15.139 12.603 15.475 12.939 C 15.811 13.275 16 13.731 16 14.207 C 16 14.682 15.811 15.139 15.475 15.475 C 15.139 15.811 14.682 16 14.207 16 C 13.731 16 13.275 15.811 12.939 15.475 C 12.603 15.139 12.414 14.682 12.414 14.207 C 12.414 13.731 12.603 13.275 12.939 12.939 C 13.275 12.603 13.731 12.414 14.207 12.414 L 14.207 12.414 Z " fill-rule="evenodd" fill="rgb(0,0,0)"/></g></svg>