<?xml version="1.0" standalone="no"?><!-- Generator: Gravit.io --><svg xmlns="http://www.w3.org/2000/svg" xmlns:xlink="http://www.w3.org/1999/xlink" style="isolation:isolate" viewBox="0 0 16 16" width="16" height="16"><defs><clipPath id="_clipPath_CEDI8DGaBJvxXieWvfYXoRDt5fKG8NPV"><rect width="16" height="16"/></clipPath></defs><g clip-path="url(#_clipPath_CEDI8DGaBJvxXieWvfYXoRDt5fKG8NPV)"><path d=" M 4.904 0.179 C 4.879 0.167 4.853 0.157 4.825 0.149 C 4.701 0.113 4.568 0.129 4.455 0.191 C 4.343 0.254 4.259 0.359 4.224 0.483 L 4.224 0.483 L 0.018 15.202 C 0.004 15.252 -0.002 15.305 0.001 15.356 C 0 15.365 0 15.374 0 15.383 C 0 15.512 0.051 15.636 0.142 15.727 C 0.233 15.819 0.357 15.87 0.486 15.87 L 14.784 15.87 C 14.913 15.87 15.037 15.819 15.128 15.727 C 15.219 15.636 15.271 15.512 15.271 15.383 C 15.271 15.374 15.27 15.365 15.27 15.356 L 15.27 15.356 C 15.272 15.305 15.266 15.252 15.252 15.202 L 11.046 0.483 C 11.011 0.359 10.928 0.254 10.815 0.191 C 10.702 0.129 10.569 0.113 10.445 0.149 C 10.418 0.157 10.392 0.167 10.366 0.179 L 4.904 0.179 Z  M 5.045 1.152 L 1.117 14.897 L 14.153 14.897 L 10.226 1.152 L 5.045 1.152 Z  M 14.487 3.805 L 8.626 11.38 L 11.526 11.38 C 11.655 11.38 11.779 11.431 11.87 11.523 C 11.961 11.613 12.012 11.737 12.012 11.866 C 12.012 11.995 11.961 12.119 11.87 12.21 C 11.779 12.302 11.655 12.353 11.526 12.353 L 7.644 12.353 C 7.638 12.353 7.632 12.353 7.626 12.353 L 3.745 12.353 C 3.616 12.353 3.492 12.302 3.401 12.21 C 3.309 12.119 3.258 11.995 3.258 11.866 C 3.258 11.737 3.309 11.613 3.401 11.523 C 3.492 11.431 3.616 11.38 3.745 11.38 L 7.149 11.38 L 7.149 3.599 C 7.149 3.47 7.2 3.346 7.291 3.255 C 7.382 3.164 7.506 3.113 7.635 3.113 C 7.764 3.113 7.888 3.164 7.979 3.255 C 8.071 3.346 8.122 3.47 8.122 3.599 L 8.122 10.443 L 13.718 3.21 C 13.623 3.037 13.568 2.838 13.568 2.626 C 13.568 1.955 14.113 1.41 14.784 1.41 C 15.455 1.41 16 1.955 16 2.626 C 16 3.297 15.455 3.842 14.784 3.842 C 14.682 3.842 14.582 3.829 14.487 3.805 Z " fill-rule="evenodd" fill="rgb(0,0,0)"/></g></svg>