<?xml version="1.0" standalone="no"?><!-- Generator: Gravit.io --><svg xmlns="http://www.w3.org/2000/svg" xmlns:xlink="http://www.w3.org/1999/xlink" style="isolation:isolate" viewBox="0 0 16 16" width="16" height="16"><defs><clipPath id="_clipPath_C0cB2JSm57gwRbqYWfmE2BVanjgcbnEd"><rect width="16" height="16"/></clipPath></defs><g clip-path="url(#_clipPath_C0cB2JSm57gwRbqYWfmE2BVanjgcbnEd)"><path d=" M 11.563 10.69 L 13.333 16 L 2.667 16 L 7.272 2.185 L 7.272 2.185 L 7.992 0.023 L 8 0 L 11.119 9.357 L 8.667 9.357 L 8.667 9.357 L 8.667 8.769 L 8.667 8.769 C 8.871 8.585 9 8.319 9 8.023 C 9 7.472 8.552 7.023 8 7.023 C 7.448 7.023 7 7.472 7 8.023 C 7 8.319 7.129 8.585 7.333 8.769 L 7.333 9.357 L 6.667 9.357 L 6.667 10.69 L 7.333 10.69 L 7.782 10.69 L 7.782 10.69 C 7.805 10.807 7.832 10.922 7.862 11.037 C 7.912 11.263 7.998 11.49 8.109 11.69 C 8.171 11.823 8.27 11.943 8.369 12.05 C 8.468 12.143 8.566 12.223 8.69 12.263 C 8.801 12.317 8.925 12.33 9.048 12.33 C 9.172 12.317 9.307 12.29 9.419 12.25 C 9.616 12.197 9.789 12.103 9.95 11.97 C 10.16 11.797 10.345 11.583 10.493 11.343 C 10.617 11.17 10.715 10.983 10.802 10.783 C 10.818 10.753 10.834 10.722 10.849 10.69 L 11.563 10.69 Z  M 5.333 0.023 Q 6.584 1.529 7.272 2.185 Q 7.804 2.692 8 2.69 Q 8.449 2.686 10.667 0.023 L 7.992 0.023 L 5.333 0.023 L 5.333 0.023 Z  M 10.152 10.69 C 10.101 10.788 10.046 10.882 9.987 10.97 C 9.876 11.157 9.727 11.317 9.567 11.45 C 9.48 11.53 9.369 11.583 9.246 11.61 C 9.172 11.637 9.097 11.663 9.023 11.663 C 8.974 11.663 8.937 11.65 8.9 11.637 C 8.863 11.623 8.826 11.597 8.801 11.57 C 8.739 11.503 8.678 11.437 8.64 11.357 C 8.554 11.21 8.492 11.037 8.455 10.877 C 8.442 10.815 8.429 10.753 8.417 10.69 L 8.667 10.69 L 10.152 10.69 L 10.152 10.69 L 10.152 10.69 Z " fill-rule="evenodd" fill="rgb(0,0,0)"/></g></svg>