<?xml version="1.0" standalone="no"?><!-- Generator: Gravit.io --><svg xmlns="http://www.w3.org/2000/svg" xmlns:xlink="http://www.w3.org/1999/xlink" style="isolation:isolate" viewBox="0 0 16 16" width="16" height="16"><defs><clipPath id="_clipPath_Q1dHxPSrxaWtP56dRggZmm7tgCyuJoTv"><rect width="16" height="16"/></clipPath></defs><g clip-path="url(#_clipPath_Q1dHxPSrxaWtP56dRggZmm7tgCyuJoTv)"><path d=" M 0.297 13.648 L 8.437 4.686 C 8.637 5.338 8.993 5.953 9.508 6.47 C 10.101 7.064 10.824 7.445 11.585 7.621 L 2.347 15.702 C 1.852 16.124 1.116 16.094 0.656 15.634 L 0.366 15.342 C -0.094 14.882 -0.124 14.144 0.297 13.648 Z  M 7.978 4.02 C 7.978 1.801 9.775 0 11.989 0 C 14.203 0 16 1.801 16 4.02 C 16 6.239 14.203 8.04 11.989 8.04 C 9.775 8.04 7.978 6.239 7.978 4.02 Z " fill-rule="evenodd" fill="rgb(0,0,0)"/></g></svg>