<?xml version="1.0" standalone="no"?><!-- Generator: Gravit.io --><svg xmlns="http://www.w3.org/2000/svg" xmlns:xlink="http://www.w3.org/1999/xlink" style="isolation:isolate" viewBox="0 0 16 16" width="16" height="16"><defs><clipPath id="_clipPath_CLGXVl3Gp6m0lTWvyeC1OjgbLWnm7qoB"><rect width="16" height="16"/></clipPath></defs><g clip-path="url(#_clipPath_CLGXVl3Gp6m0lTWvyeC1OjgbLWnm7qoB)"><path d=" M 6.457 10.618 L 6.488 10.68 C 6.519 10.744 6.597 10.77 6.661 10.738 L 6.877 10.632 C 6.852 10.771 6.764 10.897 6.628 10.964 L 6.765 11.242 C 6.774 11.241 6.783 11.24 6.792 11.24 C 7.094 11.236 7.35 11.788 7.383 12.492 L 7.684 13.102 C 7.797 13.329 8.072 13.422 8.299 13.31 L 8.591 13.165 C 8.818 13.053 8.911 12.778 8.799 12.551 L 8.789 12.53 C 8.702 12.521 8.613 12.454 8.562 12.351 C 8.511 12.248 8.512 12.136 8.558 12.062 L 8.533 12.012 C 8.447 12.003 8.357 11.936 8.306 11.833 C 8.255 11.73 8.256 11.618 8.302 11.544 L 8.284 11.508 C 8.188 11.516 8.08 11.446 8.022 11.329 C 7.975 11.234 7.973 11.133 8.007 11.059 C 7.902 11.098 7.768 11.025 7.701 10.889 C 7.63 10.746 7.66 10.587 7.768 10.534 C 7.778 10.529 7.787 10.526 7.797 10.523 L 7.743 10.413 C 7.607 10.481 7.454 10.474 7.328 10.409 L 7.544 10.303 C 7.608 10.271 7.634 10.193 7.603 10.129 L 7.572 10.067 L 7.572 10.067 L 14.441 6.673 L 12.644 3.035 L 12.642 3.032 L 12.642 3.032 L 1.537 8.518 L 1.537 8.518 L 1.539 8.522 L 3.336 12.16 L 6.457 10.618 Z  M 12.686 3.01 L 12.936 2.886 C 14.022 2.35 15.307 2.73 15.804 3.735 L 15.804 3.735 C 16.3 4.74 15.821 5.991 14.735 6.528 L 14.485 6.652 L 12.687 3.014 L 12.686 3.01 L 12.686 3.01 Z  M 1.494 8.54 L 1.265 8.653 C 0.179 9.189 -0.3 10.441 0.196 11.446 L 0.196 11.446 C 0.693 12.451 1.978 12.831 3.064 12.294 L 3.293 12.181 L 1.495 8.543 L 1.494 8.54 L 1.494 8.54 L 1.494 8.54 Z " fill-rule="evenodd" fill="rgb(0,0,0)"/></g></svg>