<?xml version="1.0" standalone="no"?><!-- Generator: Gravit.io --><svg xmlns="http://www.w3.org/2000/svg" xmlns:xlink="http://www.w3.org/1999/xlink" style="isolation:isolate" viewBox="0 1.6 16 12.8" width="16" height="12.8"><path d=" M 12.8 1.6 L 14.4 4 L 12 4 L 10.4 1.6 L 8.8 1.6 L 10.4 4 L 8 4 L 6.4 1.6 L 4.8 1.6 L 6.4 4 L 4 4 L 2.4 1.6 L 1.6 1.6 C 0.72 1.6 0.008 2.32 0.008 3.2 L 0 12.8 C 0 13.68 0.72 14.4 1.6 14.4 L 14.4 14.4 C 15.28 14.4 16 13.68 16 12.8 L 16 1.6 L 12.8 1.6 Z  M 7.4 10.6 L 6.4 12.8 L 5.4 10.6 L 3.2 9.6 L 5.4 8.6 L 6.4 6.4 L 7.4 8.6 L 9.6 9.6 L 7.4 10.6 Z  M 11.952 7.952 L 11.2 9.6 L 10.448 7.952 L 8.8 7.2 L 10.448 6.448 L 11.2 4.8 L 11.952 6.448 L 13.6 7.2 L 11.952 7.952 Z " fill="rgb(0,0,0)"/></svg>