<?xml version="1.0" standalone="no"?><!-- Generator: Gravit.io --><svg xmlns="http://www.w3.org/2000/svg" xmlns:xlink="http://www.w3.org/1999/xlink" style="isolation:isolate" viewBox="0 0 16 16" width="16" height="16"><defs><clipPath id="_clipPath_v9sqWvhp05iqQJXflPAy3ymRWGt5t8L0"><rect width="16" height="16"/></clipPath></defs><g clip-path="url(#_clipPath_v9sqWvhp05iqQJXflPAy3ymRWGt5t8L0)"><path d=" M 12.829 0.088 L 6.262 3.302 C 6.161 3.352 6.09 3.437 6.055 3.536 C 6.026 3.598 6.009 3.667 6.009 3.74 L 6.009 11.899 C 5.637 11.631 5.181 11.473 4.689 11.473 C 3.439 11.473 2.425 12.487 2.425 13.737 C 2.425 14.986 3.439 16 4.689 16 C 5.938 16 6.952 14.986 6.952 13.737 C 6.952 13.715 6.952 13.693 6.951 13.671 C 6.952 13.662 6.952 13.652 6.952 13.642 L 6.952 4.015 L 12.632 1.235 L 12.632 8.63 C 12.26 8.362 11.804 8.205 11.311 8.205 C 10.062 8.205 9.048 9.219 9.048 10.468 C 9.048 11.717 10.062 12.731 11.311 12.731 C 12.561 12.731 13.575 11.717 13.575 10.468 C 13.575 10.446 13.574 10.424 13.574 10.402 C 13.574 10.393 13.575 10.383 13.575 10.374 L 13.575 0.472 C 13.575 0.225 13.385 0.022 13.144 0.002 C 13.142 0.002 13.141 0.001 13.139 0.002 C 13.127 0 13.115 0 13.103 0 L 13.103 0 C 13.103 0 13.103 0 13.102 0 C 13.101 0 13.1 0 13.099 0 C 13.087 0 13.075 0.001 13.063 0.002 C 13.062 0.002 13.06 0.002 13.059 0.002 C 12.974 0.01 12.895 0.041 12.829 0.088 Z " fill="rgb(0,0,0)"/></g></svg>