<?xml version="1.0" standalone="no"?><!-- Generator: Gravit.io --><svg xmlns="http://www.w3.org/2000/svg" xmlns:xlink="http://www.w3.org/1999/xlink" style="isolation:isolate" viewBox="0 0 16 16" width="16" height="16"><defs><clipPath id="_clipPath_yliQdtYPJs76EwoZnzDKh34hjXZHB1D3"><rect width="16" height="16"/></clipPath></defs><g clip-path="url(#_clipPath_yliQdtYPJs76EwoZnzDKh34hjXZHB1D3)"><path d=" M 7.948 10.26 C 7.577 9.993 7.122 9.835 6.629 9.835 C 5.382 9.835 4.37 10.847 4.37 12.094 C 4.37 13.341 5.382 14.353 6.629 14.353 C 7.877 14.353 8.889 13.341 8.889 12.094 C 8.889 12.072 8.889 12.05 8.888 12.029 C 8.889 12.019 8.889 12.01 8.889 12 L 8.889 2.118 C 8.889 1.858 8.678 1.647 8.417 1.647 L 8.417 1.647 C 8.158 1.647 7.948 1.858 7.948 2.118 L 7.948 10.26 Z  M 9.63 13.147 C 9.63 12.595 10.078 12.147 10.63 12.147 C 11.181 12.147 11.63 12.595 11.63 13.147 C 11.63 13.699 11.181 14.147 10.63 14.147 C 10.078 14.147 9.63 13.699 9.63 13.147 Z " fill-rule="evenodd" fill="rgb(0,0,0)"/></g></svg>