<?xml version="1.0" standalone="no"?><!-- Generator: Gravit.io --><svg xmlns="http://www.w3.org/2000/svg" xmlns:xlink="http://www.w3.org/1999/xlink" style="isolation:isolate" viewBox="0 0 16 16" width="16" height="16"><defs><clipPath id="_clipPath_Oiv68kEg1wuPqDbks9xELJ1sV2iOWm6W"><rect width="16" height="16"/></clipPath></defs><g clip-path="url(#_clipPath_Oiv68kEg1wuPqDbks9xELJ1sV2iOWm6W)"><path d=" M 6.024 11.907 C 5.653 11.64 5.197 11.482 4.706 11.482 C 3.459 11.482 2.447 12.494 2.447 13.741 C 2.447 14.988 3.459 16 4.706 16 C 5.953 16 6.965 14.988 6.965 13.741 C 6.965 13.719 6.964 13.697 6.964 13.676 C 6.964 13.666 6.965 13.657 6.965 13.647 L 6.965 3.765 C 6.965 3.505 6.754 3.294 6.494 3.294 L 6.494 3.294 C 6.234 3.294 6.024 3.505 6.024 3.765 L 6.024 11.907 Z  M 12.612 8.613 C 12.241 8.346 11.786 8.188 11.294 8.188 C 10.047 8.188 9.035 9.2 9.035 10.447 C 9.035 11.694 10.047 12.706 11.294 12.706 C 12.541 12.706 13.553 11.694 13.553 10.447 C 13.553 10.425 13.553 10.403 13.552 10.382 C 13.553 10.372 13.553 10.363 13.553 10.353 L 13.553 0.471 C 13.553 0.211 13.342 0 13.082 0 L 13.082 0 C 12.823 0 12.612 0.211 12.612 0.471 L 12.612 8.613 Z " fill-rule="evenodd" fill="rgb(0,0,0)"/></g></svg>