<?xml version="1.0" standalone="no"?><!-- Generator: Gravit.io --><svg xmlns="http://www.w3.org/2000/svg" xmlns:xlink="http://www.w3.org/1999/xlink" style="isolation:isolate" viewBox="0 0 16 16" width="16" height="16"><defs><clipPath id="_clipPath_K2JXOS67qT7dNAUYj6occRrk68oA3ngP"><rect width="16" height="16"/></clipPath></defs><g clip-path="url(#_clipPath_K2JXOS67qT7dNAUYj6occRrk68oA3ngP)"><path d=" M 12.829 0.088 C 12.895 0.041 12.974 0.01 13.059 0.002 C 13.06 0.002 13.062 0.002 13.063 0.002 C 13.075 0.001 13.087 0 13.099 0 C 13.1 0 13.101 0 13.102 0 C 13.103 0 13.103 0 13.103 0 L 13.103 0 C 13.115 0 13.127 0 13.139 0.002 C 13.141 0.001 13.142 0.002 13.144 0.002 C 13.385 0.022 13.575 0.225 13.575 0.472 L 13.575 10.374 C 13.575 10.383 13.574 10.393 13.574 10.402 C 13.574 10.424 13.575 10.446 13.575 10.468 C 13.575 11.717 12.561 12.731 11.311 12.731 C 10.062 12.731 9.048 11.717 9.048 10.468 C 9.048 9.219 10.062 8.205 11.311 8.205 C 11.804 8.205 12.26 8.362 12.632 8.63 L 12.632 3.479 L 6.952 6.259 L 6.952 13.642 C 6.952 13.652 6.952 13.662 6.951 13.671 C 6.952 13.693 6.952 13.715 6.952 13.737 C 6.952 14.986 5.938 16 4.689 16 C 3.439 16 2.425 14.986 2.425 13.737 C 2.425 12.487 3.439 11.473 4.689 11.473 C 5.181 11.473 5.637 11.631 6.009 11.899 L 6.009 6.018 C 5.997 5.961 5.997 5.902 6.009 5.846 L 6.009 3.74 C 6.009 3.667 6.026 3.598 6.055 3.536 C 6.09 3.437 6.161 3.352 6.262 3.302 L 12.829 0.088 Z  M 12.632 1.235 L 12.632 2.43 L 6.952 5.209 L 6.952 4.015 L 12.632 1.235 Z " fill-rule="evenodd" fill="rgb(0,0,0)"/></g></svg>