<?xml version="1.0" standalone="no"?><!-- Generator: Gravit.io --><svg xmlns="http://www.w3.org/2000/svg" xmlns:xlink="http://www.w3.org/1999/xlink" style="isolation:isolate" viewBox="0 0 16 16" width="16" height="16"><defs><clipPath id="_clipPath_NsKccS1kvCK8qHdEVco22Fk0iYp9s0de"><rect width="16" height="16"/></clipPath></defs><g clip-path="url(#_clipPath_NsKccS1kvCK8qHdEVco22Fk0iYp9s0de)"><path d=" M 2.64 0 L 13.36 0 C 14.817 0 16 1.183 16 2.64 L 16 13.36 C 16 14.817 14.817 16 13.36 16 L 2.64 16 C 1.183 16 0 14.817 0 13.36 L 0 2.64 C 0 1.183 1.183 0 2.64 0 Z  M 3.493 12.907 L 3.493 12.907 Q 3.338 12.907 3.233 12.809 L 3.233 12.809 L 3.233 12.809 Q 3.128 12.711 3.128 12.557 L 3.128 12.557 L 3.128 3.457 L 3.128 3.457 Q 3.128 3.303 3.233 3.198 L 3.233 3.198 L 3.233 3.198 Q 3.338 3.093 3.493 3.093 L 3.493 3.093 L 5.077 3.093 L 5.077 3.093 Q 5.427 3.093 5.582 3.401 L 5.582 3.401 L 7.993 7.72 L 10.418 3.401 L 10.418 3.401 Q 10.573 3.093 10.923 3.093 L 10.923 3.093 L 12.507 3.093 L 12.507 3.093 Q 12.662 3.093 12.767 3.198 L 12.767 3.198 L 12.767 3.198 Q 12.872 3.303 12.872 3.457 L 12.872 3.457 L 12.872 12.557 L 12.872 12.557 Q 12.872 12.711 12.767 12.809 L 12.767 12.809 L 12.767 12.809 Q 12.662 12.907 12.507 12.907 L 12.507 12.907 L 10.727 12.907 L 10.727 12.907 Q 10.587 12.907 10.482 12.802 L 10.482 12.802 L 10.482 12.802 Q 10.376 12.697 10.376 12.557 L 10.376 12.557 L 10.376 7.453 L 8.862 10.229 L 8.862 10.229 Q 8.68 10.552 8.372 10.552 L 8.372 10.552 L 7.614 10.552 L 7.614 10.552 Q 7.334 10.552 7.124 10.229 L 7.124 10.229 L 5.624 7.453 L 5.624 12.557 L 5.624 12.557 Q 5.624 12.711 5.518 12.809 L 5.518 12.809 L 5.518 12.809 Q 5.413 12.907 5.259 12.907 L 5.259 12.907 L 3.493 12.907 Z " fill-rule="evenodd" fill="rgb(0,0,0)"/></g></svg>