<?xml version="1.0" standalone="no"?><!-- Generator: Gravit.io --><svg xmlns="http://www.w3.org/2000/svg" xmlns:xlink="http://www.w3.org/1999/xlink" style="isolation:isolate" viewBox="0 0 16 16" width="16" height="16"><defs><clipPath id="_clipPath_DfGbY0GNXULNKkWuL0QVoyk0unfzGdbg"><rect width="16" height="16"/></clipPath></defs><g clip-path="url(#_clipPath_DfGbY0GNXULNKkWuL0QVoyk0unfzGdbg)"><path d=" M 9.6 5.6 L 0 5.6 L 0 7.2 L 9.6 7.2 L 9.6 5.6 Z  M 9.6 2.4 L 0 2.4 L 0 4 L 9.6 4 L 9.6 2.4 Z  M 12.8 8.8 L 12.8 5.6 L 11.2 5.6 L 11.2 8.8 L 8 8.8 L 8 10.4 L 11.2 10.4 L 11.2 13.6 L 12.8 13.6 L 12.8 10.4 L 16 10.4 L 16 8.8 L 12.8 8.8 Z  M 0 10.4 L 6.4 10.4 L 6.4 8.8 L 0 8.8 L 0 10.4 Z " fill="rgb(0,0,0)"/></g></svg>