<?xml version="1.0" standalone="no"?><!-- Generator: Gravit.io --><svg xmlns="http://www.w3.org/2000/svg" xmlns:xlink="http://www.w3.org/1999/xlink" style="isolation:isolate" viewBox="0.895 0.5 14.211 15" width="14.211" height="15"><path d=" M 12.966 9.571 L 12.966 5.237 C 12.966 4.447 12.168 3.65 11.387 3.658 L 11.387 0.5 L 9.808 0.5 L 9.808 3.658 L 6.65 3.658 L 6.65 0.5 L 5.071 0.5 L 5.071 2.458 L 12.579 9.958 L 12.966 9.571 Z  M 11.576 10.968 L 4.439 3.816 L 4.432 3.824 L 1.897 1.289 L 0.895 2.276 L 3.547 4.929 C 3.524 5.032 3.492 5.134 3.492 5.237 L 3.492 9.563 L 6.255 12.342 L 6.255 14.711 L 10.203 14.711 L 10.203 12.342 L 10.582 11.963 L 14.111 15.5 L 15.105 14.489 L 11.576 10.968 Z " fill="rgb(0,0,0)"/></svg>