<?xml version="1.0" standalone="no"?><!-- Generator: Gravit.io --><svg xmlns="http://www.w3.org/2000/svg" xmlns:xlink="http://www.w3.org/1999/xlink" style="isolation:isolate" viewBox="0 0 16 16" width="16" height="16"><defs><clipPath id="_clipPath_AoBiLMNqCqwADCZazvI8dSNyHwrzX9ry"><rect width="16" height="16"/></clipPath></defs><g clip-path="url(#_clipPath_AoBiLMNqCqwADCZazvI8dSNyHwrzX9ry)"><path d=" M 14.4 2.787 L 14.4 15.505 C 14.4 15.638 14.484 15.765 14.634 15.859 C 14.784 15.953 14.988 16.005 15.2 16.005 C 15.412 16.005 15.616 15.953 15.766 15.859 C 15.916 15.765 16 15.638 16 15.505 L 16 0.505 C 16 0.373 15.916 0.245 15.766 0.152 C 15.736 0.133 15.703 0.116 15.669 0.1 C 15.594 0.04 15.488 0.004 15.36 0.004 L 14.142 0.001 L 12.678 -0.005 C 12.325 -0.007 12.223 0.211 12.451 0.481 L 14.4 2.787 Z  M 1.6 2.787 L 1.6 15.505 C 1.6 15.638 1.516 15.765 1.366 15.859 C 1.216 15.953 1.012 16.005 0.8 16.005 C 0.588 16.005 0.384 15.953 0.234 15.859 C 0.084 15.765 0 15.638 0 15.505 L 0 0.505 C 0 0.373 0.084 0.245 0.234 0.152 C 0.264 0.133 0.297 0.116 0.331 0.1 C 0.406 0.04 0.512 0.004 0.64 0.004 L 1.858 0.001 L 3.322 -0.005 C 3.675 -0.007 3.777 0.211 3.549 0.481 L 1.6 2.787 Z  M 3 8 C 3 5.24 5.24 3 8 3 C 10.76 3 13 5.24 13 8 C 13 10.76 10.76 13 8 13 C 5.24 13 3 10.76 3 8 Z  M 6.438 8 C 6.438 7.138 7.138 6.438 8 6.438 C 8.862 6.438 9.563 7.138 9.563 8 C 9.563 8.862 8.862 9.563 8 9.563 C 7.138 9.563 6.438 8.862 6.438 8 Z " fill-rule="evenodd" fill="rgb(0,0,0)"/></g></svg>