<?xml version="1.0" standalone="no"?><!-- Generator: Gravit.io --><svg xmlns="http://www.w3.org/2000/svg" xmlns:xlink="http://www.w3.org/1999/xlink" style="isolation:isolate" viewBox="0 0 16 16" width="16" height="16"><defs><clipPath id="_clipPath_YdxiMq7fukUlWXNQBjasxReWhtFFh5Fh"><rect width="16" height="16"/></clipPath></defs><g clip-path="url(#_clipPath_YdxiMq7fukUlWXNQBjasxReWhtFFh5Fh)"><path d=" M 1.57 9.848 C 0.625 10.431 0 11.476 0 12.667 C 0 14.506 1.494 16 3.333 16 C 4.428 16 5.4 15.471 6.002 14.651 C 5.727 14.728 5.436 14.763 5.137 14.763 C 3.067 14.763 1.387 13.083 1.387 11.013 C 1.387 10.606 1.452 10.215 1.57 9.848 Z  M 3.237 8.181 C 2.292 8.764 1.667 9.81 1.667 11 C 1.667 12.84 3.16 14.333 5 14.333 C 6.095 14.333 7.067 13.805 7.669 12.985 C 7.394 13.061 7.103 13.096 6.803 13.096 C 4.734 13.096 3.053 11.416 3.053 9.346 C 3.053 8.94 3.118 8.548 3.237 8.181 Z  M 3.333 9.333 C 3.333 7.494 4.827 6 6.667 6 C 8.506 6 10 7.494 10 9.333 C 10 11.173 8.506 12.667 6.667 12.667 C 4.827 12.667 3.333 11.173 3.333 9.333 Z  M 5.729 9.333 C 5.729 8.881 6.097 8.513 6.549 8.513 C 7.002 8.513 7.37 8.881 7.37 9.333 C 7.37 9.786 7.002 10.154 6.549 10.154 C 6.097 10.154 5.729 9.786 5.729 9.333 Z " fill-rule="evenodd" fill="rgb(0,0,0)"/><path d=" M 11.646 3 L 10.28 4.365 C 9.907 4.739 9.907 5.346 10.28 5.72 L 10.28 5.72 C 10.654 6.093 11.261 6.093 11.635 5.72 L 13 4.354 L 14.365 5.72 C 14.739 6.093 15.346 6.093 15.72 5.72 L 15.72 5.72 C 16.093 5.346 16.093 4.739 15.72 4.365 L 14.354 3 L 15.72 1.635 C 16.093 1.261 16.093 0.654 15.72 0.28 L 15.72 0.28 C 15.346 -0.093 14.739 -0.093 14.365 0.28 L 13 1.646 L 11.635 0.28 C 11.261 -0.093 10.654 -0.093 10.28 0.28 L 10.28 0.28 C 9.907 0.654 9.907 1.261 10.28 1.635 L 11.646 3 Z " fill="rgb(0,0,0)"/></g></svg>