<?xml version="1.0" standalone="no"?><!-- Generator: Gravit.io --><svg xmlns="http://www.w3.org/2000/svg" xmlns:xlink="http://www.w3.org/1999/xlink" style="isolation:isolate" viewBox="0 0 16 16" width="16" height="16"><defs><clipPath id="_clipPath_3k6u5ukn891fjQ3wWQ8sgrrEc4EPjDHY"><rect width="16" height="16"/></clipPath></defs><g clip-path="url(#_clipPath_3k6u5ukn891fjQ3wWQ8sgrrEc4EPjDHY)"><path d=" M 1.884 4.617 C 0.75 5.317 0 6.571 0 8 C 0 10.208 1.792 12 4 12 C 5.314 12 6.48 11.365 7.203 10.382 C 6.872 10.473 6.523 10.516 6.164 10.516 C 3.68 10.516 1.664 8.499 1.664 6.016 C 1.664 5.528 1.742 5.058 1.884 4.617 Z  M 3.884 2.617 C 2.75 3.317 2 4.571 2 6 C 2 8.208 3.792 10 6 10 C 7.314 10 8.48 9.365 9.203 8.382 C 8.872 8.473 8.523 8.516 8.164 8.516 C 5.68 8.516 3.664 6.499 3.664 4.016 C 3.664 3.528 3.742 3.058 3.884 2.617 Z  M 4 4 C 4 1.792 5.792 0 8 0 C 10.208 0 12 1.792 12 4 C 12 6.208 10.208 8 8 8 C 5.792 8 4 6.208 4 4 Z  M 6.875 4 C 6.875 3.457 7.316 3.016 7.859 3.016 C 8.403 3.016 8.844 3.457 8.844 4 C 8.844 4.543 8.403 4.984 7.859 4.984 C 7.316 4.984 6.875 4.543 6.875 4 Z  M 11.646 13 L 10.28 14.365 C 9.907 14.739 9.907 15.346 10.28 15.72 L 10.28 15.72 C 10.654 16.093 11.261 16.093 11.635 15.72 L 13 14.354 L 14.365 15.72 C 14.739 16.093 15.346 16.093 15.72 15.72 L 15.72 15.72 C 16.093 15.346 16.093 14.739 15.72 14.365 L 14.354 13 L 15.72 11.635 C 16.093 11.261 16.093 10.654 15.72 10.28 L 15.72 10.28 C 15.346 9.907 14.739 9.907 14.365 10.28 L 13 11.646 L 11.635 10.28 C 11.261 9.907 10.654 9.907 10.28 10.28 L 10.28 10.28 C 9.907 10.654 9.907 11.261 10.28 11.635 L 11.646 13 Z " fill-rule="evenodd" fill="rgb(0,0,0)"/></g></svg>