<?xml version="1.0" standalone="no"?><!-- Generator: Gravit.io --><svg xmlns="http://www.w3.org/2000/svg" xmlns:xlink="http://www.w3.org/1999/xlink" style="isolation:isolate" viewBox="0 -0.005 16 16.01" width="16" height="16.01"><path d=" M 13.649 2.346 C 12.198 0.896 10.206 -0.005 7.995 -0.005 C 3.572 -0.005 0 3.577 0 8 C 0 12.423 3.572 16.005 7.995 16.005 C 11.727 16.005 14.839 13.453 15.73 10.001 L 13.649 10.001 C 12.828 12.333 10.607 14.004 7.995 14.004 C 4.683 14.004 1.991 11.312 1.991 8 C 1.991 4.688 4.683 1.996 7.995 1.996 C 9.656 1.996 11.137 2.687 12.218 3.777 L 8.996 6.999 L 16 6.999 L 16 -0.005 L 13.649 2.346 Z " fill="rgb(0,0,0)"/></svg>