<?xml version="1.0" standalone="no"?><!-- Generator: Gravit.io --><svg xmlns="http://www.w3.org/2000/svg" xmlns:xlink="http://www.w3.org/1999/xlink" style="isolation:isolate" viewBox="0 0 16 16" width="16" height="16"><defs><clipPath id="_clipPath_LIpRVwiNK9g9q10elaSEK88vHCPnOigS"><rect width="16" height="16"/></clipPath></defs><g clip-path="url(#_clipPath_LIpRVwiNK9g9q10elaSEK88vHCPnOigS)"><path d=" M 15.42 0 L 0.58 0 C 0.26 0 0 0.26 0 0.58 L 0 1.02 C 0 1.34 0.26 1.6 0.58 1.6 L 15.42 1.6 C 15.74 1.6 16 1.34 16 1.02 L 16 0.58 C 16 0.26 15.74 0 15.42 0 Z  M 15.59 14.4 L 15.568 14.4 C 15.342 14.4 15.158 14.584 15.158 14.81 L 15.158 15.59 C 15.158 15.816 15.342 16 15.568 16 L 15.59 16 C 15.816 16 16 15.816 16 15.59 L 16 14.81 C 16 14.584 15.816 14.4 15.59 14.4 Z  M 15.59 12 L 15.568 12 C 15.342 12 15.158 12.184 15.158 12.41 L 15.158 13.19 C 15.158 13.416 15.342 13.6 15.568 13.6 L 15.59 13.6 C 15.816 13.6 16 13.416 16 13.19 L 16 12.41 C 16 12.184 15.816 12 15.59 12 Z  M 15.59 9.6 L 15.568 9.6 C 15.342 9.6 15.158 9.784 15.158 10.01 L 15.158 10.79 C 15.158 11.016 15.342 11.2 15.568 11.2 L 15.59 11.2 C 15.816 11.2 16 11.016 16 10.79 L 16 10.01 C 16 9.784 15.816 9.6 15.59 9.6 Z  M 15.59 7.2 L 15.568 7.2 C 15.342 7.2 15.158 7.384 15.158 7.61 L 15.158 8.39 C 15.158 8.616 15.342 8.8 15.568 8.8 L 15.59 8.8 C 15.816 8.8 16 8.616 16 8.39 L 16 7.61 C 16 7.384 15.816 7.2 15.59 7.2 Z  M 15.59 4.8 L 15.568 4.8 C 15.342 4.8 15.158 4.984 15.158 5.21 L 15.158 5.99 C 15.158 6.216 15.342 6.4 15.568 6.4 L 15.59 6.4 C 15.816 6.4 16 6.216 16 5.99 L 16 5.21 C 16 4.984 15.816 4.8 15.59 4.8 Z  M 15.59 2.4 L 15.568 2.4 C 15.342 2.4 15.158 2.584 15.158 2.81 L 15.158 3.59 C 15.158 3.816 15.342 4 15.568 4 L 15.59 4 C 15.816 4 16 3.816 16 3.59 L 16 2.81 C 16 2.584 15.816 2.4 15.59 2.4 Z  M 0.432 14.4 L 0.41 14.4 C 0.184 14.4 0 14.584 0 14.81 L 0 15.59 C 0 15.816 0.184 16 0.41 16 L 0.432 16 C 0.658 16 0.842 15.816 0.842 15.59 L 0.842 14.81 C 0.842 14.584 0.658 14.4 0.432 14.4 Z  M 0.432 12 L 0.41 12 C 0.184 12 0 12.184 0 12.41 L 0 13.19 C 0 13.416 0.184 13.6 0.41 13.6 L 0.432 13.6 C 0.658 13.6 0.842 13.416 0.842 13.19 L 0.842 12.41 C 0.842 12.184 0.658 12 0.432 12 Z  M 0.432 9.6 L 0.41 9.6 C 0.184 9.6 0 9.784 0 10.01 L 0 10.79 C 0 11.016 0.184 11.2 0.41 11.2 L 0.432 11.2 C 0.658 11.2 0.842 11.016 0.842 10.79 L 0.842 10.01 C 0.842 9.784 0.658 9.6 0.432 9.6 Z  M 0.432 7.2 L 0.41 7.2 C 0.184 7.2 0 7.384 0 7.61 L 0 8.39 C 0 8.616 0.184 8.8 0.41 8.8 L 0.432 8.8 C 0.658 8.8 0.842 8.616 0.842 8.39 L 0.842 7.61 C 0.842 7.384 0.658 7.2 0.432 7.2 Z  M 0.432 4.8 L 0.41 4.8 C 0.184 4.8 0 4.984 0 5.21 L 0 5.99 C 0 6.216 0.184 6.4 0.41 6.4 L 0.432 6.4 C 0.658 6.4 0.842 6.216 0.842 5.99 L 0.842 5.21 C 0.842 4.984 0.658 4.8 0.432 4.8 Z  M 0.432 2.4 L 0.41 2.4 C 0.184 2.4 0 2.584 0 2.81 L 0 3.59 C 0 3.816 0.184 4 0.41 4 L 0.432 4 C 0.658 4 0.842 3.816 0.842 3.59 L 0.842 2.81 C 0.842 2.584 0.658 2.4 0.432 2.4 Z  M 4.006 7.932 C 3.993 7.798 4.048 7.661 4.162 7.572 L 6.796 5.519 C 6.976 5.379 7.235 5.411 7.375 5.59 L 7.57 5.841 C 7.71 6.021 7.678 6.28 7.498 6.42 L 6.208 7.425 L 11.429 7.45 C 11.744 7.451 11.999 7.709 11.997 8.024 L 11.997 8.024 C 11.996 8.339 11.739 8.594 11.424 8.592 L 6.203 8.567 L 7.483 9.585 C 7.661 9.726 7.691 9.986 7.549 10.164 L 7.352 10.413 C 7.21 10.591 6.951 10.62 6.773 10.479 L 4.158 8.401 C 4.045 8.311 3.991 8.173 4.005 8.039 C 4.003 8.021 4.003 8.003 4.003 7.985 L 4.003 7.985 C 4.003 7.967 4.004 7.95 4.006 7.932 Z " fill-rule="evenodd" fill="rgb(0,0,0)"/></g></svg>