<?xml version="1.0" standalone="no"?><!-- Generator: Gravit.io --><svg xmlns="http://www.w3.org/2000/svg" xmlns:xlink="http://www.w3.org/1999/xlink" style="isolation:isolate" viewBox="0 0 16 16" width="16" height="16"><defs><clipPath id="_clipPath_Byec9p6HidSSqnWMHQM22Iq1Tid6gI4j"><rect width="16" height="16"/></clipPath></defs><g clip-path="url(#_clipPath_Byec9p6HidSSqnWMHQM22Iq1Tid6gI4j)"><path d=" M 0.58 0 L 15.42 0 C 15.74 0 16 0.26 16 0.58 L 16 1.02 C 16 1.34 15.74 1.6 15.42 1.6 L 0.58 1.6 C 0.26 1.6 0 1.34 0 1.02 L 0 0.58 C 0 0.26 0.26 0 0.58 0 Z  M 0.41 14.4 L 0.432 14.4 C 0.658 14.4 0.842 14.584 0.842 14.81 L 0.842 15.59 C 0.842 15.816 0.658 16 0.432 16 L 0.41 16 C 0.184 16 0 15.816 0 15.59 L 0 14.81 C 0 14.584 0.184 14.4 0.41 14.4 Z  M 0.41 12 L 0.432 12 C 0.658 12 0.842 12.184 0.842 12.41 L 0.842 13.19 C 0.842 13.416 0.658 13.6 0.432 13.6 L 0.41 13.6 C 0.184 13.6 0 13.416 0 13.19 L 0 12.41 C 0 12.184 0.184 12 0.41 12 Z  M 0.41 9.6 L 0.432 9.6 C 0.658 9.6 0.842 9.784 0.842 10.01 L 0.842 10.79 C 0.842 11.016 0.658 11.2 0.432 11.2 L 0.41 11.2 C 0.184 11.2 0 11.016 0 10.79 L 0 10.01 C 0 9.784 0.184 9.6 0.41 9.6 Z  M 0.41 7.2 L 0.432 7.2 C 0.658 7.2 0.842 7.384 0.842 7.61 L 0.842 8.39 C 0.842 8.616 0.658 8.8 0.432 8.8 L 0.41 8.8 C 0.184 8.8 0 8.616 0 8.39 L 0 7.61 C 0 7.384 0.184 7.2 0.41 7.2 Z  M 0.41 4.8 L 0.432 4.8 C 0.658 4.8 0.842 4.984 0.842 5.21 L 0.842 5.99 C 0.842 6.216 0.658 6.4 0.432 6.4 L 0.41 6.4 C 0.184 6.4 0 6.216 0 5.99 L 0 5.21 C 0 4.984 0.184 4.8 0.41 4.8 Z  M 0.41 2.4 L 0.432 2.4 C 0.658 2.4 0.842 2.584 0.842 2.81 L 0.842 3.59 C 0.842 3.816 0.658 4 0.432 4 L 0.41 4 C 0.184 4 0 3.816 0 3.59 L 0 2.81 C 0 2.584 0.184 2.4 0.41 2.4 Z  M 15.568 14.4 L 15.59 14.4 C 15.816 14.4 16 14.584 16 14.81 L 16 15.59 C 16 15.816 15.816 16 15.59 16 L 15.568 16 C 15.342 16 15.158 15.816 15.158 15.59 L 15.158 14.81 C 15.158 14.584 15.342 14.4 15.568 14.4 Z  M 15.568 12 L 15.59 12 C 15.816 12 16 12.184 16 12.41 L 16 13.19 C 16 13.416 15.816 13.6 15.59 13.6 L 15.568 13.6 C 15.342 13.6 15.158 13.416 15.158 13.19 L 15.158 12.41 C 15.158 12.184 15.342 12 15.568 12 Z  M 15.568 9.6 L 15.59 9.6 C 15.816 9.6 16 9.784 16 10.01 L 16 10.79 C 16 11.016 15.816 11.2 15.59 11.2 L 15.568 11.2 C 15.342 11.2 15.158 11.016 15.158 10.79 L 15.158 10.01 C 15.158 9.784 15.342 9.6 15.568 9.6 Z  M 15.568 7.2 L 15.59 7.2 C 15.816 7.2 16 7.384 16 7.61 L 16 8.39 C 16 8.616 15.816 8.8 15.59 8.8 L 15.568 8.8 C 15.342 8.8 15.158 8.616 15.158 8.39 L 15.158 7.61 C 15.158 7.384 15.342 7.2 15.568 7.2 Z  M 15.568 4.8 L 15.59 4.8 C 15.816 4.8 16 4.984 16 5.21 L 16 5.99 C 16 6.216 15.816 6.4 15.59 6.4 L 15.568 6.4 C 15.342 6.4 15.158 6.216 15.158 5.99 L 15.158 5.21 C 15.158 4.984 15.342 4.8 15.568 4.8 Z  M 15.568 2.4 L 15.59 2.4 C 15.816 2.4 16 2.584 16 2.81 L 16 3.59 C 16 3.816 15.816 4 15.59 4 L 15.568 4 C 15.342 4 15.158 3.816 15.158 3.59 L 15.158 2.81 C 15.158 2.584 15.342 2.4 15.568 2.4 Z  M 11.994 7.932 C 12.007 7.798 11.952 7.661 11.838 7.572 L 9.204 5.519 C 9.024 5.379 8.765 5.411 8.625 5.59 L 8.43 5.841 C 8.29 6.021 8.322 6.28 8.502 6.42 L 9.792 7.425 L 4.571 7.45 C 4.256 7.451 4.001 7.709 4.003 8.024 L 4.003 8.024 C 4.004 8.339 4.261 8.594 4.576 8.592 L 9.797 8.567 L 8.517 9.585 C 8.339 9.726 8.309 9.986 8.451 10.164 L 8.648 10.413 C 8.79 10.591 9.049 10.62 9.227 10.479 L 11.842 8.401 C 11.955 8.311 12.009 8.173 11.995 8.039 C 11.997 8.021 11.997 8.003 11.997 7.985 L 11.997 7.985 C 11.997 7.967 11.996 7.95 11.994 7.932 Z " fill-rule="evenodd" fill="rgb(0,0,0)"/></g></svg>