<?xml version="1.0" standalone="no"?><!-- Generator: Gravit.io --><svg xmlns="http://www.w3.org/2000/svg" xmlns:xlink="http://www.w3.org/1999/xlink" style="isolation:isolate" viewBox="2.591 0 10.817 16" width="10.817" height="16"><path d=" M 10.09 6.261 L 5.917 6.261 C 5.534 6.261 5.221 6.574 5.221 6.957 L 5.221 15.304 C 5.221 15.687 5.534 16 5.917 16 L 10.09 16 C 10.473 16 10.786 15.687 10.786 15.304 L 10.786 6.957 C 10.786 6.574 10.473 6.261 10.09 6.261 Z  M 8.003 10.435 C 7.238 10.435 6.612 9.809 6.612 9.043 C 6.612 8.278 7.238 7.652 8.003 7.652 C 8.769 7.652 9.395 8.278 9.395 9.043 C 9.395 9.809 8.769 10.435 8.003 10.435 Z  M 4.56 4.209 L 5.541 5.19 C 6.174 4.563 7.043 4.174 8.003 4.174 C 8.963 4.174 9.833 4.563 10.466 5.19 L 11.447 4.209 C 10.563 3.325 9.346 2.783 8.003 2.783 C 6.661 2.783 5.443 3.325 4.56 4.209 Z  M 8.003 0 C 5.889 0 3.976 0.856 2.591 2.24 L 3.572 3.221 C 4.706 2.094 6.271 1.391 8.003 1.391 C 9.736 1.391 11.301 2.094 12.428 3.228 L 13.409 2.247 C 12.031 0.856 10.118 0 8.003 0 Z " fill="rgb(0,0,0)"/></svg>