<?xml version="1.0" standalone="no"?><!-- Generator: Gravit.io --><svg xmlns="http://www.w3.org/2000/svg" xmlns:xlink="http://www.w3.org/1999/xlink" style="isolation:isolate" viewBox="1.6 0 12.8 16" width="12.8" height="16"><path d=" M 9.6 0 L 3.2 0 C 2.32 0 1.608 0.72 1.608 1.6 L 1.6 14.4 C 1.6 15.28 2.312 16 3.192 16 L 12.8 16 C 13.68 16 14.4 15.28 14.4 14.4 L 14.4 4.8 L 9.6 0 Z  M 8 12.8 C 6.36 12.8 4.952 11.808 4.336 10.4 L 5.704 10.4 C 6.208 11.12 7.048 11.6 8 11.6 C 9.544 11.6 10.8 10.344 10.8 8.8 C 10.8 7.256 9.544 6 8 6 C 6.92 6 5.984 6.624 5.52 7.52 L 6.8 8.8 L 3.6 8.8 L 3.6 5.6 L 4.64 6.64 C 5.352 5.536 6.584 4.8 8 4.8 C 10.208 4.8 12 6.592 12 8.8 C 12 11.008 10.208 12.8 8 12.8 Z " fill="rgb(0,0,0)"/></svg>