<?xml version="1.0" standalone="no"?><!-- Generator: Gravit.io --><svg xmlns="http://www.w3.org/2000/svg" xmlns:xlink="http://www.w3.org/1999/xlink" style="isolation:isolate" viewBox="0 0 16 16" width="16" height="16"><path d=" M 7.111 10.667 L 8.889 10.667 L 8.889 8.889 L 7.111 8.889 L 7.111 10.667 Z  M 14.222 0 L 1.778 0 C 0.8 0 0 0.8 0 1.778 L 0 14.222 C 0 15.2 0.8 16 1.778 16 L 14.222 16 C 15.2 16 16 15.2 16 14.222 L 16 1.778 C 16 0.8 15.2 0 14.222 0 Z  M 10.667 5.333 L 7.111 5.333 L 7.111 7.111 L 8.889 7.111 C 9.867 7.111 10.667 7.902 10.667 8.889 L 10.667 10.667 C 10.667 11.653 9.867 12.444 8.889 12.444 L 7.111 12.444 C 6.133 12.444 5.333 11.653 5.333 10.667 L 5.333 5.333 C 5.333 4.347 6.133 3.556 7.111 3.556 L 10.667 3.556 L 10.667 5.333 Z " fill="rgb(0,0,0)"/></svg>