<?xml version="1.0" standalone="no"?><!-- Generator: Gravit.io --><svg xmlns="http://www.w3.org/2000/svg" xmlns:xlink="http://www.w3.org/1999/xlink" style="isolation:isolate" viewBox="0 0 16 16" width="16" height="16"><path d=" M 14.222 0 L 1.778 0 C 0.8 0 0 0.8 0 1.778 L 0 14.222 C 0 15.2 0.8 16 1.778 16 L 14.222 16 C 15.2 16 16 15.2 16 14.222 L 16 1.778 C 16 0.8 15.2 0 14.222 0 Z  M 10.667 6.667 C 10.667 7.404 10.071 8 9.333 8 C 10.071 8 10.667 8.596 10.667 9.333 L 10.667 10.667 C 10.667 11.653 9.867 12.444 8.889 12.444 L 5.333 12.444 L 5.333 10.667 L 8.889 10.667 L 8.889 8.889 L 7.111 8.889 L 7.111 7.111 L 8.889 7.111 L 8.889 5.333 L 5.333 5.333 L 5.333 3.556 L 8.889 3.556 C 9.867 3.556 10.667 4.347 10.667 5.333 L 10.667 6.667 Z " fill="rgb(0,0,0)"/></svg>