<?xml version="1.0" standalone="no"?><!-- Generator: Gravit.io --><svg xmlns="http://www.w3.org/2000/svg" xmlns:xlink="http://www.w3.org/1999/xlink" style="isolation:isolate" viewBox="0 0.02 16 15.96" width="16" height="15.96"><path d=" M 8.822 6.228 L 6.376 4.391 L 6.376 11.609 L 8.822 9.772 L 11.188 8 L 8.822 6.228 Z  M 8.822 6.228 L 6.376 4.391 L 6.376 11.609 L 8.822 9.772 L 11.188 8 L 8.822 6.228 Z  M 8.822 6.228 L 6.376 4.391 L 6.376 11.609 L 8.822 9.772 L 11.188 8 L 8.822 6.228 Z  M 7.178 1.64 L 7.178 0.02 C 5.566 0.18 4.098 0.822 2.911 1.792 L 4.05 2.939 C 4.94 2.25 6.007 1.784 7.178 1.64 Z  M 2.919 4.07 L 1.772 2.931 C 0.802 4.118 0.16 5.586 0 7.198 L 1.62 7.198 C 1.764 6.027 2.23 4.96 2.919 4.07 Z  M 1.62 8.802 L 0 8.802 C 0.16 10.414 0.802 11.882 1.772 13.069 L 2.919 11.922 C 2.23 11.04 1.764 9.973 1.62 8.802 Z  M 2.911 14.208 C 4.098 15.178 5.574 15.82 7.178 15.98 L 7.178 14.36 C 6.007 14.216 4.94 13.75 4.05 13.061 L 2.911 14.208 Z  M 16 8 C 16 12.138 12.856 15.555 8.822 15.98 L 8.822 14.36 C 11.966 13.943 14.396 11.248 14.396 8 C 14.396 4.752 11.966 2.057 8.822 1.64 L 8.822 0.02 C 12.856 0.445 16 3.862 16 8 Z " fill="rgb(0,0,0)"/></svg>