<?xml version="1.0" standalone="no"?><!-- Generator: Gravit.io --><svg xmlns="http://www.w3.org/2000/svg" xmlns:xlink="http://www.w3.org/1999/xlink" style="isolation:isolate" viewBox="0 0 16 16" width="16" height="16"><defs><clipPath id="_clipPath_kV5Chs4ijvXT3tso04XnBbrx0laiBQ5c"><rect width="16" height="16"/></clipPath></defs><g clip-path="url(#_clipPath_kV5Chs4ijvXT3tso04XnBbrx0laiBQ5c)"><path d=" M 3.2 0 L 12.8 0 C 14.566 0 16 1.434 16 3.2 L 16 12.8 C 16 14.566 14.566 16 12.8 16 L 3.2 16 C 1.434 16 0 14.566 0 12.8 L 0 3.2 C 0 1.434 1.434 0 3.2 0 Z  M 8 13.047 L 8 13.047 Q 6.64 13.047 5.687 12.655 L 5.687 12.655 L 5.687 12.655 Q 4.733 12.262 4.243 11.617 L 4.243 11.617 L 4.243 11.617 Q 3.752 10.972 3.724 10.215 L 3.724 10.215 L 3.724 10.215 Q 3.724 10.089 3.815 10.005 L 3.815 10.005 L 3.815 10.005 Q 3.906 9.921 4.032 9.921 L 4.032 9.921 L 5.897 9.921 L 5.897 9.921 Q 6.065 9.921 6.17 9.977 L 6.17 9.977 L 6.17 9.977 Q 6.276 10.033 6.402 10.173 L 6.402 10.173 L 6.402 10.173 Q 6.584 10.51 6.97 10.727 L 6.97 10.727 L 6.97 10.727 Q 7.355 10.944 8 10.944 L 8 10.944 L 8 10.944 Q 8.757 10.944 9.164 10.713 L 9.164 10.713 L 9.164 10.713 Q 9.57 10.482 9.57 10.075 L 9.57 10.075 L 9.57 10.075 Q 9.57 9.781 9.36 9.591 L 9.36 9.591 L 9.36 9.591 Q 9.15 9.402 8.687 9.255 L 8.687 9.255 L 8.687 9.255 Q 8.224 9.108 7.355 8.925 L 7.355 8.925 L 7.355 8.925 Q 5.659 8.589 4.817 7.902 L 4.817 7.902 L 4.817 7.902 Q 3.976 7.215 3.976 5.939 L 3.976 5.939 L 3.976 5.939 Q 3.976 5.07 4.46 4.39 L 4.46 4.39 L 4.46 4.39 Q 4.944 3.71 5.834 3.331 L 5.834 3.331 L 5.834 3.331 Q 6.724 2.953 7.902 2.953 L 7.902 2.953 L 7.902 2.953 Q 9.136 2.953 10.04 3.38 L 10.04 3.38 L 10.04 3.38 Q 10.944 3.808 11.428 4.446 L 11.428 4.446 L 11.428 4.446 Q 11.912 5.084 11.94 5.701 L 11.94 5.701 L 11.94 5.701 Q 11.94 5.827 11.856 5.918 L 11.856 5.918 L 11.856 5.918 Q 11.771 6.009 11.645 6.009 L 11.645 6.009 L 9.682 6.009 L 9.682 6.009 Q 9.374 6.009 9.206 5.757 L 9.206 5.757 L 9.206 5.757 Q 9.122 5.462 8.771 5.259 L 8.771 5.259 L 8.771 5.259 Q 8.421 5.056 7.902 5.056 L 7.902 5.056 L 7.902 5.056 Q 7.313 5.056 6.991 5.266 L 6.991 5.266 L 6.991 5.266 Q 6.668 5.476 6.668 5.883 L 6.668 5.883 L 6.668 5.883 Q 6.668 6.29 7.089 6.521 L 7.089 6.521 L 7.089 6.521 Q 7.509 6.752 8.659 6.991 L 8.659 6.991 L 8.659 6.991 Q 9.977 7.229 10.755 7.586 L 10.755 7.586 L 10.755 7.586 Q 11.533 7.944 11.905 8.512 L 11.905 8.512 L 11.905 8.512 Q 12.276 9.08 12.276 9.949 L 12.276 9.949 L 12.276 9.949 Q 12.276 10.902 11.729 11.603 L 11.729 11.603 L 11.729 11.603 Q 11.183 12.304 10.215 12.676 L 10.215 12.676 L 10.215 12.676 Q 9.248 13.047 8 13.047 L 8 13.047 Z " fill-rule="evenodd" fill="rgb(0,0,0)"/></g></svg>