<?xml version="1.0" standalone="no"?><!-- Generator: Gravit.io --><svg xmlns="http://www.w3.org/2000/svg" xmlns:xlink="http://www.w3.org/1999/xlink" style="isolation:isolate" viewBox="0 0 16 16" width="16" height="16"><defs><clipPath id="_clipPath_l9dPcXbFRv6125rGO9knOdThO98btgvt"><rect width="16" height="16"/></clipPath></defs><g clip-path="url(#_clipPath_l9dPcXbFRv6125rGO9knOdThO98btgvt)"><path d=" M 4.008 5.28 C 4.008 4.931 4.291 4.648 4.64 4.648 C 4.989 4.648 5.272 4.931 5.272 5.28 C 5.272 5.629 4.989 5.912 4.64 5.912 C 4.291 5.912 4.008 5.629 4.008 5.28 L 4.008 5.28 Z  M 2.24 5.28 C 2.24 3.955 3.315 2.88 4.64 2.88 C 5.965 2.88 7.04 3.955 7.04 5.28 C 7.04 6.605 5.965 7.68 4.64 7.68 C 3.315 7.68 2.24 6.605 2.24 5.28 L 2.24 5.28 Z  M 2.872 5.28 C 2.871 5.044 2.919 4.81 3.011 4.592 C 3.1 4.382 3.228 4.191 3.39 4.03 C 3.551 3.868 3.742 3.74 3.952 3.651 C 4.17 3.559 4.404 3.511 4.64 3.512 C 4.876 3.511 5.11 3.559 5.328 3.651 C 5.538 3.74 5.729 3.868 5.89 4.03 C 6.052 4.191 6.18 4.382 6.269 4.592 C 6.361 4.81 6.409 5.044 6.408 5.28 C 6.409 5.516 6.361 5.75 6.269 5.968 C 6.18 6.178 6.052 6.369 5.89 6.53 C 5.729 6.692 5.538 6.82 5.328 6.909 C 5.11 7.001 4.876 7.049 4.64 7.048 C 4.404 7.049 4.17 7.001 3.952 6.909 C 3.742 6.82 3.551 6.692 3.39 6.53 C 3.228 6.369 3.1 6.178 3.011 5.968 C 2.919 5.75 2.871 5.516 2.872 5.28 L 2.872 5.28 Z  M 2.619 5.28 C 2.619 5.01 2.673 4.742 2.778 4.494 C 2.88 4.254 3.027 4.035 3.211 3.851 C 3.395 3.667 3.614 3.52 3.854 3.418 C 4.102 3.313 4.37 3.259 4.64 3.259 C 4.91 3.259 5.178 3.313 5.426 3.418 C 5.666 3.52 5.885 3.667 6.069 3.851 C 6.253 4.035 6.4 4.254 6.502 4.494 C 6.607 4.742 6.661 5.01 6.661 5.28 C 6.661 5.55 6.607 5.818 6.502 6.066 C 6.4 6.306 6.253 6.525 6.069 6.709 C 5.885 6.893 5.666 7.04 5.426 7.142 C 5.178 7.247 4.91 7.301 4.64 7.301 C 4.37 7.301 4.102 7.247 3.854 7.142 C 3.614 7.04 3.395 6.893 3.211 6.709 C 3.027 6.525 2.88 6.306 2.778 6.066 C 2.673 5.818 2.619 5.55 2.619 5.28 L 2.619 5.28 Z  M 4.008 10.72 C 4.008 10.371 4.291 10.088 4.64 10.088 C 4.989 10.088 5.272 10.371 5.272 10.72 C 5.272 11.069 4.989 11.352 4.64 11.352 C 4.291 11.352 4.008 11.069 4.008 10.72 L 4.008 10.72 Z  M 2.24 10.72 C 2.24 9.395 3.315 8.32 4.64 8.32 C 5.965 8.32 7.04 9.395 7.04 10.72 C 7.04 12.045 5.965 13.12 4.64 13.12 C 3.315 13.12 2.24 12.045 2.24 10.72 L 2.24 10.72 Z  M 2.872 10.72 C 2.871 10.484 2.919 10.25 3.011 10.032 C 3.1 9.822 3.228 9.631 3.39 9.47 C 3.551 9.308 3.742 9.18 3.952 9.091 C 4.17 8.999 4.404 8.951 4.64 8.952 C 4.876 8.951 5.11 8.999 5.328 9.091 C 5.538 9.18 5.729 9.308 5.89 9.47 C 6.052 9.631 6.18 9.822 6.269 10.032 C 6.361 10.25 6.409 10.484 6.408 10.72 C 6.409 10.956 6.361 11.19 6.269 11.408 C 6.18 11.618 6.052 11.809 5.89 11.97 C 5.729 12.132 5.538 12.26 5.328 12.349 C 5.11 12.441 4.876 12.489 4.64 12.488 C 4.404 12.489 4.17 12.441 3.952 12.349 C 3.742 12.26 3.551 12.132 3.39 11.97 C 3.228 11.809 3.1 11.618 3.011 11.408 C 2.919 11.19 2.871 10.956 2.872 10.72 L 2.872 10.72 Z  M 2.619 10.72 C 2.619 10.45 2.673 10.182 2.778 9.934 C 2.88 9.694 3.027 9.475 3.211 9.291 C 3.395 9.107 3.614 8.96 3.854 8.858 C 4.102 8.753 4.37 8.699 4.64 8.699 C 4.91 8.699 5.178 8.753 5.426 8.858 C 5.666 8.96 5.885 9.107 6.069 9.291 C 6.253 9.475 6.4 9.694 6.502 9.934 C 6.607 10.182 6.661 10.45 6.661 10.72 C 6.661 10.99 6.607 11.258 6.502 11.506 C 6.4 11.746 6.253 11.965 6.069 12.149 C 5.885 12.333 5.666 12.48 5.426 12.582 C 5.178 12.687 4.91 12.741 4.64 12.741 C 4.37 12.741 4.102 12.687 3.854 12.582 C 3.614 12.48 3.395 12.333 3.211 12.149 C 3.027 11.965 2.88 11.746 2.778 11.506 C 2.673 11.258 2.619 10.99 2.619 10.72 L 2.619 10.72 Z  M 10.728 5.28 C 10.728 4.931 11.011 4.648 11.36 4.648 C 11.709 4.648 11.992 4.931 11.992 5.28 C 11.992 5.629 11.709 5.912 11.36 5.912 C 11.011 5.912 10.728 5.629 10.728 5.28 L 10.728 5.28 Z  M 8.96 5.28 C 8.96 3.955 10.035 2.88 11.36 2.88 C 12.685 2.88 13.76 3.955 13.76 5.28 C 13.76 6.605 12.685 7.68 11.36 7.68 C 10.035 7.68 8.96 6.605 8.96 5.28 L 8.96 5.28 Z  M 9.592 5.28 C 9.591 5.044 9.639 4.81 9.731 4.592 C 9.82 4.382 9.948 4.191 10.11 4.03 C 10.271 3.868 10.462 3.74 10.672 3.651 C 10.89 3.559 11.124 3.511 11.36 3.512 C 11.596 3.511 11.83 3.559 12.048 3.651 C 12.258 3.74 12.449 3.868 12.61 4.03 C 12.772 4.191 12.9 4.382 12.989 4.592 C 13.081 4.81 13.129 5.044 13.128 5.28 C 13.129 5.516 13.081 5.75 12.989 5.968 C 12.9 6.178 12.772 6.369 12.61 6.53 C 12.449 6.692 12.258 6.82 12.048 6.909 C 11.83 7.001 11.596 7.049 11.36 7.048 C 11.124 7.049 10.89 7.001 10.672 6.909 C 10.462 6.82 10.271 6.692 10.11 6.53 C 9.948 6.369 9.82 6.178 9.731 5.968 C 9.639 5.75 9.591 5.516 9.592 5.28 L 9.592 5.28 Z  M 9.339 5.28 C 9.339 5.01 9.393 4.742 9.498 4.494 C 9.6 4.254 9.747 4.035 9.931 3.851 C 10.115 3.667 10.334 3.52 10.574 3.418 C 10.822 3.313 11.09 3.259 11.36 3.259 C 11.63 3.259 11.898 3.313 12.146 3.418 C 12.386 3.52 12.605 3.667 12.789 3.851 C 12.973 4.035 13.12 4.254 13.222 4.494 C 13.327 4.742 13.381 5.01 13.381 5.28 C 13.381 5.55 13.327 5.818 13.222 6.066 C 13.12 6.306 12.973 6.525 12.789 6.709 C 12.605 6.893 12.386 7.04 12.146 7.142 C 11.898 7.247 11.63 7.301 11.36 7.301 C 11.09 7.301 10.822 7.247 10.574 7.142 C 10.334 7.04 10.115 6.893 9.931 6.709 C 9.747 6.525 9.6 6.306 9.498 6.066 C 9.393 5.818 9.339 5.55 9.339 5.28 L 9.339 5.28 Z  M 10.728 10.72 C 10.728 10.371 11.011 10.088 11.36 10.088 C 11.709 10.088 11.992 10.371 11.992 10.72 C 11.992 11.069 11.709 11.352 11.36 11.352 C 11.011 11.352 10.728 11.069 10.728 10.72 L 10.728 10.72 Z  M 8.96 10.72 C 8.96 9.395 10.035 8.32 11.36 8.32 C 12.685 8.32 13.76 9.395 13.76 10.72 C 13.76 12.045 12.685 13.12 11.36 13.12 C 10.035 13.12 8.96 12.045 8.96 10.72 L 8.96 10.72 Z  M 9.592 10.72 C 9.591 10.484 9.639 10.25 9.731 10.032 C 9.82 9.822 9.948 9.631 10.11 9.47 C 10.271 9.308 10.462 9.18 10.672 9.091 C 10.89 8.999 11.124 8.951 11.36 8.952 C 11.596 8.951 11.83 8.999 12.048 9.091 C 12.258 9.18 12.449 9.308 12.61 9.47 C 12.772 9.631 12.9 9.822 12.989 10.032 C 13.081 10.25 13.129 10.484 13.128 10.72 C 13.129 10.956 13.081 11.19 12.989 11.408 C 12.9 11.618 12.772 11.809 12.61 11.97 C 12.449 12.132 12.258 12.26 12.048 12.349 C 11.83 12.441 11.596 12.489 11.36 12.488 C 11.124 12.489 10.89 12.441 10.672 12.349 C 10.462 12.26 10.271 12.132 10.11 11.97 C 9.948 11.809 9.82 11.618 9.731 11.408 C 9.639 11.19 9.591 10.956 9.592 10.72 L 9.592 10.72 Z  M 9.339 10.72 C 9.339 10.45 9.393 10.182 9.498 9.934 C 9.6 9.694 9.747 9.475 9.931 9.291 C 10.115 9.107 10.334 8.96 10.574 8.858 C 10.822 8.753 11.09 8.699 11.36 8.699 C 11.63 8.699 11.898 8.753 12.146 8.858 C 12.386 8.96 12.605 9.107 12.789 9.291 C 12.973 9.475 13.12 9.694 13.222 9.934 C 13.327 10.182 13.381 10.45 13.381 10.72 C 13.381 10.99 13.327 11.258 13.222 11.506 C 13.12 11.746 12.973 11.965 12.789 12.149 C 12.605 12.333 12.386 12.48 12.146 12.582 C 11.898 12.687 11.63 12.741 11.36 12.741 C 11.09 12.741 10.822 12.687 10.574 12.582 C 10.334 12.48 10.115 12.333 9.931 12.149 C 9.747 11.965 9.6 11.746 9.498 11.506 C 9.393 11.258 9.339 10.99 9.339 10.72 L 9.339 10.72 Z  M 1.6 0 L 1.6 0 L 1.6 1.366 L 1.6 1.366 C 1.503 1.422 1.422 1.503 1.366 1.6 L 1.366 1.6 L 0 1.6 L 0 0.798 C 0 0.357 0.357 0 0.798 0 L 1.6 0 L 1.6 0 L 1.6 0 Z  M 2.24 0 L 2.24 0 L 2.24 1.28 L 13.76 1.28 L 13.76 0 L 2.24 0 L 2.24 0 L 2.24 0 Z  M 14.4 0 L 14.4 0 L 14.4 1.366 L 14.4 1.366 C 14.497 1.422 14.578 1.503 14.634 1.6 L 14.634 1.6 L 16 1.6 L 16 0.798 C 16 0.357 15.643 0 15.202 0 L 15.202 0 L 14.4 0 L 14.4 0 L 14.4 0 Z  M 16 2.24 L 16 2.24 L 14.72 2.24 L 14.72 13.76 L 16 13.76 L 16 2.24 L 16 2.24 L 16 2.24 Z  M 16 14.4 L 16 14.4 L 14.634 14.4 L 14.634 14.4 C 14.578 14.497 14.497 14.578 14.4 14.634 L 14.4 14.634 L 14.4 16 L 15.202 16 C 15.643 16 16 15.643 16 15.202 L 16 15.202 L 16 14.4 L 16 14.4 L 16 14.4 Z  M 0 14.4 L 0 14.4 L 0 15.202 C 0 15.643 0.357 16 0.798 16 L 0.798 16 L 1.6 16 L 13.76 16 L 13.76 16 L 13.76 14.72 L 2.24 14.72 L 2.24 16 L 1.6 16 L 1.6 16 L 1.6 14.634 C 1.503 14.578 1.422 14.497 1.366 14.4 L 1.366 14.4 L 1.366 14.4 L 0 14.4 Z  M 0 13.76 L 0 13.76 L 1.28 13.76 L 1.28 2.24 L 0 2.24 L 0 13.76 L 0 13.76 L 0 13.76 Z " fill-rule="evenodd" fill="rgb(0,0,0)"/></g></svg>