<?xml version="1.0" standalone="no"?><!-- Generator: Gravit.io --><svg xmlns="http://www.w3.org/2000/svg" xmlns:xlink="http://www.w3.org/1999/xlink" style="isolation:isolate" viewBox="0 0 16 16" width="16" height="16"><defs><clipPath id="_clipPath_zkHO1vdIOQYH1OnvbqAMMeGAk2eK3jYS"><rect width="16" height="16"/></clipPath></defs><g clip-path="url(#_clipPath_zkHO1vdIOQYH1OnvbqAMMeGAk2eK3jYS)"><path d=" M 1.6 0 L 1.6 0 L 1.6 1.366 L 1.6 1.366 C 1.503 1.422 1.422 1.503 1.366 1.6 L 1.366 1.6 L 0 1.6 L 0 0.798 C 0 0.357 0.357 0 0.798 0 L 1.6 0 L 1.6 0 L 1.6 0 Z  M 2.24 0 L 2.24 0 L 2.24 1.28 L 13.76 1.28 L 13.76 0 L 2.24 0 L 2.24 0 L 2.24 0 Z  M 14.4 0 L 14.4 0 L 14.4 1.366 L 14.4 1.366 C 14.497 1.422 14.578 1.503 14.634 1.6 L 14.634 1.6 L 16 1.6 L 16 0.798 C 16 0.357 15.643 0 15.202 0 L 15.202 0 L 14.4 0 L 14.4 0 L 14.4 0 Z  M 16 2.24 L 16 2.24 L 14.72 2.24 L 14.72 13.76 L 16 13.76 L 16 2.24 L 16 2.24 L 16 2.24 Z  M 16 14.4 L 16 14.4 L 14.634 14.4 L 14.634 14.4 C 14.578 14.497 14.497 14.578 14.4 14.634 L 14.4 14.634 L 14.4 16 L 15.202 16 C 15.643 16 16 15.643 16 15.202 L 16 15.202 L 16 14.4 L 16 14.4 L 16 14.4 Z  M 0 14.4 L 0 14.4 L 0 15.202 C 0 15.643 0.357 16 0.798 16 L 0.798 16 L 1.6 16 L 13.76 16 L 13.76 16 L 13.76 14.72 L 2.24 14.72 L 2.24 16 L 1.6 16 L 1.6 16 L 1.6 14.634 C 1.503 14.578 1.422 14.497 1.366 14.4 L 1.366 14.4 L 1.366 14.4 L 0 14.4 Z  M 0 13.76 L 0 13.76 L 1.28 13.76 L 1.28 2.24 L 0 2.24 L 0 13.76 L 0 13.76 L 0 13.76 Z  M 6.835 8 C 6.835 7.357 7.357 6.835 8 6.835 C 8.643 6.835 9.165 7.357 9.165 8 C 9.165 8.643 8.643 9.165 8 9.165 C 7.357 9.165 6.835 8.643 6.835 8 L 6.835 8 Z  M 3.573 8 C 3.573 5.557 5.557 3.573 8 3.573 C 10.443 3.573 12.427 5.557 12.427 8 C 12.427 10.443 10.443 12.427 8 12.427 C 5.557 12.427 3.573 10.443 3.573 8 L 3.573 8 Z  M 4.738 8 C 4.738 7.564 4.825 7.132 4.995 6.731 C 5.159 6.343 5.396 5.992 5.694 5.694 C 5.992 5.396 6.343 5.159 6.731 4.995 C 7.132 4.825 7.564 4.738 8 4.738 C 8.436 4.738 8.868 4.825 9.269 4.995 C 9.657 5.159 10.008 5.396 10.306 5.694 C 10.604 5.992 10.841 6.343 11.005 6.731 C 11.175 7.132 11.262 7.564 11.262 8 C 11.262 8.436 11.175 8.868 11.005 9.269 C 10.841 9.657 10.604 10.008 10.306 10.306 C 10.008 10.604 9.657 10.841 9.269 11.005 C 8.868 11.175 8.436 11.262 8 11.262 C 7.564 11.262 7.132 11.175 6.731 11.005 C 6.343 10.841 5.992 10.604 5.694 10.306 C 5.396 10.008 5.159 9.657 4.995 9.269 C 4.825 8.868 4.738 8.436 4.738 8 L 4.738 8 Z  M 4.272 8 C 4.272 7.502 4.372 7.008 4.565 6.549 C 4.753 6.107 5.024 5.704 5.365 5.365 C 5.704 5.024 6.107 4.753 6.549 4.565 C 7.008 4.372 7.502 4.272 8 4.272 C 8.498 4.272 8.992 4.372 9.451 4.565 C 9.893 4.753 10.296 5.024 10.635 5.365 C 10.976 5.704 11.247 6.107 11.435 6.549 C 11.628 7.008 11.728 7.502 11.728 8 C 11.728 8.498 11.628 8.992 11.435 9.451 C 11.247 9.893 10.976 10.296 10.635 10.635 C 10.296 10.976 9.893 11.247 9.451 11.435 C 8.992 11.628 8.498 11.728 8 11.728 C 7.502 11.728 7.008 11.628 6.549 11.435 C 6.107 11.247 5.704 10.976 5.365 10.635 C 5.024 10.296 4.753 9.893 4.565 9.451 C 4.372 8.992 4.272 8.498 4.272 8 L 4.272 8 Z " fill-rule="evenodd" fill="rgb(0,0,0)"/></g></svg>