<?xml version="1.0" standalone="no"?><!-- Generator: Gravit.io --><svg xmlns="http://www.w3.org/2000/svg" xmlns:xlink="http://www.w3.org/1999/xlink" style="isolation:isolate" viewBox="2.4 0 11.2 16" width="11.2" height="16"><path d=" M 12 0 L 4 0 C 3.12 0 2.4 0.72 2.4 1.6 L 2.4 14.4 C 2.4 15.28 3.12 15.992 4 15.992 L 12 16 C 12.88 16 13.6 15.28 13.6 14.4 L 13.6 1.6 C 13.6 0.72 12.88 0 12 0 Z  M 8 1.6 C 8.88 1.6 9.6 2.32 9.6 3.2 C 9.6 4.08 8.88 4.8 8 4.8 C 7.112 4.8 6.4 4.08 6.4 3.2 C 6.4 2.32 7.112 1.6 8 1.6 Z  M 8 14.4 C 5.792 14.4 4 12.608 4 10.4 C 4 8.192 5.792 6.4 8 6.4 C 10.208 6.4 12 8.192 12 10.4 C 12 12.608 10.208 14.4 8 14.4 Z  M 8 8 C 6.672 8 5.6 9.072 5.6 10.4 C 5.6 11.728 6.672 12.8 8 12.8 C 9.328 12.8 10.4 11.728 10.4 10.4 C 10.4 9.072 9.328 8 8 8 Z " fill="rgb(0,0,0)"/></svg>