<?xml version="1.0" standalone="no"?><!-- Generator: Gravit.io --><svg xmlns="http://www.w3.org/2000/svg" xmlns:xlink="http://www.w3.org/1999/xlink" style="isolation:isolate" viewBox="0 0 16 16" width="16" height="16"><defs><clipPath id="_clipPath_1W8pA8jxLM1LMRh0hFIteX7AZJ9UsVa1"><rect width="16" height="16"/></clipPath></defs><g clip-path="url(#_clipPath_1W8pA8jxLM1LMRh0hFIteX7AZJ9UsVa1)"><path d=" M 4.358 10.979 C 4.358 8.969 5.99 7.337 8 7.337 C 10.01 7.337 11.642 8.969 11.642 10.979 C 11.642 12.989 10.01 14.621 8 14.621 C 5.99 14.621 4.358 12.989 4.358 10.979 L 4.358 10.979 Z  M 2.442 0 L 13.558 0 C 13.744 0 13.895 0.151 13.895 0.337 L 13.895 15.663 C 13.895 15.849 13.744 16 13.558 16 L 2.442 16 C 2.256 16 2.105 15.849 2.105 15.663 L 2.105 0.337 C 2.105 0.151 2.256 0 2.442 0 L 2.442 0 Z  M 5.684 4.032 C 5.684 2.753 6.722 1.716 8 1.716 C 9.278 1.716 10.316 2.753 10.316 4.032 C 10.316 5.31 9.278 6.347 8 6.347 C 6.722 6.347 5.684 5.31 5.684 4.032 Z  M 6.316 4.042 C 6.316 3.113 7.07 2.358 8 2.358 C 8.93 2.358 9.684 3.113 9.684 4.042 C 9.684 4.972 8.93 5.726 8 5.726 C 7.07 5.726 6.316 4.972 6.316 4.042 Z  M 5.074 11.011 C 5.074 9.395 6.385 8.084 8 8.084 C 9.615 8.084 10.926 9.395 10.926 11.011 C 10.926 12.626 9.615 13.937 8 13.937 C 6.385 13.937 5.074 12.626 5.074 11.011 Z " fill-rule="evenodd" fill="rgb(0,0,0)"/></g></svg>