<?xml version="1.0" standalone="no"?><!-- Generator: Gravit.io --><svg xmlns="http://www.w3.org/2000/svg" xmlns:xlink="http://www.w3.org/1999/xlink" style="isolation:isolate" viewBox="2.182 0 11.636 16" width="11.636" height="16"><path d=" M 7.636 8.364 C 7.636 7.36 8.451 6.545 9.455 6.545 C 10.458 6.545 11.273 7.36 11.273 8.364 C 11.273 9.367 10.458 10.182 9.455 10.182 C 8.451 10.182 7.636 9.367 7.636 8.364 Z  M 3.636 2.909 L 2.182 2.909 L 2.182 14.545 C 2.182 15.345 2.829 16 3.636 16 L 10.909 16 L 10.909 14.545 L 3.636 14.545 L 3.636 2.909 Z  M 12.509 0 L 6.4 0 C 5.68 0 5.091 0.589 5.091 1.309 L 5.091 11.782 C 5.091 12.502 5.68 13.084 6.4 13.084 L 12.509 13.091 C 13.229 13.091 13.818 12.502 13.818 11.782 L 13.818 1.309 C 13.818 0.589 13.229 0 12.509 0 Z  M 9.455 1.455 C 10.255 1.455 10.909 2.102 10.909 2.909 C 10.909 3.716 10.255 4.364 9.455 4.364 C 8.655 4.364 8 3.716 8 2.909 C 8 2.102 8.655 1.455 9.455 1.455 Z  M 9.455 11.273 C 7.847 11.273 6.545 9.971 6.545 8.364 C 6.545 6.756 7.847 5.455 9.455 5.455 C 11.062 5.455 12.364 6.756 12.364 8.364 C 12.364 9.971 11.062 11.273 9.455 11.273 Z " fill-rule="evenodd" fill="rgb(0,0,0)"/></svg>