<?xml version="1.0" standalone="no"?><!-- Generator: Gravit.io --><svg xmlns="http://www.w3.org/2000/svg" xmlns:xlink="http://www.w3.org/1999/xlink" style="isolation:isolate" viewBox="0 1.6 16 12.8" width="16" height="12.8"><path d=" M 0 14.4 L 16 14.4 L 16 11.2 L 0 11.2 L 0 14.4 Z  M 1.6 12 L 3.2 12 L 3.2 13.6 L 1.6 13.6 L 1.6 12 Z  M 0 1.6 L 0 4.8 L 16 4.8 L 16 1.6 L 0 1.6 Z  M 3.2 4 L 1.6 4 L 1.6 2.4 L 3.2 2.4 L 3.2 4 Z  M 0 9.6 L 16 9.6 L 16 6.4 L 0 6.4 L 0 9.6 Z  M 1.6 7.2 L 3.2 7.2 L 3.2 8.8 L 1.6 8.8 L 1.6 7.2 Z " fill="rgb(0,0,0)"/></svg>