<?xml version="1.0" standalone="no"?><!-- Generator: Gravit.io --><svg xmlns="http://www.w3.org/2000/svg" xmlns:xlink="http://www.w3.org/1999/xlink" style="isolation:isolate" viewBox="0 1.6 16 12.8" width="16" height="12.8"><path d=" M 14.4 1.6 L 1.6 1.6 C 0.72 1.6 0 2.32 0 3.2 L 0 12.8 C 0 13.68 0.72 14.4 1.6 14.4 L 14.4 14.4 C 15.28 14.4 16 13.68 16 12.8 L 16 3.2 C 16 2.32 15.28 1.6 14.4 1.6 Z  M 4.608 11.392 L 3.48 12.52 C 2.224 11.28 1.6 9.64 1.6 8 C 1.6 6.36 2.224 4.72 3.472 3.472 L 4.6 4.6 C 3.672 5.544 3.2 6.768 3.2 8 C 3.2 9.232 3.672 10.456 4.608 11.392 Z  M 8 11.2 C 6.232 11.2 4.8 9.768 4.8 8 C 4.8 6.232 6.232 4.8 8 4.8 C 9.768 4.8 11.2 6.232 11.2 8 C 11.2 9.768 9.768 11.2 8 11.2 Z  M 12.528 12.528 L 11.4 11.4 C 12.328 10.456 12.8 9.232 12.8 8 C 12.8 6.768 12.328 5.544 11.392 4.608 L 12.52 3.48 C 13.776 4.72 14.4 6.36 14.4 8 C 14.4 9.64 13.776 11.28 12.528 12.528 Z  M 8 6.4 C 7.12 6.4 6.4 7.12 6.4 8 C 6.4 8.88 7.12 9.6 8 9.6 C 8.88 9.6 9.6 8.88 9.6 8 C 9.6 7.12 8.88 6.4 8 6.4 Z " fill="rgb(0,0,0)"/></svg>