<?xml version="1.0" standalone="no"?><!-- Generator: Gravit.io --><svg xmlns="http://www.w3.org/2000/svg" xmlns:xlink="http://www.w3.org/1999/xlink" style="isolation:isolate" viewBox="2.182 0 11.636 16" width="11.636" height="16"><path d=" M 8 2.182 L 8 0 L 5.091 2.909 L 8 5.818 L 8 3.636 C 10.407 3.636 12.364 5.593 12.364 8 C 12.364 8.735 12.182 9.433 11.855 10.036 L 12.916 11.098 C 13.484 10.204 13.818 9.142 13.818 8 C 13.818 4.785 11.215 2.182 8 2.182 Z  M 8 12.364 C 5.593 12.364 3.636 10.407 3.636 8 C 3.636 7.265 3.818 6.567 4.145 5.964 L 3.084 4.902 C 2.516 5.796 2.182 6.858 2.182 8 C 2.182 11.215 4.785 13.818 8 13.818 L 8 16 L 10.909 13.091 L 8 10.182 L 8 12.364 Z " fill="rgb(0,0,0)"/></svg>