<?xml version="1.0" standalone="no"?><!-- Generator: Gravit.io --><svg xmlns="http://www.w3.org/2000/svg" xmlns:xlink="http://www.w3.org/1999/xlink" style="isolation:isolate" viewBox="0 1.091 16 13.819" width="16" height="13.819"><path d=" M 8.72 6.313 C 8.72 6.269 8.728 6.225 8.728 6.182 C 8.728 4.574 7.426 3.272 5.819 3.272 C 5.775 3.272 5.731 3.28 5.688 3.28 L 8.72 6.313 Z  M 4.284 3.723 L 2.378 1.818 L 1.455 2.742 L 3.36 4.647 C 3.077 5.091 2.909 5.614 2.909 6.182 C 2.909 7.789 4.211 9.091 5.819 9.091 C 6.386 9.091 6.909 8.924 7.353 8.64 L 13.623 14.909 L 14.546 13.986 L 8.277 7.716 L 4.284 3.723 Z  M 5.819 10.546 C 3.877 10.546 0 11.52 0 13.455 L 0 14.909 L 11.637 14.909 L 11.637 13.455 C 11.637 11.52 7.76 10.546 5.819 10.546 Z  M 11.462 3.534 L 10.241 4.763 C 10.852 5.622 10.852 6.734 10.241 7.593 L 11.462 8.822 C 12.932 7.353 12.932 5.134 11.462 3.534 Z  M 13.87 1.091 L 12.684 2.276 C 14.699 4.473 14.699 7.775 12.684 10.087 L 13.87 11.273 C 16.706 8.444 16.714 4.036 13.87 1.091 Z " fill="rgb(0,0,0)"/></svg>