<?xml version="1.0" standalone="no"?><!-- Generator: Gravit.io --><svg xmlns="http://www.w3.org/2000/svg" xmlns:xlink="http://www.w3.org/1999/xlink" style="isolation:isolate" viewBox="0 0 16 16" width="16" height="16"><defs><clipPath id="_clipPath_ACg8t6eZWLnyXwLP2O4tsf6TI7kYtfmm"><rect width="16" height="16"/></clipPath></defs><g clip-path="url(#_clipPath_ACg8t6eZWLnyXwLP2O4tsf6TI7kYtfmm)"><path d=" M 0 8 C 0 3.585 3.585 0 8 0 C 12.415 0 16 3.585 16 8 C 16 12.415 12.415 16 8 16 C 3.585 16 0 12.415 0 8 Z  M 1.945 11.403 L 1.945 11.403 C 1.366 10.399 1.964 8.967 3.28 8.207 L 4.708 7.382 C 4.851 7.3 5.034 7.349 5.116 7.492 L 6.918 10.613 C 7.001 10.756 6.952 10.939 6.809 11.021 L 5.381 11.845 C 4.065 12.606 2.525 12.407 1.945 11.403 L 1.945 11.403 L 1.945 11.403 Z  M 8 0.704 L 8 0.704 C 9.159 0.704 10.101 1.938 10.101 3.458 L 10.101 5.107 C 10.101 5.272 9.967 5.406 9.802 5.406 L 6.198 5.406 C 6.033 5.406 5.899 5.272 5.899 5.107 L 5.899 3.458 C 5.899 1.938 6.841 0.704 8 0.704 L 8 0.704 L 8 0.704 Z  M 6.596 8 C 6.596 7.225 7.225 6.596 8 6.596 C 8.775 6.596 9.404 7.225 9.404 8 C 9.404 8.775 8.775 9.404 8 9.404 C 7.225 9.404 6.596 8.775 6.596 8 L 6.596 8 L 6.596 8 Z  M 14.02 11.464 L 14.02 11.464 C 14.619 10.426 14.02 8.958 12.684 8.186 L 11.309 7.392 C 11.164 7.309 10.978 7.358 10.895 7.503 L 9.027 10.738 C 8.943 10.883 8.993 11.068 9.138 11.152 L 10.513 11.946 C 11.849 12.718 13.421 12.502 14.02 11.464 L 14.02 11.464 L 14.02 11.464 Z " fill-rule="evenodd" fill="rgb(0,0,0)"/></g></svg>