<?xml version="1.0" standalone="no"?><!-- Generator: Gravit.io --><svg xmlns="http://www.w3.org/2000/svg" xmlns:xlink="http://www.w3.org/1999/xlink" style="isolation:isolate" viewBox="0 0 16 16" width="16" height="16"><defs><clipPath id="_clipPath_FMfz1gxA9hIUBqK3Cz1kzVmYnOhNCO81"><rect width="16" height="16"/></clipPath></defs><g clip-path="url(#_clipPath_FMfz1gxA9hIUBqK3Cz1kzVmYnOhNCO81)"><path d=" M 8 0 C 3.582 0 0 3.582 0 8 C 0 12.418 3.582 16 8 16 C 12.418 16 16 12.418 16 8 C 16 3.582 12.418 0 8 0 Z  M 8 14.5 C 4.41 14.5 1.5 11.59 1.5 8 C 1.5 4.41 4.41 1.5 8 1.5 C 11.59 1.5 14.5 4.41 14.5 8 C 14.5 11.59 11.59 14.5 8 14.5 Z  M 5 8 C 5 6.344 6.344 5 8 5 C 9.656 5 11 6.344 11 8 C 11 9.656 9.656 11 8 11 C 6.344 11 5 9.656 5 8 Z " fill-rule="evenodd" fill="rgb(0,0,0)"/></g></svg>