<?xml version="1.0" standalone="no"?><!-- Generator: Gravit.io --><svg xmlns="http://www.w3.org/2000/svg" xmlns:xlink="http://www.w3.org/1999/xlink" style="isolation:isolate" viewBox="0 0 16 16" width="16" height="16"><path d=" M 0 12.444 L 0 14.222 L 5.333 14.222 L 5.333 12.444 L 0 12.444 Z  M 0 1.778 L 0 3.556 L 8.889 3.556 L 8.889 1.778 L 0 1.778 Z  M 8.889 16 L 8.889 14.222 L 16 14.222 L 16 12.444 L 8.889 12.444 L 8.889 10.667 L 7.111 10.667 L 7.111 16 L 8.889 16 Z  M 3.556 5.333 L 3.556 7.111 L 0 7.111 L 0 8.889 L 3.556 8.889 L 3.556 10.667 L 5.333 10.667 L 5.333 5.333 L 3.556 5.333 Z  M 16 8.889 L 16 7.111 L 7.111 7.111 L 7.111 8.889 L 16 8.889 Z  M 10.667 5.333 L 12.444 5.333 L 12.444 3.556 L 16 3.556 L 16 1.778 L 12.444 1.778 L 12.444 0 L 10.667 0 L 10.667 5.333 Z " fill="rgb(0,0,0)"/></svg>