<?xml version="1.0" standalone="no"?><!-- Generator: Gravit.io --><svg xmlns="http://www.w3.org/2000/svg" xmlns:xlink="http://www.w3.org/1999/xlink" style="isolation:isolate" viewBox="0 0 16 16" width="16" height="16"><defs><clipPath id="_clipPath_RlCgWxXbkMh6ET59L8LuIjuWFIQon9Jx"><rect width="16" height="16"/></clipPath></defs><g clip-path="url(#_clipPath_RlCgWxXbkMh6ET59L8LuIjuWFIQon9Jx)"><path d=" M 11.646 3 L 10.28 4.365 C 9.907 4.739 9.907 5.346 10.28 5.72 L 10.28 5.72 C 10.654 6.093 11.261 6.093 11.635 5.72 L 13 4.354 L 14.365 5.72 C 14.739 6.093 15.346 6.093 15.72 5.72 L 15.72 5.72 C 16.093 5.346 16.093 4.739 15.72 4.365 L 14.354 3 L 15.72 1.635 C 16.093 1.261 16.093 0.654 15.72 0.28 L 15.72 0.28 C 15.346 -0.093 14.739 -0.093 14.365 0.28 L 13 1.646 L 11.635 0.28 C 11.261 -0.093 10.654 -0.093 10.28 0.28 L 10.28 0.28 C 9.907 0.654 9.907 1.261 10.28 1.635 L 11.646 3 Z  M 2 6 L 8 6 C 9.104 6 10 6.896 10 8 L 10 14 C 10 15.104 9.104 16 8 16 L 2 16 C 0.896 16 0 15.104 0 14 L 0 8 C 0 6.896 0.896 6 2 6 Z  M 5 14.155 L 5 14.155 Q 4.15 14.155 3.554 13.909 L 3.554 13.909 L 3.554 13.909 Q 2.958 13.664 2.652 13.261 L 2.652 13.261 L 2.652 13.261 Q 2.345 12.858 2.327 12.384 L 2.327 12.384 L 2.327 12.384 Q 2.327 12.306 2.384 12.253 L 2.384 12.253 L 2.384 12.253 Q 2.441 12.2 2.52 12.2 L 2.52 12.2 L 3.686 12.2 L 3.686 12.2 Q 3.791 12.2 3.856 12.236 L 3.856 12.236 L 3.856 12.236 Q 3.922 12.271 4.001 12.358 L 4.001 12.358 L 4.001 12.358 Q 4.115 12.569 4.356 12.704 L 4.356 12.704 L 4.356 12.704 Q 4.597 12.84 5 12.84 L 5 12.84 L 5 12.84 Q 5.473 12.84 5.727 12.696 L 5.727 12.696 L 5.727 12.696 Q 5.981 12.551 5.981 12.297 L 5.981 12.297 L 5.981 12.297 Q 5.981 12.113 5.85 11.995 L 5.85 11.995 L 5.85 11.995 Q 5.719 11.876 5.429 11.784 L 5.429 11.784 L 5.429 11.784 Q 5.14 11.692 4.597 11.578 L 4.597 11.578 L 4.597 11.578 Q 3.537 11.368 3.011 10.939 L 3.011 10.939 L 3.011 10.939 Q 2.485 10.509 2.485 9.712 L 2.485 9.712 L 2.485 9.712 Q 2.485 9.169 2.787 8.744 L 2.787 8.744 L 2.787 8.744 Q 3.09 8.319 3.646 8.082 L 3.646 8.082 L 3.646 8.082 Q 4.203 7.845 4.939 7.845 L 4.939 7.845 L 4.939 7.845 Q 5.71 7.845 6.275 8.113 L 6.275 8.113 L 6.275 8.113 Q 6.84 8.38 7.142 8.779 L 7.142 8.779 L 7.142 8.779 Q 7.445 9.177 7.462 9.563 L 7.462 9.563 L 7.462 9.563 Q 7.462 9.642 7.41 9.699 L 7.41 9.699 L 7.41 9.699 Q 7.357 9.756 7.278 9.756 L 7.278 9.756 L 6.052 9.756 L 6.052 9.756 Q 5.859 9.756 5.754 9.598 L 5.754 9.598 L 5.754 9.598 Q 5.701 9.414 5.482 9.287 L 5.482 9.287 L 5.482 9.287 Q 5.263 9.16 4.939 9.16 L 4.939 9.16 L 4.939 9.16 Q 4.571 9.16 4.369 9.291 L 4.369 9.291 L 4.369 9.291 Q 4.168 9.423 4.168 9.677 L 4.168 9.677 L 4.168 9.677 Q 4.168 9.931 4.43 10.076 L 4.43 10.076 L 4.43 10.076 Q 4.693 10.22 5.412 10.369 L 5.412 10.369 L 5.412 10.369 Q 6.236 10.518 6.722 10.742 L 6.722 10.742 L 6.722 10.742 Q 7.208 10.965 7.44 11.32 L 7.44 11.32 L 7.44 11.32 Q 7.673 11.675 7.673 12.218 L 7.673 12.218 L 7.673 12.218 Q 7.673 12.814 7.331 13.252 L 7.331 13.252 L 7.331 13.252 Q 6.989 13.69 6.384 13.922 L 6.384 13.922 L 6.384 13.922 Q 5.78 14.155 5 14.155 L 5 14.155 Z " fill-rule="evenodd" fill="rgb(0,0,0)"/></g></svg>