<?xml version="1.0" standalone="no"?><!-- Generator: Gravit.io --><svg xmlns="http://www.w3.org/2000/svg" xmlns:xlink="http://www.w3.org/1999/xlink" style="isolation:isolate" viewBox="0 -0.001 16 16.001" width="16" height="16.001"><path d=" M 16 6.328 L 9.973 6.328 L 12.409 3.821 C 9.982 1.421 6.053 1.332 3.626 3.733 C 1.199 6.142 1.199 10.026 3.626 12.435 C 6.053 14.844 9.982 14.844 12.409 12.435 C 13.618 11.244 14.222 9.848 14.222 8.088 L 16 8.088 C 16 9.848 15.218 12.133 13.653 13.68 C 10.533 16.773 5.466 16.773 2.346 13.68 C -0.766 10.595 -0.792 5.582 2.328 2.497 C 5.448 -0.588 10.453 -0.588 13.573 2.497 L 16 -0.001 L 16 6.328 Z  M 8.444 4.444 L 8.444 8.222 L 11.555 10.071 L 10.915 11.146 L 7.111 8.888 L 7.111 4.444 L 8.444 4.444 Z " fill="rgb(0,0,0)"/></svg>