<?xml version="1.0" standalone="no"?><!-- Generator: Gravit.io --><svg xmlns="http://www.w3.org/2000/svg" xmlns:xlink="http://www.w3.org/1999/xlink" style="isolation:isolate" viewBox="2.642 0 10.717 16" width="10.717" height="16"><path d=" M 10.34 4.528 L 10.34 7.547 L 11.094 7.547 L 11.094 9.057 L 8.83 9.057 L 8.83 3.019 L 10.34 3.019 L 8.075 0 L 5.811 3.019 L 7.321 3.019 L 7.321 9.057 L 5.057 9.057 L 5.057 7.494 C 5.585 7.215 5.962 6.679 5.962 6.038 C 5.962 5.125 5.215 4.377 4.302 4.377 C 3.389 4.377 2.642 5.125 2.642 6.038 C 2.642 6.679 3.019 7.215 3.547 7.494 L 3.547 9.057 C 3.547 9.894 4.219 10.566 5.057 10.566 L 7.321 10.566 L 7.321 12.868 C 6.785 13.147 6.415 13.698 6.415 14.34 C 6.415 15.26 7.162 16 8.075 16 C 8.989 16 9.736 15.26 9.736 14.34 C 9.736 13.698 9.366 13.147 8.83 12.868 L 8.83 10.566 L 11.094 10.566 C 11.932 10.566 12.604 9.894 12.604 9.057 L 12.604 7.547 L 13.358 7.547 L 13.358 4.528 L 10.34 4.528 Z " fill="rgb(0,0,0)"/></svg>