<?xml version="1.0" standalone="no"?><!-- Generator: Gravit.io --><svg xmlns="http://www.w3.org/2000/svg" xmlns:xlink="http://www.w3.org/1999/xlink" style="isolation:isolate" viewBox="0 1.455 16 13.091" width="16" height="13.091"><path d=" M 14.545 1.455 L 1.455 1.455 C 0.647 1.455 0 2.102 0 2.909 L 0 11.636 C 0 12.436 0.647 13.091 1.455 13.091 L 5.091 13.091 L 5.091 14.545 L 10.909 14.545 L 10.909 13.091 L 14.545 13.091 C 15.345 13.091 15.993 12.436 15.993 11.636 L 16 2.909 C 16 2.102 15.345 1.455 14.545 1.455 Z  M 14.545 11.636 L 1.455 11.636 L 1.455 2.909 L 14.545 2.909 L 14.545 11.636 Z  M 10.909 7.273 L 5.818 10.182 L 5.818 4.364 L 10.909 7.273 Z " fill="rgb(0,0,0)"/></svg>