<?xml version="1.0" standalone="no"?><!-- Generator: Gravit.io --><svg xmlns="http://www.w3.org/2000/svg" xmlns:xlink="http://www.w3.org/1999/xlink" style="isolation:isolate" viewBox="0 3.636 16 8.727" width="16" height="8.727"><path d=" M 14.545 3.636 L 1.455 3.636 C 0.655 3.636 0 4.291 0 5.091 L 0 10.909 C 0 11.709 0.655 12.364 1.455 12.364 L 14.545 12.364 C 15.345 12.364 16 11.709 16 10.909 L 16 5.091 C 16 4.291 15.345 3.636 14.545 3.636 Z  M 7.273 8.727 L 5.091 8.727 L 5.091 10.909 L 3.636 10.909 L 3.636 8.727 L 1.455 8.727 L 1.455 7.273 L 3.636 7.273 L 3.636 5.091 L 5.091 5.091 L 5.091 7.273 L 7.273 7.273 L 7.273 8.727 Z  M 10.545 10.182 C 9.942 10.182 9.455 9.695 9.455 9.091 C 9.455 8.487 9.942 8 10.545 8 C 11.149 8 11.636 8.487 11.636 9.091 C 11.636 9.695 11.149 10.182 10.545 10.182 Z  M 13.455 8 C 12.851 8 12.364 7.513 12.364 6.909 C 12.364 6.305 12.851 5.818 13.455 5.818 C 14.058 5.818 14.545 6.305 14.545 6.909 C 14.545 7.513 14.058 8 13.455 8 Z " fill="rgb(0,0,0)"/></svg>