<?xml version="1.0" standalone="no"?><!-- Generator: Gravit.io --><svg xmlns="http://www.w3.org/2000/svg" xmlns:xlink="http://www.w3.org/1999/xlink" style="isolation:isolate" viewBox="0 0 16 16" width="16" height="16"><defs><clipPath id="_clipPath_gPU7z5tangl7hNX6HIyPUuzRWIGZF9Ne"><rect width="16" height="16"/></clipPath></defs><g clip-path="url(#_clipPath_gPU7z5tangl7hNX6HIyPUuzRWIGZF9Ne)"><path d=" M 9.062 8.335 C 9.464 8.631 9.755 9.091 9.852 9.627 L 9.852 9.627 L 9.852 9.627 L 13.407 9.627 L 13.407 4.46 L 2.593 4.46 L 2.593 4.46 L 2.593 9.627 L 6.169 9.627 C 6.338 8.691 7.099 7.985 8.011 7.985 C 8.227 7.985 8.435 8.025 8.629 8.098 L 11.064 5.394 C 11.107 5.347 11.167 5.319 11.23 5.315 C 11.294 5.312 11.356 5.334 11.403 5.377 C 11.451 5.419 11.479 5.479 11.482 5.543 C 11.486 5.606 11.464 5.668 11.421 5.716 L 9.062 8.335 Z  M 2.113 3.98 L 13.887 3.98 L 13.887 10.107 L 2.113 10.107 L 2.113 3.98 L 2.113 3.98 L 2.113 3.98 L 2.113 3.98 Z  M 0.906 2.764 L 15.094 2.764 L 15.094 13.236 L 0.906 13.236 L 0.906 2.764 L 0.906 2.764 L 0.906 2.764 Z  M 0 1.694 L 16 1.694 L 16 14.306 L 0 14.306 L 0 1.694 L 0 1.694 L 0 1.694 Z " fill-rule="evenodd" fill="rgb(0,0,0)"/></g></svg>