<?xml version="1.0" standalone="no"?><!-- Generator: Gravit.io --><svg xmlns="http://www.w3.org/2000/svg" xmlns:xlink="http://www.w3.org/1999/xlink" style="isolation:isolate" viewBox="0 0 16 16" width="16" height="16"><defs><clipPath id="_clipPath_anWauiFCc139HlrpyzSFvzeAZFFhvoFo"><rect width="16" height="16"/></clipPath></defs><g clip-path="url(#_clipPath_anWauiFCc139HlrpyzSFvzeAZFFhvoFo)"><path d=" M 4.086 2.593 L 4.919 1.76 C 5.275 1.405 5.275 0.827 4.919 0.472 L 4.714 0.267 L 4.714 0.267 C 4.359 -0.089 3.781 -0.089 3.426 0.267 L 2.593 1.099 L 1.76 0.267 C 1.405 -0.089 0.827 -0.089 0.472 0.267 L 0.267 0.472 C -0.089 0.827 -0.089 1.405 0.267 1.76 L 1.099 2.593 L 0.267 3.426 C -0.089 3.781 -0.089 4.359 0.267 4.714 L 0.472 4.919 C 0.827 5.275 1.405 5.275 1.76 4.919 L 2.593 4.086 L 3.426 4.919 C 3.781 5.275 4.359 5.275 4.714 4.919 L 4.919 4.714 C 5.275 4.359 5.275 3.781 4.919 3.426 L 4.086 2.593 Z  M 15.621 7.168 L 15.417 7.168 C 15.208 7.168 15.039 7.338 15.039 7.546 L 15.039 13.039 C 15.039 13.248 15.208 13.418 15.417 13.418 L 15.621 13.418 C 15.83 13.418 16 13.248 16 13.039 L 16 7.546 C 16 7.338 15.83 7.168 15.621 7.168 Z  M 13.957 6.059 L 13.878 6.059 C 13.634 6.059 13.437 6.257 13.437 6.5 L 13.437 14.086 C 13.437 14.329 13.634 14.527 13.878 14.527 L 13.957 14.527 C 14.201 14.527 14.398 14.329 14.398 14.086 L 14.398 6.5 C 14.398 6.257 14.201 6.059 13.957 6.059 Z  M 12.316 4.586 L 12.316 4.586 C 12.05 4.586 11.835 4.815 11.835 5.097 L 11.835 15.488 C 11.835 15.771 12.05 16 12.316 16 L 12.316 16 C 12.581 16 12.796 15.771 12.796 15.488 L 12.796 5.097 C 12.796 4.815 12.581 4.586 12.316 4.586 Z  M 10.722 5.919 L 10.657 5.919 C 10.41 5.919 10.209 6.12 10.209 6.367 L 10.209 14.219 C 10.209 14.466 10.41 14.666 10.657 14.666 L 10.722 14.666 C 10.97 14.666 11.17 14.466 11.17 14.219 L 11.17 6.367 C 11.17 6.12 10.97 5.919 10.722 5.919 Z  M 9.251 7.758 L 8.972 7.758 C 8.784 7.758 8.631 7.91 8.631 8.099 L 8.631 12.487 C 8.631 12.675 8.784 12.828 8.972 12.828 L 9.251 12.828 C 9.44 12.828 9.592 12.675 9.592 12.487 L 9.592 8.099 C 9.592 7.91 9.44 7.758 9.251 7.758 Z  M 7.753 9.301 L 7.219 9.301 C 7.101 9.301 7.005 9.397 7.005 9.515 L 7.005 11.071 C 7.005 11.189 7.101 11.284 7.219 11.284 L 7.753 11.284 C 7.871 11.284 7.966 11.189 7.966 11.071 L 7.966 9.515 C 7.966 9.397 7.871 9.301 7.753 9.301 Z  M 6.114 8.647 L 5.702 8.647 C 5.551 8.647 5.427 8.77 5.427 8.921 L 5.427 11.664 C 5.427 11.816 5.551 11.939 5.702 11.939 L 6.114 11.939 C 6.265 11.939 6.389 11.816 6.389 11.664 L 6.389 8.921 C 6.389 8.77 6.265 8.647 6.114 8.647 Z  M 4.438 7.637 L 4.174 7.637 C 3.982 7.637 3.825 7.794 3.825 7.986 L 3.825 12.599 C 3.825 12.792 3.982 12.948 4.174 12.948 L 4.438 12.948 C 4.63 12.948 4.787 12.792 4.787 12.599 L 4.787 7.986 C 4.787 7.794 4.63 7.637 4.438 7.637 Z  M 2.894 8.454 L 2.514 8.454 C 2.354 8.454 2.224 8.584 2.224 8.745 L 2.224 11.841 C 2.224 12.001 2.354 12.131 2.514 12.131 L 2.894 12.131 C 3.055 12.131 3.185 12.001 3.185 11.841 L 3.185 8.745 C 3.185 8.584 3.055 8.454 2.894 8.454 Z " fill-rule="evenodd" fill="rgb(0,0,0)"/></g></svg>