<?xml version="1.0" standalone="no"?><!-- Generator: Gravit.io --><svg xmlns="http://www.w3.org/2000/svg" xmlns:xlink="http://www.w3.org/1999/xlink" style="isolation:isolate" viewBox="0 0 16 16" width="16" height="16"><defs><clipPath id="_clipPath_t7edsz7zi06eWjEHUl6k7TlZxkSVchJa"><rect width="16" height="16"/></clipPath></defs><g clip-path="url(#_clipPath_t7edsz7zi06eWjEHUl6k7TlZxkSVchJa)"><path d=" M 4.086 2.593 L 4.919 1.76 C 5.275 1.405 5.275 0.827 4.919 0.472 L 4.714 0.267 L 4.714 0.267 C 4.359 -0.089 3.781 -0.089 3.426 0.267 L 2.593 1.099 L 1.76 0.267 C 1.405 -0.089 0.827 -0.089 0.472 0.267 L 0.267 0.472 C -0.089 0.827 -0.089 1.405 0.267 1.76 L 1.099 2.593 L 0.267 3.426 C -0.089 3.781 -0.089 4.359 0.267 4.714 L 0.472 4.919 C 0.827 5.275 1.405 5.275 1.76 4.919 L 2.593 4.086 L 3.426 4.919 C 3.781 5.275 4.359 5.275 4.714 4.919 L 4.919 4.714 C 5.275 4.359 5.275 3.781 4.919 3.426 L 4.086 2.593 Z  M 15.609 6.874 L 15.398 6.874 C 15.182 6.874 15.007 7.049 15.007 7.265 L 15.007 12.941 C 15.007 13.157 15.182 13.332 15.398 13.332 L 15.609 13.332 C 15.825 13.332 16 13.157 16 12.941 L 16 7.265 C 16 7.049 15.825 6.874 15.609 6.874 Z  M 13.889 5.729 L 13.807 5.729 C 13.556 5.729 13.352 5.933 13.352 6.184 L 13.352 14.022 C 13.352 14.274 13.556 14.478 13.807 14.478 L 13.889 14.478 C 14.141 14.478 14.345 14.274 14.345 14.022 L 14.345 6.184 C 14.345 5.933 14.141 5.729 13.889 5.729 Z  M 12.193 4.206 L 12.193 4.206 C 11.919 4.206 11.696 4.443 11.696 4.735 L 11.696 15.471 C 11.696 15.763 11.919 16 12.193 16 L 12.193 16 C 12.467 16 12.69 15.763 12.69 15.471 L 12.69 4.735 C 12.69 4.443 12.467 4.206 12.193 4.206 Z  M 10.547 5.584 L 10.479 5.584 C 10.224 5.584 10.016 5.791 10.016 6.047 L 10.016 14.159 C 10.016 14.415 10.224 14.622 10.479 14.622 L 10.547 14.622 C 10.802 14.622 11.01 14.415 11.01 14.159 L 11.01 6.047 C 11.01 5.791 10.802 5.584 10.547 5.584 Z  M 9.027 7.483 L 8.738 7.483 C 8.544 7.483 8.386 7.641 8.386 7.836 L 8.386 12.37 C 8.386 12.565 8.544 12.723 8.738 12.723 L 9.027 12.723 C 9.221 12.723 9.379 12.565 9.379 12.37 L 9.379 7.836 C 9.379 7.641 9.221 7.483 9.027 7.483 Z  M 7.479 9.079 L 6.926 9.079 C 6.805 9.079 6.706 9.177 6.706 9.299 L 6.706 10.907 C 6.706 11.029 6.805 11.128 6.926 11.128 L 7.479 11.128 C 7.6 11.128 7.699 11.029 7.699 10.907 L 7.699 9.299 C 7.699 9.177 7.6 9.079 7.479 9.079 Z  M 5.785 8.402 L 5.36 8.402 C 5.203 8.402 5.076 8.529 5.076 8.686 L 5.076 11.52 C 5.076 11.677 5.203 11.804 5.36 11.804 L 5.785 11.804 C 5.942 11.804 6.069 11.677 6.069 11.52 L 6.069 8.686 C 6.069 8.529 5.942 8.402 5.785 8.402 Z  M 4.053 7.359 L 3.781 7.359 C 3.582 7.359 3.421 7.521 3.421 7.72 L 3.421 12.486 C 3.421 12.685 3.582 12.847 3.781 12.847 L 4.053 12.847 C 4.252 12.847 4.414 12.685 4.414 12.486 L 4.414 7.72 C 4.414 7.521 4.252 7.359 4.053 7.359 Z  M 2.458 8.203 L 2.065 8.203 C 1.9 8.203 1.765 8.338 1.765 8.503 L 1.765 11.703 C 1.765 11.868 1.9 12.003 2.065 12.003 L 2.458 12.003 C 2.624 12.003 2.758 11.868 2.758 11.703 L 2.758 8.503 C 2.758 8.338 2.624 8.203 2.458 8.203 Z " fill-rule="evenodd" fill="rgb(0,0,0)"/></g></svg>