<?xml version="1.0" standalone="no"?><!-- Generator: Gravit.io --><svg xmlns="http://www.w3.org/2000/svg" xmlns:xlink="http://www.w3.org/1999/xlink" style="isolation:isolate" viewBox="0 0 16 16" width="16" height="16"><defs><clipPath id="_clipPath_qtSFMV2QXNZkYT8878uOnBJTHizTQOgF"><rect width="16" height="16"/></clipPath></defs><g clip-path="url(#_clipPath_qtSFMV2QXNZkYT8878uOnBJTHizTQOgF)"><path d=" M 4.061 2.019 L 4.061 0.881 C 4.061 0.395 3.666 0 3.18 0 L 2.9 0 L 2.9 0 C 2.414 0 2.019 0.395 2.019 0.881 L 2.019 2.019 L 0.881 2.019 C 0.395 2.019 0 2.414 0 2.9 L 0 3.18 C 0 3.666 0.395 4.061 0.881 4.061 L 2.019 4.061 L 2.019 5.199 C 2.019 5.685 2.414 6.08 2.9 6.08 L 3.18 6.08 C 3.666 6.08 4.061 5.685 4.061 5.199 L 4.061 4.061 L 5.199 4.061 C 5.685 4.061 6.08 3.666 6.08 3.18 L 6.08 2.9 C 6.08 2.414 5.685 2.019 5.199 2.019 L 4.061 2.019 Z  M 15.622 7.178 L 15.418 7.178 C 15.209 7.178 15.04 7.348 15.04 7.557 L 15.04 13.043 C 15.04 13.252 15.209 13.421 15.418 13.421 L 15.622 13.421 C 15.831 13.421 16 13.252 16 13.043 L 16 7.557 C 16 7.348 15.831 7.178 15.622 7.178 Z  M 13.96 6.071 L 13.88 6.071 C 13.637 6.071 13.44 6.268 13.44 6.511 L 13.44 14.088 C 13.44 14.331 13.637 14.528 13.88 14.528 L 13.96 14.528 C 14.203 14.528 14.4 14.331 14.4 14.088 L 14.4 6.511 C 14.4 6.268 14.203 6.071 13.96 6.071 Z  M 12.32 4.599 L 12.32 4.599 C 12.055 4.599 11.84 4.828 11.84 5.11 L 11.84 15.489 C 11.84 15.771 12.055 16 12.32 16 L 12.32 16 C 12.585 16 12.8 15.771 12.8 15.489 L 12.8 5.11 C 12.8 4.828 12.585 4.599 12.32 4.599 Z  M 10.729 5.931 L 10.663 5.931 C 10.416 5.931 10.216 6.132 10.216 6.379 L 10.216 14.221 C 10.216 14.468 10.416 14.668 10.663 14.668 L 10.729 14.668 C 10.976 14.668 11.176 14.468 11.176 14.221 L 11.176 6.379 C 11.176 6.132 10.976 5.931 10.729 5.931 Z  M 9.259 7.767 L 8.981 7.767 C 8.793 7.767 8.64 7.92 8.64 8.108 L 8.64 12.491 C 8.64 12.679 8.793 12.832 8.981 12.832 L 9.259 12.832 C 9.447 12.832 9.6 12.679 9.6 12.491 L 9.6 8.108 C 9.6 7.92 9.447 7.767 9.259 7.767 Z  M 7.763 9.309 L 7.229 9.309 C 7.111 9.309 7.016 9.405 7.016 9.522 L 7.016 11.077 C 7.016 11.195 7.111 11.29 7.229 11.29 L 7.763 11.29 C 7.881 11.29 7.976 11.195 7.976 11.077 L 7.976 9.522 C 7.976 9.405 7.881 9.309 7.763 9.309 Z  M 6.126 8.655 L 5.714 8.655 C 5.563 8.655 5.44 8.778 5.44 8.93 L 5.44 11.67 C 5.44 11.821 5.563 11.944 5.714 11.944 L 6.126 11.944 C 6.277 11.944 6.4 11.821 6.4 11.67 L 6.4 8.93 C 6.4 8.778 6.277 8.655 6.126 8.655 Z  M 4.451 7.647 L 4.189 7.647 C 3.996 7.647 3.84 7.804 3.84 7.996 L 3.84 12.603 C 3.84 12.796 3.996 12.952 4.189 12.952 L 4.451 12.952 C 4.644 12.952 4.8 12.796 4.8 12.603 L 4.8 7.996 C 4.8 7.804 4.644 7.647 4.451 7.647 Z  M 2.91 8.463 L 2.53 8.463 C 2.37 8.463 2.24 8.593 2.24 8.753 L 2.24 11.846 C 2.24 12.006 2.37 12.136 2.53 12.136 L 2.91 12.136 C 3.07 12.136 3.2 12.006 3.2 11.846 L 3.2 8.753 C 3.2 8.593 3.07 8.463 2.91 8.463 Z " fill-rule="evenodd" fill="rgb(0,0,0)"/></g></svg>