<?xml version="1.0" standalone="no"?><!-- Generator: Gravit.io --><svg xmlns="http://www.w3.org/2000/svg" xmlns:xlink="http://www.w3.org/1999/xlink" style="isolation:isolate" viewBox="0 0 16 16" width="16" height="16"><defs><clipPath id="_clipPath_wAoeSAatzYFFqaTMqgCfFhWkGTHs9EaI"><rect width="16" height="16"/></clipPath></defs><g clip-path="url(#_clipPath_wAoeSAatzYFFqaTMqgCfFhWkGTHs9EaI)"><path d=" M 15.56 4.371 L 15.323 4.371 C 15.081 4.371 14.884 4.568 14.884 4.81 L 14.884 11.19 C 14.884 11.432 15.081 11.629 15.323 11.629 L 15.56 11.629 C 15.803 11.629 16 11.432 16 11.19 L 16 4.81 C 16 4.568 15.803 4.371 15.56 4.371 Z  M 13.628 3.083 L 13.535 3.083 C 13.253 3.083 13.023 3.312 13.023 3.595 L 13.023 12.405 C 13.023 12.688 13.253 12.917 13.535 12.917 L 13.628 12.917 C 13.91 12.917 14.14 12.688 14.14 12.405 L 14.14 3.595 C 14.14 3.312 13.91 3.083 13.628 3.083 Z  M 11.721 1.372 L 11.721 1.372 C 11.413 1.372 11.163 1.638 11.163 1.966 L 11.163 14.034 C 11.163 14.362 11.413 14.628 11.721 14.628 L 11.721 14.628 C 12.029 14.628 12.279 14.362 12.279 14.034 L 12.279 1.966 C 12.279 1.638 12.029 1.372 11.721 1.372 Z  M 9.871 2.921 L 9.795 2.921 C 9.508 2.921 9.274 3.154 9.274 3.441 L 9.274 12.559 C 9.274 12.846 9.508 13.079 9.795 13.079 L 9.871 13.079 C 10.158 13.079 10.391 12.846 10.391 12.559 L 10.391 3.441 C 10.391 3.154 10.158 2.921 9.871 2.921 Z  M 8.162 5.055 L 7.838 5.055 C 7.619 5.055 7.442 5.233 7.442 5.451 L 7.442 10.549 C 7.442 10.767 7.619 10.945 7.838 10.945 L 8.162 10.945 C 8.381 10.945 8.558 10.767 8.558 10.549 L 8.558 5.451 C 8.558 5.233 8.381 5.055 8.162 5.055 Z  M 6.422 6.848 L 5.801 6.848 C 5.664 6.848 5.553 6.959 5.553 7.096 L 5.553 8.904 C 5.553 9.041 5.664 9.152 5.801 9.152 L 6.422 9.152 C 6.559 9.152 6.67 9.041 6.67 8.904 L 6.67 7.096 C 6.67 6.959 6.559 6.848 6.422 6.848 Z  M 4.518 6.088 L 4.04 6.088 C 3.864 6.088 3.721 6.231 3.721 6.407 L 3.721 9.593 C 3.721 9.769 3.864 9.912 4.04 9.912 L 4.518 9.912 C 4.694 9.912 4.837 9.769 4.837 9.593 L 4.837 6.407 C 4.837 6.231 4.694 6.088 4.518 6.088 Z  M 2.571 4.916 L 2.266 4.916 C 2.042 4.916 1.86 5.098 1.86 5.321 L 1.86 10.679 C 1.86 10.902 2.042 11.084 2.266 11.084 L 2.571 11.084 C 2.795 11.084 2.977 10.902 2.977 10.679 L 2.977 5.321 C 2.977 5.098 2.795 4.916 2.571 4.916 Z  M 0.779 5.865 L 0.337 5.865 C 0.151 5.865 0 6.016 0 6.202 L 0 9.798 C 0 9.984 0.151 10.135 0.337 10.135 L 0.779 10.135 C 0.965 10.135 1.116 9.984 1.116 9.798 L 1.116 6.202 C 1.116 6.016 0.965 5.865 0.779 5.865 Z " fill-rule="evenodd" fill="rgb(0,0,0)"/></g></svg>