<?xml version="1.0" standalone="no"?><!-- Generator: Gravit.io --><svg xmlns="http://www.w3.org/2000/svg" xmlns:xlink="http://www.w3.org/1999/xlink" style="isolation:isolate" viewBox="0 0 16 16" width="16" height="16"><defs><clipPath id="_clipPath_y4wFCqHS6s3pervtJHW1lRH0OVA4reiI"><rect width="16" height="16"/></clipPath></defs><g clip-path="url(#_clipPath_y4wFCqHS6s3pervtJHW1lRH0OVA4reiI)"><path d=" M 0.798 0 L 15.202 0 C 15.643 0 16 0.357 16 0.798 L 16 15.202 C 16 15.643 15.643 16 15.202 16 L 0.798 16 C 0.357 16 0 15.643 0 15.202 L 0 0.798 C 0 0.357 0.357 0 0.798 0 Z  M 1.92 1.28 L 14.08 1.28 C 14.433 1.28 14.72 1.567 14.72 1.92 L 14.72 14.08 C 14.72 14.433 14.433 14.72 14.08 14.72 L 1.92 14.72 C 1.567 14.72 1.28 14.433 1.28 14.08 L 1.28 1.92 C 1.28 1.567 1.567 1.28 1.92 1.28 Z  M 11.25 10.5 L 8.75 10.5 L 8.75 4.892 L 8.75 4.733 L 8.75 4.733 L 8.75 4.608 C 8.75 4.272 8.478 4 8.142 4 L 8.017 4 L 8.017 4 L 7.983 4 L 7.983 4 L 4.017 4 L 4.017 4 L 3.983 4 L 3.983 4 L 3.858 4 L 3.858 4 C 3.522 4 3.25 4.272 3.25 4.608 L 3.25 4.733 L 3.25 4.733 L 3.25 4.892 L 3.25 11.267 C 3.25 11.671 3.579 12 3.983 12 L 4.017 12 C 4.421 12 4.75 11.671 4.75 11.267 L 4.75 5.5 L 7.25 5.5 L 7.25 11.108 L 7.25 11.267 L 7.25 11.267 L 7.25 11.392 C 7.25 11.728 7.522 12 7.858 12 L 7.983 12 L 7.983 12 L 8.017 12 L 8.017 12 L 11.983 12 L 11.983 12 L 12.017 12 L 12.017 12 L 12.142 12 C 12.478 12 12.75 11.728 12.75 11.392 L 12.75 11.267 L 12.75 11.108 L 12.75 11.108 L 12.75 4.733 C 12.75 4.329 12.421 4 12.017 4 L 11.983 4 C 11.579 4 11.25 4.329 11.25 4.733 L 11.25 10.5 Z " fill-rule="evenodd" fill="rgb(0,0,0)"/></g></svg>