<?xml version="1.0" standalone="no"?><!-- Generator: Gravit.io --><svg xmlns="http://www.w3.org/2000/svg" xmlns:xlink="http://www.w3.org/1999/xlink" style="isolation:isolate" viewBox="0 0 16 16" width="16" height="16"><defs><clipPath id="_clipPath_fEbPV0gqCyiYkioSvVvUSlFa5YH30PSV"><rect width="16" height="16"/></clipPath></defs><g clip-path="url(#_clipPath_fEbPV0gqCyiYkioSvVvUSlFa5YH30PSV)"><path d=" M 4.296 4.2 M 0 0 L 0 0 M 7.84 5.504 M 8 3.417 C 7.925 3.411 7.849 3.416 7.775 3.435 C 7.606 3.478 7.463 3.585 7.377 3.734 L 2.836 11.599 C 2.75 11.748 2.729 11.926 2.776 12.094 C 2.824 12.262 2.936 12.406 3.089 12.494 C 3.243 12.582 3.423 12.608 3.593 12.565 C 3.762 12.522 3.905 12.415 3.991 12.266 L 8 5.322 L 12.009 12.266 C 12.095 12.415 12.238 12.522 12.407 12.565 C 12.577 12.608 12.757 12.582 12.911 12.494 C 13.064 12.406 13.176 12.262 13.224 12.094 C 13.271 11.926 13.25 11.748 13.164 11.599 L 8.623 3.734 C 8.537 3.585 8.394 3.478 8.225 3.435 C 8.151 3.416 8.075 3.411 8 3.417 Z  M 0.798 0 L 15.202 0 C 15.643 0 16 0.357 16 0.798 L 16 15.202 C 16 15.643 15.643 16 15.202 16 L 0.798 16 C 0.357 16 0 15.643 0 15.202 L 0 0.798 C 0 0.357 0.357 0 0.798 0 Z  M 1.92 1.28 L 14.08 1.28 C 14.433 1.28 14.72 1.567 14.72 1.92 L 14.72 14.08 C 14.72 14.433 14.433 14.72 14.08 14.72 L 1.92 14.72 C 1.567 14.72 1.28 14.433 1.28 14.08 L 1.28 1.92 C 1.28 1.567 1.567 1.28 1.92 1.28 Z " fill-rule="evenodd" fill="rgb(0,0,0)"/></g></svg>