<?xml version="1.0" standalone="no"?><!-- Generator: Gravit.io --><svg xmlns="http://www.w3.org/2000/svg" xmlns:xlink="http://www.w3.org/1999/xlink" style="isolation:isolate" viewBox="0 0 16 16" width="16" height="16"><defs><clipPath id="_clipPath_7HSmVBIVS3y8MkmbI9J5jJzh0bWzmem8"><rect width="16" height="16"/></clipPath></defs><g clip-path="url(#_clipPath_7HSmVBIVS3y8MkmbI9J5jJzh0bWzmem8)"><rect width="16" height="16" style="fill:rgb(0,0,0)" fill-opacity="0"/><path d=" M 6.094 3.445 C 6.073 3.421 6.051 3.397 6.027 3.376 C 5.902 3.263 5.732 3.2 5.556 3.2 C 5.379 3.2 5.209 3.263 5.084 3.376 C 4.959 3.488 4.889 3.641 4.889 3.8 L 4.889 12.2 C 4.889 12.359 4.959 12.512 5.084 12.624 C 5.209 12.737 5.379 12.8 5.556 12.8 C 5.732 12.8 5.902 12.737 6.027 12.624 C 6.152 12.512 6.222 12.359 6.222 12.2 L 6.222 6.239 L 6.146 3.522 C 6.141 3.512 6.135 3.503 6.129 3.494 C 6.121 3.482 6.113 3.471 6.105 3.46 C 6.101 3.455 6.097 3.45 6.094 3.445 Z  M 0.798 0 L 15.202 0 C 15.643 0 16 0.357 16 0.798 L 16 15.202 C 16 15.643 15.643 16 15.202 16 L 0.798 16 C 0.357 16 0 15.643 0 15.202 L 0 0.798 C 0 0.357 0.357 0 0.798 0 Z  M 1.92 1.28 L 14.08 1.28 C 14.433 1.28 14.72 1.567 14.72 1.92 L 14.72 14.08 C 14.72 14.433 14.433 14.72 14.08 14.72 L 1.92 14.72 C 1.567 14.72 1.28 14.433 1.28 14.08 L 1.28 1.92 C 1.28 1.567 1.567 1.28 1.92 1.28 Z " fill-rule="evenodd" fill="rgb(0,0,0)"/></g></svg>