<?xml version="1.0" standalone="no"?><!-- Generator: Gravit.io --><svg xmlns="http://www.w3.org/2000/svg" xmlns:xlink="http://www.w3.org/1999/xlink" style="isolation:isolate" viewBox="0 0 16 16" width="16" height="16"><defs><clipPath id="_clipPath_DwCQ0wHT0fjS64OYHrzAcDJC0K3mFL64"><rect width="16" height="16"/></clipPath></defs><g clip-path="url(#_clipPath_DwCQ0wHT0fjS64OYHrzAcDJC0K3mFL64)"><rect width="16" height="16" style="fill:rgb(0,0,0)" fill-opacity="0"/><path d=" M 1.92 1.28 L 14.08 1.28 C 14.433 1.28 14.72 1.567 14.72 1.92 L 14.72 14.08 C 14.72 14.433 14.433 14.72 14.08 14.72 L 1.92 14.72 C 1.567 14.72 1.28 14.433 1.28 14.08 L 1.28 1.92 C 1.28 1.567 1.567 1.28 1.92 1.28 L 1.92 1.28 Z  M 0.798 0 L 15.202 0 C 15.643 0 16 0.357 16 0.798 L 16 15.202 C 16 15.643 15.643 16 15.202 16 L 0.798 16 C 0.357 16 0 15.643 0 15.202 L 0 0.798 C 0 0.357 0.357 0 0.798 0 L 0.798 0 Z  M 7.447 12.247 C 7.445 12.232 7.444 12.216 7.444 12.2 L 7.444 12.183 L 7.444 4.433 L 7.444 4.433 L 4.311 4.433 L 4.311 12.2 C 4.311 12.359 4.253 12.512 4.149 12.624 C 4.044 12.737 3.903 12.8 3.756 12.8 C 3.608 12.8 3.467 12.737 3.363 12.624 C 3.259 12.512 3.2 12.359 3.2 12.2 L 3.2 3.817 L 3.2 3.8 L 3.2 3.8 L 3.2 3.8 C 3.2 3.784 3.201 3.768 3.202 3.753 L 3.202 3.753 C 3.21 3.612 3.244 3.481 3.298 3.38 C 3.361 3.265 3.446 3.2 3.535 3.2 L 3.756 3.2 L 8 3.2 L 8.221 3.2 C 8.31 3.2 8.395 3.265 8.458 3.38 C 8.512 3.481 8.546 3.612 8.553 3.753 C 8.555 3.768 8.556 3.784 8.556 3.8 L 8.556 3.817 L 8.556 11.567 L 11.689 11.567 L 11.689 3.8 L 11.689 3.8 L 11.689 3.8 C 11.689 3.641 11.747 3.488 11.851 3.376 C 11.956 3.263 12.097 3.2 12.244 3.2 C 12.392 3.2 12.533 3.263 12.637 3.376 C 12.741 3.488 12.8 3.641 12.8 3.8 L 12.8 12.183 L 12.8 12.2 C 12.8 12.216 12.799 12.232 12.798 12.247 C 12.79 12.388 12.756 12.519 12.702 12.62 C 12.639 12.735 12.554 12.8 12.465 12.8 L 12.244 12.8 L 8 12.8 L 7.779 12.8 C 7.69 12.8 7.605 12.735 7.542 12.62 C 7.488 12.519 7.454 12.388 7.447 12.247 Z " fill-rule="evenodd" fill="rgb(0,0,0)"/></g></svg>