<?xml version="1.0" standalone="no"?><!-- Generator: Gravit.io --><svg xmlns="http://www.w3.org/2000/svg" xmlns:xlink="http://www.w3.org/1999/xlink" style="isolation:isolate" viewBox="0 0 16 16" width="16" height="16"><defs><clipPath id="_clipPath_PLJ2yxUx9fY4dwenlIhh9oSz2ioSElDY"><rect width="16" height="16"/></clipPath></defs><g clip-path="url(#_clipPath_PLJ2yxUx9fY4dwenlIhh9oSz2ioSElDY)"><path d=" M 7.321 8.244 C 7.322 8.376 7.325 8.509 7.33 8.642 C 7.339 8.877 7.354 9.111 7.376 9.344 C 7.383 9.419 7.391 9.495 7.4 9.57 C 7.408 9.64 7.417 9.711 7.427 9.781 C 7.441 9.88 7.456 9.978 7.473 10.076 C 7.489 10.165 7.507 10.254 7.526 10.343 C 7.553 10.467 7.583 10.589 7.618 10.711 C 7.648 10.819 7.682 10.926 7.72 11.031 C 7.775 11.182 7.838 11.33 7.911 11.474 C 7.973 11.599 8.045 11.719 8.126 11.835 C 8.152 11.871 8.178 11.907 8.206 11.942 C 8.232 11.976 8.26 12.01 8.288 12.042 C 8.325 12.085 8.364 12.127 8.405 12.168 C 8.444 12.207 8.485 12.245 8.528 12.282 C 8.628 12.367 8.737 12.444 8.854 12.511 C 8.968 12.577 9.089 12.632 9.215 12.676 C 9.342 12.72 9.474 12.752 9.609 12.773 C 9.743 12.792 9.879 12.802 10.016 12.8 C 10.153 12.802 10.29 12.792 10.426 12.772 C 10.561 12.752 10.695 12.719 10.823 12.674 C 10.95 12.629 11.072 12.573 11.187 12.506 C 11.304 12.438 11.414 12.359 11.514 12.272 C 11.596 12.201 11.672 12.125 11.741 12.045 C 11.815 11.958 11.884 11.868 11.946 11.774 C 12.018 11.666 12.082 11.554 12.138 11.44 C 12.202 11.307 12.259 11.173 12.309 11.036 C 12.388 10.817 12.452 10.594 12.5 10.368 C 12.562 10.073 12.61 9.776 12.642 9.478 C 12.669 9.227 12.687 8.976 12.698 8.724 C 12.71 8.414 12.714 8.103 12.711 7.794 C 12.709 7.633 12.635 7.48 12.506 7.368 C 12.377 7.256 12.204 7.194 12.023 7.195 C 11.843 7.197 11.67 7.263 11.544 7.377 C 11.418 7.492 11.348 7.646 11.35 7.806 C 11.354 8.098 11.35 8.389 11.338 8.68 C 11.328 8.908 11.312 9.136 11.287 9.363 C 11.259 9.625 11.218 9.885 11.163 10.144 C 11.125 10.321 11.076 10.495 11.014 10.666 C 10.978 10.765 10.936 10.862 10.89 10.958 C 10.856 11.027 10.817 11.095 10.774 11.161 C 10.74 11.212 10.702 11.261 10.661 11.309 C 10.631 11.344 10.599 11.377 10.563 11.407 C 10.525 11.44 10.484 11.47 10.439 11.496 C 10.403 11.517 10.365 11.534 10.325 11.548 C 10.284 11.563 10.242 11.573 10.198 11.579 C 10.146 11.587 10.092 11.591 10.039 11.591 C 10.035 11.591 10.032 11.591 10.029 11.591 C 10.025 11.591 10.02 11.591 10.016 11.591 C 10.008 11.591 10 11.591 9.993 11.591 C 9.94 11.591 9.887 11.588 9.834 11.58 C 9.791 11.573 9.749 11.563 9.708 11.549 C 9.668 11.536 9.631 11.518 9.595 11.498 C 9.551 11.472 9.51 11.443 9.473 11.411 C 9.455 11.396 9.437 11.38 9.421 11.363 C 9.402 11.344 9.383 11.324 9.366 11.304 C 9.351 11.288 9.338 11.271 9.324 11.254 C 9.309 11.235 9.295 11.215 9.281 11.195 C 9.233 11.127 9.19 11.056 9.153 10.982 C 9.101 10.878 9.056 10.771 9.016 10.663 C 8.987 10.582 8.961 10.5 8.938 10.417 C 8.909 10.317 8.884 10.216 8.862 10.114 C 8.846 10.039 8.831 9.964 8.818 9.889 C 8.803 9.803 8.789 9.718 8.777 9.632 C 8.768 9.57 8.76 9.508 8.753 9.446 C 8.745 9.378 8.738 9.31 8.732 9.243 C 8.712 9.03 8.698 8.817 8.69 8.604 C 8.684 8.44 8.681 8.275 8.681 8.111 C 8.681 8.037 8.681 7.964 8.68 7.89 C 8.68 7.862 8.681 7.834 8.681 7.806 C 8.681 7.79 8.68 7.773 8.679 7.756 C 8.678 7.624 8.675 7.491 8.67 7.358 C 8.661 7.123 8.646 6.889 8.624 6.656 C 8.617 6.581 8.609 6.505 8.6 6.43 C 8.592 6.36 8.583 6.289 8.573 6.219 C 8.559 6.12 8.544 6.022 8.527 5.924 C 8.511 5.835 8.493 5.746 8.474 5.657 C 8.447 5.533 8.417 5.411 8.382 5.289 C 8.352 5.181 8.318 5.074 8.28 4.969 C 8.225 4.818 8.162 4.67 8.089 4.526 C 8.027 4.401 7.955 4.281 7.874 4.165 C 7.848 4.129 7.822 4.093 7.794 4.058 C 7.768 4.024 7.74 3.99 7.712 3.958 C 7.675 3.915 7.636 3.873 7.595 3.832 C 7.556 3.793 7.515 3.755 7.472 3.718 C 7.372 3.633 7.263 3.556 7.146 3.489 C 7.032 3.423 6.911 3.368 6.785 3.324 C 6.658 3.28 6.526 3.248 6.391 3.227 C 6.257 3.208 6.121 3.198 5.984 3.2 C 5.847 3.198 5.71 3.208 5.574 3.228 C 5.439 3.248 5.305 3.281 5.177 3.326 C 5.05 3.371 4.928 3.427 4.813 3.494 C 4.696 3.562 4.586 3.641 4.486 3.728 C 4.404 3.799 4.328 3.875 4.259 3.955 C 4.185 4.042 4.116 4.132 4.054 4.226 C 3.982 4.334 3.918 4.446 3.862 4.56 C 3.798 4.693 3.741 4.827 3.691 4.964 C 3.612 5.183 3.548 5.406 3.5 5.632 C 3.438 5.927 3.39 6.224 3.358 6.522 C 3.331 6.773 3.313 7.024 3.302 7.276 C 3.29 7.586 3.286 7.897 3.289 8.206 C 3.291 8.367 3.365 8.52 3.494 8.632 C 3.623 8.744 3.796 8.806 3.977 8.805 C 4.157 8.803 4.33 8.737 4.456 8.623 C 4.582 8.508 4.652 8.354 4.65 8.194 C 4.646 7.902 4.65 7.611 4.662 7.32 C 4.672 7.092 4.688 6.864 4.713 6.637 C 4.741 6.375 4.782 6.115 4.837 5.856 C 4.875 5.679 4.924 5.505 4.986 5.334 C 5.022 5.235 5.064 5.138 5.11 5.042 C 5.144 4.973 5.183 4.905 5.226 4.839 C 5.26 4.788 5.298 4.739 5.339 4.691 C 5.369 4.656 5.401 4.623 5.437 4.593 C 5.475 4.56 5.516 4.53 5.561 4.504 C 5.597 4.483 5.635 4.466 5.675 4.452 C 5.716 4.437 5.758 4.427 5.802 4.421 C 5.854 4.413 5.908 4.409 5.961 4.409 C 5.965 4.409 5.968 4.409 5.971 4.409 C 5.975 4.409 5.98 4.409 5.984 4.409 C 5.992 4.409 6 4.409 6.007 4.409 C 6.06 4.409 6.113 4.412 6.166 4.42 C 6.209 4.427 6.251 4.437 6.292 4.451 C 6.332 4.464 6.369 4.482 6.405 4.502 C 6.449 4.528 6.49 4.557 6.527 4.589 C 6.545 4.604 6.563 4.62 6.579 4.637 C 6.598 4.656 6.617 4.676 6.634 4.696 C 6.649 4.712 6.662 4.729 6.676 4.746 C 6.691 4.765 6.705 4.785 6.719 4.805 C 6.767 4.873 6.81 4.944 6.847 5.018 C 6.899 5.122 6.944 5.229 6.984 5.337 C 7.013 5.418 7.039 5.5 7.062 5.583 C 7.091 5.683 7.116 5.784 7.138 5.886 C 7.154 5.961 7.169 6.036 7.182 6.111 C 7.197 6.197 7.211 6.282 7.223 6.368 C 7.232 6.43 7.24 6.492 7.247 6.554 C 7.255 6.622 7.262 6.69 7.268 6.757 C 7.288 6.97 7.302 7.183 7.31 7.396 C 7.316 7.56 7.319 7.725 7.319 7.889 C 7.319 7.963 7.319 8.036 7.32 8.11 C 7.32 8.138 7.319 8.166 7.319 8.194 C 7.319 8.21 7.32 8.227 7.321 8.244 Z  M 0.798 0 L 15.202 0 C 15.643 0 16 0.357 16 0.798 L 16 15.202 C 16 15.643 15.643 16 15.202 16 L 0.798 16 C 0.357 16 0 15.643 0 15.202 L 0 0.798 C 0 0.357 0.357 0 0.798 0 Z  M 1.92 1.28 L 14.08 1.28 C 14.433 1.28 14.72 1.567 14.72 1.92 L 14.72 14.08 C 14.72 14.433 14.433 14.72 14.08 14.72 L 1.92 14.72 C 1.567 14.72 1.28 14.433 1.28 14.08 L 1.28 1.92 C 1.28 1.567 1.567 1.28 1.92 1.28 Z " fill-rule="evenodd" fill="rgb(0,0,0)"/></g></svg>