<?xml version="1.0" standalone="no"?><!-- Generator: Gravit.io --><svg xmlns="http://www.w3.org/2000/svg" xmlns:xlink="http://www.w3.org/1999/xlink" style="isolation:isolate" viewBox="0 0 16 16" width="16" height="16"><defs><clipPath id="_clipPath_Ji2jXTKfHZDNDUzjNa08x2IV67XsDFzV"><rect width="16" height="16"/></clipPath></defs><g clip-path="url(#_clipPath_Ji2jXTKfHZDNDUzjNa08x2IV67XsDFzV)"><path d=" M 9.906 3.445 C 9.927 3.421 9.949 3.397 9.973 3.376 C 10.098 3.263 10.268 3.2 10.444 3.2 C 10.621 3.2 10.791 3.263 10.916 3.376 C 11.041 3.488 11.111 3.641 11.111 3.8 L 11.111 12.2 C 11.111 12.359 11.041 12.512 10.916 12.624 C 10.791 12.737 10.621 12.8 10.444 12.8 C 10.268 12.8 10.098 12.737 9.973 12.624 C 9.848 12.512 9.778 12.359 9.778 12.2 L 9.778 6.239 L 6.146 12.478 C 6.064 12.619 5.923 12.725 5.754 12.773 C 5.586 12.82 5.403 12.805 5.246 12.732 C 5.09 12.658 4.972 12.531 4.919 12.379 C 4.867 12.227 4.883 12.062 4.965 11.922 L 9.854 3.522 C 9.859 3.512 9.865 3.503 9.871 3.494 C 9.879 3.482 9.887 3.471 9.895 3.46 C 9.899 3.455 9.903 3.45 9.906 3.445 Z  M 15.202 0 L 0.798 0 C 0.357 0 0 0.357 0 0.798 L 0 15.202 C 0 15.643 0.357 16 0.798 16 L 15.202 16 C 15.643 16 16 15.643 16 15.202 L 16 0.798 C 16 0.357 15.643 0 15.202 0 Z  M 14.08 1.28 L 1.92 1.28 C 1.567 1.28 1.28 1.567 1.28 1.92 L 1.28 14.08 C 1.28 14.433 1.567 14.72 1.92 14.72 L 14.08 14.72 C 14.433 14.72 14.72 14.433 14.72 14.08 L 14.72 1.92 C 14.72 1.567 14.433 1.28 14.08 1.28 Z " fill-rule="evenodd" fill="rgb(0,0,0)"/></g></svg>