<?xml version="1.0" standalone="no"?><!-- Generator: Gravit.io --><svg xmlns="http://www.w3.org/2000/svg" xmlns:xlink="http://www.w3.org/1999/xlink" style="isolation:isolate" viewBox="0 0 16 16" width="16" height="16"><path d=" M 10.667 0 L 12.711 2.044 L 10.142 4.596 L 11.404 5.858 L 13.956 3.289 L 16 5.333 L 16 0 L 10.667 0 Z  M 0 5.333 L 2.044 3.289 L 4.596 5.858 L 5.858 4.596 L 3.289 2.044 L 5.333 0 L 0 0 L 0 5.333 Z  M 5.333 16 L 3.289 13.956 L 5.858 11.404 L 4.596 10.142 L 2.044 12.711 L 0 10.667 L 0 16 L 5.333 16 Z  M 16 10.667 L 13.956 12.711 L 11.404 10.142 L 10.142 11.404 L 12.711 13.956 L 10.667 16 L 16 16 L 16 10.667 Z " fill="rgb(0,0,0)"/></svg>