<?xml version="1.0" standalone="no"?><!-- Generator: Gravit.io --><svg xmlns="http://www.w3.org/2000/svg" xmlns:xlink="http://www.w3.org/1999/xlink" style="isolation:isolate" viewBox="0 0 16 16" width="16" height="16"><path d=" M 11.435 10.063 L 10.712 10.063 L 10.456 9.816 C 11.353 8.773 11.893 7.419 11.893 5.946 C 11.893 2.662 9.23 0 5.946 0 C 2.662 0 0 2.662 0 5.946 C 0 9.23 2.662 11.893 5.946 11.893 C 7.419 11.893 8.773 11.353 9.816 10.456 L 10.063 10.712 L 10.063 11.435 L 14.637 16 L 16 14.637 L 11.435 10.063 Z  M 5.946 10.063 C 3.668 10.063 1.83 8.224 1.83 5.946 C 1.83 3.668 3.668 1.83 5.946 1.83 C 8.224 1.83 10.063 3.668 10.063 5.946 C 10.063 8.224 8.224 10.063 5.946 10.063 Z  M 3.659 5.489 L 8.233 5.489 L 8.233 6.404 L 3.659 6.404 L 3.659 5.489 Z " fill="rgb(0,0,0)"/></svg>